G04 #@! TF.GenerationSoftware,KiCad,Pcbnew,9.0.4*
G04 #@! TF.CreationDate,2025-09-15T12:20:14-04:00*
G04 #@! TF.ProjectId,zen,7a656e2e-6b69-4636-9164-5f7063625858,rev?*
G04 #@! TF.SameCoordinates,Original*
G04 #@! TF.FileFunction,Profile,NP*
%FSLAX46Y46*%
G04 Gerber Fmt 4.6, Leading zero omitted, Abs format (unit mm)*
G04 Created by KiCad (PCBNEW 9.0.4) date 2025-09-15 12:20:14*
%MOMM*%
%LPD*%
G01*
G04 APERTURE LIST*
G04 #@! TA.AperFunction,Profile*
%ADD10C,0.050000*%
G04 #@! TD*
G04 #@! TA.AperFunction,Profile*
%ADD11C,0.100000*%
G04 #@! TD*
G04 APERTURE END LIST*
D10*
X181604406Y-188000000D02*
X166104406Y-179000000D01*
X113354406Y-179250000D02*
G75*
G02*
X90578058Y-185515683I-12250006J0D01*
G01*
X220000000Y-122750000D02*
X220000000Y-128250000D01*
X307000000Y-174500000D02*
X324750000Y-179250000D01*
X166104406Y-179000000D02*
X149354406Y-174500000D01*
X149354406Y-174500000D02*
X131104406Y-174500000D01*
X218000000Y-122750000D02*
X218000000Y-128250000D01*
X181604406Y-188000000D02*
X190604406Y-172500000D01*
X220000001Y-111750000D02*
X220000000Y-116250000D01*
X220000000Y-104000000D02*
X220000001Y-105250000D01*
X190604406Y-172500000D02*
X202046837Y-168819272D01*
X152104406Y-104000000D02*
X218000000Y-104000000D01*
X218000001Y-105250000D02*
X218000000Y-104000000D01*
X116854406Y-105500000D02*
X116854406Y-96750000D01*
X320874220Y-105500000D02*
X320874220Y-96750000D01*
X347526338Y-185515675D02*
X355750000Y-169750000D01*
X288750000Y-174500000D02*
X307000000Y-174500000D01*
X90578068Y-185515675D02*
X82354406Y-169750000D01*
X134354406Y-96750000D02*
X134354406Y-104000000D01*
X98854406Y-105500000D02*
X116854406Y-105500000D01*
X220000000Y-140250000D02*
X220000000Y-134750000D01*
X339250000Y-115500000D02*
X339250000Y-105500000D01*
X217999999Y-147265677D02*
X218000000Y-146750000D01*
X303374220Y-104000000D02*
X286000000Y-104000000D01*
X218000000Y-134750000D02*
X218000000Y-140250000D01*
X355750000Y-169750000D02*
X362000000Y-118500000D01*
X131104406Y-174500000D02*
X113354406Y-179250000D01*
X218000000Y-147265677D02*
G75*
G02*
X202046900Y-168819275I-22895600J265677D01*
G01*
X339250000Y-105500000D02*
X320874220Y-105500000D01*
X347526338Y-185515677D02*
G75*
G02*
X324750000Y-179250000I-10526338J6265677D01*
G01*
X236026317Y-168917293D02*
G75*
G02*
X220000000Y-147000000I6973683J21917293D01*
G01*
X116854406Y-96750000D02*
X134354406Y-96750000D01*
X82354406Y-169750000D02*
X76104406Y-118500000D01*
X256500000Y-188000000D02*
X272000000Y-179000000D01*
X247500000Y-172500000D02*
X236026317Y-168917292D01*
X220000000Y-147000000D02*
X220000000Y-146750000D01*
X134354406Y-104000000D02*
X152104406Y-104000000D01*
X218000001Y-111750000D02*
X218000001Y-116250000D01*
X362000000Y-118500000D02*
X339250000Y-115500000D01*
X76104406Y-118500000D02*
X98854406Y-115500000D01*
X272000000Y-179000000D02*
X288750000Y-174500000D01*
X286000000Y-104000000D02*
X220000000Y-104000000D01*
X256500000Y-188000000D02*
X247500000Y-172500000D01*
X320874220Y-96750000D02*
X303374220Y-96750000D01*
X98854406Y-115500000D02*
X98854406Y-105500000D01*
X303374220Y-96750000D02*
X303374220Y-104000000D01*
D11*
X220000001Y-105250000D02*
G75*
G02*
X218000001Y-105250000I-1000000J0D01*
G01*
X218000001Y-111750000D02*
G75*
G02*
X220000001Y-111750000I1000000J0D01*
G01*
X220000000Y-116250000D02*
G75*
G02*
X218000000Y-116250000I-1000000J0D01*
G01*
X218000000Y-122750000D02*
G75*
G02*
X220000000Y-122750000I1000000J0D01*
G01*
X220000000Y-140250000D02*
G75*
G02*
X218000000Y-140250000I-1000000J0D01*
G01*
X218000000Y-146750000D02*
G75*
G02*
X220000000Y-146750000I1000000J0D01*
G01*
X220000000Y-128250000D02*
G75*
G02*
X218000000Y-128250000I-1000000J0D01*
G01*
X218000000Y-134750000D02*
G75*
G02*
X220000000Y-134750000I1000000J0D01*
G01*
M02*
