G04 #@! TF.GenerationSoftware,KiCad,Pcbnew,9.0.4*
G04 #@! TF.CreationDate,2025-09-15T12:20:14-04:00*
G04 #@! TF.ProjectId,zen,7a656e2e-6b69-4636-9164-5f7063625858,rev?*
G04 #@! TF.SameCoordinates,Original*
G04 #@! TF.FileFunction,Paste,Bot*
G04 #@! TF.FilePolarity,Positive*
%FSLAX46Y46*%
G04 Gerber Fmt 4.6, Leading zero omitted, Abs format (unit mm)*
G04 Created by KiCad (PCBNEW 9.0.4) date 2025-09-15 12:20:14*
%MOMM*%
%LPD*%
G01*
G04 APERTURE LIST*
G04 Aperture macros list*
%AMRoundRect*
0 Rectangle with rounded corners*
0 $1 Rounding radius*
0 $2 $3 $4 $5 $6 $7 $8 $9 X,Y pos of 4 corners*
0 Add a 4 corners polygon primitive as box body*
4,1,4,$2,$3,$4,$5,$6,$7,$8,$9,$2,$3,0*
0 Add four circle primitives for the rounded corners*
1,1,$1+$1,$2,$3*
1,1,$1+$1,$4,$5*
1,1,$1+$1,$6,$7*
1,1,$1+$1,$8,$9*
0 Add four rect primitives between the rounded corners*
20,1,$1+$1,$2,$3,$4,$5,0*
20,1,$1+$1,$4,$5,$6,$7,0*
20,1,$1+$1,$6,$7,$8,$9,0*
20,1,$1+$1,$8,$9,$2,$3,0*%
G04 Aperture macros list end*
%ADD10RoundRect,0.250000X-0.231079X-0.683083X0.541662X-0.476028X0.231079X0.683083X-0.541662X0.476028X0*%
%ADD11RoundRect,0.250000X-0.400000X-0.600000X0.400000X-0.600000X0.400000X0.600000X-0.400000X0.600000X0*%
%ADD12RoundRect,0.250000X-0.541662X-0.476028X0.231079X-0.683083X0.541662X0.476028X-0.231079X0.683083X0*%
%ADD13RoundRect,0.250000X-0.046410X-0.719615X0.646410X-0.319615X0.046410X0.719615X-0.646410X0.319615X0*%
%ADD14RoundRect,0.250000X-0.323897X-0.644275X0.470140X-0.546780X0.323897X0.644275X-0.470140X0.546780X0*%
%ADD15RoundRect,0.250000X-0.470140X-0.546780X0.323897X-0.644275X0.470140X0.546780X-0.323897X0.644275X0*%
%ADD16RoundRect,0.250000X-0.646410X-0.319615X0.046410X-0.719615X0.646410X0.319615X-0.046410X0.719615X0*%
G04 APERTURE END LIST*
D10*
X119784959Y-162190734D03*
X116404219Y-163096600D03*
D11*
X137890000Y-159650000D03*
X141390000Y-159650000D03*
D12*
X159144286Y-161830621D03*
X162525026Y-162736487D03*
D13*
X259120545Y-171151379D03*
X256089457Y-172901379D03*
D10*
X278890979Y-163398919D03*
X275510239Y-164304785D03*
D14*
X86274507Y-119309564D03*
X82800595Y-119736106D03*
X88376754Y-136430985D03*
X84902842Y-136857527D03*
X90479000Y-153552406D03*
X87005088Y-153978948D03*
D12*
X320882903Y-164364785D03*
X317502163Y-163458919D03*
D15*
X350314710Y-155406114D03*
X346840798Y-154979572D03*
X354519203Y-121163271D03*
X351045291Y-120736729D03*
X352416956Y-138284692D03*
X348943044Y-137858150D03*
D11*
X162430000Y-142715677D03*
X158930000Y-142715677D03*
X331930000Y-108950000D03*
X328430000Y-108950000D03*
X126930000Y-116495677D03*
X123430000Y-116495677D03*
X313804220Y-100750000D03*
X310304220Y-100750000D03*
X299880000Y-161090000D03*
X296380000Y-161090000D03*
X126930000Y-133715677D03*
X123430000Y-133715677D03*
X109180000Y-107215677D03*
X105680000Y-107215677D03*
X144680000Y-106215677D03*
X141180000Y-106215677D03*
X314180000Y-118000000D03*
X310680000Y-118000000D03*
X296430000Y-125250000D03*
X292930000Y-125250000D03*
X162430000Y-125465677D03*
X158930000Y-125465677D03*
X144680000Y-123465677D03*
X141180000Y-123465677D03*
X278680000Y-144440000D03*
X275180000Y-144440000D03*
X278680000Y-109940000D03*
X275180000Y-109940000D03*
X296430000Y-142500000D03*
X292930000Y-142500000D03*
X162430000Y-108215677D03*
X158930000Y-108215677D03*
X109180000Y-124465677D03*
X105680000Y-124465677D03*
X314180000Y-135250000D03*
X310680000Y-135250000D03*
X126930000Y-99215677D03*
X123430000Y-99215677D03*
X331930000Y-126200000D03*
X328430000Y-126200000D03*
X109180000Y-141715677D03*
X105680000Y-141715677D03*
X296430000Y-108000000D03*
X292930000Y-108000000D03*
D16*
X179397687Y-169682341D03*
X182428775Y-171432341D03*
D11*
X278680000Y-127190000D03*
X275180000Y-127190000D03*
X331930000Y-143450000D03*
X328430000Y-143450000D03*
X144680000Y-140715677D03*
X141180000Y-140715677D03*
M02*
