M48
; DRILL file {KiCad 9.0.4} date 2025-09-15T12:21:15-0400
; FORMAT={-:-/ absolute / metric / decimal}
; #@! TF.CreationDate,2025-09-15T12:21:15-04:00
; #@! TF.GenerationSoftware,Kicad,Pcbnew,9.0.4
; #@! TF.FileFunction,NonPlated,1,2,NPTH
FMAT,2
METRIC
; #@! TA.AperFunction,NonPlated,NPTH,ComponentDrill
T1C0.500
; #@! TA.AperFunction,NonPlated,NPTH,ComponentDrill
T2C0.800
; #@! TA.AperFunction,NonPlated,NPTH,ComponentDrill
T3C0.991
; #@! TA.AperFunction,NonPlated,NPTH,ComponentDrill
T4C1.702
; #@! TA.AperFunction,NonPlated,NPTH,ComponentDrill
T5C2.200
; #@! TA.AperFunction,NonPlated,NPTH,ComponentDrill
T6C3.429
%
G90
G05
T1
X218.25Y-116.95
X218.25Y-117.8
X218.25Y-118.65
X218.25Y-119.5
X218.25Y-120.35
X218.25Y-121.2
X218.25Y-122.05
X218.25Y-128.95
X218.25Y-129.8
X218.25Y-130.65
X218.25Y-131.5
X218.25Y-132.35
X218.25Y-133.2
X218.25Y-134.05
X218.25Y-140.95
X218.25Y-141.8
X218.25Y-142.65
X218.25Y-143.5
X218.25Y-144.35
X218.25Y-145.2
X218.25Y-146.05
X218.25Y-105.95
X218.25Y-106.8
X218.25Y-107.65
X218.25Y-108.5
X218.25Y-109.35
X218.25Y-110.2
X218.25Y-111.05
X219.75Y-116.95
X219.75Y-117.8
X219.75Y-118.65
X219.75Y-119.5
X219.75Y-120.35
X219.75Y-121.2
X219.75Y-122.05
X219.75Y-128.95
X219.75Y-129.8
X219.75Y-130.65
X219.75Y-131.5
X219.75Y-132.35
X219.75Y-133.2
X219.75Y-134.05
X219.75Y-140.95
X219.75Y-141.8
X219.75Y-142.65
X219.75Y-143.5
X219.75Y-144.35
X219.75Y-145.2
X219.75Y-146.05
X219.75Y-105.95
X219.75Y-106.8
X219.75Y-107.65
X219.75Y-108.5
X219.75Y-109.35
X219.75Y-110.2
X219.75Y-111.05
T2
X177.0Y-105.753
X177.0Y-112.753
X260.751Y-105.737
X260.751Y-112.737
T3
X90.465Y-120.86
X92.567Y-137.982
X94.669Y-155.103
X113.15Y-109.266
X113.15Y-126.516
X113.15Y-143.766
X124.155Y-163.142
X130.9Y-101.266
X130.9Y-118.516
X130.9Y-135.766
X145.22Y-161.7
X148.65Y-108.266
X148.65Y-125.516
X148.65Y-142.766
X165.829Y-165.744
X166.4Y-110.266
X166.4Y-127.516
X166.4Y-144.766
X184.721Y-175.123
X262.401Y-169.893
X282.15Y-110.49
X282.15Y-127.74
X282.15Y-144.99
X282.385Y-163.032
X299.9Y-108.55
X299.9Y-125.8
X299.9Y-143.05
X303.35Y-161.64
X317.274Y-101.3
X317.65Y-118.55
X317.65Y-135.8
X324.092Y-165.794
X335.4Y-109.5
X335.4Y-126.75
X335.4Y-144.0
X353.692Y-156.375
X355.794Y-139.253
X357.896Y-122.132
T4
X80.337Y-126.336
X82.439Y-143.457
X84.541Y-160.578
X91.255Y-124.995
X93.357Y-142.116
X95.459Y-159.238
X102.43Y-113.466
X102.43Y-130.716
X102.43Y-147.966
X113.43Y-113.466
X113.43Y-130.716
X113.43Y-147.966
X114.887Y-169.974
X120.18Y-105.466
X120.18Y-122.716
X120.18Y-139.966
X125.513Y-167.126
X131.18Y-105.466
X131.18Y-122.716
X131.18Y-139.966
X134.5Y-165.9
X137.93Y-112.466
X137.93Y-129.716
X137.93Y-146.966
X145.5Y-165.9
X148.93Y-112.466
X148.93Y-129.716
X148.93Y-146.966
X154.387Y-167.026
X155.68Y-114.466
X155.68Y-131.716
X155.68Y-148.966
X165.013Y-169.874
X166.68Y-114.466
X166.68Y-131.716
X166.68Y-148.966
X173.337Y-173.4
X182.863Y-178.9
X255.217Y-178.89
X264.743Y-173.39
X271.43Y-114.69
X271.43Y-131.94
X271.43Y-149.19
X273.117Y-169.864
X282.43Y-114.69
X282.43Y-131.94
X282.43Y-149.19
X283.743Y-167.016
X289.18Y-112.75
X289.18Y-130.0
X289.18Y-147.25
X292.63Y-165.84
X300.18Y-112.75
X300.18Y-130.0
X300.18Y-147.25
X303.63Y-165.84
X306.554Y-105.5
X306.93Y-122.75
X306.93Y-140.0
X312.651Y-167.076
X317.554Y-105.5
X317.93Y-122.75
X317.93Y-140.0
X323.276Y-169.924
X324.68Y-113.7
X324.68Y-130.95
X324.68Y-148.2
X335.68Y-113.7
X335.68Y-130.95
X335.68Y-148.2
X342.54Y-159.237
X344.642Y-142.116
X346.744Y-124.994
X353.458Y-160.578
X355.56Y-143.456
X357.662Y-126.335
T5
X91.0Y-174.0
X96.0Y-120.0
X126.0Y-154.0
X173.0Y-132.0
X208.0Y-160.0
X215.0Y-125.0
X223.0Y-125.0
X230.0Y-160.0
X265.0Y-132.0
X312.0Y-154.0
X342.0Y-120.0
X347.0Y-174.0
T6
X85.796Y-125.665
X87.898Y-142.787
X90.0Y-159.908
X107.93Y-113.466
X107.93Y-130.716
X107.93Y-147.966
X120.2Y-168.55
X125.68Y-105.466
X125.68Y-122.716
X125.68Y-139.966
X140.0Y-165.9
X143.43Y-112.466
X143.43Y-129.716
X143.43Y-146.966
X159.7Y-168.45
X161.18Y-114.466
X161.18Y-131.716
X161.18Y-148.966
X178.1Y-176.15
X259.98Y-176.14
X276.93Y-114.69
X276.93Y-131.94
X276.93Y-149.19
X278.43Y-168.44
X294.68Y-112.75
X294.68Y-130.0
X294.68Y-147.25
X298.13Y-165.84
X312.054Y-105.5
X312.43Y-122.75
X312.43Y-140.0
X317.963Y-168.5
X330.18Y-113.7
X330.18Y-130.95
X330.18Y-148.2
X347.999Y-159.907
X350.101Y-142.786
X352.203Y-125.665
M30
