%TF.GenerationSoftware,KiCad,Pcbnew,9.0.4*%
%TF.CreationDate,2025-09-15T12:21:15-04:00*%
%TF.ProjectId,zen,7a656e2e-6b69-4636-9164-5f7063625858,rev?*%
%TF.SameCoordinates,Original*%
%TF.FileFunction,Drillmap*%
%TF.FilePolarity,Positive*%
%FSLAX45Y45*%
G04 Gerber Fmt 4.5, Leading zero omitted, Abs format (unit mm)*
G04 Created by KiCad (PCBNEW 9.0.4) date 2025-09-15 12:21:15*
%MOMM*%
%LPD*%
G01*
G04 APERTURE LIST*
%ADD10C,0.050000*%
%ADD11C,0.100000*%
%ADD12C,0.200000*%
%ADD13C,0.170180*%
%ADD14C,0.220000*%
%ADD15C,0.342900*%
G04 APERTURE END LIST*
D10*
X18160441Y-18800000D02*
X16610441Y-17900000D01*
X11335441Y-17925000D02*
G75*
G02*
X9057806Y-18551568I-1225001J0D01*
G01*
X22000000Y-12275000D02*
X22000000Y-12825000D01*
X30700000Y-17450000D02*
X32475000Y-17925000D01*
X16610441Y-17900000D02*
X14935441Y-17450000D01*
X14935441Y-17450000D02*
X13110441Y-17450000D01*
X21800000Y-12275000D02*
X21800000Y-12825000D01*
X18160441Y-18800000D02*
X19060441Y-17250000D01*
X22000000Y-11175000D02*
X22000000Y-11625000D01*
X22000000Y-10400000D02*
X22000000Y-10525000D01*
X19060441Y-17250000D02*
X20204684Y-16881927D01*
X15210441Y-10400000D02*
X21800000Y-10400000D01*
X21800000Y-10525000D02*
X21800000Y-10400000D01*
X11685441Y-10550000D02*
X11685441Y-9675000D01*
X32087422Y-10550000D02*
X32087422Y-9675000D01*
X34752634Y-18551568D02*
X35575000Y-16975000D01*
X28875000Y-17450000D02*
X30700000Y-17450000D01*
X9057807Y-18551568D02*
X8235441Y-16975000D01*
X13435441Y-9675000D02*
X13435441Y-10400000D01*
X9885441Y-10550000D02*
X11685441Y-10550000D01*
X22000000Y-14025000D02*
X22000000Y-13475000D01*
X33925000Y-11550000D02*
X33925000Y-10550000D01*
X21800000Y-14726568D02*
X21800000Y-14675000D01*
X30337422Y-10400000D02*
X28600000Y-10400000D01*
X21800000Y-13475000D02*
X21800000Y-14025000D01*
X35575000Y-16975000D02*
X36200000Y-11850000D01*
X13110441Y-17450000D02*
X11335441Y-17925000D01*
X21800000Y-14726568D02*
G75*
G02*
X20204690Y-16881928I-2289560J26568D01*
G01*
X33925000Y-10550000D02*
X32087422Y-10550000D01*
X34752634Y-18551568D02*
G75*
G02*
X32475000Y-17925000I-1052634J626568D01*
G01*
X23602632Y-16891729D02*
G75*
G02*
X22000000Y-14700000I697368J2191729D01*
G01*
X11685441Y-9675000D02*
X13435441Y-9675000D01*
X8235441Y-16975000D02*
X7610441Y-11850000D01*
X25650000Y-18800000D02*
X27200000Y-17900000D01*
X24750000Y-17250000D02*
X23602632Y-16891729D01*
X22000000Y-14700000D02*
X22000000Y-14675000D01*
X13435441Y-10400000D02*
X15210441Y-10400000D01*
X21800000Y-11175000D02*
X21800000Y-11625000D01*
X36200000Y-11850000D02*
X33925000Y-11550000D01*
X7610441Y-11850000D02*
X9885441Y-11550000D01*
X27200000Y-17900000D02*
X28875000Y-17450000D01*
X28600000Y-10400000D02*
X22000000Y-10400000D01*
X25650000Y-18800000D02*
X24750000Y-17250000D01*
X32087422Y-9675000D02*
X30337422Y-9675000D01*
X9885441Y-11550000D02*
X9885441Y-10550000D01*
X30337422Y-9675000D02*
X30337422Y-10400000D01*
D11*
X22000000Y-10525000D02*
G75*
G02*
X21800000Y-10525000I-100000J0D01*
G01*
X21800000Y-11175000D02*
G75*
G02*
X22000000Y-11175000I100000J0D01*
G01*
X22000000Y-11625000D02*
G75*
G02*
X21800000Y-11625000I-100000J0D01*
G01*
X21800000Y-12275000D02*
G75*
G02*
X22000000Y-12275000I100000J0D01*
G01*
X22000000Y-14025000D02*
G75*
G02*
X21800000Y-14025000I-100000J0D01*
G01*
X21800000Y-14675000D02*
G75*
G02*
X22000000Y-14675000I100000J0D01*
G01*
X22000000Y-12825000D02*
G75*
G02*
X21800000Y-12825000I-100000J0D01*
G01*
X21800000Y-13475000D02*
G75*
G02*
X22000000Y-13475000I100000J0D01*
G01*
D12*
D11*
X21800000Y-11670000D02*
X21850000Y-11720000D01*
X21850000Y-11670000D02*
X21800000Y-11720000D01*
X21800000Y-11755000D02*
X21850000Y-11805000D01*
X21850000Y-11755000D02*
X21800000Y-11805000D01*
X21800000Y-11840000D02*
X21850000Y-11890000D01*
X21850000Y-11840000D02*
X21800000Y-11890000D01*
X21800000Y-11925000D02*
X21850000Y-11975000D01*
X21850000Y-11925000D02*
X21800000Y-11975000D01*
X21800000Y-12010000D02*
X21850000Y-12060000D01*
X21850000Y-12010000D02*
X21800000Y-12060000D01*
X21800000Y-12095000D02*
X21850000Y-12145000D01*
X21850000Y-12095000D02*
X21800000Y-12145000D01*
X21800000Y-12180000D02*
X21850000Y-12230000D01*
X21850000Y-12180000D02*
X21800000Y-12230000D01*
X21800000Y-12870000D02*
X21850000Y-12920000D01*
X21850000Y-12870000D02*
X21800000Y-12920000D01*
X21800000Y-12955000D02*
X21850000Y-13005000D01*
X21850000Y-12955000D02*
X21800000Y-13005000D01*
X21800000Y-13040000D02*
X21850000Y-13090000D01*
X21850000Y-13040000D02*
X21800000Y-13090000D01*
X21800000Y-13125000D02*
X21850000Y-13175000D01*
X21850000Y-13125000D02*
X21800000Y-13175000D01*
X21800000Y-13210000D02*
X21850000Y-13260000D01*
X21850000Y-13210000D02*
X21800000Y-13260000D01*
X21800000Y-13295000D02*
X21850000Y-13345000D01*
X21850000Y-13295000D02*
X21800000Y-13345000D01*
X21800000Y-13380000D02*
X21850000Y-13430000D01*
X21850000Y-13380000D02*
X21800000Y-13430000D01*
X21800000Y-14070000D02*
X21850000Y-14120000D01*
X21850000Y-14070000D02*
X21800000Y-14120000D01*
X21800000Y-14155000D02*
X21850000Y-14205000D01*
X21850000Y-14155000D02*
X21800000Y-14205000D01*
X21800000Y-14240000D02*
X21850000Y-14290000D01*
X21850000Y-14240000D02*
X21800000Y-14290000D01*
X21800000Y-14325000D02*
X21850000Y-14375000D01*
X21850000Y-14325000D02*
X21800000Y-14375000D01*
X21800000Y-14410000D02*
X21850000Y-14460000D01*
X21850000Y-14410000D02*
X21800000Y-14460000D01*
X21800000Y-14495000D02*
X21850000Y-14545000D01*
X21850000Y-14495000D02*
X21800000Y-14545000D01*
X21800000Y-14580000D02*
X21850000Y-14630000D01*
X21850000Y-14580000D02*
X21800000Y-14630000D01*
X21800000Y-10570000D02*
X21850000Y-10620000D01*
X21850000Y-10570000D02*
X21800000Y-10620000D01*
X21800000Y-10655000D02*
X21850000Y-10705000D01*
X21850000Y-10655000D02*
X21800000Y-10705000D01*
X21800000Y-10740000D02*
X21850000Y-10790000D01*
X21850000Y-10740000D02*
X21800000Y-10790000D01*
X21800000Y-10825000D02*
X21850000Y-10875000D01*
X21850000Y-10825000D02*
X21800000Y-10875000D01*
X21800000Y-10910000D02*
X21850000Y-10960000D01*
X21850000Y-10910000D02*
X21800000Y-10960000D01*
X21800000Y-10995000D02*
X21850000Y-11045000D01*
X21850000Y-10995000D02*
X21800000Y-11045000D01*
X21800000Y-11080000D02*
X21850000Y-11130000D01*
X21850000Y-11080000D02*
X21800000Y-11130000D01*
X21950000Y-11670000D02*
X22000000Y-11720000D01*
X22000000Y-11670000D02*
X21950000Y-11720000D01*
X21950000Y-11755000D02*
X22000000Y-11805000D01*
X22000000Y-11755000D02*
X21950000Y-11805000D01*
X21950000Y-11840000D02*
X22000000Y-11890000D01*
X22000000Y-11840000D02*
X21950000Y-11890000D01*
X21950000Y-11925000D02*
X22000000Y-11975000D01*
X22000000Y-11925000D02*
X21950000Y-11975000D01*
X21950000Y-12010000D02*
X22000000Y-12060000D01*
X22000000Y-12010000D02*
X21950000Y-12060000D01*
X21950000Y-12095000D02*
X22000000Y-12145000D01*
X22000000Y-12095000D02*
X21950000Y-12145000D01*
X21950000Y-12180000D02*
X22000000Y-12230000D01*
X22000000Y-12180000D02*
X21950000Y-12230000D01*
X21950000Y-12870000D02*
X22000000Y-12920000D01*
X22000000Y-12870000D02*
X21950000Y-12920000D01*
X21950000Y-12955000D02*
X22000000Y-13005000D01*
X22000000Y-12955000D02*
X21950000Y-13005000D01*
X21950000Y-13040000D02*
X22000000Y-13090000D01*
X22000000Y-13040000D02*
X21950000Y-13090000D01*
X21950000Y-13125000D02*
X22000000Y-13175000D01*
X22000000Y-13125000D02*
X21950000Y-13175000D01*
X21950000Y-13210000D02*
X22000000Y-13260000D01*
X22000000Y-13210000D02*
X21950000Y-13260000D01*
X21950000Y-13295000D02*
X22000000Y-13345000D01*
X22000000Y-13295000D02*
X21950000Y-13345000D01*
X21950000Y-13380000D02*
X22000000Y-13430000D01*
X22000000Y-13380000D02*
X21950000Y-13430000D01*
X21950000Y-14070000D02*
X22000000Y-14120000D01*
X22000000Y-14070000D02*
X21950000Y-14120000D01*
X21950000Y-14155000D02*
X22000000Y-14205000D01*
X22000000Y-14155000D02*
X21950000Y-14205000D01*
X21950000Y-14240000D02*
X22000000Y-14290000D01*
X22000000Y-14240000D02*
X21950000Y-14290000D01*
X21950000Y-14325000D02*
X22000000Y-14375000D01*
X22000000Y-14325000D02*
X21950000Y-14375000D01*
X21950000Y-14410000D02*
X22000000Y-14460000D01*
X22000000Y-14410000D02*
X21950000Y-14460000D01*
X21950000Y-14495000D02*
X22000000Y-14545000D01*
X22000000Y-14495000D02*
X21950000Y-14545000D01*
X21950000Y-14580000D02*
X22000000Y-14630000D01*
X22000000Y-14580000D02*
X21950000Y-14630000D01*
X21950000Y-10570000D02*
X22000000Y-10620000D01*
X22000000Y-10570000D02*
X21950000Y-10620000D01*
X21950000Y-10655000D02*
X22000000Y-10705000D01*
X22000000Y-10655000D02*
X21950000Y-10705000D01*
X21950000Y-10740000D02*
X22000000Y-10790000D01*
X22000000Y-10740000D02*
X21950000Y-10790000D01*
X21950000Y-10825000D02*
X22000000Y-10875000D01*
X22000000Y-10825000D02*
X21950000Y-10875000D01*
X21950000Y-10910000D02*
X22000000Y-10960000D01*
X22000000Y-10910000D02*
X21950000Y-10960000D01*
X21950000Y-10995000D02*
X22000000Y-11045000D01*
X22000000Y-10995000D02*
X21950000Y-11045000D01*
X21950000Y-11080000D02*
X22000000Y-11130000D01*
X22000000Y-11080000D02*
X21950000Y-11130000D01*
X17740000Y-10575318D02*
G75*
G02*
X17660000Y-10575318I-40000J0D01*
G01*
X17660000Y-10575318D02*
G75*
G02*
X17740000Y-10575318I40000J0D01*
G01*
X17740000Y-11275318D02*
G75*
G02*
X17660000Y-11275318I-40000J0D01*
G01*
X17660000Y-11275318D02*
G75*
G02*
X17740000Y-11275318I40000J0D01*
G01*
X26115078Y-10573750D02*
G75*
G02*
X26035078Y-10573750I-40000J0D01*
G01*
X26035078Y-10573750D02*
G75*
G02*
X26115078Y-10573750I40000J0D01*
G01*
X26115078Y-11273750D02*
G75*
G02*
X26035078Y-11273750I-40000J0D01*
G01*
X26035078Y-11273750D02*
G75*
G02*
X26115078Y-11273750I40000J0D01*
G01*
X9046475Y-12036516D02*
X9046475Y-12135576D01*
X8996945Y-12086046D02*
X9096005Y-12086046D01*
X9256699Y-13748658D02*
X9256699Y-13847718D01*
X9207169Y-13798188D02*
X9306229Y-13798188D01*
X9466924Y-15460800D02*
X9466924Y-15559860D01*
X9417394Y-15510330D02*
X9516454Y-15510330D01*
X11315000Y-10877038D02*
X11315000Y-10976098D01*
X11265470Y-10926568D02*
X11364530Y-10926568D01*
X11315000Y-12602038D02*
X11315000Y-12701098D01*
X11265470Y-12651568D02*
X11364530Y-12651568D01*
X11315000Y-14327038D02*
X11315000Y-14426098D01*
X11265470Y-14376568D02*
X11364530Y-14376568D01*
X12415509Y-16264678D02*
X12415509Y-16363738D01*
X12365979Y-16314208D02*
X12465039Y-16314208D01*
X13090000Y-10077038D02*
X13090000Y-10176098D01*
X13040470Y-10126568D02*
X13139530Y-10126568D01*
X13090000Y-11802038D02*
X13090000Y-11901098D01*
X13040470Y-11851568D02*
X13139530Y-11851568D01*
X13090000Y-13527038D02*
X13090000Y-13626098D01*
X13040470Y-13576568D02*
X13139530Y-13576568D01*
X14522000Y-16120470D02*
X14522000Y-16219530D01*
X14472470Y-16170000D02*
X14571530Y-16170000D01*
X14865000Y-10777038D02*
X14865000Y-10876098D01*
X14815470Y-10826568D02*
X14914530Y-10826568D01*
X14865000Y-12502038D02*
X14865000Y-12601098D01*
X14815470Y-12551568D02*
X14914530Y-12551568D01*
X14865000Y-14227038D02*
X14865000Y-14326098D01*
X14815470Y-14276568D02*
X14914530Y-14276568D01*
X16582917Y-16524885D02*
X16582917Y-16623945D01*
X16533387Y-16574415D02*
X16632447Y-16574415D01*
X16640000Y-10977038D02*
X16640000Y-11076098D01*
X16590470Y-11026568D02*
X16689530Y-11026568D01*
X16640000Y-12702038D02*
X16640000Y-12801098D01*
X16590470Y-12751568D02*
X16689530Y-12751568D01*
X16640000Y-14427038D02*
X16640000Y-14526098D01*
X16590470Y-14476568D02*
X16689530Y-14476568D01*
X18472065Y-17462739D02*
X18472065Y-17561799D01*
X18422535Y-17512269D02*
X18521595Y-17512269D01*
X26240065Y-16939739D02*
X26240065Y-17038799D01*
X26190535Y-16989269D02*
X26289595Y-16989269D01*
X28215000Y-10999470D02*
X28215000Y-11098530D01*
X28165470Y-11049000D02*
X28264530Y-11049000D01*
X28215000Y-12724470D02*
X28215000Y-12823530D01*
X28165470Y-12774000D02*
X28264530Y-12774000D01*
X28215000Y-14449470D02*
X28215000Y-14548530D01*
X28165470Y-14499000D02*
X28264530Y-14499000D01*
X28238509Y-16253678D02*
X28238509Y-16352738D01*
X28188979Y-16303208D02*
X28288039Y-16303208D01*
X29990000Y-10805470D02*
X29990000Y-10904530D01*
X29940470Y-10855000D02*
X30039530Y-10855000D01*
X29990000Y-12530470D02*
X29990000Y-12629530D01*
X29940470Y-12580000D02*
X30039530Y-12580000D01*
X29990000Y-14255470D02*
X29990000Y-14354530D01*
X29940470Y-14305000D02*
X30039530Y-14305000D01*
X30335000Y-16114470D02*
X30335000Y-16213530D01*
X30285470Y-16164000D02*
X30384530Y-16164000D01*
X31727422Y-10080470D02*
X31727422Y-10179530D01*
X31677892Y-10130000D02*
X31776952Y-10130000D01*
X31765000Y-11805470D02*
X31765000Y-11904530D01*
X31715470Y-11855000D02*
X31814530Y-11855000D01*
X31765000Y-13530470D02*
X31765000Y-13629530D01*
X31715470Y-13580000D02*
X31814530Y-13580000D01*
X32409231Y-16529885D02*
X32409231Y-16628945D01*
X32359701Y-16579415D02*
X32458761Y-16579415D01*
X33540000Y-10900470D02*
X33540000Y-10999530D01*
X33490470Y-10950000D02*
X33589530Y-10950000D01*
X33540000Y-12625470D02*
X33540000Y-12724530D01*
X33490470Y-12675000D02*
X33589530Y-12675000D01*
X33540000Y-14350470D02*
X33540000Y-14449530D01*
X33490470Y-14400000D02*
X33589530Y-14400000D01*
X35369182Y-15587960D02*
X35369182Y-15687020D01*
X35319652Y-15637490D02*
X35418712Y-15637490D01*
X35579406Y-13875818D02*
X35579406Y-13974878D01*
X35529876Y-13925348D02*
X35628936Y-13925348D01*
X35789631Y-12163676D02*
X35789631Y-12262736D01*
X35740101Y-12213206D02*
X35839161Y-12213206D01*
D13*
X8093819Y-12693728D02*
X8093819Y-12573391D01*
X7973482Y-12573391D01*
X7973482Y-12693728D01*
X8093819Y-12693728D01*
X8304043Y-14405870D02*
X8304043Y-14285533D01*
X8183707Y-14285533D01*
X8183707Y-14405870D01*
X8304043Y-14405870D01*
X8514268Y-16118012D02*
X8514268Y-15997675D01*
X8393931Y-15997675D01*
X8393931Y-16118012D01*
X8514268Y-16118012D01*
X9185620Y-12559672D02*
X9185620Y-12439335D01*
X9065283Y-12439335D01*
X9065283Y-12559672D01*
X9185620Y-12559672D01*
X9395844Y-14271814D02*
X9395844Y-14151477D01*
X9275508Y-14151477D01*
X9275508Y-14271814D01*
X9395844Y-14271814D01*
X9606069Y-15983956D02*
X9606069Y-15863619D01*
X9485732Y-15863619D01*
X9485732Y-15983956D01*
X9606069Y-15983956D01*
X10303168Y-11406736D02*
X10303168Y-11286399D01*
X10182832Y-11286399D01*
X10182832Y-11406736D01*
X10303168Y-11406736D01*
X10303168Y-13131736D02*
X10303168Y-13011399D01*
X10182832Y-13011399D01*
X10182832Y-13131736D01*
X10303168Y-13131736D01*
X10303168Y-14856736D02*
X10303168Y-14736399D01*
X10182832Y-14736399D01*
X10182832Y-14856736D01*
X10303168Y-14856736D01*
X11403168Y-11406736D02*
X11403168Y-11286399D01*
X11282832Y-11286399D01*
X11282832Y-11406736D01*
X11403168Y-11406736D01*
X11403168Y-13131736D02*
X11403168Y-13011399D01*
X11282832Y-13011399D01*
X11282832Y-13131736D01*
X11403168Y-13131736D01*
X11403168Y-14856736D02*
X11403168Y-14736399D01*
X11282832Y-14736399D01*
X11282832Y-14856736D01*
X11403168Y-14856736D01*
X11548909Y-17057519D02*
X11548909Y-16937182D01*
X11428572Y-16937182D01*
X11428572Y-17057519D01*
X11548909Y-17057519D01*
X12078168Y-10606736D02*
X12078168Y-10486399D01*
X11957832Y-10486399D01*
X11957832Y-10606736D01*
X12078168Y-10606736D01*
X12078168Y-12331736D02*
X12078168Y-12211399D01*
X11957832Y-12211399D01*
X11957832Y-12331736D01*
X12078168Y-12331736D01*
X12078168Y-14056736D02*
X12078168Y-13936399D01*
X11957832Y-13936399D01*
X11957832Y-14056736D01*
X12078168Y-14056736D01*
X12611427Y-16772818D02*
X12611427Y-16652481D01*
X12491091Y-16652481D01*
X12491091Y-16772818D01*
X12611427Y-16772818D01*
X13178168Y-10606736D02*
X13178168Y-10486399D01*
X13057832Y-10486399D01*
X13057832Y-10606736D01*
X13178168Y-10606736D01*
X13178168Y-12331736D02*
X13178168Y-12211399D01*
X13057832Y-12211399D01*
X13057832Y-12331736D01*
X13178168Y-12331736D01*
X13178168Y-14056736D02*
X13178168Y-13936399D01*
X13057832Y-13936399D01*
X13057832Y-14056736D01*
X13178168Y-14056736D01*
X13510168Y-16650168D02*
X13510168Y-16529832D01*
X13389832Y-16529832D01*
X13389832Y-16650168D01*
X13510168Y-16650168D01*
X13853168Y-11306736D02*
X13853168Y-11186399D01*
X13732832Y-11186399D01*
X13732832Y-11306736D01*
X13853168Y-11306736D01*
X13853168Y-13031736D02*
X13853168Y-12911399D01*
X13732832Y-12911399D01*
X13732832Y-13031736D01*
X13853168Y-13031736D01*
X13853168Y-14756736D02*
X13853168Y-14636399D01*
X13732832Y-14636399D01*
X13732832Y-14756736D01*
X13853168Y-14756736D01*
X14610168Y-16650168D02*
X14610168Y-16529832D01*
X14489832Y-16529832D01*
X14489832Y-16650168D01*
X14610168Y-16650168D01*
X14953168Y-11306736D02*
X14953168Y-11186399D01*
X14832832Y-11186399D01*
X14832832Y-11306736D01*
X14953168Y-11306736D01*
X14953168Y-13031736D02*
X14953168Y-12911399D01*
X14832832Y-12911399D01*
X14832832Y-13031736D01*
X14953168Y-13031736D01*
X14953168Y-14756736D02*
X14953168Y-14636399D01*
X14832832Y-14636399D01*
X14832832Y-14756736D01*
X14953168Y-14756736D01*
X15498909Y-16762818D02*
X15498909Y-16642481D01*
X15378572Y-16642481D01*
X15378572Y-16762818D01*
X15498909Y-16762818D01*
X15628168Y-11506736D02*
X15628168Y-11386399D01*
X15507832Y-11386399D01*
X15507832Y-11506736D01*
X15628168Y-11506736D01*
X15628168Y-13231736D02*
X15628168Y-13111399D01*
X15507832Y-13111399D01*
X15507832Y-13231736D01*
X15628168Y-13231736D01*
X15628168Y-14956736D02*
X15628168Y-14836399D01*
X15507832Y-14836399D01*
X15507832Y-14956736D01*
X15628168Y-14956736D01*
X16561427Y-17047519D02*
X16561427Y-16927182D01*
X16441091Y-16927182D01*
X16441091Y-17047519D01*
X16561427Y-17047519D01*
X16728168Y-11506736D02*
X16728168Y-11386399D01*
X16607832Y-11386399D01*
X16607832Y-11506736D01*
X16728168Y-11506736D01*
X16728168Y-13231736D02*
X16728168Y-13111399D01*
X16607832Y-13111399D01*
X16607832Y-13231736D01*
X16728168Y-13231736D01*
X16728168Y-14956736D02*
X16728168Y-14836399D01*
X16607832Y-14836399D01*
X16607832Y-14956736D01*
X16728168Y-14956736D01*
X17393854Y-17400168D02*
X17393854Y-17279832D01*
X17273518Y-17279832D01*
X17273518Y-17400168D01*
X17393854Y-17400168D01*
X18346482Y-17950168D02*
X18346482Y-17829832D01*
X18226146Y-17829832D01*
X18226146Y-17950168D01*
X18346482Y-17950168D01*
X25581854Y-17949168D02*
X25581854Y-17828832D01*
X25461518Y-17828832D01*
X25461518Y-17949168D01*
X25581854Y-17949168D01*
X26534482Y-17399168D02*
X26534482Y-17278832D01*
X26414146Y-17278832D01*
X26414146Y-17399168D01*
X26534482Y-17399168D01*
X27203168Y-11529168D02*
X27203168Y-11408832D01*
X27082832Y-11408832D01*
X27082832Y-11529168D01*
X27203168Y-11529168D01*
X27203168Y-13254168D02*
X27203168Y-13133832D01*
X27082832Y-13133832D01*
X27082832Y-13254168D01*
X27203168Y-13254168D01*
X27203168Y-14979168D02*
X27203168Y-14858832D01*
X27082832Y-14858832D01*
X27082832Y-14979168D01*
X27203168Y-14979168D01*
X27371909Y-17046519D02*
X27371909Y-16926182D01*
X27251572Y-16926182D01*
X27251572Y-17046519D01*
X27371909Y-17046519D01*
X28303168Y-11529168D02*
X28303168Y-11408832D01*
X28182832Y-11408832D01*
X28182832Y-11529168D01*
X28303168Y-11529168D01*
X28303168Y-13254168D02*
X28303168Y-13133832D01*
X28182832Y-13133832D01*
X28182832Y-13254168D01*
X28303168Y-13254168D01*
X28303168Y-14979168D02*
X28303168Y-14858832D01*
X28182832Y-14858832D01*
X28182832Y-14979168D01*
X28303168Y-14979168D01*
X28434427Y-16761818D02*
X28434427Y-16641481D01*
X28314091Y-16641481D01*
X28314091Y-16761818D01*
X28434427Y-16761818D01*
X28978168Y-11335168D02*
X28978168Y-11214832D01*
X28857832Y-11214832D01*
X28857832Y-11335168D01*
X28978168Y-11335168D01*
X28978168Y-13060168D02*
X28978168Y-12939832D01*
X28857832Y-12939832D01*
X28857832Y-13060168D01*
X28978168Y-13060168D01*
X28978168Y-14785168D02*
X28978168Y-14664832D01*
X28857832Y-14664832D01*
X28857832Y-14785168D01*
X28978168Y-14785168D01*
X29323168Y-16644168D02*
X29323168Y-16523832D01*
X29202832Y-16523832D01*
X29202832Y-16644168D01*
X29323168Y-16644168D01*
X30078168Y-11335168D02*
X30078168Y-11214832D01*
X29957832Y-11214832D01*
X29957832Y-11335168D01*
X30078168Y-11335168D01*
X30078168Y-13060168D02*
X30078168Y-12939832D01*
X29957832Y-12939832D01*
X29957832Y-13060168D01*
X30078168Y-13060168D01*
X30078168Y-14785168D02*
X30078168Y-14664832D01*
X29957832Y-14664832D01*
X29957832Y-14785168D01*
X30078168Y-14785168D01*
X30423168Y-16644168D02*
X30423168Y-16523832D01*
X30302832Y-16523832D01*
X30302832Y-16644168D01*
X30423168Y-16644168D01*
X30715590Y-10610168D02*
X30715590Y-10489832D01*
X30595254Y-10489832D01*
X30595254Y-10610168D01*
X30715590Y-10610168D01*
X30753168Y-12335168D02*
X30753168Y-12214832D01*
X30632832Y-12214832D01*
X30632832Y-12335168D01*
X30753168Y-12335168D01*
X30753168Y-14060168D02*
X30753168Y-13939832D01*
X30632832Y-13939832D01*
X30632832Y-14060168D01*
X30753168Y-14060168D01*
X31325223Y-16767818D02*
X31325223Y-16647481D01*
X31204887Y-16647481D01*
X31204887Y-16767818D01*
X31325223Y-16767818D01*
X31815590Y-10610168D02*
X31815590Y-10489832D01*
X31695254Y-10489832D01*
X31695254Y-10610168D01*
X31815590Y-10610168D01*
X31853168Y-12335168D02*
X31853168Y-12214832D01*
X31732832Y-12214832D01*
X31732832Y-12335168D01*
X31853168Y-12335168D01*
X31853168Y-14060168D02*
X31853168Y-13939832D01*
X31732832Y-13939832D01*
X31732832Y-14060168D01*
X31853168Y-14060168D01*
X32387742Y-17052519D02*
X32387742Y-16932182D01*
X32267405Y-16932182D01*
X32267405Y-17052519D01*
X32387742Y-17052519D01*
X32528168Y-11430168D02*
X32528168Y-11309832D01*
X32407832Y-11309832D01*
X32407832Y-11430168D01*
X32528168Y-11430168D01*
X32528168Y-13155168D02*
X32528168Y-13034832D01*
X32407832Y-13034832D01*
X32407832Y-13155168D01*
X32528168Y-13155168D01*
X32528168Y-14880168D02*
X32528168Y-14759832D01*
X32407832Y-14759832D01*
X32407832Y-14880168D01*
X32528168Y-14880168D01*
X33628168Y-11430168D02*
X33628168Y-11309832D01*
X33507832Y-11309832D01*
X33507832Y-11430168D01*
X33628168Y-11430168D01*
X33628168Y-13155168D02*
X33628168Y-13034832D01*
X33507832Y-13034832D01*
X33507832Y-13155168D01*
X33628168Y-13155168D01*
X33628168Y-14880168D02*
X33628168Y-14759832D01*
X33507832Y-14759832D01*
X33507832Y-14880168D01*
X33628168Y-14880168D01*
X34314155Y-15983884D02*
X34314155Y-15863547D01*
X34193819Y-15863547D01*
X34193819Y-15983884D01*
X34314155Y-15983884D01*
X34524380Y-14271742D02*
X34524380Y-14151405D01*
X34404043Y-14151405D01*
X34404043Y-14271742D01*
X34524380Y-14271742D01*
X34734605Y-12559600D02*
X34734605Y-12439263D01*
X34614268Y-12439263D01*
X34614268Y-12559600D01*
X34734605Y-12559600D01*
X35405956Y-16117940D02*
X35405956Y-15997603D01*
X35285620Y-15997603D01*
X35285620Y-16117940D01*
X35405956Y-16117940D01*
X35616181Y-14405798D02*
X35616181Y-14285461D01*
X35495844Y-14285461D01*
X35495844Y-14405798D01*
X35616181Y-14405798D01*
X35826405Y-12693656D02*
X35826405Y-12573319D01*
X35706069Y-12573319D01*
X35706069Y-12693656D01*
X35826405Y-12693656D01*
D14*
X9100000Y-17510000D02*
X9210000Y-17400000D01*
X9100000Y-17290000D01*
X8990000Y-17400000D01*
X9100000Y-17510000D01*
X9600000Y-12110000D02*
X9710000Y-12000000D01*
X9600000Y-11890000D01*
X9490000Y-12000000D01*
X9600000Y-12110000D01*
X12600000Y-15510000D02*
X12710000Y-15400000D01*
X12600000Y-15290000D01*
X12490000Y-15400000D01*
X12600000Y-15510000D01*
X17300000Y-13310000D02*
X17410000Y-13200000D01*
X17300000Y-13090000D01*
X17190000Y-13200000D01*
X17300000Y-13310000D01*
X20800000Y-16110000D02*
X20910000Y-16000000D01*
X20800000Y-15890000D01*
X20690000Y-16000000D01*
X20800000Y-16110000D01*
X21500000Y-12610000D02*
X21610000Y-12500000D01*
X21500000Y-12390000D01*
X21390000Y-12500000D01*
X21500000Y-12610000D01*
X22300000Y-12610000D02*
X22410000Y-12500000D01*
X22300000Y-12390000D01*
X22190000Y-12500000D01*
X22300000Y-12610000D01*
X23000000Y-16110000D02*
X23110000Y-16000000D01*
X23000000Y-15890000D01*
X22890000Y-16000000D01*
X23000000Y-16110000D01*
X26500000Y-13310000D02*
X26610000Y-13200000D01*
X26500000Y-13090000D01*
X26390000Y-13200000D01*
X26500000Y-13310000D01*
X31200000Y-15510000D02*
X31310000Y-15400000D01*
X31200000Y-15290000D01*
X31090000Y-15400000D01*
X31200000Y-15510000D01*
X34200000Y-12110000D02*
X34310000Y-12000000D01*
X34200000Y-11890000D01*
X34090000Y-12000000D01*
X34200000Y-12110000D01*
X34700000Y-17510000D02*
X34810000Y-17400000D01*
X34700000Y-17290000D01*
X34590000Y-17400000D01*
X34700000Y-17510000D01*
D15*
X8408101Y-12395081D02*
X8751001Y-12737981D01*
X8751001Y-12395081D02*
X8408101Y-12737981D01*
X8751001Y-12566531D02*
G75*
G02*
X8408101Y-12566531I-171450J0D01*
G01*
X8408101Y-12566531D02*
G75*
G02*
X8751001Y-12566531I171450J0D01*
G01*
X8618325Y-14107223D02*
X8961225Y-14450123D01*
X8961225Y-14107223D02*
X8618325Y-14450123D01*
X8961225Y-14278673D02*
G75*
G02*
X8618325Y-14278673I-171450J0D01*
G01*
X8618325Y-14278673D02*
G75*
G02*
X8961225Y-14278673I171450J0D01*
G01*
X8828550Y-15819366D02*
X9171450Y-16162266D01*
X9171450Y-15819366D02*
X8828550Y-16162266D01*
X9171450Y-15990816D02*
G75*
G02*
X8828550Y-15990816I-171450J0D01*
G01*
X8828550Y-15990816D02*
G75*
G02*
X9171450Y-15990816I171450J0D01*
G01*
X10621550Y-11175118D02*
X10964450Y-11518018D01*
X10964450Y-11175118D02*
X10621550Y-11518018D01*
X10964450Y-11346568D02*
G75*
G02*
X10621550Y-11346568I-171450J0D01*
G01*
X10621550Y-11346568D02*
G75*
G02*
X10964450Y-11346568I171450J0D01*
G01*
X10621550Y-12900118D02*
X10964450Y-13243018D01*
X10964450Y-12900118D02*
X10621550Y-13243018D01*
X10964450Y-13071568D02*
G75*
G02*
X10621550Y-13071568I-171450J0D01*
G01*
X10621550Y-13071568D02*
G75*
G02*
X10964450Y-13071568I171450J0D01*
G01*
X10621550Y-14625118D02*
X10964450Y-14968018D01*
X10964450Y-14625118D02*
X10621550Y-14968018D01*
X10964450Y-14796568D02*
G75*
G02*
X10621550Y-14796568I-171450J0D01*
G01*
X10621550Y-14796568D02*
G75*
G02*
X10964450Y-14796568I171450J0D01*
G01*
X11848550Y-16683550D02*
X12191450Y-17026450D01*
X12191450Y-16683550D02*
X11848550Y-17026450D01*
X12191450Y-16855000D02*
G75*
G02*
X11848550Y-16855000I-171450J0D01*
G01*
X11848550Y-16855000D02*
G75*
G02*
X12191450Y-16855000I171450J0D01*
G01*
X12396550Y-10375118D02*
X12739450Y-10718018D01*
X12739450Y-10375118D02*
X12396550Y-10718018D01*
X12739450Y-10546568D02*
G75*
G02*
X12396550Y-10546568I-171450J0D01*
G01*
X12396550Y-10546568D02*
G75*
G02*
X12739450Y-10546568I171450J0D01*
G01*
X12396550Y-12100118D02*
X12739450Y-12443018D01*
X12739450Y-12100118D02*
X12396550Y-12443018D01*
X12739450Y-12271568D02*
G75*
G02*
X12396550Y-12271568I-171450J0D01*
G01*
X12396550Y-12271568D02*
G75*
G02*
X12739450Y-12271568I171450J0D01*
G01*
X12396550Y-13825118D02*
X12739450Y-14168018D01*
X12739450Y-13825118D02*
X12396550Y-14168018D01*
X12739450Y-13996568D02*
G75*
G02*
X12396550Y-13996568I-171450J0D01*
G01*
X12396550Y-13996568D02*
G75*
G02*
X12739450Y-13996568I171450J0D01*
G01*
X13828550Y-16418550D02*
X14171450Y-16761450D01*
X14171450Y-16418550D02*
X13828550Y-16761450D01*
X14171450Y-16590000D02*
G75*
G02*
X13828550Y-16590000I-171450J0D01*
G01*
X13828550Y-16590000D02*
G75*
G02*
X14171450Y-16590000I171450J0D01*
G01*
X14171550Y-11075118D02*
X14514450Y-11418018D01*
X14514450Y-11075118D02*
X14171550Y-11418018D01*
X14514450Y-11246568D02*
G75*
G02*
X14171550Y-11246568I-171450J0D01*
G01*
X14171550Y-11246568D02*
G75*
G02*
X14514450Y-11246568I171450J0D01*
G01*
X14171550Y-12800118D02*
X14514450Y-13143018D01*
X14514450Y-12800118D02*
X14171550Y-13143018D01*
X14514450Y-12971568D02*
G75*
G02*
X14171550Y-12971568I-171450J0D01*
G01*
X14171550Y-12971568D02*
G75*
G02*
X14514450Y-12971568I171450J0D01*
G01*
X14171550Y-14525118D02*
X14514450Y-14868018D01*
X14514450Y-14525118D02*
X14171550Y-14868018D01*
X14514450Y-14696568D02*
G75*
G02*
X14171550Y-14696568I-171450J0D01*
G01*
X14171550Y-14696568D02*
G75*
G02*
X14514450Y-14696568I171450J0D01*
G01*
X15798550Y-16673550D02*
X16141450Y-17016450D01*
X16141450Y-16673550D02*
X15798550Y-17016450D01*
X16141450Y-16845000D02*
G75*
G02*
X15798550Y-16845000I-171450J0D01*
G01*
X15798550Y-16845000D02*
G75*
G02*
X16141450Y-16845000I171450J0D01*
G01*
X15946550Y-11275118D02*
X16289450Y-11618018D01*
X16289450Y-11275118D02*
X15946550Y-11618018D01*
X16289450Y-11446568D02*
G75*
G02*
X15946550Y-11446568I-171450J0D01*
G01*
X15946550Y-11446568D02*
G75*
G02*
X16289450Y-11446568I171450J0D01*
G01*
X15946550Y-13000118D02*
X16289450Y-13343018D01*
X16289450Y-13000118D02*
X15946550Y-13343018D01*
X16289450Y-13171568D02*
G75*
G02*
X15946550Y-13171568I-171450J0D01*
G01*
X15946550Y-13171568D02*
G75*
G02*
X16289450Y-13171568I171450J0D01*
G01*
X15946550Y-14725118D02*
X16289450Y-15068018D01*
X16289450Y-14725118D02*
X15946550Y-15068018D01*
X16289450Y-14896568D02*
G75*
G02*
X15946550Y-14896568I-171450J0D01*
G01*
X15946550Y-14896568D02*
G75*
G02*
X16289450Y-14896568I171450J0D01*
G01*
X17638550Y-17443550D02*
X17981450Y-17786450D01*
X17981450Y-17443550D02*
X17638550Y-17786450D01*
X17981450Y-17615000D02*
G75*
G02*
X17638550Y-17615000I-171450J0D01*
G01*
X17638550Y-17615000D02*
G75*
G02*
X17981450Y-17615000I171450J0D01*
G01*
X25826550Y-17442550D02*
X26169450Y-17785450D01*
X26169450Y-17442550D02*
X25826550Y-17785450D01*
X26169450Y-17614000D02*
G75*
G02*
X25826550Y-17614000I-171450J0D01*
G01*
X25826550Y-17614000D02*
G75*
G02*
X26169450Y-17614000I171450J0D01*
G01*
X27521550Y-11297550D02*
X27864450Y-11640450D01*
X27864450Y-11297550D02*
X27521550Y-11640450D01*
X27864450Y-11469000D02*
G75*
G02*
X27521550Y-11469000I-171450J0D01*
G01*
X27521550Y-11469000D02*
G75*
G02*
X27864450Y-11469000I171450J0D01*
G01*
X27521550Y-13022550D02*
X27864450Y-13365450D01*
X27864450Y-13022550D02*
X27521550Y-13365450D01*
X27864450Y-13194000D02*
G75*
G02*
X27521550Y-13194000I-171450J0D01*
G01*
X27521550Y-13194000D02*
G75*
G02*
X27864450Y-13194000I171450J0D01*
G01*
X27521550Y-14747550D02*
X27864450Y-15090450D01*
X27864450Y-14747550D02*
X27521550Y-15090450D01*
X27864450Y-14919000D02*
G75*
G02*
X27521550Y-14919000I-171450J0D01*
G01*
X27521550Y-14919000D02*
G75*
G02*
X27864450Y-14919000I171450J0D01*
G01*
X27671550Y-16672550D02*
X28014450Y-17015450D01*
X28014450Y-16672550D02*
X27671550Y-17015450D01*
X28014450Y-16844000D02*
G75*
G02*
X27671550Y-16844000I-171450J0D01*
G01*
X27671550Y-16844000D02*
G75*
G02*
X28014450Y-16844000I171450J0D01*
G01*
X29296550Y-11103550D02*
X29639450Y-11446450D01*
X29639450Y-11103550D02*
X29296550Y-11446450D01*
X29639450Y-11275000D02*
G75*
G02*
X29296550Y-11275000I-171450J0D01*
G01*
X29296550Y-11275000D02*
G75*
G02*
X29639450Y-11275000I171450J0D01*
G01*
X29296550Y-12828550D02*
X29639450Y-13171450D01*
X29639450Y-12828550D02*
X29296550Y-13171450D01*
X29639450Y-13000000D02*
G75*
G02*
X29296550Y-13000000I-171450J0D01*
G01*
X29296550Y-13000000D02*
G75*
G02*
X29639450Y-13000000I171450J0D01*
G01*
X29296550Y-14553550D02*
X29639450Y-14896450D01*
X29639450Y-14553550D02*
X29296550Y-14896450D01*
X29639450Y-14725000D02*
G75*
G02*
X29296550Y-14725000I-171450J0D01*
G01*
X29296550Y-14725000D02*
G75*
G02*
X29639450Y-14725000I171450J0D01*
G01*
X29641550Y-16412550D02*
X29984450Y-16755450D01*
X29984450Y-16412550D02*
X29641550Y-16755450D01*
X29984450Y-16584000D02*
G75*
G02*
X29641550Y-16584000I-171450J0D01*
G01*
X29641550Y-16584000D02*
G75*
G02*
X29984450Y-16584000I171450J0D01*
G01*
X31033972Y-10378550D02*
X31376872Y-10721450D01*
X31376872Y-10378550D02*
X31033972Y-10721450D01*
X31376872Y-10550000D02*
G75*
G02*
X31033972Y-10550000I-171450J0D01*
G01*
X31033972Y-10550000D02*
G75*
G02*
X31376872Y-10550000I171450J0D01*
G01*
X31071550Y-12103550D02*
X31414450Y-12446450D01*
X31414450Y-12103550D02*
X31071550Y-12446450D01*
X31414450Y-12275000D02*
G75*
G02*
X31071550Y-12275000I-171450J0D01*
G01*
X31071550Y-12275000D02*
G75*
G02*
X31414450Y-12275000I171450J0D01*
G01*
X31071550Y-13828550D02*
X31414450Y-14171450D01*
X31414450Y-13828550D02*
X31071550Y-14171450D01*
X31414450Y-14000000D02*
G75*
G02*
X31071550Y-14000000I-171450J0D01*
G01*
X31071550Y-14000000D02*
G75*
G02*
X31414450Y-14000000I171450J0D01*
G01*
X31624864Y-16678550D02*
X31967764Y-17021450D01*
X31967764Y-16678550D02*
X31624864Y-17021450D01*
X31967764Y-16850000D02*
G75*
G02*
X31624864Y-16850000I-171450J0D01*
G01*
X31624864Y-16850000D02*
G75*
G02*
X31967764Y-16850000I171450J0D01*
G01*
X32846550Y-11198550D02*
X33189450Y-11541450D01*
X33189450Y-11198550D02*
X32846550Y-11541450D01*
X33189450Y-11370000D02*
G75*
G02*
X32846550Y-11370000I-171450J0D01*
G01*
X32846550Y-11370000D02*
G75*
G02*
X33189450Y-11370000I171450J0D01*
G01*
X32846550Y-12923550D02*
X33189450Y-13266450D01*
X33189450Y-12923550D02*
X32846550Y-13266450D01*
X33189450Y-13095000D02*
G75*
G02*
X32846550Y-13095000I-171450J0D01*
G01*
X32846550Y-13095000D02*
G75*
G02*
X33189450Y-13095000I171450J0D01*
G01*
X32846550Y-14648550D02*
X33189450Y-14991450D01*
X33189450Y-14648550D02*
X32846550Y-14991450D01*
X33189450Y-14820000D02*
G75*
G02*
X32846550Y-14820000I-171450J0D01*
G01*
X32846550Y-14820000D02*
G75*
G02*
X33189450Y-14820000I171450J0D01*
G01*
X34628438Y-15819294D02*
X34971338Y-16162194D01*
X34971338Y-15819294D02*
X34628438Y-16162194D01*
X34971338Y-15990744D02*
G75*
G02*
X34628438Y-15990744I-171450J0D01*
G01*
X34628438Y-15990744D02*
G75*
G02*
X34971338Y-15990744I171450J0D01*
G01*
X34838662Y-14107152D02*
X35181562Y-14450052D01*
X35181562Y-14107152D02*
X34838662Y-14450052D01*
X35181562Y-14278602D02*
G75*
G02*
X34838662Y-14278602I-171450J0D01*
G01*
X34838662Y-14278602D02*
G75*
G02*
X35181562Y-14278602I171450J0D01*
G01*
X35048887Y-12395009D02*
X35391787Y-12737909D01*
X35391787Y-12395009D02*
X35048887Y-12737909D01*
X35391787Y-12566459D02*
G75*
G02*
X35048887Y-12566459I-171450J0D01*
G01*
X35048887Y-12566459D02*
G75*
G02*
X35391787Y-12566459I171450J0D01*
G01*
D12*
X7868717Y-19463984D02*
X7868717Y-19263984D01*
X7868717Y-19263984D02*
X7916336Y-19263984D01*
X7916336Y-19263984D02*
X7944908Y-19273508D01*
X7944908Y-19273508D02*
X7963955Y-19292556D01*
X7963955Y-19292556D02*
X7973479Y-19311603D01*
X7973479Y-19311603D02*
X7983003Y-19349699D01*
X7983003Y-19349699D02*
X7983003Y-19378270D01*
X7983003Y-19378270D02*
X7973479Y-19416365D01*
X7973479Y-19416365D02*
X7963955Y-19435413D01*
X7963955Y-19435413D02*
X7944908Y-19454461D01*
X7944908Y-19454461D02*
X7916336Y-19463984D01*
X7916336Y-19463984D02*
X7868717Y-19463984D01*
X8068717Y-19463984D02*
X8068717Y-19330651D01*
X8068717Y-19368746D02*
X8078241Y-19349699D01*
X8078241Y-19349699D02*
X8087765Y-19340175D01*
X8087765Y-19340175D02*
X8106813Y-19330651D01*
X8106813Y-19330651D02*
X8125860Y-19330651D01*
X8192527Y-19463984D02*
X8192527Y-19330651D01*
X8192527Y-19263984D02*
X8183003Y-19273508D01*
X8183003Y-19273508D02*
X8192527Y-19283032D01*
X8192527Y-19283032D02*
X8202051Y-19273508D01*
X8202051Y-19273508D02*
X8192527Y-19263984D01*
X8192527Y-19263984D02*
X8192527Y-19283032D01*
X8316336Y-19463984D02*
X8297289Y-19454461D01*
X8297289Y-19454461D02*
X8287765Y-19435413D01*
X8287765Y-19435413D02*
X8287765Y-19263984D01*
X8421098Y-19463984D02*
X8402051Y-19454461D01*
X8402051Y-19454461D02*
X8392527Y-19435413D01*
X8392527Y-19435413D02*
X8392527Y-19263984D01*
X8649670Y-19463984D02*
X8649670Y-19263984D01*
X8649670Y-19263984D02*
X8716337Y-19406842D01*
X8716337Y-19406842D02*
X8783003Y-19263984D01*
X8783003Y-19263984D02*
X8783003Y-19463984D01*
X8963956Y-19463984D02*
X8963956Y-19359223D01*
X8963956Y-19359223D02*
X8954432Y-19340175D01*
X8954432Y-19340175D02*
X8935384Y-19330651D01*
X8935384Y-19330651D02*
X8897289Y-19330651D01*
X8897289Y-19330651D02*
X8878241Y-19340175D01*
X8963956Y-19454461D02*
X8944908Y-19463984D01*
X8944908Y-19463984D02*
X8897289Y-19463984D01*
X8897289Y-19463984D02*
X8878241Y-19454461D01*
X8878241Y-19454461D02*
X8868717Y-19435413D01*
X8868717Y-19435413D02*
X8868717Y-19416365D01*
X8868717Y-19416365D02*
X8878241Y-19397318D01*
X8878241Y-19397318D02*
X8897289Y-19387794D01*
X8897289Y-19387794D02*
X8944908Y-19387794D01*
X8944908Y-19387794D02*
X8963956Y-19378270D01*
X9059194Y-19330651D02*
X9059194Y-19530651D01*
X9059194Y-19340175D02*
X9078241Y-19330651D01*
X9078241Y-19330651D02*
X9116337Y-19330651D01*
X9116337Y-19330651D02*
X9135384Y-19340175D01*
X9135384Y-19340175D02*
X9144908Y-19349699D01*
X9144908Y-19349699D02*
X9154432Y-19368746D01*
X9154432Y-19368746D02*
X9154432Y-19425889D01*
X9154432Y-19425889D02*
X9144908Y-19444937D01*
X9144908Y-19444937D02*
X9135384Y-19454461D01*
X9135384Y-19454461D02*
X9116337Y-19463984D01*
X9116337Y-19463984D02*
X9078241Y-19463984D01*
X9078241Y-19463984D02*
X9059194Y-19454461D01*
X9240146Y-19444937D02*
X9249670Y-19454461D01*
X9249670Y-19454461D02*
X9240146Y-19463984D01*
X9240146Y-19463984D02*
X9230622Y-19454461D01*
X9230622Y-19454461D02*
X9240146Y-19444937D01*
X9240146Y-19444937D02*
X9240146Y-19463984D01*
X9240146Y-19340175D02*
X9249670Y-19349699D01*
X9249670Y-19349699D02*
X9240146Y-19359223D01*
X9240146Y-19359223D02*
X9230622Y-19349699D01*
X9230622Y-19349699D02*
X9240146Y-19340175D01*
X9240146Y-19340175D02*
X9240146Y-19359223D01*
D11*
X7557941Y-19767501D02*
X7607941Y-19817501D01*
X7607941Y-19767501D02*
X7557941Y-19817501D01*
D12*
X7906813Y-19683984D02*
X7925860Y-19683984D01*
X7925860Y-19683984D02*
X7944908Y-19693508D01*
X7944908Y-19693508D02*
X7954432Y-19703032D01*
X7954432Y-19703032D02*
X7963955Y-19722080D01*
X7963955Y-19722080D02*
X7973479Y-19760175D01*
X7973479Y-19760175D02*
X7973479Y-19807794D01*
X7973479Y-19807794D02*
X7963955Y-19845889D01*
X7963955Y-19845889D02*
X7954432Y-19864937D01*
X7954432Y-19864937D02*
X7944908Y-19874461D01*
X7944908Y-19874461D02*
X7925860Y-19883984D01*
X7925860Y-19883984D02*
X7906813Y-19883984D01*
X7906813Y-19883984D02*
X7887765Y-19874461D01*
X7887765Y-19874461D02*
X7878241Y-19864937D01*
X7878241Y-19864937D02*
X7868717Y-19845889D01*
X7868717Y-19845889D02*
X7859194Y-19807794D01*
X7859194Y-19807794D02*
X7859194Y-19760175D01*
X7859194Y-19760175D02*
X7868717Y-19722080D01*
X7868717Y-19722080D02*
X7878241Y-19703032D01*
X7878241Y-19703032D02*
X7887765Y-19693508D01*
X7887765Y-19693508D02*
X7906813Y-19683984D01*
X8059194Y-19864937D02*
X8068717Y-19874461D01*
X8068717Y-19874461D02*
X8059194Y-19883984D01*
X8059194Y-19883984D02*
X8049670Y-19874461D01*
X8049670Y-19874461D02*
X8059194Y-19864937D01*
X8059194Y-19864937D02*
X8059194Y-19883984D01*
X8249670Y-19683984D02*
X8154432Y-19683984D01*
X8154432Y-19683984D02*
X8144908Y-19779223D01*
X8144908Y-19779223D02*
X8154432Y-19769699D01*
X8154432Y-19769699D02*
X8173479Y-19760175D01*
X8173479Y-19760175D02*
X8221098Y-19760175D01*
X8221098Y-19760175D02*
X8240146Y-19769699D01*
X8240146Y-19769699D02*
X8249670Y-19779223D01*
X8249670Y-19779223D02*
X8259194Y-19798270D01*
X8259194Y-19798270D02*
X8259194Y-19845889D01*
X8259194Y-19845889D02*
X8249670Y-19864937D01*
X8249670Y-19864937D02*
X8240146Y-19874461D01*
X8240146Y-19874461D02*
X8221098Y-19883984D01*
X8221098Y-19883984D02*
X8173479Y-19883984D01*
X8173479Y-19883984D02*
X8154432Y-19874461D01*
X8154432Y-19874461D02*
X8144908Y-19864937D01*
X8383003Y-19683984D02*
X8402051Y-19683984D01*
X8402051Y-19683984D02*
X8421098Y-19693508D01*
X8421098Y-19693508D02*
X8430622Y-19703032D01*
X8430622Y-19703032D02*
X8440146Y-19722080D01*
X8440146Y-19722080D02*
X8449670Y-19760175D01*
X8449670Y-19760175D02*
X8449670Y-19807794D01*
X8449670Y-19807794D02*
X8440146Y-19845889D01*
X8440146Y-19845889D02*
X8430622Y-19864937D01*
X8430622Y-19864937D02*
X8421098Y-19874461D01*
X8421098Y-19874461D02*
X8402051Y-19883984D01*
X8402051Y-19883984D02*
X8383003Y-19883984D01*
X8383003Y-19883984D02*
X8363955Y-19874461D01*
X8363955Y-19874461D02*
X8354432Y-19864937D01*
X8354432Y-19864937D02*
X8344908Y-19845889D01*
X8344908Y-19845889D02*
X8335384Y-19807794D01*
X8335384Y-19807794D02*
X8335384Y-19760175D01*
X8335384Y-19760175D02*
X8344908Y-19722080D01*
X8344908Y-19722080D02*
X8354432Y-19703032D01*
X8354432Y-19703032D02*
X8363955Y-19693508D01*
X8363955Y-19693508D02*
X8383003Y-19683984D01*
X8573479Y-19683984D02*
X8592527Y-19683984D01*
X8592527Y-19683984D02*
X8611575Y-19693508D01*
X8611575Y-19693508D02*
X8621098Y-19703032D01*
X8621098Y-19703032D02*
X8630622Y-19722080D01*
X8630622Y-19722080D02*
X8640146Y-19760175D01*
X8640146Y-19760175D02*
X8640146Y-19807794D01*
X8640146Y-19807794D02*
X8630622Y-19845889D01*
X8630622Y-19845889D02*
X8621098Y-19864937D01*
X8621098Y-19864937D02*
X8611575Y-19874461D01*
X8611575Y-19874461D02*
X8592527Y-19883984D01*
X8592527Y-19883984D02*
X8573479Y-19883984D01*
X8573479Y-19883984D02*
X8554432Y-19874461D01*
X8554432Y-19874461D02*
X8544908Y-19864937D01*
X8544908Y-19864937D02*
X8535384Y-19845889D01*
X8535384Y-19845889D02*
X8525860Y-19807794D01*
X8525860Y-19807794D02*
X8525860Y-19760175D01*
X8525860Y-19760175D02*
X8535384Y-19722080D01*
X8535384Y-19722080D02*
X8544908Y-19703032D01*
X8544908Y-19703032D02*
X8554432Y-19693508D01*
X8554432Y-19693508D02*
X8573479Y-19683984D01*
X8725860Y-19883984D02*
X8725860Y-19750651D01*
X8725860Y-19769699D02*
X8735384Y-19760175D01*
X8735384Y-19760175D02*
X8754432Y-19750651D01*
X8754432Y-19750651D02*
X8783003Y-19750651D01*
X8783003Y-19750651D02*
X8802051Y-19760175D01*
X8802051Y-19760175D02*
X8811575Y-19779223D01*
X8811575Y-19779223D02*
X8811575Y-19883984D01*
X8811575Y-19779223D02*
X8821098Y-19760175D01*
X8821098Y-19760175D02*
X8840146Y-19750651D01*
X8840146Y-19750651D02*
X8868717Y-19750651D01*
X8868717Y-19750651D02*
X8887765Y-19760175D01*
X8887765Y-19760175D02*
X8897289Y-19779223D01*
X8897289Y-19779223D02*
X8897289Y-19883984D01*
X8992527Y-19883984D02*
X8992527Y-19750651D01*
X8992527Y-19769699D02*
X9002051Y-19760175D01*
X9002051Y-19760175D02*
X9021098Y-19750651D01*
X9021098Y-19750651D02*
X9049670Y-19750651D01*
X9049670Y-19750651D02*
X9068718Y-19760175D01*
X9068718Y-19760175D02*
X9078241Y-19779223D01*
X9078241Y-19779223D02*
X9078241Y-19883984D01*
X9078241Y-19779223D02*
X9087765Y-19760175D01*
X9087765Y-19760175D02*
X9106813Y-19750651D01*
X9106813Y-19750651D02*
X9135384Y-19750651D01*
X9135384Y-19750651D02*
X9154432Y-19760175D01*
X9154432Y-19760175D02*
X9163956Y-19779223D01*
X9163956Y-19779223D02*
X9163956Y-19883984D01*
X9554432Y-19674461D02*
X9383003Y-19931603D01*
X9811575Y-19683984D02*
X9830622Y-19683984D01*
X9830622Y-19683984D02*
X9849670Y-19693508D01*
X9849670Y-19693508D02*
X9859194Y-19703032D01*
X9859194Y-19703032D02*
X9868718Y-19722080D01*
X9868718Y-19722080D02*
X9878241Y-19760175D01*
X9878241Y-19760175D02*
X9878241Y-19807794D01*
X9878241Y-19807794D02*
X9868718Y-19845889D01*
X9868718Y-19845889D02*
X9859194Y-19864937D01*
X9859194Y-19864937D02*
X9849670Y-19874461D01*
X9849670Y-19874461D02*
X9830622Y-19883984D01*
X9830622Y-19883984D02*
X9811575Y-19883984D01*
X9811575Y-19883984D02*
X9792527Y-19874461D01*
X9792527Y-19874461D02*
X9783003Y-19864937D01*
X9783003Y-19864937D02*
X9773480Y-19845889D01*
X9773480Y-19845889D02*
X9763956Y-19807794D01*
X9763956Y-19807794D02*
X9763956Y-19760175D01*
X9763956Y-19760175D02*
X9773480Y-19722080D01*
X9773480Y-19722080D02*
X9783003Y-19703032D01*
X9783003Y-19703032D02*
X9792527Y-19693508D01*
X9792527Y-19693508D02*
X9811575Y-19683984D01*
X9963956Y-19864937D02*
X9973480Y-19874461D01*
X9973480Y-19874461D02*
X9963956Y-19883984D01*
X9963956Y-19883984D02*
X9954432Y-19874461D01*
X9954432Y-19874461D02*
X9963956Y-19864937D01*
X9963956Y-19864937D02*
X9963956Y-19883984D01*
X10097289Y-19683984D02*
X10116337Y-19683984D01*
X10116337Y-19683984D02*
X10135384Y-19693508D01*
X10135384Y-19693508D02*
X10144908Y-19703032D01*
X10144908Y-19703032D02*
X10154432Y-19722080D01*
X10154432Y-19722080D02*
X10163956Y-19760175D01*
X10163956Y-19760175D02*
X10163956Y-19807794D01*
X10163956Y-19807794D02*
X10154432Y-19845889D01*
X10154432Y-19845889D02*
X10144908Y-19864937D01*
X10144908Y-19864937D02*
X10135384Y-19874461D01*
X10135384Y-19874461D02*
X10116337Y-19883984D01*
X10116337Y-19883984D02*
X10097289Y-19883984D01*
X10097289Y-19883984D02*
X10078241Y-19874461D01*
X10078241Y-19874461D02*
X10068718Y-19864937D01*
X10068718Y-19864937D02*
X10059194Y-19845889D01*
X10059194Y-19845889D02*
X10049670Y-19807794D01*
X10049670Y-19807794D02*
X10049670Y-19760175D01*
X10049670Y-19760175D02*
X10059194Y-19722080D01*
X10059194Y-19722080D02*
X10068718Y-19703032D01*
X10068718Y-19703032D02*
X10078241Y-19693508D01*
X10078241Y-19693508D02*
X10097289Y-19683984D01*
X10354432Y-19883984D02*
X10240146Y-19883984D01*
X10297289Y-19883984D02*
X10297289Y-19683984D01*
X10297289Y-19683984D02*
X10278241Y-19712556D01*
X10278241Y-19712556D02*
X10259194Y-19731603D01*
X10259194Y-19731603D02*
X10240146Y-19741127D01*
X10449670Y-19883984D02*
X10487765Y-19883984D01*
X10487765Y-19883984D02*
X10506813Y-19874461D01*
X10506813Y-19874461D02*
X10516337Y-19864937D01*
X10516337Y-19864937D02*
X10535384Y-19836365D01*
X10535384Y-19836365D02*
X10544908Y-19798270D01*
X10544908Y-19798270D02*
X10544908Y-19722080D01*
X10544908Y-19722080D02*
X10535384Y-19703032D01*
X10535384Y-19703032D02*
X10525861Y-19693508D01*
X10525861Y-19693508D02*
X10506813Y-19683984D01*
X10506813Y-19683984D02*
X10468718Y-19683984D01*
X10468718Y-19683984D02*
X10449670Y-19693508D01*
X10449670Y-19693508D02*
X10440146Y-19703032D01*
X10440146Y-19703032D02*
X10430622Y-19722080D01*
X10430622Y-19722080D02*
X10430622Y-19769699D01*
X10430622Y-19769699D02*
X10440146Y-19788746D01*
X10440146Y-19788746D02*
X10449670Y-19798270D01*
X10449670Y-19798270D02*
X10468718Y-19807794D01*
X10468718Y-19807794D02*
X10506813Y-19807794D01*
X10506813Y-19807794D02*
X10525861Y-19798270D01*
X10525861Y-19798270D02*
X10535384Y-19788746D01*
X10535384Y-19788746D02*
X10544908Y-19769699D01*
X10611575Y-19683984D02*
X10744908Y-19683984D01*
X10744908Y-19683984D02*
X10659194Y-19883984D01*
X10811575Y-19683984D02*
X10811575Y-19722080D01*
X10887765Y-19683984D02*
X10887765Y-19722080D01*
X11183004Y-19960175D02*
X11173480Y-19950651D01*
X11173480Y-19950651D02*
X11154432Y-19922080D01*
X11154432Y-19922080D02*
X11144908Y-19903032D01*
X11144908Y-19903032D02*
X11135384Y-19874461D01*
X11135384Y-19874461D02*
X11125861Y-19826842D01*
X11125861Y-19826842D02*
X11125861Y-19788746D01*
X11125861Y-19788746D02*
X11135384Y-19741127D01*
X11135384Y-19741127D02*
X11144908Y-19712556D01*
X11144908Y-19712556D02*
X11154432Y-19693508D01*
X11154432Y-19693508D02*
X11173480Y-19664937D01*
X11173480Y-19664937D02*
X11183004Y-19655413D01*
X11354432Y-19683984D02*
X11259194Y-19683984D01*
X11259194Y-19683984D02*
X11249670Y-19779223D01*
X11249670Y-19779223D02*
X11259194Y-19769699D01*
X11259194Y-19769699D02*
X11278241Y-19760175D01*
X11278241Y-19760175D02*
X11325861Y-19760175D01*
X11325861Y-19760175D02*
X11344908Y-19769699D01*
X11344908Y-19769699D02*
X11354432Y-19779223D01*
X11354432Y-19779223D02*
X11363956Y-19798270D01*
X11363956Y-19798270D02*
X11363956Y-19845889D01*
X11363956Y-19845889D02*
X11354432Y-19864937D01*
X11354432Y-19864937D02*
X11344908Y-19874461D01*
X11344908Y-19874461D02*
X11325861Y-19883984D01*
X11325861Y-19883984D02*
X11278241Y-19883984D01*
X11278241Y-19883984D02*
X11259194Y-19874461D01*
X11259194Y-19874461D02*
X11249670Y-19864937D01*
X11535384Y-19683984D02*
X11497289Y-19683984D01*
X11497289Y-19683984D02*
X11478241Y-19693508D01*
X11478241Y-19693508D02*
X11468718Y-19703032D01*
X11468718Y-19703032D02*
X11449670Y-19731603D01*
X11449670Y-19731603D02*
X11440146Y-19769699D01*
X11440146Y-19769699D02*
X11440146Y-19845889D01*
X11440146Y-19845889D02*
X11449670Y-19864937D01*
X11449670Y-19864937D02*
X11459194Y-19874461D01*
X11459194Y-19874461D02*
X11478241Y-19883984D01*
X11478241Y-19883984D02*
X11516337Y-19883984D01*
X11516337Y-19883984D02*
X11535384Y-19874461D01*
X11535384Y-19874461D02*
X11544908Y-19864937D01*
X11544908Y-19864937D02*
X11554432Y-19845889D01*
X11554432Y-19845889D02*
X11554432Y-19798270D01*
X11554432Y-19798270D02*
X11544908Y-19779223D01*
X11544908Y-19779223D02*
X11535384Y-19769699D01*
X11535384Y-19769699D02*
X11516337Y-19760175D01*
X11516337Y-19760175D02*
X11478241Y-19760175D01*
X11478241Y-19760175D02*
X11459194Y-19769699D01*
X11459194Y-19769699D02*
X11449670Y-19779223D01*
X11449670Y-19779223D02*
X11440146Y-19798270D01*
X11792527Y-19883984D02*
X11792527Y-19683984D01*
X11878242Y-19883984D02*
X11878242Y-19779223D01*
X11878242Y-19779223D02*
X11868718Y-19760175D01*
X11868718Y-19760175D02*
X11849670Y-19750651D01*
X11849670Y-19750651D02*
X11821099Y-19750651D01*
X11821099Y-19750651D02*
X11802051Y-19760175D01*
X11802051Y-19760175D02*
X11792527Y-19769699D01*
X12002051Y-19883984D02*
X11983003Y-19874461D01*
X11983003Y-19874461D02*
X11973480Y-19864937D01*
X11973480Y-19864937D02*
X11963956Y-19845889D01*
X11963956Y-19845889D02*
X11963956Y-19788746D01*
X11963956Y-19788746D02*
X11973480Y-19769699D01*
X11973480Y-19769699D02*
X11983003Y-19760175D01*
X11983003Y-19760175D02*
X12002051Y-19750651D01*
X12002051Y-19750651D02*
X12030623Y-19750651D01*
X12030623Y-19750651D02*
X12049670Y-19760175D01*
X12049670Y-19760175D02*
X12059194Y-19769699D01*
X12059194Y-19769699D02*
X12068718Y-19788746D01*
X12068718Y-19788746D02*
X12068718Y-19845889D01*
X12068718Y-19845889D02*
X12059194Y-19864937D01*
X12059194Y-19864937D02*
X12049670Y-19874461D01*
X12049670Y-19874461D02*
X12030623Y-19883984D01*
X12030623Y-19883984D02*
X12002051Y-19883984D01*
X12183003Y-19883984D02*
X12163956Y-19874461D01*
X12163956Y-19874461D02*
X12154432Y-19855413D01*
X12154432Y-19855413D02*
X12154432Y-19683984D01*
X12335384Y-19874461D02*
X12316337Y-19883984D01*
X12316337Y-19883984D02*
X12278242Y-19883984D01*
X12278242Y-19883984D02*
X12259194Y-19874461D01*
X12259194Y-19874461D02*
X12249670Y-19855413D01*
X12249670Y-19855413D02*
X12249670Y-19779223D01*
X12249670Y-19779223D02*
X12259194Y-19760175D01*
X12259194Y-19760175D02*
X12278242Y-19750651D01*
X12278242Y-19750651D02*
X12316337Y-19750651D01*
X12316337Y-19750651D02*
X12335384Y-19760175D01*
X12335384Y-19760175D02*
X12344908Y-19779223D01*
X12344908Y-19779223D02*
X12344908Y-19798270D01*
X12344908Y-19798270D02*
X12249670Y-19817318D01*
X12421099Y-19874461D02*
X12440146Y-19883984D01*
X12440146Y-19883984D02*
X12478242Y-19883984D01*
X12478242Y-19883984D02*
X12497289Y-19874461D01*
X12497289Y-19874461D02*
X12506813Y-19855413D01*
X12506813Y-19855413D02*
X12506813Y-19845889D01*
X12506813Y-19845889D02*
X12497289Y-19826842D01*
X12497289Y-19826842D02*
X12478242Y-19817318D01*
X12478242Y-19817318D02*
X12449670Y-19817318D01*
X12449670Y-19817318D02*
X12430623Y-19807794D01*
X12430623Y-19807794D02*
X12421099Y-19788746D01*
X12421099Y-19788746D02*
X12421099Y-19779223D01*
X12421099Y-19779223D02*
X12430623Y-19760175D01*
X12430623Y-19760175D02*
X12449670Y-19750651D01*
X12449670Y-19750651D02*
X12478242Y-19750651D01*
X12478242Y-19750651D02*
X12497289Y-19760175D01*
X12573480Y-19960175D02*
X12583004Y-19950651D01*
X12583004Y-19950651D02*
X12602051Y-19922080D01*
X12602051Y-19922080D02*
X12611575Y-19903032D01*
X12611575Y-19903032D02*
X12621099Y-19874461D01*
X12621099Y-19874461D02*
X12630623Y-19826842D01*
X12630623Y-19826842D02*
X12630623Y-19788746D01*
X12630623Y-19788746D02*
X12621099Y-19741127D01*
X12621099Y-19741127D02*
X12611575Y-19712556D01*
X12611575Y-19712556D02*
X12602051Y-19693508D01*
X12602051Y-19693508D02*
X12583004Y-19664937D01*
X12583004Y-19664937D02*
X12573480Y-19655413D01*
X12935385Y-19960175D02*
X12925861Y-19950651D01*
X12925861Y-19950651D02*
X12906813Y-19922080D01*
X12906813Y-19922080D02*
X12897289Y-19903032D01*
X12897289Y-19903032D02*
X12887765Y-19874461D01*
X12887765Y-19874461D02*
X12878242Y-19826842D01*
X12878242Y-19826842D02*
X12878242Y-19788746D01*
X12878242Y-19788746D02*
X12887765Y-19741127D01*
X12887765Y-19741127D02*
X12897289Y-19712556D01*
X12897289Y-19712556D02*
X12906813Y-19693508D01*
X12906813Y-19693508D02*
X12925861Y-19664937D01*
X12925861Y-19664937D02*
X12935385Y-19655413D01*
X13011575Y-19750651D02*
X13011575Y-19883984D01*
X13011575Y-19769699D02*
X13021099Y-19760175D01*
X13021099Y-19760175D02*
X13040146Y-19750651D01*
X13040146Y-19750651D02*
X13068718Y-19750651D01*
X13068718Y-19750651D02*
X13087765Y-19760175D01*
X13087765Y-19760175D02*
X13097289Y-19779223D01*
X13097289Y-19779223D02*
X13097289Y-19883984D01*
X13221099Y-19883984D02*
X13202051Y-19874461D01*
X13202051Y-19874461D02*
X13192527Y-19864937D01*
X13192527Y-19864937D02*
X13183004Y-19845889D01*
X13183004Y-19845889D02*
X13183004Y-19788746D01*
X13183004Y-19788746D02*
X13192527Y-19769699D01*
X13192527Y-19769699D02*
X13202051Y-19760175D01*
X13202051Y-19760175D02*
X13221099Y-19750651D01*
X13221099Y-19750651D02*
X13249670Y-19750651D01*
X13249670Y-19750651D02*
X13268718Y-19760175D01*
X13268718Y-19760175D02*
X13278242Y-19769699D01*
X13278242Y-19769699D02*
X13287765Y-19788746D01*
X13287765Y-19788746D02*
X13287765Y-19845889D01*
X13287765Y-19845889D02*
X13278242Y-19864937D01*
X13278242Y-19864937D02*
X13268718Y-19874461D01*
X13268718Y-19874461D02*
X13249670Y-19883984D01*
X13249670Y-19883984D02*
X13221099Y-19883984D01*
X13344908Y-19750651D02*
X13421099Y-19750651D01*
X13373480Y-19683984D02*
X13373480Y-19855413D01*
X13373480Y-19855413D02*
X13383004Y-19874461D01*
X13383004Y-19874461D02*
X13402051Y-19883984D01*
X13402051Y-19883984D02*
X13421099Y-19883984D01*
X13640146Y-19750651D02*
X13640146Y-19950651D01*
X13640146Y-19760175D02*
X13659194Y-19750651D01*
X13659194Y-19750651D02*
X13697289Y-19750651D01*
X13697289Y-19750651D02*
X13716337Y-19760175D01*
X13716337Y-19760175D02*
X13725861Y-19769699D01*
X13725861Y-19769699D02*
X13735385Y-19788746D01*
X13735385Y-19788746D02*
X13735385Y-19845889D01*
X13735385Y-19845889D02*
X13725861Y-19864937D01*
X13725861Y-19864937D02*
X13716337Y-19874461D01*
X13716337Y-19874461D02*
X13697289Y-19883984D01*
X13697289Y-19883984D02*
X13659194Y-19883984D01*
X13659194Y-19883984D02*
X13640146Y-19874461D01*
X13849670Y-19883984D02*
X13830623Y-19874461D01*
X13830623Y-19874461D02*
X13821099Y-19855413D01*
X13821099Y-19855413D02*
X13821099Y-19683984D01*
X14011575Y-19883984D02*
X14011575Y-19779223D01*
X14011575Y-19779223D02*
X14002051Y-19760175D01*
X14002051Y-19760175D02*
X13983004Y-19750651D01*
X13983004Y-19750651D02*
X13944908Y-19750651D01*
X13944908Y-19750651D02*
X13925861Y-19760175D01*
X14011575Y-19874461D02*
X13992527Y-19883984D01*
X13992527Y-19883984D02*
X13944908Y-19883984D01*
X13944908Y-19883984D02*
X13925861Y-19874461D01*
X13925861Y-19874461D02*
X13916337Y-19855413D01*
X13916337Y-19855413D02*
X13916337Y-19836365D01*
X13916337Y-19836365D02*
X13925861Y-19817318D01*
X13925861Y-19817318D02*
X13944908Y-19807794D01*
X13944908Y-19807794D02*
X13992527Y-19807794D01*
X13992527Y-19807794D02*
X14011575Y-19798270D01*
X14078242Y-19750651D02*
X14154432Y-19750651D01*
X14106813Y-19683984D02*
X14106813Y-19855413D01*
X14106813Y-19855413D02*
X14116337Y-19874461D01*
X14116337Y-19874461D02*
X14135385Y-19883984D01*
X14135385Y-19883984D02*
X14154432Y-19883984D01*
X14297289Y-19874461D02*
X14278242Y-19883984D01*
X14278242Y-19883984D02*
X14240146Y-19883984D01*
X14240146Y-19883984D02*
X14221099Y-19874461D01*
X14221099Y-19874461D02*
X14211575Y-19855413D01*
X14211575Y-19855413D02*
X14211575Y-19779223D01*
X14211575Y-19779223D02*
X14221099Y-19760175D01*
X14221099Y-19760175D02*
X14240146Y-19750651D01*
X14240146Y-19750651D02*
X14278242Y-19750651D01*
X14278242Y-19750651D02*
X14297289Y-19760175D01*
X14297289Y-19760175D02*
X14306813Y-19779223D01*
X14306813Y-19779223D02*
X14306813Y-19798270D01*
X14306813Y-19798270D02*
X14211575Y-19817318D01*
X14478242Y-19883984D02*
X14478242Y-19683984D01*
X14478242Y-19874461D02*
X14459194Y-19883984D01*
X14459194Y-19883984D02*
X14421099Y-19883984D01*
X14421099Y-19883984D02*
X14402051Y-19874461D01*
X14402051Y-19874461D02*
X14392527Y-19864937D01*
X14392527Y-19864937D02*
X14383004Y-19845889D01*
X14383004Y-19845889D02*
X14383004Y-19788746D01*
X14383004Y-19788746D02*
X14392527Y-19769699D01*
X14392527Y-19769699D02*
X14402051Y-19760175D01*
X14402051Y-19760175D02*
X14421099Y-19750651D01*
X14421099Y-19750651D02*
X14459194Y-19750651D01*
X14459194Y-19750651D02*
X14478242Y-19760175D01*
X14554432Y-19960175D02*
X14563956Y-19950651D01*
X14563956Y-19950651D02*
X14583004Y-19922080D01*
X14583004Y-19922080D02*
X14592527Y-19903032D01*
X14592527Y-19903032D02*
X14602051Y-19874461D01*
X14602051Y-19874461D02*
X14611575Y-19826842D01*
X14611575Y-19826842D02*
X14611575Y-19788746D01*
X14611575Y-19788746D02*
X14602051Y-19741127D01*
X14602051Y-19741127D02*
X14592527Y-19712556D01*
X14592527Y-19712556D02*
X14583004Y-19693508D01*
X14583004Y-19693508D02*
X14563956Y-19664937D01*
X14563956Y-19664937D02*
X14554432Y-19655413D01*
D11*
X7607941Y-20056501D02*
G75*
G02*
X7527941Y-20056501I-40000J0D01*
G01*
X7527941Y-20056501D02*
G75*
G02*
X7607941Y-20056501I40000J0D01*
G01*
D12*
X7906813Y-19947984D02*
X7925860Y-19947984D01*
X7925860Y-19947984D02*
X7944908Y-19957508D01*
X7944908Y-19957508D02*
X7954432Y-19967032D01*
X7954432Y-19967032D02*
X7963955Y-19986080D01*
X7963955Y-19986080D02*
X7973479Y-20024175D01*
X7973479Y-20024175D02*
X7973479Y-20071794D01*
X7973479Y-20071794D02*
X7963955Y-20109889D01*
X7963955Y-20109889D02*
X7954432Y-20128937D01*
X7954432Y-20128937D02*
X7944908Y-20138461D01*
X7944908Y-20138461D02*
X7925860Y-20147984D01*
X7925860Y-20147984D02*
X7906813Y-20147984D01*
X7906813Y-20147984D02*
X7887765Y-20138461D01*
X7887765Y-20138461D02*
X7878241Y-20128937D01*
X7878241Y-20128937D02*
X7868717Y-20109889D01*
X7868717Y-20109889D02*
X7859194Y-20071794D01*
X7859194Y-20071794D02*
X7859194Y-20024175D01*
X7859194Y-20024175D02*
X7868717Y-19986080D01*
X7868717Y-19986080D02*
X7878241Y-19967032D01*
X7878241Y-19967032D02*
X7887765Y-19957508D01*
X7887765Y-19957508D02*
X7906813Y-19947984D01*
X8059194Y-20128937D02*
X8068717Y-20138461D01*
X8068717Y-20138461D02*
X8059194Y-20147984D01*
X8059194Y-20147984D02*
X8049670Y-20138461D01*
X8049670Y-20138461D02*
X8059194Y-20128937D01*
X8059194Y-20128937D02*
X8059194Y-20147984D01*
X8183003Y-20033699D02*
X8163955Y-20024175D01*
X8163955Y-20024175D02*
X8154432Y-20014651D01*
X8154432Y-20014651D02*
X8144908Y-19995603D01*
X8144908Y-19995603D02*
X8144908Y-19986080D01*
X8144908Y-19986080D02*
X8154432Y-19967032D01*
X8154432Y-19967032D02*
X8163955Y-19957508D01*
X8163955Y-19957508D02*
X8183003Y-19947984D01*
X8183003Y-19947984D02*
X8221098Y-19947984D01*
X8221098Y-19947984D02*
X8240146Y-19957508D01*
X8240146Y-19957508D02*
X8249670Y-19967032D01*
X8249670Y-19967032D02*
X8259194Y-19986080D01*
X8259194Y-19986080D02*
X8259194Y-19995603D01*
X8259194Y-19995603D02*
X8249670Y-20014651D01*
X8249670Y-20014651D02*
X8240146Y-20024175D01*
X8240146Y-20024175D02*
X8221098Y-20033699D01*
X8221098Y-20033699D02*
X8183003Y-20033699D01*
X8183003Y-20033699D02*
X8163955Y-20043223D01*
X8163955Y-20043223D02*
X8154432Y-20052746D01*
X8154432Y-20052746D02*
X8144908Y-20071794D01*
X8144908Y-20071794D02*
X8144908Y-20109889D01*
X8144908Y-20109889D02*
X8154432Y-20128937D01*
X8154432Y-20128937D02*
X8163955Y-20138461D01*
X8163955Y-20138461D02*
X8183003Y-20147984D01*
X8183003Y-20147984D02*
X8221098Y-20147984D01*
X8221098Y-20147984D02*
X8240146Y-20138461D01*
X8240146Y-20138461D02*
X8249670Y-20128937D01*
X8249670Y-20128937D02*
X8259194Y-20109889D01*
X8259194Y-20109889D02*
X8259194Y-20071794D01*
X8259194Y-20071794D02*
X8249670Y-20052746D01*
X8249670Y-20052746D02*
X8240146Y-20043223D01*
X8240146Y-20043223D02*
X8221098Y-20033699D01*
X8383003Y-19947984D02*
X8402051Y-19947984D01*
X8402051Y-19947984D02*
X8421098Y-19957508D01*
X8421098Y-19957508D02*
X8430622Y-19967032D01*
X8430622Y-19967032D02*
X8440146Y-19986080D01*
X8440146Y-19986080D02*
X8449670Y-20024175D01*
X8449670Y-20024175D02*
X8449670Y-20071794D01*
X8449670Y-20071794D02*
X8440146Y-20109889D01*
X8440146Y-20109889D02*
X8430622Y-20128937D01*
X8430622Y-20128937D02*
X8421098Y-20138461D01*
X8421098Y-20138461D02*
X8402051Y-20147984D01*
X8402051Y-20147984D02*
X8383003Y-20147984D01*
X8383003Y-20147984D02*
X8363955Y-20138461D01*
X8363955Y-20138461D02*
X8354432Y-20128937D01*
X8354432Y-20128937D02*
X8344908Y-20109889D01*
X8344908Y-20109889D02*
X8335384Y-20071794D01*
X8335384Y-20071794D02*
X8335384Y-20024175D01*
X8335384Y-20024175D02*
X8344908Y-19986080D01*
X8344908Y-19986080D02*
X8354432Y-19967032D01*
X8354432Y-19967032D02*
X8363955Y-19957508D01*
X8363955Y-19957508D02*
X8383003Y-19947984D01*
X8573479Y-19947984D02*
X8592527Y-19947984D01*
X8592527Y-19947984D02*
X8611575Y-19957508D01*
X8611575Y-19957508D02*
X8621098Y-19967032D01*
X8621098Y-19967032D02*
X8630622Y-19986080D01*
X8630622Y-19986080D02*
X8640146Y-20024175D01*
X8640146Y-20024175D02*
X8640146Y-20071794D01*
X8640146Y-20071794D02*
X8630622Y-20109889D01*
X8630622Y-20109889D02*
X8621098Y-20128937D01*
X8621098Y-20128937D02*
X8611575Y-20138461D01*
X8611575Y-20138461D02*
X8592527Y-20147984D01*
X8592527Y-20147984D02*
X8573479Y-20147984D01*
X8573479Y-20147984D02*
X8554432Y-20138461D01*
X8554432Y-20138461D02*
X8544908Y-20128937D01*
X8544908Y-20128937D02*
X8535384Y-20109889D01*
X8535384Y-20109889D02*
X8525860Y-20071794D01*
X8525860Y-20071794D02*
X8525860Y-20024175D01*
X8525860Y-20024175D02*
X8535384Y-19986080D01*
X8535384Y-19986080D02*
X8544908Y-19967032D01*
X8544908Y-19967032D02*
X8554432Y-19957508D01*
X8554432Y-19957508D02*
X8573479Y-19947984D01*
X8725860Y-20147984D02*
X8725860Y-20014651D01*
X8725860Y-20033699D02*
X8735384Y-20024175D01*
X8735384Y-20024175D02*
X8754432Y-20014651D01*
X8754432Y-20014651D02*
X8783003Y-20014651D01*
X8783003Y-20014651D02*
X8802051Y-20024175D01*
X8802051Y-20024175D02*
X8811575Y-20043223D01*
X8811575Y-20043223D02*
X8811575Y-20147984D01*
X8811575Y-20043223D02*
X8821098Y-20024175D01*
X8821098Y-20024175D02*
X8840146Y-20014651D01*
X8840146Y-20014651D02*
X8868717Y-20014651D01*
X8868717Y-20014651D02*
X8887765Y-20024175D01*
X8887765Y-20024175D02*
X8897289Y-20043223D01*
X8897289Y-20043223D02*
X8897289Y-20147984D01*
X8992527Y-20147984D02*
X8992527Y-20014651D01*
X8992527Y-20033699D02*
X9002051Y-20024175D01*
X9002051Y-20024175D02*
X9021098Y-20014651D01*
X9021098Y-20014651D02*
X9049670Y-20014651D01*
X9049670Y-20014651D02*
X9068718Y-20024175D01*
X9068718Y-20024175D02*
X9078241Y-20043223D01*
X9078241Y-20043223D02*
X9078241Y-20147984D01*
X9078241Y-20043223D02*
X9087765Y-20024175D01*
X9087765Y-20024175D02*
X9106813Y-20014651D01*
X9106813Y-20014651D02*
X9135384Y-20014651D01*
X9135384Y-20014651D02*
X9154432Y-20024175D01*
X9154432Y-20024175D02*
X9163956Y-20043223D01*
X9163956Y-20043223D02*
X9163956Y-20147984D01*
X9554432Y-19938461D02*
X9383003Y-20195603D01*
X9811575Y-19947984D02*
X9830622Y-19947984D01*
X9830622Y-19947984D02*
X9849670Y-19957508D01*
X9849670Y-19957508D02*
X9859194Y-19967032D01*
X9859194Y-19967032D02*
X9868718Y-19986080D01*
X9868718Y-19986080D02*
X9878241Y-20024175D01*
X9878241Y-20024175D02*
X9878241Y-20071794D01*
X9878241Y-20071794D02*
X9868718Y-20109889D01*
X9868718Y-20109889D02*
X9859194Y-20128937D01*
X9859194Y-20128937D02*
X9849670Y-20138461D01*
X9849670Y-20138461D02*
X9830622Y-20147984D01*
X9830622Y-20147984D02*
X9811575Y-20147984D01*
X9811575Y-20147984D02*
X9792527Y-20138461D01*
X9792527Y-20138461D02*
X9783003Y-20128937D01*
X9783003Y-20128937D02*
X9773480Y-20109889D01*
X9773480Y-20109889D02*
X9763956Y-20071794D01*
X9763956Y-20071794D02*
X9763956Y-20024175D01*
X9763956Y-20024175D02*
X9773480Y-19986080D01*
X9773480Y-19986080D02*
X9783003Y-19967032D01*
X9783003Y-19967032D02*
X9792527Y-19957508D01*
X9792527Y-19957508D02*
X9811575Y-19947984D01*
X9963956Y-20128937D02*
X9973480Y-20138461D01*
X9973480Y-20138461D02*
X9963956Y-20147984D01*
X9963956Y-20147984D02*
X9954432Y-20138461D01*
X9954432Y-20138461D02*
X9963956Y-20128937D01*
X9963956Y-20128937D02*
X9963956Y-20147984D01*
X10097289Y-19947984D02*
X10116337Y-19947984D01*
X10116337Y-19947984D02*
X10135384Y-19957508D01*
X10135384Y-19957508D02*
X10144908Y-19967032D01*
X10144908Y-19967032D02*
X10154432Y-19986080D01*
X10154432Y-19986080D02*
X10163956Y-20024175D01*
X10163956Y-20024175D02*
X10163956Y-20071794D01*
X10163956Y-20071794D02*
X10154432Y-20109889D01*
X10154432Y-20109889D02*
X10144908Y-20128937D01*
X10144908Y-20128937D02*
X10135384Y-20138461D01*
X10135384Y-20138461D02*
X10116337Y-20147984D01*
X10116337Y-20147984D02*
X10097289Y-20147984D01*
X10097289Y-20147984D02*
X10078241Y-20138461D01*
X10078241Y-20138461D02*
X10068718Y-20128937D01*
X10068718Y-20128937D02*
X10059194Y-20109889D01*
X10059194Y-20109889D02*
X10049670Y-20071794D01*
X10049670Y-20071794D02*
X10049670Y-20024175D01*
X10049670Y-20024175D02*
X10059194Y-19986080D01*
X10059194Y-19986080D02*
X10068718Y-19967032D01*
X10068718Y-19967032D02*
X10078241Y-19957508D01*
X10078241Y-19957508D02*
X10097289Y-19947984D01*
X10230622Y-19947984D02*
X10354432Y-19947984D01*
X10354432Y-19947984D02*
X10287765Y-20024175D01*
X10287765Y-20024175D02*
X10316337Y-20024175D01*
X10316337Y-20024175D02*
X10335384Y-20033699D01*
X10335384Y-20033699D02*
X10344908Y-20043223D01*
X10344908Y-20043223D02*
X10354432Y-20062270D01*
X10354432Y-20062270D02*
X10354432Y-20109889D01*
X10354432Y-20109889D02*
X10344908Y-20128937D01*
X10344908Y-20128937D02*
X10335384Y-20138461D01*
X10335384Y-20138461D02*
X10316337Y-20147984D01*
X10316337Y-20147984D02*
X10259194Y-20147984D01*
X10259194Y-20147984D02*
X10240146Y-20138461D01*
X10240146Y-20138461D02*
X10230622Y-20128937D01*
X10544908Y-20147984D02*
X10430622Y-20147984D01*
X10487765Y-20147984D02*
X10487765Y-19947984D01*
X10487765Y-19947984D02*
X10468718Y-19976556D01*
X10468718Y-19976556D02*
X10449670Y-19995603D01*
X10449670Y-19995603D02*
X10430622Y-20005127D01*
X10725861Y-19947984D02*
X10630622Y-19947984D01*
X10630622Y-19947984D02*
X10621099Y-20043223D01*
X10621099Y-20043223D02*
X10630622Y-20033699D01*
X10630622Y-20033699D02*
X10649670Y-20024175D01*
X10649670Y-20024175D02*
X10697289Y-20024175D01*
X10697289Y-20024175D02*
X10716337Y-20033699D01*
X10716337Y-20033699D02*
X10725861Y-20043223D01*
X10725861Y-20043223D02*
X10735384Y-20062270D01*
X10735384Y-20062270D02*
X10735384Y-20109889D01*
X10735384Y-20109889D02*
X10725861Y-20128937D01*
X10725861Y-20128937D02*
X10716337Y-20138461D01*
X10716337Y-20138461D02*
X10697289Y-20147984D01*
X10697289Y-20147984D02*
X10649670Y-20147984D01*
X10649670Y-20147984D02*
X10630622Y-20138461D01*
X10630622Y-20138461D02*
X10621099Y-20128937D01*
X10811575Y-19947984D02*
X10811575Y-19986080D01*
X10887765Y-19947984D02*
X10887765Y-19986080D01*
X11183004Y-20224175D02*
X11173480Y-20214651D01*
X11173480Y-20214651D02*
X11154432Y-20186080D01*
X11154432Y-20186080D02*
X11144908Y-20167032D01*
X11144908Y-20167032D02*
X11135384Y-20138461D01*
X11135384Y-20138461D02*
X11125861Y-20090842D01*
X11125861Y-20090842D02*
X11125861Y-20052746D01*
X11125861Y-20052746D02*
X11135384Y-20005127D01*
X11135384Y-20005127D02*
X11144908Y-19976556D01*
X11144908Y-19976556D02*
X11154432Y-19957508D01*
X11154432Y-19957508D02*
X11173480Y-19928937D01*
X11173480Y-19928937D02*
X11183004Y-19919413D01*
X11344908Y-20014651D02*
X11344908Y-20147984D01*
X11297289Y-19938461D02*
X11249670Y-20081318D01*
X11249670Y-20081318D02*
X11373480Y-20081318D01*
X11602051Y-20147984D02*
X11602051Y-19947984D01*
X11687765Y-20147984D02*
X11687765Y-20043223D01*
X11687765Y-20043223D02*
X11678242Y-20024175D01*
X11678242Y-20024175D02*
X11659194Y-20014651D01*
X11659194Y-20014651D02*
X11630622Y-20014651D01*
X11630622Y-20014651D02*
X11611575Y-20024175D01*
X11611575Y-20024175D02*
X11602051Y-20033699D01*
X11811575Y-20147984D02*
X11792527Y-20138461D01*
X11792527Y-20138461D02*
X11783003Y-20128937D01*
X11783003Y-20128937D02*
X11773480Y-20109889D01*
X11773480Y-20109889D02*
X11773480Y-20052746D01*
X11773480Y-20052746D02*
X11783003Y-20033699D01*
X11783003Y-20033699D02*
X11792527Y-20024175D01*
X11792527Y-20024175D02*
X11811575Y-20014651D01*
X11811575Y-20014651D02*
X11840146Y-20014651D01*
X11840146Y-20014651D02*
X11859194Y-20024175D01*
X11859194Y-20024175D02*
X11868718Y-20033699D01*
X11868718Y-20033699D02*
X11878242Y-20052746D01*
X11878242Y-20052746D02*
X11878242Y-20109889D01*
X11878242Y-20109889D02*
X11868718Y-20128937D01*
X11868718Y-20128937D02*
X11859194Y-20138461D01*
X11859194Y-20138461D02*
X11840146Y-20147984D01*
X11840146Y-20147984D02*
X11811575Y-20147984D01*
X11992527Y-20147984D02*
X11973480Y-20138461D01*
X11973480Y-20138461D02*
X11963956Y-20119413D01*
X11963956Y-20119413D02*
X11963956Y-19947984D01*
X12144908Y-20138461D02*
X12125861Y-20147984D01*
X12125861Y-20147984D02*
X12087765Y-20147984D01*
X12087765Y-20147984D02*
X12068718Y-20138461D01*
X12068718Y-20138461D02*
X12059194Y-20119413D01*
X12059194Y-20119413D02*
X12059194Y-20043223D01*
X12059194Y-20043223D02*
X12068718Y-20024175D01*
X12068718Y-20024175D02*
X12087765Y-20014651D01*
X12087765Y-20014651D02*
X12125861Y-20014651D01*
X12125861Y-20014651D02*
X12144908Y-20024175D01*
X12144908Y-20024175D02*
X12154432Y-20043223D01*
X12154432Y-20043223D02*
X12154432Y-20062270D01*
X12154432Y-20062270D02*
X12059194Y-20081318D01*
X12230623Y-20138461D02*
X12249670Y-20147984D01*
X12249670Y-20147984D02*
X12287765Y-20147984D01*
X12287765Y-20147984D02*
X12306813Y-20138461D01*
X12306813Y-20138461D02*
X12316337Y-20119413D01*
X12316337Y-20119413D02*
X12316337Y-20109889D01*
X12316337Y-20109889D02*
X12306813Y-20090842D01*
X12306813Y-20090842D02*
X12287765Y-20081318D01*
X12287765Y-20081318D02*
X12259194Y-20081318D01*
X12259194Y-20081318D02*
X12240146Y-20071794D01*
X12240146Y-20071794D02*
X12230623Y-20052746D01*
X12230623Y-20052746D02*
X12230623Y-20043223D01*
X12230623Y-20043223D02*
X12240146Y-20024175D01*
X12240146Y-20024175D02*
X12259194Y-20014651D01*
X12259194Y-20014651D02*
X12287765Y-20014651D01*
X12287765Y-20014651D02*
X12306813Y-20024175D01*
X12383004Y-20224175D02*
X12392527Y-20214651D01*
X12392527Y-20214651D02*
X12411575Y-20186080D01*
X12411575Y-20186080D02*
X12421099Y-20167032D01*
X12421099Y-20167032D02*
X12430623Y-20138461D01*
X12430623Y-20138461D02*
X12440146Y-20090842D01*
X12440146Y-20090842D02*
X12440146Y-20052746D01*
X12440146Y-20052746D02*
X12430623Y-20005127D01*
X12430623Y-20005127D02*
X12421099Y-19976556D01*
X12421099Y-19976556D02*
X12411575Y-19957508D01*
X12411575Y-19957508D02*
X12392527Y-19928937D01*
X12392527Y-19928937D02*
X12383004Y-19919413D01*
X12744908Y-20224175D02*
X12735384Y-20214651D01*
X12735384Y-20214651D02*
X12716337Y-20186080D01*
X12716337Y-20186080D02*
X12706813Y-20167032D01*
X12706813Y-20167032D02*
X12697289Y-20138461D01*
X12697289Y-20138461D02*
X12687765Y-20090842D01*
X12687765Y-20090842D02*
X12687765Y-20052746D01*
X12687765Y-20052746D02*
X12697289Y-20005127D01*
X12697289Y-20005127D02*
X12706813Y-19976556D01*
X12706813Y-19976556D02*
X12716337Y-19957508D01*
X12716337Y-19957508D02*
X12735384Y-19928937D01*
X12735384Y-19928937D02*
X12744908Y-19919413D01*
X12821099Y-20014651D02*
X12821099Y-20147984D01*
X12821099Y-20033699D02*
X12830623Y-20024175D01*
X12830623Y-20024175D02*
X12849670Y-20014651D01*
X12849670Y-20014651D02*
X12878242Y-20014651D01*
X12878242Y-20014651D02*
X12897289Y-20024175D01*
X12897289Y-20024175D02*
X12906813Y-20043223D01*
X12906813Y-20043223D02*
X12906813Y-20147984D01*
X13030623Y-20147984D02*
X13011575Y-20138461D01*
X13011575Y-20138461D02*
X13002051Y-20128937D01*
X13002051Y-20128937D02*
X12992527Y-20109889D01*
X12992527Y-20109889D02*
X12992527Y-20052746D01*
X12992527Y-20052746D02*
X13002051Y-20033699D01*
X13002051Y-20033699D02*
X13011575Y-20024175D01*
X13011575Y-20024175D02*
X13030623Y-20014651D01*
X13030623Y-20014651D02*
X13059194Y-20014651D01*
X13059194Y-20014651D02*
X13078242Y-20024175D01*
X13078242Y-20024175D02*
X13087765Y-20033699D01*
X13087765Y-20033699D02*
X13097289Y-20052746D01*
X13097289Y-20052746D02*
X13097289Y-20109889D01*
X13097289Y-20109889D02*
X13087765Y-20128937D01*
X13087765Y-20128937D02*
X13078242Y-20138461D01*
X13078242Y-20138461D02*
X13059194Y-20147984D01*
X13059194Y-20147984D02*
X13030623Y-20147984D01*
X13154432Y-20014651D02*
X13230623Y-20014651D01*
X13183004Y-19947984D02*
X13183004Y-20119413D01*
X13183004Y-20119413D02*
X13192527Y-20138461D01*
X13192527Y-20138461D02*
X13211575Y-20147984D01*
X13211575Y-20147984D02*
X13230623Y-20147984D01*
X13449670Y-20014651D02*
X13449670Y-20214651D01*
X13449670Y-20024175D02*
X13468718Y-20014651D01*
X13468718Y-20014651D02*
X13506813Y-20014651D01*
X13506813Y-20014651D02*
X13525861Y-20024175D01*
X13525861Y-20024175D02*
X13535385Y-20033699D01*
X13535385Y-20033699D02*
X13544908Y-20052746D01*
X13544908Y-20052746D02*
X13544908Y-20109889D01*
X13544908Y-20109889D02*
X13535385Y-20128937D01*
X13535385Y-20128937D02*
X13525861Y-20138461D01*
X13525861Y-20138461D02*
X13506813Y-20147984D01*
X13506813Y-20147984D02*
X13468718Y-20147984D01*
X13468718Y-20147984D02*
X13449670Y-20138461D01*
X13659194Y-20147984D02*
X13640146Y-20138461D01*
X13640146Y-20138461D02*
X13630623Y-20119413D01*
X13630623Y-20119413D02*
X13630623Y-19947984D01*
X13821099Y-20147984D02*
X13821099Y-20043223D01*
X13821099Y-20043223D02*
X13811575Y-20024175D01*
X13811575Y-20024175D02*
X13792527Y-20014651D01*
X13792527Y-20014651D02*
X13754432Y-20014651D01*
X13754432Y-20014651D02*
X13735385Y-20024175D01*
X13821099Y-20138461D02*
X13802051Y-20147984D01*
X13802051Y-20147984D02*
X13754432Y-20147984D01*
X13754432Y-20147984D02*
X13735385Y-20138461D01*
X13735385Y-20138461D02*
X13725861Y-20119413D01*
X13725861Y-20119413D02*
X13725861Y-20100365D01*
X13725861Y-20100365D02*
X13735385Y-20081318D01*
X13735385Y-20081318D02*
X13754432Y-20071794D01*
X13754432Y-20071794D02*
X13802051Y-20071794D01*
X13802051Y-20071794D02*
X13821099Y-20062270D01*
X13887766Y-20014651D02*
X13963956Y-20014651D01*
X13916337Y-19947984D02*
X13916337Y-20119413D01*
X13916337Y-20119413D02*
X13925861Y-20138461D01*
X13925861Y-20138461D02*
X13944908Y-20147984D01*
X13944908Y-20147984D02*
X13963956Y-20147984D01*
X14106813Y-20138461D02*
X14087766Y-20147984D01*
X14087766Y-20147984D02*
X14049670Y-20147984D01*
X14049670Y-20147984D02*
X14030623Y-20138461D01*
X14030623Y-20138461D02*
X14021099Y-20119413D01*
X14021099Y-20119413D02*
X14021099Y-20043223D01*
X14021099Y-20043223D02*
X14030623Y-20024175D01*
X14030623Y-20024175D02*
X14049670Y-20014651D01*
X14049670Y-20014651D02*
X14087766Y-20014651D01*
X14087766Y-20014651D02*
X14106813Y-20024175D01*
X14106813Y-20024175D02*
X14116337Y-20043223D01*
X14116337Y-20043223D02*
X14116337Y-20062270D01*
X14116337Y-20062270D02*
X14021099Y-20081318D01*
X14287766Y-20147984D02*
X14287766Y-19947984D01*
X14287766Y-20138461D02*
X14268718Y-20147984D01*
X14268718Y-20147984D02*
X14230623Y-20147984D01*
X14230623Y-20147984D02*
X14211575Y-20138461D01*
X14211575Y-20138461D02*
X14202051Y-20128937D01*
X14202051Y-20128937D02*
X14192527Y-20109889D01*
X14192527Y-20109889D02*
X14192527Y-20052746D01*
X14192527Y-20052746D02*
X14202051Y-20033699D01*
X14202051Y-20033699D02*
X14211575Y-20024175D01*
X14211575Y-20024175D02*
X14230623Y-20014651D01*
X14230623Y-20014651D02*
X14268718Y-20014651D01*
X14268718Y-20014651D02*
X14287766Y-20024175D01*
X14363956Y-20224175D02*
X14373480Y-20214651D01*
X14373480Y-20214651D02*
X14392527Y-20186080D01*
X14392527Y-20186080D02*
X14402051Y-20167032D01*
X14402051Y-20167032D02*
X14411575Y-20138461D01*
X14411575Y-20138461D02*
X14421099Y-20090842D01*
X14421099Y-20090842D02*
X14421099Y-20052746D01*
X14421099Y-20052746D02*
X14411575Y-20005127D01*
X14411575Y-20005127D02*
X14402051Y-19976556D01*
X14402051Y-19976556D02*
X14392527Y-19957508D01*
X14392527Y-19957508D02*
X14373480Y-19928937D01*
X14373480Y-19928937D02*
X14363956Y-19919413D01*
D11*
X7558411Y-20270971D02*
X7558411Y-20370031D01*
X7508881Y-20320501D02*
X7607941Y-20320501D01*
D12*
X7906813Y-20211984D02*
X7925860Y-20211984D01*
X7925860Y-20211984D02*
X7944908Y-20221508D01*
X7944908Y-20221508D02*
X7954432Y-20231032D01*
X7954432Y-20231032D02*
X7963955Y-20250080D01*
X7963955Y-20250080D02*
X7973479Y-20288175D01*
X7973479Y-20288175D02*
X7973479Y-20335794D01*
X7973479Y-20335794D02*
X7963955Y-20373889D01*
X7963955Y-20373889D02*
X7954432Y-20392937D01*
X7954432Y-20392937D02*
X7944908Y-20402461D01*
X7944908Y-20402461D02*
X7925860Y-20411984D01*
X7925860Y-20411984D02*
X7906813Y-20411984D01*
X7906813Y-20411984D02*
X7887765Y-20402461D01*
X7887765Y-20402461D02*
X7878241Y-20392937D01*
X7878241Y-20392937D02*
X7868717Y-20373889D01*
X7868717Y-20373889D02*
X7859194Y-20335794D01*
X7859194Y-20335794D02*
X7859194Y-20288175D01*
X7859194Y-20288175D02*
X7868717Y-20250080D01*
X7868717Y-20250080D02*
X7878241Y-20231032D01*
X7878241Y-20231032D02*
X7887765Y-20221508D01*
X7887765Y-20221508D02*
X7906813Y-20211984D01*
X8059194Y-20392937D02*
X8068717Y-20402461D01*
X8068717Y-20402461D02*
X8059194Y-20411984D01*
X8059194Y-20411984D02*
X8049670Y-20402461D01*
X8049670Y-20402461D02*
X8059194Y-20392937D01*
X8059194Y-20392937D02*
X8059194Y-20411984D01*
X8163955Y-20411984D02*
X8202051Y-20411984D01*
X8202051Y-20411984D02*
X8221098Y-20402461D01*
X8221098Y-20402461D02*
X8230622Y-20392937D01*
X8230622Y-20392937D02*
X8249670Y-20364365D01*
X8249670Y-20364365D02*
X8259194Y-20326270D01*
X8259194Y-20326270D02*
X8259194Y-20250080D01*
X8259194Y-20250080D02*
X8249670Y-20231032D01*
X8249670Y-20231032D02*
X8240146Y-20221508D01*
X8240146Y-20221508D02*
X8221098Y-20211984D01*
X8221098Y-20211984D02*
X8183003Y-20211984D01*
X8183003Y-20211984D02*
X8163955Y-20221508D01*
X8163955Y-20221508D02*
X8154432Y-20231032D01*
X8154432Y-20231032D02*
X8144908Y-20250080D01*
X8144908Y-20250080D02*
X8144908Y-20297699D01*
X8144908Y-20297699D02*
X8154432Y-20316746D01*
X8154432Y-20316746D02*
X8163955Y-20326270D01*
X8163955Y-20326270D02*
X8183003Y-20335794D01*
X8183003Y-20335794D02*
X8221098Y-20335794D01*
X8221098Y-20335794D02*
X8240146Y-20326270D01*
X8240146Y-20326270D02*
X8249670Y-20316746D01*
X8249670Y-20316746D02*
X8259194Y-20297699D01*
X8354432Y-20411984D02*
X8392527Y-20411984D01*
X8392527Y-20411984D02*
X8411575Y-20402461D01*
X8411575Y-20402461D02*
X8421098Y-20392937D01*
X8421098Y-20392937D02*
X8440146Y-20364365D01*
X8440146Y-20364365D02*
X8449670Y-20326270D01*
X8449670Y-20326270D02*
X8449670Y-20250080D01*
X8449670Y-20250080D02*
X8440146Y-20231032D01*
X8440146Y-20231032D02*
X8430622Y-20221508D01*
X8430622Y-20221508D02*
X8411575Y-20211984D01*
X8411575Y-20211984D02*
X8373479Y-20211984D01*
X8373479Y-20211984D02*
X8354432Y-20221508D01*
X8354432Y-20221508D02*
X8344908Y-20231032D01*
X8344908Y-20231032D02*
X8335384Y-20250080D01*
X8335384Y-20250080D02*
X8335384Y-20297699D01*
X8335384Y-20297699D02*
X8344908Y-20316746D01*
X8344908Y-20316746D02*
X8354432Y-20326270D01*
X8354432Y-20326270D02*
X8373479Y-20335794D01*
X8373479Y-20335794D02*
X8411575Y-20335794D01*
X8411575Y-20335794D02*
X8430622Y-20326270D01*
X8430622Y-20326270D02*
X8440146Y-20316746D01*
X8440146Y-20316746D02*
X8449670Y-20297699D01*
X8640146Y-20411984D02*
X8525860Y-20411984D01*
X8583003Y-20411984D02*
X8583003Y-20211984D01*
X8583003Y-20211984D02*
X8563956Y-20240556D01*
X8563956Y-20240556D02*
X8544908Y-20259603D01*
X8544908Y-20259603D02*
X8525860Y-20269127D01*
X8725860Y-20411984D02*
X8725860Y-20278651D01*
X8725860Y-20297699D02*
X8735384Y-20288175D01*
X8735384Y-20288175D02*
X8754432Y-20278651D01*
X8754432Y-20278651D02*
X8783003Y-20278651D01*
X8783003Y-20278651D02*
X8802051Y-20288175D01*
X8802051Y-20288175D02*
X8811575Y-20307223D01*
X8811575Y-20307223D02*
X8811575Y-20411984D01*
X8811575Y-20307223D02*
X8821098Y-20288175D01*
X8821098Y-20288175D02*
X8840146Y-20278651D01*
X8840146Y-20278651D02*
X8868717Y-20278651D01*
X8868717Y-20278651D02*
X8887765Y-20288175D01*
X8887765Y-20288175D02*
X8897289Y-20307223D01*
X8897289Y-20307223D02*
X8897289Y-20411984D01*
X8992527Y-20411984D02*
X8992527Y-20278651D01*
X8992527Y-20297699D02*
X9002051Y-20288175D01*
X9002051Y-20288175D02*
X9021098Y-20278651D01*
X9021098Y-20278651D02*
X9049670Y-20278651D01*
X9049670Y-20278651D02*
X9068718Y-20288175D01*
X9068718Y-20288175D02*
X9078241Y-20307223D01*
X9078241Y-20307223D02*
X9078241Y-20411984D01*
X9078241Y-20307223D02*
X9087765Y-20288175D01*
X9087765Y-20288175D02*
X9106813Y-20278651D01*
X9106813Y-20278651D02*
X9135384Y-20278651D01*
X9135384Y-20278651D02*
X9154432Y-20288175D01*
X9154432Y-20288175D02*
X9163956Y-20307223D01*
X9163956Y-20307223D02*
X9163956Y-20411984D01*
X9554432Y-20202461D02*
X9383003Y-20459603D01*
X9811575Y-20211984D02*
X9830622Y-20211984D01*
X9830622Y-20211984D02*
X9849670Y-20221508D01*
X9849670Y-20221508D02*
X9859194Y-20231032D01*
X9859194Y-20231032D02*
X9868718Y-20250080D01*
X9868718Y-20250080D02*
X9878241Y-20288175D01*
X9878241Y-20288175D02*
X9878241Y-20335794D01*
X9878241Y-20335794D02*
X9868718Y-20373889D01*
X9868718Y-20373889D02*
X9859194Y-20392937D01*
X9859194Y-20392937D02*
X9849670Y-20402461D01*
X9849670Y-20402461D02*
X9830622Y-20411984D01*
X9830622Y-20411984D02*
X9811575Y-20411984D01*
X9811575Y-20411984D02*
X9792527Y-20402461D01*
X9792527Y-20402461D02*
X9783003Y-20392937D01*
X9783003Y-20392937D02*
X9773480Y-20373889D01*
X9773480Y-20373889D02*
X9763956Y-20335794D01*
X9763956Y-20335794D02*
X9763956Y-20288175D01*
X9763956Y-20288175D02*
X9773480Y-20250080D01*
X9773480Y-20250080D02*
X9783003Y-20231032D01*
X9783003Y-20231032D02*
X9792527Y-20221508D01*
X9792527Y-20221508D02*
X9811575Y-20211984D01*
X9963956Y-20392937D02*
X9973480Y-20402461D01*
X9973480Y-20402461D02*
X9963956Y-20411984D01*
X9963956Y-20411984D02*
X9954432Y-20402461D01*
X9954432Y-20402461D02*
X9963956Y-20392937D01*
X9963956Y-20392937D02*
X9963956Y-20411984D01*
X10097289Y-20211984D02*
X10116337Y-20211984D01*
X10116337Y-20211984D02*
X10135384Y-20221508D01*
X10135384Y-20221508D02*
X10144908Y-20231032D01*
X10144908Y-20231032D02*
X10154432Y-20250080D01*
X10154432Y-20250080D02*
X10163956Y-20288175D01*
X10163956Y-20288175D02*
X10163956Y-20335794D01*
X10163956Y-20335794D02*
X10154432Y-20373889D01*
X10154432Y-20373889D02*
X10144908Y-20392937D01*
X10144908Y-20392937D02*
X10135384Y-20402461D01*
X10135384Y-20402461D02*
X10116337Y-20411984D01*
X10116337Y-20411984D02*
X10097289Y-20411984D01*
X10097289Y-20411984D02*
X10078241Y-20402461D01*
X10078241Y-20402461D02*
X10068718Y-20392937D01*
X10068718Y-20392937D02*
X10059194Y-20373889D01*
X10059194Y-20373889D02*
X10049670Y-20335794D01*
X10049670Y-20335794D02*
X10049670Y-20288175D01*
X10049670Y-20288175D02*
X10059194Y-20250080D01*
X10059194Y-20250080D02*
X10068718Y-20231032D01*
X10068718Y-20231032D02*
X10078241Y-20221508D01*
X10078241Y-20221508D02*
X10097289Y-20211984D01*
X10230622Y-20211984D02*
X10354432Y-20211984D01*
X10354432Y-20211984D02*
X10287765Y-20288175D01*
X10287765Y-20288175D02*
X10316337Y-20288175D01*
X10316337Y-20288175D02*
X10335384Y-20297699D01*
X10335384Y-20297699D02*
X10344908Y-20307223D01*
X10344908Y-20307223D02*
X10354432Y-20326270D01*
X10354432Y-20326270D02*
X10354432Y-20373889D01*
X10354432Y-20373889D02*
X10344908Y-20392937D01*
X10344908Y-20392937D02*
X10335384Y-20402461D01*
X10335384Y-20402461D02*
X10316337Y-20411984D01*
X10316337Y-20411984D02*
X10259194Y-20411984D01*
X10259194Y-20411984D02*
X10240146Y-20402461D01*
X10240146Y-20402461D02*
X10230622Y-20392937D01*
X10449670Y-20411984D02*
X10487765Y-20411984D01*
X10487765Y-20411984D02*
X10506813Y-20402461D01*
X10506813Y-20402461D02*
X10516337Y-20392937D01*
X10516337Y-20392937D02*
X10535384Y-20364365D01*
X10535384Y-20364365D02*
X10544908Y-20326270D01*
X10544908Y-20326270D02*
X10544908Y-20250080D01*
X10544908Y-20250080D02*
X10535384Y-20231032D01*
X10535384Y-20231032D02*
X10525861Y-20221508D01*
X10525861Y-20221508D02*
X10506813Y-20211984D01*
X10506813Y-20211984D02*
X10468718Y-20211984D01*
X10468718Y-20211984D02*
X10449670Y-20221508D01*
X10449670Y-20221508D02*
X10440146Y-20231032D01*
X10440146Y-20231032D02*
X10430622Y-20250080D01*
X10430622Y-20250080D02*
X10430622Y-20297699D01*
X10430622Y-20297699D02*
X10440146Y-20316746D01*
X10440146Y-20316746D02*
X10449670Y-20326270D01*
X10449670Y-20326270D02*
X10468718Y-20335794D01*
X10468718Y-20335794D02*
X10506813Y-20335794D01*
X10506813Y-20335794D02*
X10525861Y-20326270D01*
X10525861Y-20326270D02*
X10535384Y-20316746D01*
X10535384Y-20316746D02*
X10544908Y-20297699D01*
X10668718Y-20211984D02*
X10687765Y-20211984D01*
X10687765Y-20211984D02*
X10706813Y-20221508D01*
X10706813Y-20221508D02*
X10716337Y-20231032D01*
X10716337Y-20231032D02*
X10725861Y-20250080D01*
X10725861Y-20250080D02*
X10735384Y-20288175D01*
X10735384Y-20288175D02*
X10735384Y-20335794D01*
X10735384Y-20335794D02*
X10725861Y-20373889D01*
X10725861Y-20373889D02*
X10716337Y-20392937D01*
X10716337Y-20392937D02*
X10706813Y-20402461D01*
X10706813Y-20402461D02*
X10687765Y-20411984D01*
X10687765Y-20411984D02*
X10668718Y-20411984D01*
X10668718Y-20411984D02*
X10649670Y-20402461D01*
X10649670Y-20402461D02*
X10640146Y-20392937D01*
X10640146Y-20392937D02*
X10630622Y-20373889D01*
X10630622Y-20373889D02*
X10621099Y-20335794D01*
X10621099Y-20335794D02*
X10621099Y-20288175D01*
X10621099Y-20288175D02*
X10630622Y-20250080D01*
X10630622Y-20250080D02*
X10640146Y-20231032D01*
X10640146Y-20231032D02*
X10649670Y-20221508D01*
X10649670Y-20221508D02*
X10668718Y-20211984D01*
X10811575Y-20211984D02*
X10811575Y-20250080D01*
X10887765Y-20211984D02*
X10887765Y-20250080D01*
X11183004Y-20488175D02*
X11173480Y-20478651D01*
X11173480Y-20478651D02*
X11154432Y-20450080D01*
X11154432Y-20450080D02*
X11144908Y-20431032D01*
X11144908Y-20431032D02*
X11135384Y-20402461D01*
X11135384Y-20402461D02*
X11125861Y-20354842D01*
X11125861Y-20354842D02*
X11125861Y-20316746D01*
X11125861Y-20316746D02*
X11135384Y-20269127D01*
X11135384Y-20269127D02*
X11144908Y-20240556D01*
X11144908Y-20240556D02*
X11154432Y-20221508D01*
X11154432Y-20221508D02*
X11173480Y-20192937D01*
X11173480Y-20192937D02*
X11183004Y-20183413D01*
X11240146Y-20211984D02*
X11363956Y-20211984D01*
X11363956Y-20211984D02*
X11297289Y-20288175D01*
X11297289Y-20288175D02*
X11325861Y-20288175D01*
X11325861Y-20288175D02*
X11344908Y-20297699D01*
X11344908Y-20297699D02*
X11354432Y-20307223D01*
X11354432Y-20307223D02*
X11363956Y-20326270D01*
X11363956Y-20326270D02*
X11363956Y-20373889D01*
X11363956Y-20373889D02*
X11354432Y-20392937D01*
X11354432Y-20392937D02*
X11344908Y-20402461D01*
X11344908Y-20402461D02*
X11325861Y-20411984D01*
X11325861Y-20411984D02*
X11268718Y-20411984D01*
X11268718Y-20411984D02*
X11249670Y-20402461D01*
X11249670Y-20402461D02*
X11240146Y-20392937D01*
X11478241Y-20297699D02*
X11459194Y-20288175D01*
X11459194Y-20288175D02*
X11449670Y-20278651D01*
X11449670Y-20278651D02*
X11440146Y-20259603D01*
X11440146Y-20259603D02*
X11440146Y-20250080D01*
X11440146Y-20250080D02*
X11449670Y-20231032D01*
X11449670Y-20231032D02*
X11459194Y-20221508D01*
X11459194Y-20221508D02*
X11478241Y-20211984D01*
X11478241Y-20211984D02*
X11516337Y-20211984D01*
X11516337Y-20211984D02*
X11535384Y-20221508D01*
X11535384Y-20221508D02*
X11544908Y-20231032D01*
X11544908Y-20231032D02*
X11554432Y-20250080D01*
X11554432Y-20250080D02*
X11554432Y-20259603D01*
X11554432Y-20259603D02*
X11544908Y-20278651D01*
X11544908Y-20278651D02*
X11535384Y-20288175D01*
X11535384Y-20288175D02*
X11516337Y-20297699D01*
X11516337Y-20297699D02*
X11478241Y-20297699D01*
X11478241Y-20297699D02*
X11459194Y-20307223D01*
X11459194Y-20307223D02*
X11449670Y-20316746D01*
X11449670Y-20316746D02*
X11440146Y-20335794D01*
X11440146Y-20335794D02*
X11440146Y-20373889D01*
X11440146Y-20373889D02*
X11449670Y-20392937D01*
X11449670Y-20392937D02*
X11459194Y-20402461D01*
X11459194Y-20402461D02*
X11478241Y-20411984D01*
X11478241Y-20411984D02*
X11516337Y-20411984D01*
X11516337Y-20411984D02*
X11535384Y-20402461D01*
X11535384Y-20402461D02*
X11544908Y-20392937D01*
X11544908Y-20392937D02*
X11554432Y-20373889D01*
X11554432Y-20373889D02*
X11554432Y-20335794D01*
X11554432Y-20335794D02*
X11544908Y-20316746D01*
X11544908Y-20316746D02*
X11535384Y-20307223D01*
X11535384Y-20307223D02*
X11516337Y-20297699D01*
X11792527Y-20411984D02*
X11792527Y-20211984D01*
X11878242Y-20411984D02*
X11878242Y-20307223D01*
X11878242Y-20307223D02*
X11868718Y-20288175D01*
X11868718Y-20288175D02*
X11849670Y-20278651D01*
X11849670Y-20278651D02*
X11821099Y-20278651D01*
X11821099Y-20278651D02*
X11802051Y-20288175D01*
X11802051Y-20288175D02*
X11792527Y-20297699D01*
X12002051Y-20411984D02*
X11983003Y-20402461D01*
X11983003Y-20402461D02*
X11973480Y-20392937D01*
X11973480Y-20392937D02*
X11963956Y-20373889D01*
X11963956Y-20373889D02*
X11963956Y-20316746D01*
X11963956Y-20316746D02*
X11973480Y-20297699D01*
X11973480Y-20297699D02*
X11983003Y-20288175D01*
X11983003Y-20288175D02*
X12002051Y-20278651D01*
X12002051Y-20278651D02*
X12030623Y-20278651D01*
X12030623Y-20278651D02*
X12049670Y-20288175D01*
X12049670Y-20288175D02*
X12059194Y-20297699D01*
X12059194Y-20297699D02*
X12068718Y-20316746D01*
X12068718Y-20316746D02*
X12068718Y-20373889D01*
X12068718Y-20373889D02*
X12059194Y-20392937D01*
X12059194Y-20392937D02*
X12049670Y-20402461D01*
X12049670Y-20402461D02*
X12030623Y-20411984D01*
X12030623Y-20411984D02*
X12002051Y-20411984D01*
X12183003Y-20411984D02*
X12163956Y-20402461D01*
X12163956Y-20402461D02*
X12154432Y-20383413D01*
X12154432Y-20383413D02*
X12154432Y-20211984D01*
X12335384Y-20402461D02*
X12316337Y-20411984D01*
X12316337Y-20411984D02*
X12278242Y-20411984D01*
X12278242Y-20411984D02*
X12259194Y-20402461D01*
X12259194Y-20402461D02*
X12249670Y-20383413D01*
X12249670Y-20383413D02*
X12249670Y-20307223D01*
X12249670Y-20307223D02*
X12259194Y-20288175D01*
X12259194Y-20288175D02*
X12278242Y-20278651D01*
X12278242Y-20278651D02*
X12316337Y-20278651D01*
X12316337Y-20278651D02*
X12335384Y-20288175D01*
X12335384Y-20288175D02*
X12344908Y-20307223D01*
X12344908Y-20307223D02*
X12344908Y-20326270D01*
X12344908Y-20326270D02*
X12249670Y-20345318D01*
X12421099Y-20402461D02*
X12440146Y-20411984D01*
X12440146Y-20411984D02*
X12478242Y-20411984D01*
X12478242Y-20411984D02*
X12497289Y-20402461D01*
X12497289Y-20402461D02*
X12506813Y-20383413D01*
X12506813Y-20383413D02*
X12506813Y-20373889D01*
X12506813Y-20373889D02*
X12497289Y-20354842D01*
X12497289Y-20354842D02*
X12478242Y-20345318D01*
X12478242Y-20345318D02*
X12449670Y-20345318D01*
X12449670Y-20345318D02*
X12430623Y-20335794D01*
X12430623Y-20335794D02*
X12421099Y-20316746D01*
X12421099Y-20316746D02*
X12421099Y-20307223D01*
X12421099Y-20307223D02*
X12430623Y-20288175D01*
X12430623Y-20288175D02*
X12449670Y-20278651D01*
X12449670Y-20278651D02*
X12478242Y-20278651D01*
X12478242Y-20278651D02*
X12497289Y-20288175D01*
X12573480Y-20488175D02*
X12583004Y-20478651D01*
X12583004Y-20478651D02*
X12602051Y-20450080D01*
X12602051Y-20450080D02*
X12611575Y-20431032D01*
X12611575Y-20431032D02*
X12621099Y-20402461D01*
X12621099Y-20402461D02*
X12630623Y-20354842D01*
X12630623Y-20354842D02*
X12630623Y-20316746D01*
X12630623Y-20316746D02*
X12621099Y-20269127D01*
X12621099Y-20269127D02*
X12611575Y-20240556D01*
X12611575Y-20240556D02*
X12602051Y-20221508D01*
X12602051Y-20221508D02*
X12583004Y-20192937D01*
X12583004Y-20192937D02*
X12573480Y-20183413D01*
X12935385Y-20488175D02*
X12925861Y-20478651D01*
X12925861Y-20478651D02*
X12906813Y-20450080D01*
X12906813Y-20450080D02*
X12897289Y-20431032D01*
X12897289Y-20431032D02*
X12887765Y-20402461D01*
X12887765Y-20402461D02*
X12878242Y-20354842D01*
X12878242Y-20354842D02*
X12878242Y-20316746D01*
X12878242Y-20316746D02*
X12887765Y-20269127D01*
X12887765Y-20269127D02*
X12897289Y-20240556D01*
X12897289Y-20240556D02*
X12906813Y-20221508D01*
X12906813Y-20221508D02*
X12925861Y-20192937D01*
X12925861Y-20192937D02*
X12935385Y-20183413D01*
X13011575Y-20278651D02*
X13011575Y-20411984D01*
X13011575Y-20297699D02*
X13021099Y-20288175D01*
X13021099Y-20288175D02*
X13040146Y-20278651D01*
X13040146Y-20278651D02*
X13068718Y-20278651D01*
X13068718Y-20278651D02*
X13087765Y-20288175D01*
X13087765Y-20288175D02*
X13097289Y-20307223D01*
X13097289Y-20307223D02*
X13097289Y-20411984D01*
X13221099Y-20411984D02*
X13202051Y-20402461D01*
X13202051Y-20402461D02*
X13192527Y-20392937D01*
X13192527Y-20392937D02*
X13183004Y-20373889D01*
X13183004Y-20373889D02*
X13183004Y-20316746D01*
X13183004Y-20316746D02*
X13192527Y-20297699D01*
X13192527Y-20297699D02*
X13202051Y-20288175D01*
X13202051Y-20288175D02*
X13221099Y-20278651D01*
X13221099Y-20278651D02*
X13249670Y-20278651D01*
X13249670Y-20278651D02*
X13268718Y-20288175D01*
X13268718Y-20288175D02*
X13278242Y-20297699D01*
X13278242Y-20297699D02*
X13287765Y-20316746D01*
X13287765Y-20316746D02*
X13287765Y-20373889D01*
X13287765Y-20373889D02*
X13278242Y-20392937D01*
X13278242Y-20392937D02*
X13268718Y-20402461D01*
X13268718Y-20402461D02*
X13249670Y-20411984D01*
X13249670Y-20411984D02*
X13221099Y-20411984D01*
X13344908Y-20278651D02*
X13421099Y-20278651D01*
X13373480Y-20211984D02*
X13373480Y-20383413D01*
X13373480Y-20383413D02*
X13383004Y-20402461D01*
X13383004Y-20402461D02*
X13402051Y-20411984D01*
X13402051Y-20411984D02*
X13421099Y-20411984D01*
X13640146Y-20278651D02*
X13640146Y-20478651D01*
X13640146Y-20288175D02*
X13659194Y-20278651D01*
X13659194Y-20278651D02*
X13697289Y-20278651D01*
X13697289Y-20278651D02*
X13716337Y-20288175D01*
X13716337Y-20288175D02*
X13725861Y-20297699D01*
X13725861Y-20297699D02*
X13735385Y-20316746D01*
X13735385Y-20316746D02*
X13735385Y-20373889D01*
X13735385Y-20373889D02*
X13725861Y-20392937D01*
X13725861Y-20392937D02*
X13716337Y-20402461D01*
X13716337Y-20402461D02*
X13697289Y-20411984D01*
X13697289Y-20411984D02*
X13659194Y-20411984D01*
X13659194Y-20411984D02*
X13640146Y-20402461D01*
X13849670Y-20411984D02*
X13830623Y-20402461D01*
X13830623Y-20402461D02*
X13821099Y-20383413D01*
X13821099Y-20383413D02*
X13821099Y-20211984D01*
X14011575Y-20411984D02*
X14011575Y-20307223D01*
X14011575Y-20307223D02*
X14002051Y-20288175D01*
X14002051Y-20288175D02*
X13983004Y-20278651D01*
X13983004Y-20278651D02*
X13944908Y-20278651D01*
X13944908Y-20278651D02*
X13925861Y-20288175D01*
X14011575Y-20402461D02*
X13992527Y-20411984D01*
X13992527Y-20411984D02*
X13944908Y-20411984D01*
X13944908Y-20411984D02*
X13925861Y-20402461D01*
X13925861Y-20402461D02*
X13916337Y-20383413D01*
X13916337Y-20383413D02*
X13916337Y-20364365D01*
X13916337Y-20364365D02*
X13925861Y-20345318D01*
X13925861Y-20345318D02*
X13944908Y-20335794D01*
X13944908Y-20335794D02*
X13992527Y-20335794D01*
X13992527Y-20335794D02*
X14011575Y-20326270D01*
X14078242Y-20278651D02*
X14154432Y-20278651D01*
X14106813Y-20211984D02*
X14106813Y-20383413D01*
X14106813Y-20383413D02*
X14116337Y-20402461D01*
X14116337Y-20402461D02*
X14135385Y-20411984D01*
X14135385Y-20411984D02*
X14154432Y-20411984D01*
X14297289Y-20402461D02*
X14278242Y-20411984D01*
X14278242Y-20411984D02*
X14240146Y-20411984D01*
X14240146Y-20411984D02*
X14221099Y-20402461D01*
X14221099Y-20402461D02*
X14211575Y-20383413D01*
X14211575Y-20383413D02*
X14211575Y-20307223D01*
X14211575Y-20307223D02*
X14221099Y-20288175D01*
X14221099Y-20288175D02*
X14240146Y-20278651D01*
X14240146Y-20278651D02*
X14278242Y-20278651D01*
X14278242Y-20278651D02*
X14297289Y-20288175D01*
X14297289Y-20288175D02*
X14306813Y-20307223D01*
X14306813Y-20307223D02*
X14306813Y-20326270D01*
X14306813Y-20326270D02*
X14211575Y-20345318D01*
X14478242Y-20411984D02*
X14478242Y-20211984D01*
X14478242Y-20402461D02*
X14459194Y-20411984D01*
X14459194Y-20411984D02*
X14421099Y-20411984D01*
X14421099Y-20411984D02*
X14402051Y-20402461D01*
X14402051Y-20402461D02*
X14392527Y-20392937D01*
X14392527Y-20392937D02*
X14383004Y-20373889D01*
X14383004Y-20373889D02*
X14383004Y-20316746D01*
X14383004Y-20316746D02*
X14392527Y-20297699D01*
X14392527Y-20297699D02*
X14402051Y-20288175D01*
X14402051Y-20288175D02*
X14421099Y-20278651D01*
X14421099Y-20278651D02*
X14459194Y-20278651D01*
X14459194Y-20278651D02*
X14478242Y-20288175D01*
X14554432Y-20488175D02*
X14563956Y-20478651D01*
X14563956Y-20478651D02*
X14583004Y-20450080D01*
X14583004Y-20450080D02*
X14592527Y-20431032D01*
X14592527Y-20431032D02*
X14602051Y-20402461D01*
X14602051Y-20402461D02*
X14611575Y-20354842D01*
X14611575Y-20354842D02*
X14611575Y-20316746D01*
X14611575Y-20316746D02*
X14602051Y-20269127D01*
X14602051Y-20269127D02*
X14592527Y-20240556D01*
X14592527Y-20240556D02*
X14583004Y-20221508D01*
X14583004Y-20221508D02*
X14563956Y-20192937D01*
X14563956Y-20192937D02*
X14554432Y-20183413D01*
D13*
X7583019Y-20644669D02*
X7583019Y-20524332D01*
X7462682Y-20524332D01*
X7462682Y-20644669D01*
X7583019Y-20644669D01*
D12*
X7973479Y-20675984D02*
X7859194Y-20675984D01*
X7916336Y-20675984D02*
X7916336Y-20475984D01*
X7916336Y-20475984D02*
X7897289Y-20504556D01*
X7897289Y-20504556D02*
X7878241Y-20523603D01*
X7878241Y-20523603D02*
X7859194Y-20533127D01*
X8059194Y-20656937D02*
X8068717Y-20666461D01*
X8068717Y-20666461D02*
X8059194Y-20675984D01*
X8059194Y-20675984D02*
X8049670Y-20666461D01*
X8049670Y-20666461D02*
X8059194Y-20656937D01*
X8059194Y-20656937D02*
X8059194Y-20675984D01*
X8135384Y-20475984D02*
X8268717Y-20475984D01*
X8268717Y-20475984D02*
X8183003Y-20675984D01*
X8383003Y-20475984D02*
X8402051Y-20475984D01*
X8402051Y-20475984D02*
X8421098Y-20485508D01*
X8421098Y-20485508D02*
X8430622Y-20495032D01*
X8430622Y-20495032D02*
X8440146Y-20514080D01*
X8440146Y-20514080D02*
X8449670Y-20552175D01*
X8449670Y-20552175D02*
X8449670Y-20599794D01*
X8449670Y-20599794D02*
X8440146Y-20637889D01*
X8440146Y-20637889D02*
X8430622Y-20656937D01*
X8430622Y-20656937D02*
X8421098Y-20666461D01*
X8421098Y-20666461D02*
X8402051Y-20675984D01*
X8402051Y-20675984D02*
X8383003Y-20675984D01*
X8383003Y-20675984D02*
X8363955Y-20666461D01*
X8363955Y-20666461D02*
X8354432Y-20656937D01*
X8354432Y-20656937D02*
X8344908Y-20637889D01*
X8344908Y-20637889D02*
X8335384Y-20599794D01*
X8335384Y-20599794D02*
X8335384Y-20552175D01*
X8335384Y-20552175D02*
X8344908Y-20514080D01*
X8344908Y-20514080D02*
X8354432Y-20495032D01*
X8354432Y-20495032D02*
X8363955Y-20485508D01*
X8363955Y-20485508D02*
X8383003Y-20475984D01*
X8525860Y-20495032D02*
X8535384Y-20485508D01*
X8535384Y-20485508D02*
X8554432Y-20475984D01*
X8554432Y-20475984D02*
X8602051Y-20475984D01*
X8602051Y-20475984D02*
X8621098Y-20485508D01*
X8621098Y-20485508D02*
X8630622Y-20495032D01*
X8630622Y-20495032D02*
X8640146Y-20514080D01*
X8640146Y-20514080D02*
X8640146Y-20533127D01*
X8640146Y-20533127D02*
X8630622Y-20561699D01*
X8630622Y-20561699D02*
X8516337Y-20675984D01*
X8516337Y-20675984D02*
X8640146Y-20675984D01*
X8725860Y-20675984D02*
X8725860Y-20542651D01*
X8725860Y-20561699D02*
X8735384Y-20552175D01*
X8735384Y-20552175D02*
X8754432Y-20542651D01*
X8754432Y-20542651D02*
X8783003Y-20542651D01*
X8783003Y-20542651D02*
X8802051Y-20552175D01*
X8802051Y-20552175D02*
X8811575Y-20571223D01*
X8811575Y-20571223D02*
X8811575Y-20675984D01*
X8811575Y-20571223D02*
X8821098Y-20552175D01*
X8821098Y-20552175D02*
X8840146Y-20542651D01*
X8840146Y-20542651D02*
X8868717Y-20542651D01*
X8868717Y-20542651D02*
X8887765Y-20552175D01*
X8887765Y-20552175D02*
X8897289Y-20571223D01*
X8897289Y-20571223D02*
X8897289Y-20675984D01*
X8992527Y-20675984D02*
X8992527Y-20542651D01*
X8992527Y-20561699D02*
X9002051Y-20552175D01*
X9002051Y-20552175D02*
X9021098Y-20542651D01*
X9021098Y-20542651D02*
X9049670Y-20542651D01*
X9049670Y-20542651D02*
X9068718Y-20552175D01*
X9068718Y-20552175D02*
X9078241Y-20571223D01*
X9078241Y-20571223D02*
X9078241Y-20675984D01*
X9078241Y-20571223D02*
X9087765Y-20552175D01*
X9087765Y-20552175D02*
X9106813Y-20542651D01*
X9106813Y-20542651D02*
X9135384Y-20542651D01*
X9135384Y-20542651D02*
X9154432Y-20552175D01*
X9154432Y-20552175D02*
X9163956Y-20571223D01*
X9163956Y-20571223D02*
X9163956Y-20675984D01*
X9554432Y-20466461D02*
X9383003Y-20723603D01*
X9811575Y-20475984D02*
X9830622Y-20475984D01*
X9830622Y-20475984D02*
X9849670Y-20485508D01*
X9849670Y-20485508D02*
X9859194Y-20495032D01*
X9859194Y-20495032D02*
X9868718Y-20514080D01*
X9868718Y-20514080D02*
X9878241Y-20552175D01*
X9878241Y-20552175D02*
X9878241Y-20599794D01*
X9878241Y-20599794D02*
X9868718Y-20637889D01*
X9868718Y-20637889D02*
X9859194Y-20656937D01*
X9859194Y-20656937D02*
X9849670Y-20666461D01*
X9849670Y-20666461D02*
X9830622Y-20675984D01*
X9830622Y-20675984D02*
X9811575Y-20675984D01*
X9811575Y-20675984D02*
X9792527Y-20666461D01*
X9792527Y-20666461D02*
X9783003Y-20656937D01*
X9783003Y-20656937D02*
X9773480Y-20637889D01*
X9773480Y-20637889D02*
X9763956Y-20599794D01*
X9763956Y-20599794D02*
X9763956Y-20552175D01*
X9763956Y-20552175D02*
X9773480Y-20514080D01*
X9773480Y-20514080D02*
X9783003Y-20495032D01*
X9783003Y-20495032D02*
X9792527Y-20485508D01*
X9792527Y-20485508D02*
X9811575Y-20475984D01*
X9963956Y-20656937D02*
X9973480Y-20666461D01*
X9973480Y-20666461D02*
X9963956Y-20675984D01*
X9963956Y-20675984D02*
X9954432Y-20666461D01*
X9954432Y-20666461D02*
X9963956Y-20656937D01*
X9963956Y-20656937D02*
X9963956Y-20675984D01*
X10097289Y-20475984D02*
X10116337Y-20475984D01*
X10116337Y-20475984D02*
X10135384Y-20485508D01*
X10135384Y-20485508D02*
X10144908Y-20495032D01*
X10144908Y-20495032D02*
X10154432Y-20514080D01*
X10154432Y-20514080D02*
X10163956Y-20552175D01*
X10163956Y-20552175D02*
X10163956Y-20599794D01*
X10163956Y-20599794D02*
X10154432Y-20637889D01*
X10154432Y-20637889D02*
X10144908Y-20656937D01*
X10144908Y-20656937D02*
X10135384Y-20666461D01*
X10135384Y-20666461D02*
X10116337Y-20675984D01*
X10116337Y-20675984D02*
X10097289Y-20675984D01*
X10097289Y-20675984D02*
X10078241Y-20666461D01*
X10078241Y-20666461D02*
X10068718Y-20656937D01*
X10068718Y-20656937D02*
X10059194Y-20637889D01*
X10059194Y-20637889D02*
X10049670Y-20599794D01*
X10049670Y-20599794D02*
X10049670Y-20552175D01*
X10049670Y-20552175D02*
X10059194Y-20514080D01*
X10059194Y-20514080D02*
X10068718Y-20495032D01*
X10068718Y-20495032D02*
X10078241Y-20485508D01*
X10078241Y-20485508D02*
X10097289Y-20475984D01*
X10335384Y-20475984D02*
X10297289Y-20475984D01*
X10297289Y-20475984D02*
X10278241Y-20485508D01*
X10278241Y-20485508D02*
X10268718Y-20495032D01*
X10268718Y-20495032D02*
X10249670Y-20523603D01*
X10249670Y-20523603D02*
X10240146Y-20561699D01*
X10240146Y-20561699D02*
X10240146Y-20637889D01*
X10240146Y-20637889D02*
X10249670Y-20656937D01*
X10249670Y-20656937D02*
X10259194Y-20666461D01*
X10259194Y-20666461D02*
X10278241Y-20675984D01*
X10278241Y-20675984D02*
X10316337Y-20675984D01*
X10316337Y-20675984D02*
X10335384Y-20666461D01*
X10335384Y-20666461D02*
X10344908Y-20656937D01*
X10344908Y-20656937D02*
X10354432Y-20637889D01*
X10354432Y-20637889D02*
X10354432Y-20590270D01*
X10354432Y-20590270D02*
X10344908Y-20571223D01*
X10344908Y-20571223D02*
X10335384Y-20561699D01*
X10335384Y-20561699D02*
X10316337Y-20552175D01*
X10316337Y-20552175D02*
X10278241Y-20552175D01*
X10278241Y-20552175D02*
X10259194Y-20561699D01*
X10259194Y-20561699D02*
X10249670Y-20571223D01*
X10249670Y-20571223D02*
X10240146Y-20590270D01*
X10421099Y-20475984D02*
X10554432Y-20475984D01*
X10554432Y-20475984D02*
X10468718Y-20675984D01*
X10668718Y-20475984D02*
X10687765Y-20475984D01*
X10687765Y-20475984D02*
X10706813Y-20485508D01*
X10706813Y-20485508D02*
X10716337Y-20495032D01*
X10716337Y-20495032D02*
X10725861Y-20514080D01*
X10725861Y-20514080D02*
X10735384Y-20552175D01*
X10735384Y-20552175D02*
X10735384Y-20599794D01*
X10735384Y-20599794D02*
X10725861Y-20637889D01*
X10725861Y-20637889D02*
X10716337Y-20656937D01*
X10716337Y-20656937D02*
X10706813Y-20666461D01*
X10706813Y-20666461D02*
X10687765Y-20675984D01*
X10687765Y-20675984D02*
X10668718Y-20675984D01*
X10668718Y-20675984D02*
X10649670Y-20666461D01*
X10649670Y-20666461D02*
X10640146Y-20656937D01*
X10640146Y-20656937D02*
X10630622Y-20637889D01*
X10630622Y-20637889D02*
X10621099Y-20599794D01*
X10621099Y-20599794D02*
X10621099Y-20552175D01*
X10621099Y-20552175D02*
X10630622Y-20514080D01*
X10630622Y-20514080D02*
X10640146Y-20495032D01*
X10640146Y-20495032D02*
X10649670Y-20485508D01*
X10649670Y-20485508D02*
X10668718Y-20475984D01*
X10811575Y-20475984D02*
X10811575Y-20514080D01*
X10887765Y-20475984D02*
X10887765Y-20514080D01*
X11183004Y-20752175D02*
X11173480Y-20742651D01*
X11173480Y-20742651D02*
X11154432Y-20714080D01*
X11154432Y-20714080D02*
X11144908Y-20695032D01*
X11144908Y-20695032D02*
X11135384Y-20666461D01*
X11135384Y-20666461D02*
X11125861Y-20618842D01*
X11125861Y-20618842D02*
X11125861Y-20580746D01*
X11125861Y-20580746D02*
X11135384Y-20533127D01*
X11135384Y-20533127D02*
X11144908Y-20504556D01*
X11144908Y-20504556D02*
X11154432Y-20485508D01*
X11154432Y-20485508D02*
X11173480Y-20456937D01*
X11173480Y-20456937D02*
X11183004Y-20447413D01*
X11240146Y-20475984D02*
X11373480Y-20475984D01*
X11373480Y-20475984D02*
X11287765Y-20675984D01*
X11535384Y-20475984D02*
X11497289Y-20475984D01*
X11497289Y-20475984D02*
X11478241Y-20485508D01*
X11478241Y-20485508D02*
X11468718Y-20495032D01*
X11468718Y-20495032D02*
X11449670Y-20523603D01*
X11449670Y-20523603D02*
X11440146Y-20561699D01*
X11440146Y-20561699D02*
X11440146Y-20637889D01*
X11440146Y-20637889D02*
X11449670Y-20656937D01*
X11449670Y-20656937D02*
X11459194Y-20666461D01*
X11459194Y-20666461D02*
X11478241Y-20675984D01*
X11478241Y-20675984D02*
X11516337Y-20675984D01*
X11516337Y-20675984D02*
X11535384Y-20666461D01*
X11535384Y-20666461D02*
X11544908Y-20656937D01*
X11544908Y-20656937D02*
X11554432Y-20637889D01*
X11554432Y-20637889D02*
X11554432Y-20590270D01*
X11554432Y-20590270D02*
X11544908Y-20571223D01*
X11544908Y-20571223D02*
X11535384Y-20561699D01*
X11535384Y-20561699D02*
X11516337Y-20552175D01*
X11516337Y-20552175D02*
X11478241Y-20552175D01*
X11478241Y-20552175D02*
X11459194Y-20561699D01*
X11459194Y-20561699D02*
X11449670Y-20571223D01*
X11449670Y-20571223D02*
X11440146Y-20590270D01*
X11792527Y-20675984D02*
X11792527Y-20475984D01*
X11878242Y-20675984D02*
X11878242Y-20571223D01*
X11878242Y-20571223D02*
X11868718Y-20552175D01*
X11868718Y-20552175D02*
X11849670Y-20542651D01*
X11849670Y-20542651D02*
X11821099Y-20542651D01*
X11821099Y-20542651D02*
X11802051Y-20552175D01*
X11802051Y-20552175D02*
X11792527Y-20561699D01*
X12002051Y-20675984D02*
X11983003Y-20666461D01*
X11983003Y-20666461D02*
X11973480Y-20656937D01*
X11973480Y-20656937D02*
X11963956Y-20637889D01*
X11963956Y-20637889D02*
X11963956Y-20580746D01*
X11963956Y-20580746D02*
X11973480Y-20561699D01*
X11973480Y-20561699D02*
X11983003Y-20552175D01*
X11983003Y-20552175D02*
X12002051Y-20542651D01*
X12002051Y-20542651D02*
X12030623Y-20542651D01*
X12030623Y-20542651D02*
X12049670Y-20552175D01*
X12049670Y-20552175D02*
X12059194Y-20561699D01*
X12059194Y-20561699D02*
X12068718Y-20580746D01*
X12068718Y-20580746D02*
X12068718Y-20637889D01*
X12068718Y-20637889D02*
X12059194Y-20656937D01*
X12059194Y-20656937D02*
X12049670Y-20666461D01*
X12049670Y-20666461D02*
X12030623Y-20675984D01*
X12030623Y-20675984D02*
X12002051Y-20675984D01*
X12183003Y-20675984D02*
X12163956Y-20666461D01*
X12163956Y-20666461D02*
X12154432Y-20647413D01*
X12154432Y-20647413D02*
X12154432Y-20475984D01*
X12335384Y-20666461D02*
X12316337Y-20675984D01*
X12316337Y-20675984D02*
X12278242Y-20675984D01*
X12278242Y-20675984D02*
X12259194Y-20666461D01*
X12259194Y-20666461D02*
X12249670Y-20647413D01*
X12249670Y-20647413D02*
X12249670Y-20571223D01*
X12249670Y-20571223D02*
X12259194Y-20552175D01*
X12259194Y-20552175D02*
X12278242Y-20542651D01*
X12278242Y-20542651D02*
X12316337Y-20542651D01*
X12316337Y-20542651D02*
X12335384Y-20552175D01*
X12335384Y-20552175D02*
X12344908Y-20571223D01*
X12344908Y-20571223D02*
X12344908Y-20590270D01*
X12344908Y-20590270D02*
X12249670Y-20609318D01*
X12421099Y-20666461D02*
X12440146Y-20675984D01*
X12440146Y-20675984D02*
X12478242Y-20675984D01*
X12478242Y-20675984D02*
X12497289Y-20666461D01*
X12497289Y-20666461D02*
X12506813Y-20647413D01*
X12506813Y-20647413D02*
X12506813Y-20637889D01*
X12506813Y-20637889D02*
X12497289Y-20618842D01*
X12497289Y-20618842D02*
X12478242Y-20609318D01*
X12478242Y-20609318D02*
X12449670Y-20609318D01*
X12449670Y-20609318D02*
X12430623Y-20599794D01*
X12430623Y-20599794D02*
X12421099Y-20580746D01*
X12421099Y-20580746D02*
X12421099Y-20571223D01*
X12421099Y-20571223D02*
X12430623Y-20552175D01*
X12430623Y-20552175D02*
X12449670Y-20542651D01*
X12449670Y-20542651D02*
X12478242Y-20542651D01*
X12478242Y-20542651D02*
X12497289Y-20552175D01*
X12573480Y-20752175D02*
X12583004Y-20742651D01*
X12583004Y-20742651D02*
X12602051Y-20714080D01*
X12602051Y-20714080D02*
X12611575Y-20695032D01*
X12611575Y-20695032D02*
X12621099Y-20666461D01*
X12621099Y-20666461D02*
X12630623Y-20618842D01*
X12630623Y-20618842D02*
X12630623Y-20580746D01*
X12630623Y-20580746D02*
X12621099Y-20533127D01*
X12621099Y-20533127D02*
X12611575Y-20504556D01*
X12611575Y-20504556D02*
X12602051Y-20485508D01*
X12602051Y-20485508D02*
X12583004Y-20456937D01*
X12583004Y-20456937D02*
X12573480Y-20447413D01*
X12935385Y-20752175D02*
X12925861Y-20742651D01*
X12925861Y-20742651D02*
X12906813Y-20714080D01*
X12906813Y-20714080D02*
X12897289Y-20695032D01*
X12897289Y-20695032D02*
X12887765Y-20666461D01*
X12887765Y-20666461D02*
X12878242Y-20618842D01*
X12878242Y-20618842D02*
X12878242Y-20580746D01*
X12878242Y-20580746D02*
X12887765Y-20533127D01*
X12887765Y-20533127D02*
X12897289Y-20504556D01*
X12897289Y-20504556D02*
X12906813Y-20485508D01*
X12906813Y-20485508D02*
X12925861Y-20456937D01*
X12925861Y-20456937D02*
X12935385Y-20447413D01*
X13011575Y-20542651D02*
X13011575Y-20675984D01*
X13011575Y-20561699D02*
X13021099Y-20552175D01*
X13021099Y-20552175D02*
X13040146Y-20542651D01*
X13040146Y-20542651D02*
X13068718Y-20542651D01*
X13068718Y-20542651D02*
X13087765Y-20552175D01*
X13087765Y-20552175D02*
X13097289Y-20571223D01*
X13097289Y-20571223D02*
X13097289Y-20675984D01*
X13221099Y-20675984D02*
X13202051Y-20666461D01*
X13202051Y-20666461D02*
X13192527Y-20656937D01*
X13192527Y-20656937D02*
X13183004Y-20637889D01*
X13183004Y-20637889D02*
X13183004Y-20580746D01*
X13183004Y-20580746D02*
X13192527Y-20561699D01*
X13192527Y-20561699D02*
X13202051Y-20552175D01*
X13202051Y-20552175D02*
X13221099Y-20542651D01*
X13221099Y-20542651D02*
X13249670Y-20542651D01*
X13249670Y-20542651D02*
X13268718Y-20552175D01*
X13268718Y-20552175D02*
X13278242Y-20561699D01*
X13278242Y-20561699D02*
X13287765Y-20580746D01*
X13287765Y-20580746D02*
X13287765Y-20637889D01*
X13287765Y-20637889D02*
X13278242Y-20656937D01*
X13278242Y-20656937D02*
X13268718Y-20666461D01*
X13268718Y-20666461D02*
X13249670Y-20675984D01*
X13249670Y-20675984D02*
X13221099Y-20675984D01*
X13344908Y-20542651D02*
X13421099Y-20542651D01*
X13373480Y-20475984D02*
X13373480Y-20647413D01*
X13373480Y-20647413D02*
X13383004Y-20666461D01*
X13383004Y-20666461D02*
X13402051Y-20675984D01*
X13402051Y-20675984D02*
X13421099Y-20675984D01*
X13640146Y-20542651D02*
X13640146Y-20742651D01*
X13640146Y-20552175D02*
X13659194Y-20542651D01*
X13659194Y-20542651D02*
X13697289Y-20542651D01*
X13697289Y-20542651D02*
X13716337Y-20552175D01*
X13716337Y-20552175D02*
X13725861Y-20561699D01*
X13725861Y-20561699D02*
X13735385Y-20580746D01*
X13735385Y-20580746D02*
X13735385Y-20637889D01*
X13735385Y-20637889D02*
X13725861Y-20656937D01*
X13725861Y-20656937D02*
X13716337Y-20666461D01*
X13716337Y-20666461D02*
X13697289Y-20675984D01*
X13697289Y-20675984D02*
X13659194Y-20675984D01*
X13659194Y-20675984D02*
X13640146Y-20666461D01*
X13849670Y-20675984D02*
X13830623Y-20666461D01*
X13830623Y-20666461D02*
X13821099Y-20647413D01*
X13821099Y-20647413D02*
X13821099Y-20475984D01*
X14011575Y-20675984D02*
X14011575Y-20571223D01*
X14011575Y-20571223D02*
X14002051Y-20552175D01*
X14002051Y-20552175D02*
X13983004Y-20542651D01*
X13983004Y-20542651D02*
X13944908Y-20542651D01*
X13944908Y-20542651D02*
X13925861Y-20552175D01*
X14011575Y-20666461D02*
X13992527Y-20675984D01*
X13992527Y-20675984D02*
X13944908Y-20675984D01*
X13944908Y-20675984D02*
X13925861Y-20666461D01*
X13925861Y-20666461D02*
X13916337Y-20647413D01*
X13916337Y-20647413D02*
X13916337Y-20628365D01*
X13916337Y-20628365D02*
X13925861Y-20609318D01*
X13925861Y-20609318D02*
X13944908Y-20599794D01*
X13944908Y-20599794D02*
X13992527Y-20599794D01*
X13992527Y-20599794D02*
X14011575Y-20590270D01*
X14078242Y-20542651D02*
X14154432Y-20542651D01*
X14106813Y-20475984D02*
X14106813Y-20647413D01*
X14106813Y-20647413D02*
X14116337Y-20666461D01*
X14116337Y-20666461D02*
X14135385Y-20675984D01*
X14135385Y-20675984D02*
X14154432Y-20675984D01*
X14297289Y-20666461D02*
X14278242Y-20675984D01*
X14278242Y-20675984D02*
X14240146Y-20675984D01*
X14240146Y-20675984D02*
X14221099Y-20666461D01*
X14221099Y-20666461D02*
X14211575Y-20647413D01*
X14211575Y-20647413D02*
X14211575Y-20571223D01*
X14211575Y-20571223D02*
X14221099Y-20552175D01*
X14221099Y-20552175D02*
X14240146Y-20542651D01*
X14240146Y-20542651D02*
X14278242Y-20542651D01*
X14278242Y-20542651D02*
X14297289Y-20552175D01*
X14297289Y-20552175D02*
X14306813Y-20571223D01*
X14306813Y-20571223D02*
X14306813Y-20590270D01*
X14306813Y-20590270D02*
X14211575Y-20609318D01*
X14478242Y-20675984D02*
X14478242Y-20475984D01*
X14478242Y-20666461D02*
X14459194Y-20675984D01*
X14459194Y-20675984D02*
X14421099Y-20675984D01*
X14421099Y-20675984D02*
X14402051Y-20666461D01*
X14402051Y-20666461D02*
X14392527Y-20656937D01*
X14392527Y-20656937D02*
X14383004Y-20637889D01*
X14383004Y-20637889D02*
X14383004Y-20580746D01*
X14383004Y-20580746D02*
X14392527Y-20561699D01*
X14392527Y-20561699D02*
X14402051Y-20552175D01*
X14402051Y-20552175D02*
X14421099Y-20542651D01*
X14421099Y-20542651D02*
X14459194Y-20542651D01*
X14459194Y-20542651D02*
X14478242Y-20552175D01*
X14554432Y-20752175D02*
X14563956Y-20742651D01*
X14563956Y-20742651D02*
X14583004Y-20714080D01*
X14583004Y-20714080D02*
X14592527Y-20695032D01*
X14592527Y-20695032D02*
X14602051Y-20666461D01*
X14602051Y-20666461D02*
X14611575Y-20618842D01*
X14611575Y-20618842D02*
X14611575Y-20580746D01*
X14611575Y-20580746D02*
X14602051Y-20533127D01*
X14602051Y-20533127D02*
X14592527Y-20504556D01*
X14592527Y-20504556D02*
X14583004Y-20485508D01*
X14583004Y-20485508D02*
X14563956Y-20456937D01*
X14563956Y-20456937D02*
X14554432Y-20447413D01*
X7507941Y-20974681D02*
X7607941Y-20874681D01*
X7507941Y-20774681D01*
X7407941Y-20874681D01*
X7507941Y-20974681D01*
X7859194Y-20785212D02*
X7868717Y-20775688D01*
X7868717Y-20775688D02*
X7887765Y-20766164D01*
X7887765Y-20766164D02*
X7935384Y-20766164D01*
X7935384Y-20766164D02*
X7954432Y-20775688D01*
X7954432Y-20775688D02*
X7963955Y-20785212D01*
X7963955Y-20785212D02*
X7973479Y-20804260D01*
X7973479Y-20804260D02*
X7973479Y-20823307D01*
X7973479Y-20823307D02*
X7963955Y-20851879D01*
X7963955Y-20851879D02*
X7849670Y-20966164D01*
X7849670Y-20966164D02*
X7973479Y-20966164D01*
X8059194Y-20947117D02*
X8068717Y-20956641D01*
X8068717Y-20956641D02*
X8059194Y-20966164D01*
X8059194Y-20966164D02*
X8049670Y-20956641D01*
X8049670Y-20956641D02*
X8059194Y-20947117D01*
X8059194Y-20947117D02*
X8059194Y-20966164D01*
X8144908Y-20785212D02*
X8154432Y-20775688D01*
X8154432Y-20775688D02*
X8173479Y-20766164D01*
X8173479Y-20766164D02*
X8221098Y-20766164D01*
X8221098Y-20766164D02*
X8240146Y-20775688D01*
X8240146Y-20775688D02*
X8249670Y-20785212D01*
X8249670Y-20785212D02*
X8259194Y-20804260D01*
X8259194Y-20804260D02*
X8259194Y-20823307D01*
X8259194Y-20823307D02*
X8249670Y-20851879D01*
X8249670Y-20851879D02*
X8135384Y-20966164D01*
X8135384Y-20966164D02*
X8259194Y-20966164D01*
X8383003Y-20766164D02*
X8402051Y-20766164D01*
X8402051Y-20766164D02*
X8421098Y-20775688D01*
X8421098Y-20775688D02*
X8430622Y-20785212D01*
X8430622Y-20785212D02*
X8440146Y-20804260D01*
X8440146Y-20804260D02*
X8449670Y-20842355D01*
X8449670Y-20842355D02*
X8449670Y-20889974D01*
X8449670Y-20889974D02*
X8440146Y-20928069D01*
X8440146Y-20928069D02*
X8430622Y-20947117D01*
X8430622Y-20947117D02*
X8421098Y-20956641D01*
X8421098Y-20956641D02*
X8402051Y-20966164D01*
X8402051Y-20966164D02*
X8383003Y-20966164D01*
X8383003Y-20966164D02*
X8363955Y-20956641D01*
X8363955Y-20956641D02*
X8354432Y-20947117D01*
X8354432Y-20947117D02*
X8344908Y-20928069D01*
X8344908Y-20928069D02*
X8335384Y-20889974D01*
X8335384Y-20889974D02*
X8335384Y-20842355D01*
X8335384Y-20842355D02*
X8344908Y-20804260D01*
X8344908Y-20804260D02*
X8354432Y-20785212D01*
X8354432Y-20785212D02*
X8363955Y-20775688D01*
X8363955Y-20775688D02*
X8383003Y-20766164D01*
X8573479Y-20766164D02*
X8592527Y-20766164D01*
X8592527Y-20766164D02*
X8611575Y-20775688D01*
X8611575Y-20775688D02*
X8621098Y-20785212D01*
X8621098Y-20785212D02*
X8630622Y-20804260D01*
X8630622Y-20804260D02*
X8640146Y-20842355D01*
X8640146Y-20842355D02*
X8640146Y-20889974D01*
X8640146Y-20889974D02*
X8630622Y-20928069D01*
X8630622Y-20928069D02*
X8621098Y-20947117D01*
X8621098Y-20947117D02*
X8611575Y-20956641D01*
X8611575Y-20956641D02*
X8592527Y-20966164D01*
X8592527Y-20966164D02*
X8573479Y-20966164D01*
X8573479Y-20966164D02*
X8554432Y-20956641D01*
X8554432Y-20956641D02*
X8544908Y-20947117D01*
X8544908Y-20947117D02*
X8535384Y-20928069D01*
X8535384Y-20928069D02*
X8525860Y-20889974D01*
X8525860Y-20889974D02*
X8525860Y-20842355D01*
X8525860Y-20842355D02*
X8535384Y-20804260D01*
X8535384Y-20804260D02*
X8544908Y-20785212D01*
X8544908Y-20785212D02*
X8554432Y-20775688D01*
X8554432Y-20775688D02*
X8573479Y-20766164D01*
X8725860Y-20966164D02*
X8725860Y-20832831D01*
X8725860Y-20851879D02*
X8735384Y-20842355D01*
X8735384Y-20842355D02*
X8754432Y-20832831D01*
X8754432Y-20832831D02*
X8783003Y-20832831D01*
X8783003Y-20832831D02*
X8802051Y-20842355D01*
X8802051Y-20842355D02*
X8811575Y-20861403D01*
X8811575Y-20861403D02*
X8811575Y-20966164D01*
X8811575Y-20861403D02*
X8821098Y-20842355D01*
X8821098Y-20842355D02*
X8840146Y-20832831D01*
X8840146Y-20832831D02*
X8868717Y-20832831D01*
X8868717Y-20832831D02*
X8887765Y-20842355D01*
X8887765Y-20842355D02*
X8897289Y-20861403D01*
X8897289Y-20861403D02*
X8897289Y-20966164D01*
X8992527Y-20966164D02*
X8992527Y-20832831D01*
X8992527Y-20851879D02*
X9002051Y-20842355D01*
X9002051Y-20842355D02*
X9021098Y-20832831D01*
X9021098Y-20832831D02*
X9049670Y-20832831D01*
X9049670Y-20832831D02*
X9068718Y-20842355D01*
X9068718Y-20842355D02*
X9078241Y-20861403D01*
X9078241Y-20861403D02*
X9078241Y-20966164D01*
X9078241Y-20861403D02*
X9087765Y-20842355D01*
X9087765Y-20842355D02*
X9106813Y-20832831D01*
X9106813Y-20832831D02*
X9135384Y-20832831D01*
X9135384Y-20832831D02*
X9154432Y-20842355D01*
X9154432Y-20842355D02*
X9163956Y-20861403D01*
X9163956Y-20861403D02*
X9163956Y-20966164D01*
X9554432Y-20756641D02*
X9383003Y-21013783D01*
X9811575Y-20766164D02*
X9830622Y-20766164D01*
X9830622Y-20766164D02*
X9849670Y-20775688D01*
X9849670Y-20775688D02*
X9859194Y-20785212D01*
X9859194Y-20785212D02*
X9868718Y-20804260D01*
X9868718Y-20804260D02*
X9878241Y-20842355D01*
X9878241Y-20842355D02*
X9878241Y-20889974D01*
X9878241Y-20889974D02*
X9868718Y-20928069D01*
X9868718Y-20928069D02*
X9859194Y-20947117D01*
X9859194Y-20947117D02*
X9849670Y-20956641D01*
X9849670Y-20956641D02*
X9830622Y-20966164D01*
X9830622Y-20966164D02*
X9811575Y-20966164D01*
X9811575Y-20966164D02*
X9792527Y-20956641D01*
X9792527Y-20956641D02*
X9783003Y-20947117D01*
X9783003Y-20947117D02*
X9773480Y-20928069D01*
X9773480Y-20928069D02*
X9763956Y-20889974D01*
X9763956Y-20889974D02*
X9763956Y-20842355D01*
X9763956Y-20842355D02*
X9773480Y-20804260D01*
X9773480Y-20804260D02*
X9783003Y-20785212D01*
X9783003Y-20785212D02*
X9792527Y-20775688D01*
X9792527Y-20775688D02*
X9811575Y-20766164D01*
X9963956Y-20947117D02*
X9973480Y-20956641D01*
X9973480Y-20956641D02*
X9963956Y-20966164D01*
X9963956Y-20966164D02*
X9954432Y-20956641D01*
X9954432Y-20956641D02*
X9963956Y-20947117D01*
X9963956Y-20947117D02*
X9963956Y-20966164D01*
X10097289Y-20766164D02*
X10116337Y-20766164D01*
X10116337Y-20766164D02*
X10135384Y-20775688D01*
X10135384Y-20775688D02*
X10144908Y-20785212D01*
X10144908Y-20785212D02*
X10154432Y-20804260D01*
X10154432Y-20804260D02*
X10163956Y-20842355D01*
X10163956Y-20842355D02*
X10163956Y-20889974D01*
X10163956Y-20889974D02*
X10154432Y-20928069D01*
X10154432Y-20928069D02*
X10144908Y-20947117D01*
X10144908Y-20947117D02*
X10135384Y-20956641D01*
X10135384Y-20956641D02*
X10116337Y-20966164D01*
X10116337Y-20966164D02*
X10097289Y-20966164D01*
X10097289Y-20966164D02*
X10078241Y-20956641D01*
X10078241Y-20956641D02*
X10068718Y-20947117D01*
X10068718Y-20947117D02*
X10059194Y-20928069D01*
X10059194Y-20928069D02*
X10049670Y-20889974D01*
X10049670Y-20889974D02*
X10049670Y-20842355D01*
X10049670Y-20842355D02*
X10059194Y-20804260D01*
X10059194Y-20804260D02*
X10068718Y-20785212D01*
X10068718Y-20785212D02*
X10078241Y-20775688D01*
X10078241Y-20775688D02*
X10097289Y-20766164D01*
X10278241Y-20851879D02*
X10259194Y-20842355D01*
X10259194Y-20842355D02*
X10249670Y-20832831D01*
X10249670Y-20832831D02*
X10240146Y-20813783D01*
X10240146Y-20813783D02*
X10240146Y-20804260D01*
X10240146Y-20804260D02*
X10249670Y-20785212D01*
X10249670Y-20785212D02*
X10259194Y-20775688D01*
X10259194Y-20775688D02*
X10278241Y-20766164D01*
X10278241Y-20766164D02*
X10316337Y-20766164D01*
X10316337Y-20766164D02*
X10335384Y-20775688D01*
X10335384Y-20775688D02*
X10344908Y-20785212D01*
X10344908Y-20785212D02*
X10354432Y-20804260D01*
X10354432Y-20804260D02*
X10354432Y-20813783D01*
X10354432Y-20813783D02*
X10344908Y-20832831D01*
X10344908Y-20832831D02*
X10335384Y-20842355D01*
X10335384Y-20842355D02*
X10316337Y-20851879D01*
X10316337Y-20851879D02*
X10278241Y-20851879D01*
X10278241Y-20851879D02*
X10259194Y-20861403D01*
X10259194Y-20861403D02*
X10249670Y-20870926D01*
X10249670Y-20870926D02*
X10240146Y-20889974D01*
X10240146Y-20889974D02*
X10240146Y-20928069D01*
X10240146Y-20928069D02*
X10249670Y-20947117D01*
X10249670Y-20947117D02*
X10259194Y-20956641D01*
X10259194Y-20956641D02*
X10278241Y-20966164D01*
X10278241Y-20966164D02*
X10316337Y-20966164D01*
X10316337Y-20966164D02*
X10335384Y-20956641D01*
X10335384Y-20956641D02*
X10344908Y-20947117D01*
X10344908Y-20947117D02*
X10354432Y-20928069D01*
X10354432Y-20928069D02*
X10354432Y-20889974D01*
X10354432Y-20889974D02*
X10344908Y-20870926D01*
X10344908Y-20870926D02*
X10335384Y-20861403D01*
X10335384Y-20861403D02*
X10316337Y-20851879D01*
X10525861Y-20766164D02*
X10487765Y-20766164D01*
X10487765Y-20766164D02*
X10468718Y-20775688D01*
X10468718Y-20775688D02*
X10459194Y-20785212D01*
X10459194Y-20785212D02*
X10440146Y-20813783D01*
X10440146Y-20813783D02*
X10430622Y-20851879D01*
X10430622Y-20851879D02*
X10430622Y-20928069D01*
X10430622Y-20928069D02*
X10440146Y-20947117D01*
X10440146Y-20947117D02*
X10449670Y-20956641D01*
X10449670Y-20956641D02*
X10468718Y-20966164D01*
X10468718Y-20966164D02*
X10506813Y-20966164D01*
X10506813Y-20966164D02*
X10525861Y-20956641D01*
X10525861Y-20956641D02*
X10535384Y-20947117D01*
X10535384Y-20947117D02*
X10544908Y-20928069D01*
X10544908Y-20928069D02*
X10544908Y-20880450D01*
X10544908Y-20880450D02*
X10535384Y-20861403D01*
X10535384Y-20861403D02*
X10525861Y-20851879D01*
X10525861Y-20851879D02*
X10506813Y-20842355D01*
X10506813Y-20842355D02*
X10468718Y-20842355D01*
X10468718Y-20842355D02*
X10449670Y-20851879D01*
X10449670Y-20851879D02*
X10440146Y-20861403D01*
X10440146Y-20861403D02*
X10430622Y-20880450D01*
X10716337Y-20766164D02*
X10678241Y-20766164D01*
X10678241Y-20766164D02*
X10659194Y-20775688D01*
X10659194Y-20775688D02*
X10649670Y-20785212D01*
X10649670Y-20785212D02*
X10630622Y-20813783D01*
X10630622Y-20813783D02*
X10621099Y-20851879D01*
X10621099Y-20851879D02*
X10621099Y-20928069D01*
X10621099Y-20928069D02*
X10630622Y-20947117D01*
X10630622Y-20947117D02*
X10640146Y-20956641D01*
X10640146Y-20956641D02*
X10659194Y-20966164D01*
X10659194Y-20966164D02*
X10697289Y-20966164D01*
X10697289Y-20966164D02*
X10716337Y-20956641D01*
X10716337Y-20956641D02*
X10725861Y-20947117D01*
X10725861Y-20947117D02*
X10735384Y-20928069D01*
X10735384Y-20928069D02*
X10735384Y-20880450D01*
X10735384Y-20880450D02*
X10725861Y-20861403D01*
X10725861Y-20861403D02*
X10716337Y-20851879D01*
X10716337Y-20851879D02*
X10697289Y-20842355D01*
X10697289Y-20842355D02*
X10659194Y-20842355D01*
X10659194Y-20842355D02*
X10640146Y-20851879D01*
X10640146Y-20851879D02*
X10630622Y-20861403D01*
X10630622Y-20861403D02*
X10621099Y-20880450D01*
X10811575Y-20766164D02*
X10811575Y-20804260D01*
X10887765Y-20766164D02*
X10887765Y-20804260D01*
X11183004Y-21042355D02*
X11173480Y-21032831D01*
X11173480Y-21032831D02*
X11154432Y-21004260D01*
X11154432Y-21004260D02*
X11144908Y-20985212D01*
X11144908Y-20985212D02*
X11135384Y-20956641D01*
X11135384Y-20956641D02*
X11125861Y-20909022D01*
X11125861Y-20909022D02*
X11125861Y-20870926D01*
X11125861Y-20870926D02*
X11135384Y-20823307D01*
X11135384Y-20823307D02*
X11144908Y-20794736D01*
X11144908Y-20794736D02*
X11154432Y-20775688D01*
X11154432Y-20775688D02*
X11173480Y-20747117D01*
X11173480Y-20747117D02*
X11183004Y-20737593D01*
X11363956Y-20966164D02*
X11249670Y-20966164D01*
X11306813Y-20966164D02*
X11306813Y-20766164D01*
X11306813Y-20766164D02*
X11287765Y-20794736D01*
X11287765Y-20794736D02*
X11268718Y-20813783D01*
X11268718Y-20813783D02*
X11249670Y-20823307D01*
X11440146Y-20785212D02*
X11449670Y-20775688D01*
X11449670Y-20775688D02*
X11468718Y-20766164D01*
X11468718Y-20766164D02*
X11516337Y-20766164D01*
X11516337Y-20766164D02*
X11535384Y-20775688D01*
X11535384Y-20775688D02*
X11544908Y-20785212D01*
X11544908Y-20785212D02*
X11554432Y-20804260D01*
X11554432Y-20804260D02*
X11554432Y-20823307D01*
X11554432Y-20823307D02*
X11544908Y-20851879D01*
X11544908Y-20851879D02*
X11430622Y-20966164D01*
X11430622Y-20966164D02*
X11554432Y-20966164D01*
X11792527Y-20966164D02*
X11792527Y-20766164D01*
X11878242Y-20966164D02*
X11878242Y-20861403D01*
X11878242Y-20861403D02*
X11868718Y-20842355D01*
X11868718Y-20842355D02*
X11849670Y-20832831D01*
X11849670Y-20832831D02*
X11821099Y-20832831D01*
X11821099Y-20832831D02*
X11802051Y-20842355D01*
X11802051Y-20842355D02*
X11792527Y-20851879D01*
X12002051Y-20966164D02*
X11983003Y-20956641D01*
X11983003Y-20956641D02*
X11973480Y-20947117D01*
X11973480Y-20947117D02*
X11963956Y-20928069D01*
X11963956Y-20928069D02*
X11963956Y-20870926D01*
X11963956Y-20870926D02*
X11973480Y-20851879D01*
X11973480Y-20851879D02*
X11983003Y-20842355D01*
X11983003Y-20842355D02*
X12002051Y-20832831D01*
X12002051Y-20832831D02*
X12030623Y-20832831D01*
X12030623Y-20832831D02*
X12049670Y-20842355D01*
X12049670Y-20842355D02*
X12059194Y-20851879D01*
X12059194Y-20851879D02*
X12068718Y-20870926D01*
X12068718Y-20870926D02*
X12068718Y-20928069D01*
X12068718Y-20928069D02*
X12059194Y-20947117D01*
X12059194Y-20947117D02*
X12049670Y-20956641D01*
X12049670Y-20956641D02*
X12030623Y-20966164D01*
X12030623Y-20966164D02*
X12002051Y-20966164D01*
X12183003Y-20966164D02*
X12163956Y-20956641D01*
X12163956Y-20956641D02*
X12154432Y-20937593D01*
X12154432Y-20937593D02*
X12154432Y-20766164D01*
X12335384Y-20956641D02*
X12316337Y-20966164D01*
X12316337Y-20966164D02*
X12278242Y-20966164D01*
X12278242Y-20966164D02*
X12259194Y-20956641D01*
X12259194Y-20956641D02*
X12249670Y-20937593D01*
X12249670Y-20937593D02*
X12249670Y-20861403D01*
X12249670Y-20861403D02*
X12259194Y-20842355D01*
X12259194Y-20842355D02*
X12278242Y-20832831D01*
X12278242Y-20832831D02*
X12316337Y-20832831D01*
X12316337Y-20832831D02*
X12335384Y-20842355D01*
X12335384Y-20842355D02*
X12344908Y-20861403D01*
X12344908Y-20861403D02*
X12344908Y-20880450D01*
X12344908Y-20880450D02*
X12249670Y-20899498D01*
X12421099Y-20956641D02*
X12440146Y-20966164D01*
X12440146Y-20966164D02*
X12478242Y-20966164D01*
X12478242Y-20966164D02*
X12497289Y-20956641D01*
X12497289Y-20956641D02*
X12506813Y-20937593D01*
X12506813Y-20937593D02*
X12506813Y-20928069D01*
X12506813Y-20928069D02*
X12497289Y-20909022D01*
X12497289Y-20909022D02*
X12478242Y-20899498D01*
X12478242Y-20899498D02*
X12449670Y-20899498D01*
X12449670Y-20899498D02*
X12430623Y-20889974D01*
X12430623Y-20889974D02*
X12421099Y-20870926D01*
X12421099Y-20870926D02*
X12421099Y-20861403D01*
X12421099Y-20861403D02*
X12430623Y-20842355D01*
X12430623Y-20842355D02*
X12449670Y-20832831D01*
X12449670Y-20832831D02*
X12478242Y-20832831D01*
X12478242Y-20832831D02*
X12497289Y-20842355D01*
X12573480Y-21042355D02*
X12583004Y-21032831D01*
X12583004Y-21032831D02*
X12602051Y-21004260D01*
X12602051Y-21004260D02*
X12611575Y-20985212D01*
X12611575Y-20985212D02*
X12621099Y-20956641D01*
X12621099Y-20956641D02*
X12630623Y-20909022D01*
X12630623Y-20909022D02*
X12630623Y-20870926D01*
X12630623Y-20870926D02*
X12621099Y-20823307D01*
X12621099Y-20823307D02*
X12611575Y-20794736D01*
X12611575Y-20794736D02*
X12602051Y-20775688D01*
X12602051Y-20775688D02*
X12583004Y-20747117D01*
X12583004Y-20747117D02*
X12573480Y-20737593D01*
X12935385Y-21042355D02*
X12925861Y-21032831D01*
X12925861Y-21032831D02*
X12906813Y-21004260D01*
X12906813Y-21004260D02*
X12897289Y-20985212D01*
X12897289Y-20985212D02*
X12887765Y-20956641D01*
X12887765Y-20956641D02*
X12878242Y-20909022D01*
X12878242Y-20909022D02*
X12878242Y-20870926D01*
X12878242Y-20870926D02*
X12887765Y-20823307D01*
X12887765Y-20823307D02*
X12897289Y-20794736D01*
X12897289Y-20794736D02*
X12906813Y-20775688D01*
X12906813Y-20775688D02*
X12925861Y-20747117D01*
X12925861Y-20747117D02*
X12935385Y-20737593D01*
X13011575Y-20832831D02*
X13011575Y-20966164D01*
X13011575Y-20851879D02*
X13021099Y-20842355D01*
X13021099Y-20842355D02*
X13040146Y-20832831D01*
X13040146Y-20832831D02*
X13068718Y-20832831D01*
X13068718Y-20832831D02*
X13087765Y-20842355D01*
X13087765Y-20842355D02*
X13097289Y-20861403D01*
X13097289Y-20861403D02*
X13097289Y-20966164D01*
X13221099Y-20966164D02*
X13202051Y-20956641D01*
X13202051Y-20956641D02*
X13192527Y-20947117D01*
X13192527Y-20947117D02*
X13183004Y-20928069D01*
X13183004Y-20928069D02*
X13183004Y-20870926D01*
X13183004Y-20870926D02*
X13192527Y-20851879D01*
X13192527Y-20851879D02*
X13202051Y-20842355D01*
X13202051Y-20842355D02*
X13221099Y-20832831D01*
X13221099Y-20832831D02*
X13249670Y-20832831D01*
X13249670Y-20832831D02*
X13268718Y-20842355D01*
X13268718Y-20842355D02*
X13278242Y-20851879D01*
X13278242Y-20851879D02*
X13287765Y-20870926D01*
X13287765Y-20870926D02*
X13287765Y-20928069D01*
X13287765Y-20928069D02*
X13278242Y-20947117D01*
X13278242Y-20947117D02*
X13268718Y-20956641D01*
X13268718Y-20956641D02*
X13249670Y-20966164D01*
X13249670Y-20966164D02*
X13221099Y-20966164D01*
X13344908Y-20832831D02*
X13421099Y-20832831D01*
X13373480Y-20766164D02*
X13373480Y-20937593D01*
X13373480Y-20937593D02*
X13383004Y-20956641D01*
X13383004Y-20956641D02*
X13402051Y-20966164D01*
X13402051Y-20966164D02*
X13421099Y-20966164D01*
X13640146Y-20832831D02*
X13640146Y-21032831D01*
X13640146Y-20842355D02*
X13659194Y-20832831D01*
X13659194Y-20832831D02*
X13697289Y-20832831D01*
X13697289Y-20832831D02*
X13716337Y-20842355D01*
X13716337Y-20842355D02*
X13725861Y-20851879D01*
X13725861Y-20851879D02*
X13735385Y-20870926D01*
X13735385Y-20870926D02*
X13735385Y-20928069D01*
X13735385Y-20928069D02*
X13725861Y-20947117D01*
X13725861Y-20947117D02*
X13716337Y-20956641D01*
X13716337Y-20956641D02*
X13697289Y-20966164D01*
X13697289Y-20966164D02*
X13659194Y-20966164D01*
X13659194Y-20966164D02*
X13640146Y-20956641D01*
X13849670Y-20966164D02*
X13830623Y-20956641D01*
X13830623Y-20956641D02*
X13821099Y-20937593D01*
X13821099Y-20937593D02*
X13821099Y-20766164D01*
X14011575Y-20966164D02*
X14011575Y-20861403D01*
X14011575Y-20861403D02*
X14002051Y-20842355D01*
X14002051Y-20842355D02*
X13983004Y-20832831D01*
X13983004Y-20832831D02*
X13944908Y-20832831D01*
X13944908Y-20832831D02*
X13925861Y-20842355D01*
X14011575Y-20956641D02*
X13992527Y-20966164D01*
X13992527Y-20966164D02*
X13944908Y-20966164D01*
X13944908Y-20966164D02*
X13925861Y-20956641D01*
X13925861Y-20956641D02*
X13916337Y-20937593D01*
X13916337Y-20937593D02*
X13916337Y-20918545D01*
X13916337Y-20918545D02*
X13925861Y-20899498D01*
X13925861Y-20899498D02*
X13944908Y-20889974D01*
X13944908Y-20889974D02*
X13992527Y-20889974D01*
X13992527Y-20889974D02*
X14011575Y-20880450D01*
X14078242Y-20832831D02*
X14154432Y-20832831D01*
X14106813Y-20766164D02*
X14106813Y-20937593D01*
X14106813Y-20937593D02*
X14116337Y-20956641D01*
X14116337Y-20956641D02*
X14135385Y-20966164D01*
X14135385Y-20966164D02*
X14154432Y-20966164D01*
X14297289Y-20956641D02*
X14278242Y-20966164D01*
X14278242Y-20966164D02*
X14240146Y-20966164D01*
X14240146Y-20966164D02*
X14221099Y-20956641D01*
X14221099Y-20956641D02*
X14211575Y-20937593D01*
X14211575Y-20937593D02*
X14211575Y-20861403D01*
X14211575Y-20861403D02*
X14221099Y-20842355D01*
X14221099Y-20842355D02*
X14240146Y-20832831D01*
X14240146Y-20832831D02*
X14278242Y-20832831D01*
X14278242Y-20832831D02*
X14297289Y-20842355D01*
X14297289Y-20842355D02*
X14306813Y-20861403D01*
X14306813Y-20861403D02*
X14306813Y-20880450D01*
X14306813Y-20880450D02*
X14211575Y-20899498D01*
X14478242Y-20966164D02*
X14478242Y-20766164D01*
X14478242Y-20956641D02*
X14459194Y-20966164D01*
X14459194Y-20966164D02*
X14421099Y-20966164D01*
X14421099Y-20966164D02*
X14402051Y-20956641D01*
X14402051Y-20956641D02*
X14392527Y-20947117D01*
X14392527Y-20947117D02*
X14383004Y-20928069D01*
X14383004Y-20928069D02*
X14383004Y-20870926D01*
X14383004Y-20870926D02*
X14392527Y-20851879D01*
X14392527Y-20851879D02*
X14402051Y-20842355D01*
X14402051Y-20842355D02*
X14421099Y-20832831D01*
X14421099Y-20832831D02*
X14459194Y-20832831D01*
X14459194Y-20832831D02*
X14478242Y-20842355D01*
X14554432Y-21042355D02*
X14563956Y-21032831D01*
X14563956Y-21032831D02*
X14583004Y-21004260D01*
X14583004Y-21004260D02*
X14592527Y-20985212D01*
X14592527Y-20985212D02*
X14602051Y-20956641D01*
X14602051Y-20956641D02*
X14611575Y-20909022D01*
X14611575Y-20909022D02*
X14611575Y-20870926D01*
X14611575Y-20870926D02*
X14602051Y-20823307D01*
X14602051Y-20823307D02*
X14592527Y-20794736D01*
X14592527Y-20794736D02*
X14583004Y-20775688D01*
X14583004Y-20775688D02*
X14563956Y-20747117D01*
X14563956Y-20747117D02*
X14554432Y-20737593D01*
X7407941Y-21094681D02*
X7607941Y-21294681D01*
X7607941Y-21094681D02*
X7407941Y-21294681D01*
X7607941Y-21194681D02*
G75*
G02*
X7407941Y-21194681I-100000J0D01*
G01*
X7407941Y-21194681D02*
G75*
G02*
X7607941Y-21194681I100000J0D01*
G01*
X7849670Y-21086164D02*
X7973479Y-21086164D01*
X7973479Y-21086164D02*
X7906813Y-21162355D01*
X7906813Y-21162355D02*
X7935384Y-21162355D01*
X7935384Y-21162355D02*
X7954432Y-21171879D01*
X7954432Y-21171879D02*
X7963955Y-21181403D01*
X7963955Y-21181403D02*
X7973479Y-21200450D01*
X7973479Y-21200450D02*
X7973479Y-21248069D01*
X7973479Y-21248069D02*
X7963955Y-21267117D01*
X7963955Y-21267117D02*
X7954432Y-21276641D01*
X7954432Y-21276641D02*
X7935384Y-21286164D01*
X7935384Y-21286164D02*
X7878241Y-21286164D01*
X7878241Y-21286164D02*
X7859194Y-21276641D01*
X7859194Y-21276641D02*
X7849670Y-21267117D01*
X8059194Y-21267117D02*
X8068717Y-21276641D01*
X8068717Y-21276641D02*
X8059194Y-21286164D01*
X8059194Y-21286164D02*
X8049670Y-21276641D01*
X8049670Y-21276641D02*
X8059194Y-21267117D01*
X8059194Y-21267117D02*
X8059194Y-21286164D01*
X8240146Y-21152831D02*
X8240146Y-21286164D01*
X8192527Y-21076641D02*
X8144908Y-21219498D01*
X8144908Y-21219498D02*
X8268717Y-21219498D01*
X8335384Y-21105212D02*
X8344908Y-21095688D01*
X8344908Y-21095688D02*
X8363955Y-21086164D01*
X8363955Y-21086164D02*
X8411575Y-21086164D01*
X8411575Y-21086164D02*
X8430622Y-21095688D01*
X8430622Y-21095688D02*
X8440146Y-21105212D01*
X8440146Y-21105212D02*
X8449670Y-21124260D01*
X8449670Y-21124260D02*
X8449670Y-21143307D01*
X8449670Y-21143307D02*
X8440146Y-21171879D01*
X8440146Y-21171879D02*
X8325860Y-21286164D01*
X8325860Y-21286164D02*
X8449670Y-21286164D01*
X8544908Y-21286164D02*
X8583003Y-21286164D01*
X8583003Y-21286164D02*
X8602051Y-21276641D01*
X8602051Y-21276641D02*
X8611575Y-21267117D01*
X8611575Y-21267117D02*
X8630622Y-21238545D01*
X8630622Y-21238545D02*
X8640146Y-21200450D01*
X8640146Y-21200450D02*
X8640146Y-21124260D01*
X8640146Y-21124260D02*
X8630622Y-21105212D01*
X8630622Y-21105212D02*
X8621098Y-21095688D01*
X8621098Y-21095688D02*
X8602051Y-21086164D01*
X8602051Y-21086164D02*
X8563956Y-21086164D01*
X8563956Y-21086164D02*
X8544908Y-21095688D01*
X8544908Y-21095688D02*
X8535384Y-21105212D01*
X8535384Y-21105212D02*
X8525860Y-21124260D01*
X8525860Y-21124260D02*
X8525860Y-21171879D01*
X8525860Y-21171879D02*
X8535384Y-21190926D01*
X8535384Y-21190926D02*
X8544908Y-21200450D01*
X8544908Y-21200450D02*
X8563956Y-21209974D01*
X8563956Y-21209974D02*
X8602051Y-21209974D01*
X8602051Y-21209974D02*
X8621098Y-21200450D01*
X8621098Y-21200450D02*
X8630622Y-21190926D01*
X8630622Y-21190926D02*
X8640146Y-21171879D01*
X8725860Y-21286164D02*
X8725860Y-21152831D01*
X8725860Y-21171879D02*
X8735384Y-21162355D01*
X8735384Y-21162355D02*
X8754432Y-21152831D01*
X8754432Y-21152831D02*
X8783003Y-21152831D01*
X8783003Y-21152831D02*
X8802051Y-21162355D01*
X8802051Y-21162355D02*
X8811575Y-21181403D01*
X8811575Y-21181403D02*
X8811575Y-21286164D01*
X8811575Y-21181403D02*
X8821098Y-21162355D01*
X8821098Y-21162355D02*
X8840146Y-21152831D01*
X8840146Y-21152831D02*
X8868717Y-21152831D01*
X8868717Y-21152831D02*
X8887765Y-21162355D01*
X8887765Y-21162355D02*
X8897289Y-21181403D01*
X8897289Y-21181403D02*
X8897289Y-21286164D01*
X8992527Y-21286164D02*
X8992527Y-21152831D01*
X8992527Y-21171879D02*
X9002051Y-21162355D01*
X9002051Y-21162355D02*
X9021098Y-21152831D01*
X9021098Y-21152831D02*
X9049670Y-21152831D01*
X9049670Y-21152831D02*
X9068718Y-21162355D01*
X9068718Y-21162355D02*
X9078241Y-21181403D01*
X9078241Y-21181403D02*
X9078241Y-21286164D01*
X9078241Y-21181403D02*
X9087765Y-21162355D01*
X9087765Y-21162355D02*
X9106813Y-21152831D01*
X9106813Y-21152831D02*
X9135384Y-21152831D01*
X9135384Y-21152831D02*
X9154432Y-21162355D01*
X9154432Y-21162355D02*
X9163956Y-21181403D01*
X9163956Y-21181403D02*
X9163956Y-21286164D01*
X9554432Y-21076641D02*
X9383003Y-21333783D01*
X9811575Y-21086164D02*
X9830622Y-21086164D01*
X9830622Y-21086164D02*
X9849670Y-21095688D01*
X9849670Y-21095688D02*
X9859194Y-21105212D01*
X9859194Y-21105212D02*
X9868718Y-21124260D01*
X9868718Y-21124260D02*
X9878241Y-21162355D01*
X9878241Y-21162355D02*
X9878241Y-21209974D01*
X9878241Y-21209974D02*
X9868718Y-21248069D01*
X9868718Y-21248069D02*
X9859194Y-21267117D01*
X9859194Y-21267117D02*
X9849670Y-21276641D01*
X9849670Y-21276641D02*
X9830622Y-21286164D01*
X9830622Y-21286164D02*
X9811575Y-21286164D01*
X9811575Y-21286164D02*
X9792527Y-21276641D01*
X9792527Y-21276641D02*
X9783003Y-21267117D01*
X9783003Y-21267117D02*
X9773480Y-21248069D01*
X9773480Y-21248069D02*
X9763956Y-21209974D01*
X9763956Y-21209974D02*
X9763956Y-21162355D01*
X9763956Y-21162355D02*
X9773480Y-21124260D01*
X9773480Y-21124260D02*
X9783003Y-21105212D01*
X9783003Y-21105212D02*
X9792527Y-21095688D01*
X9792527Y-21095688D02*
X9811575Y-21086164D01*
X9963956Y-21267117D02*
X9973480Y-21276641D01*
X9973480Y-21276641D02*
X9963956Y-21286164D01*
X9963956Y-21286164D02*
X9954432Y-21276641D01*
X9954432Y-21276641D02*
X9963956Y-21267117D01*
X9963956Y-21267117D02*
X9963956Y-21286164D01*
X10163956Y-21286164D02*
X10049670Y-21286164D01*
X10106813Y-21286164D02*
X10106813Y-21086164D01*
X10106813Y-21086164D02*
X10087765Y-21114736D01*
X10087765Y-21114736D02*
X10068718Y-21133783D01*
X10068718Y-21133783D02*
X10049670Y-21143307D01*
X10230622Y-21086164D02*
X10354432Y-21086164D01*
X10354432Y-21086164D02*
X10287765Y-21162355D01*
X10287765Y-21162355D02*
X10316337Y-21162355D01*
X10316337Y-21162355D02*
X10335384Y-21171879D01*
X10335384Y-21171879D02*
X10344908Y-21181403D01*
X10344908Y-21181403D02*
X10354432Y-21200450D01*
X10354432Y-21200450D02*
X10354432Y-21248069D01*
X10354432Y-21248069D02*
X10344908Y-21267117D01*
X10344908Y-21267117D02*
X10335384Y-21276641D01*
X10335384Y-21276641D02*
X10316337Y-21286164D01*
X10316337Y-21286164D02*
X10259194Y-21286164D01*
X10259194Y-21286164D02*
X10240146Y-21276641D01*
X10240146Y-21276641D02*
X10230622Y-21267117D01*
X10535384Y-21086164D02*
X10440146Y-21086164D01*
X10440146Y-21086164D02*
X10430622Y-21181403D01*
X10430622Y-21181403D02*
X10440146Y-21171879D01*
X10440146Y-21171879D02*
X10459194Y-21162355D01*
X10459194Y-21162355D02*
X10506813Y-21162355D01*
X10506813Y-21162355D02*
X10525861Y-21171879D01*
X10525861Y-21171879D02*
X10535384Y-21181403D01*
X10535384Y-21181403D02*
X10544908Y-21200450D01*
X10544908Y-21200450D02*
X10544908Y-21248069D01*
X10544908Y-21248069D02*
X10535384Y-21267117D01*
X10535384Y-21267117D02*
X10525861Y-21276641D01*
X10525861Y-21276641D02*
X10506813Y-21286164D01*
X10506813Y-21286164D02*
X10459194Y-21286164D01*
X10459194Y-21286164D02*
X10440146Y-21276641D01*
X10440146Y-21276641D02*
X10430622Y-21267117D01*
X10668718Y-21086164D02*
X10687765Y-21086164D01*
X10687765Y-21086164D02*
X10706813Y-21095688D01*
X10706813Y-21095688D02*
X10716337Y-21105212D01*
X10716337Y-21105212D02*
X10725861Y-21124260D01*
X10725861Y-21124260D02*
X10735384Y-21162355D01*
X10735384Y-21162355D02*
X10735384Y-21209974D01*
X10735384Y-21209974D02*
X10725861Y-21248069D01*
X10725861Y-21248069D02*
X10716337Y-21267117D01*
X10716337Y-21267117D02*
X10706813Y-21276641D01*
X10706813Y-21276641D02*
X10687765Y-21286164D01*
X10687765Y-21286164D02*
X10668718Y-21286164D01*
X10668718Y-21286164D02*
X10649670Y-21276641D01*
X10649670Y-21276641D02*
X10640146Y-21267117D01*
X10640146Y-21267117D02*
X10630622Y-21248069D01*
X10630622Y-21248069D02*
X10621099Y-21209974D01*
X10621099Y-21209974D02*
X10621099Y-21162355D01*
X10621099Y-21162355D02*
X10630622Y-21124260D01*
X10630622Y-21124260D02*
X10640146Y-21105212D01*
X10640146Y-21105212D02*
X10649670Y-21095688D01*
X10649670Y-21095688D02*
X10668718Y-21086164D01*
X10811575Y-21086164D02*
X10811575Y-21124260D01*
X10887765Y-21086164D02*
X10887765Y-21124260D01*
X11183004Y-21362355D02*
X11173480Y-21352831D01*
X11173480Y-21352831D02*
X11154432Y-21324260D01*
X11154432Y-21324260D02*
X11144908Y-21305212D01*
X11144908Y-21305212D02*
X11135384Y-21276641D01*
X11135384Y-21276641D02*
X11125861Y-21229022D01*
X11125861Y-21229022D02*
X11125861Y-21190926D01*
X11125861Y-21190926D02*
X11135384Y-21143307D01*
X11135384Y-21143307D02*
X11144908Y-21114736D01*
X11144908Y-21114736D02*
X11154432Y-21095688D01*
X11154432Y-21095688D02*
X11173480Y-21067117D01*
X11173480Y-21067117D02*
X11183004Y-21057593D01*
X11240146Y-21086164D02*
X11363956Y-21086164D01*
X11363956Y-21086164D02*
X11297289Y-21162355D01*
X11297289Y-21162355D02*
X11325861Y-21162355D01*
X11325861Y-21162355D02*
X11344908Y-21171879D01*
X11344908Y-21171879D02*
X11354432Y-21181403D01*
X11354432Y-21181403D02*
X11363956Y-21200450D01*
X11363956Y-21200450D02*
X11363956Y-21248069D01*
X11363956Y-21248069D02*
X11354432Y-21267117D01*
X11354432Y-21267117D02*
X11344908Y-21276641D01*
X11344908Y-21276641D02*
X11325861Y-21286164D01*
X11325861Y-21286164D02*
X11268718Y-21286164D01*
X11268718Y-21286164D02*
X11249670Y-21276641D01*
X11249670Y-21276641D02*
X11240146Y-21267117D01*
X11478241Y-21171879D02*
X11459194Y-21162355D01*
X11459194Y-21162355D02*
X11449670Y-21152831D01*
X11449670Y-21152831D02*
X11440146Y-21133783D01*
X11440146Y-21133783D02*
X11440146Y-21124260D01*
X11440146Y-21124260D02*
X11449670Y-21105212D01*
X11449670Y-21105212D02*
X11459194Y-21095688D01*
X11459194Y-21095688D02*
X11478241Y-21086164D01*
X11478241Y-21086164D02*
X11516337Y-21086164D01*
X11516337Y-21086164D02*
X11535384Y-21095688D01*
X11535384Y-21095688D02*
X11544908Y-21105212D01*
X11544908Y-21105212D02*
X11554432Y-21124260D01*
X11554432Y-21124260D02*
X11554432Y-21133783D01*
X11554432Y-21133783D02*
X11544908Y-21152831D01*
X11544908Y-21152831D02*
X11535384Y-21162355D01*
X11535384Y-21162355D02*
X11516337Y-21171879D01*
X11516337Y-21171879D02*
X11478241Y-21171879D01*
X11478241Y-21171879D02*
X11459194Y-21181403D01*
X11459194Y-21181403D02*
X11449670Y-21190926D01*
X11449670Y-21190926D02*
X11440146Y-21209974D01*
X11440146Y-21209974D02*
X11440146Y-21248069D01*
X11440146Y-21248069D02*
X11449670Y-21267117D01*
X11449670Y-21267117D02*
X11459194Y-21276641D01*
X11459194Y-21276641D02*
X11478241Y-21286164D01*
X11478241Y-21286164D02*
X11516337Y-21286164D01*
X11516337Y-21286164D02*
X11535384Y-21276641D01*
X11535384Y-21276641D02*
X11544908Y-21267117D01*
X11544908Y-21267117D02*
X11554432Y-21248069D01*
X11554432Y-21248069D02*
X11554432Y-21209974D01*
X11554432Y-21209974D02*
X11544908Y-21190926D01*
X11544908Y-21190926D02*
X11535384Y-21181403D01*
X11535384Y-21181403D02*
X11516337Y-21171879D01*
X11792527Y-21286164D02*
X11792527Y-21086164D01*
X11878242Y-21286164D02*
X11878242Y-21181403D01*
X11878242Y-21181403D02*
X11868718Y-21162355D01*
X11868718Y-21162355D02*
X11849670Y-21152831D01*
X11849670Y-21152831D02*
X11821099Y-21152831D01*
X11821099Y-21152831D02*
X11802051Y-21162355D01*
X11802051Y-21162355D02*
X11792527Y-21171879D01*
X12002051Y-21286164D02*
X11983003Y-21276641D01*
X11983003Y-21276641D02*
X11973480Y-21267117D01*
X11973480Y-21267117D02*
X11963956Y-21248069D01*
X11963956Y-21248069D02*
X11963956Y-21190926D01*
X11963956Y-21190926D02*
X11973480Y-21171879D01*
X11973480Y-21171879D02*
X11983003Y-21162355D01*
X11983003Y-21162355D02*
X12002051Y-21152831D01*
X12002051Y-21152831D02*
X12030623Y-21152831D01*
X12030623Y-21152831D02*
X12049670Y-21162355D01*
X12049670Y-21162355D02*
X12059194Y-21171879D01*
X12059194Y-21171879D02*
X12068718Y-21190926D01*
X12068718Y-21190926D02*
X12068718Y-21248069D01*
X12068718Y-21248069D02*
X12059194Y-21267117D01*
X12059194Y-21267117D02*
X12049670Y-21276641D01*
X12049670Y-21276641D02*
X12030623Y-21286164D01*
X12030623Y-21286164D02*
X12002051Y-21286164D01*
X12183003Y-21286164D02*
X12163956Y-21276641D01*
X12163956Y-21276641D02*
X12154432Y-21257593D01*
X12154432Y-21257593D02*
X12154432Y-21086164D01*
X12335384Y-21276641D02*
X12316337Y-21286164D01*
X12316337Y-21286164D02*
X12278242Y-21286164D01*
X12278242Y-21286164D02*
X12259194Y-21276641D01*
X12259194Y-21276641D02*
X12249670Y-21257593D01*
X12249670Y-21257593D02*
X12249670Y-21181403D01*
X12249670Y-21181403D02*
X12259194Y-21162355D01*
X12259194Y-21162355D02*
X12278242Y-21152831D01*
X12278242Y-21152831D02*
X12316337Y-21152831D01*
X12316337Y-21152831D02*
X12335384Y-21162355D01*
X12335384Y-21162355D02*
X12344908Y-21181403D01*
X12344908Y-21181403D02*
X12344908Y-21200450D01*
X12344908Y-21200450D02*
X12249670Y-21219498D01*
X12421099Y-21276641D02*
X12440146Y-21286164D01*
X12440146Y-21286164D02*
X12478242Y-21286164D01*
X12478242Y-21286164D02*
X12497289Y-21276641D01*
X12497289Y-21276641D02*
X12506813Y-21257593D01*
X12506813Y-21257593D02*
X12506813Y-21248069D01*
X12506813Y-21248069D02*
X12497289Y-21229022D01*
X12497289Y-21229022D02*
X12478242Y-21219498D01*
X12478242Y-21219498D02*
X12449670Y-21219498D01*
X12449670Y-21219498D02*
X12430623Y-21209974D01*
X12430623Y-21209974D02*
X12421099Y-21190926D01*
X12421099Y-21190926D02*
X12421099Y-21181403D01*
X12421099Y-21181403D02*
X12430623Y-21162355D01*
X12430623Y-21162355D02*
X12449670Y-21152831D01*
X12449670Y-21152831D02*
X12478242Y-21152831D01*
X12478242Y-21152831D02*
X12497289Y-21162355D01*
X12573480Y-21362355D02*
X12583004Y-21352831D01*
X12583004Y-21352831D02*
X12602051Y-21324260D01*
X12602051Y-21324260D02*
X12611575Y-21305212D01*
X12611575Y-21305212D02*
X12621099Y-21276641D01*
X12621099Y-21276641D02*
X12630623Y-21229022D01*
X12630623Y-21229022D02*
X12630623Y-21190926D01*
X12630623Y-21190926D02*
X12621099Y-21143307D01*
X12621099Y-21143307D02*
X12611575Y-21114736D01*
X12611575Y-21114736D02*
X12602051Y-21095688D01*
X12602051Y-21095688D02*
X12583004Y-21067117D01*
X12583004Y-21067117D02*
X12573480Y-21057593D01*
X12935385Y-21362355D02*
X12925861Y-21352831D01*
X12925861Y-21352831D02*
X12906813Y-21324260D01*
X12906813Y-21324260D02*
X12897289Y-21305212D01*
X12897289Y-21305212D02*
X12887765Y-21276641D01*
X12887765Y-21276641D02*
X12878242Y-21229022D01*
X12878242Y-21229022D02*
X12878242Y-21190926D01*
X12878242Y-21190926D02*
X12887765Y-21143307D01*
X12887765Y-21143307D02*
X12897289Y-21114736D01*
X12897289Y-21114736D02*
X12906813Y-21095688D01*
X12906813Y-21095688D02*
X12925861Y-21067117D01*
X12925861Y-21067117D02*
X12935385Y-21057593D01*
X13011575Y-21152831D02*
X13011575Y-21286164D01*
X13011575Y-21171879D02*
X13021099Y-21162355D01*
X13021099Y-21162355D02*
X13040146Y-21152831D01*
X13040146Y-21152831D02*
X13068718Y-21152831D01*
X13068718Y-21152831D02*
X13087765Y-21162355D01*
X13087765Y-21162355D02*
X13097289Y-21181403D01*
X13097289Y-21181403D02*
X13097289Y-21286164D01*
X13221099Y-21286164D02*
X13202051Y-21276641D01*
X13202051Y-21276641D02*
X13192527Y-21267117D01*
X13192527Y-21267117D02*
X13183004Y-21248069D01*
X13183004Y-21248069D02*
X13183004Y-21190926D01*
X13183004Y-21190926D02*
X13192527Y-21171879D01*
X13192527Y-21171879D02*
X13202051Y-21162355D01*
X13202051Y-21162355D02*
X13221099Y-21152831D01*
X13221099Y-21152831D02*
X13249670Y-21152831D01*
X13249670Y-21152831D02*
X13268718Y-21162355D01*
X13268718Y-21162355D02*
X13278242Y-21171879D01*
X13278242Y-21171879D02*
X13287765Y-21190926D01*
X13287765Y-21190926D02*
X13287765Y-21248069D01*
X13287765Y-21248069D02*
X13278242Y-21267117D01*
X13278242Y-21267117D02*
X13268718Y-21276641D01*
X13268718Y-21276641D02*
X13249670Y-21286164D01*
X13249670Y-21286164D02*
X13221099Y-21286164D01*
X13344908Y-21152831D02*
X13421099Y-21152831D01*
X13373480Y-21086164D02*
X13373480Y-21257593D01*
X13373480Y-21257593D02*
X13383004Y-21276641D01*
X13383004Y-21276641D02*
X13402051Y-21286164D01*
X13402051Y-21286164D02*
X13421099Y-21286164D01*
X13640146Y-21152831D02*
X13640146Y-21352831D01*
X13640146Y-21162355D02*
X13659194Y-21152831D01*
X13659194Y-21152831D02*
X13697289Y-21152831D01*
X13697289Y-21152831D02*
X13716337Y-21162355D01*
X13716337Y-21162355D02*
X13725861Y-21171879D01*
X13725861Y-21171879D02*
X13735385Y-21190926D01*
X13735385Y-21190926D02*
X13735385Y-21248069D01*
X13735385Y-21248069D02*
X13725861Y-21267117D01*
X13725861Y-21267117D02*
X13716337Y-21276641D01*
X13716337Y-21276641D02*
X13697289Y-21286164D01*
X13697289Y-21286164D02*
X13659194Y-21286164D01*
X13659194Y-21286164D02*
X13640146Y-21276641D01*
X13849670Y-21286164D02*
X13830623Y-21276641D01*
X13830623Y-21276641D02*
X13821099Y-21257593D01*
X13821099Y-21257593D02*
X13821099Y-21086164D01*
X14011575Y-21286164D02*
X14011575Y-21181403D01*
X14011575Y-21181403D02*
X14002051Y-21162355D01*
X14002051Y-21162355D02*
X13983004Y-21152831D01*
X13983004Y-21152831D02*
X13944908Y-21152831D01*
X13944908Y-21152831D02*
X13925861Y-21162355D01*
X14011575Y-21276641D02*
X13992527Y-21286164D01*
X13992527Y-21286164D02*
X13944908Y-21286164D01*
X13944908Y-21286164D02*
X13925861Y-21276641D01*
X13925861Y-21276641D02*
X13916337Y-21257593D01*
X13916337Y-21257593D02*
X13916337Y-21238545D01*
X13916337Y-21238545D02*
X13925861Y-21219498D01*
X13925861Y-21219498D02*
X13944908Y-21209974D01*
X13944908Y-21209974D02*
X13992527Y-21209974D01*
X13992527Y-21209974D02*
X14011575Y-21200450D01*
X14078242Y-21152831D02*
X14154432Y-21152831D01*
X14106813Y-21086164D02*
X14106813Y-21257593D01*
X14106813Y-21257593D02*
X14116337Y-21276641D01*
X14116337Y-21276641D02*
X14135385Y-21286164D01*
X14135385Y-21286164D02*
X14154432Y-21286164D01*
X14297289Y-21276641D02*
X14278242Y-21286164D01*
X14278242Y-21286164D02*
X14240146Y-21286164D01*
X14240146Y-21286164D02*
X14221099Y-21276641D01*
X14221099Y-21276641D02*
X14211575Y-21257593D01*
X14211575Y-21257593D02*
X14211575Y-21181403D01*
X14211575Y-21181403D02*
X14221099Y-21162355D01*
X14221099Y-21162355D02*
X14240146Y-21152831D01*
X14240146Y-21152831D02*
X14278242Y-21152831D01*
X14278242Y-21152831D02*
X14297289Y-21162355D01*
X14297289Y-21162355D02*
X14306813Y-21181403D01*
X14306813Y-21181403D02*
X14306813Y-21200450D01*
X14306813Y-21200450D02*
X14211575Y-21219498D01*
X14478242Y-21286164D02*
X14478242Y-21086164D01*
X14478242Y-21276641D02*
X14459194Y-21286164D01*
X14459194Y-21286164D02*
X14421099Y-21286164D01*
X14421099Y-21286164D02*
X14402051Y-21276641D01*
X14402051Y-21276641D02*
X14392527Y-21267117D01*
X14392527Y-21267117D02*
X14383004Y-21248069D01*
X14383004Y-21248069D02*
X14383004Y-21190926D01*
X14383004Y-21190926D02*
X14392527Y-21171879D01*
X14392527Y-21171879D02*
X14402051Y-21162355D01*
X14402051Y-21162355D02*
X14421099Y-21152831D01*
X14421099Y-21152831D02*
X14459194Y-21152831D01*
X14459194Y-21152831D02*
X14478242Y-21162355D01*
X14554432Y-21362355D02*
X14563956Y-21352831D01*
X14563956Y-21352831D02*
X14583004Y-21324260D01*
X14583004Y-21324260D02*
X14592527Y-21305212D01*
X14592527Y-21305212D02*
X14602051Y-21276641D01*
X14602051Y-21276641D02*
X14611575Y-21229022D01*
X14611575Y-21229022D02*
X14611575Y-21190926D01*
X14611575Y-21190926D02*
X14602051Y-21143307D01*
X14602051Y-21143307D02*
X14592527Y-21114736D01*
X14592527Y-21114736D02*
X14583004Y-21095688D01*
X14583004Y-21095688D02*
X14563956Y-21067117D01*
X14563956Y-21067117D02*
X14554432Y-21057593D01*
M02*
