G04 #@! TF.GenerationSoftware,KiCad,Pcbnew,9.0.4*
G04 #@! TF.CreationDate,2025-09-15T12:20:14-04:00*
G04 #@! TF.ProjectId,zen,7a656e2e-6b69-4636-9164-5f7063625858,rev?*
G04 #@! TF.SameCoordinates,Original*
G04 #@! TF.FileFunction,Soldermask,Top*
G04 #@! TF.FilePolarity,Negative*
%FSLAX46Y46*%
G04 Gerber Fmt 4.6, Leading zero omitted, Abs format (unit mm)*
G04 Created by KiCad (PCBNEW 9.0.4) date 2025-09-15 12:20:14*
%MOMM*%
%LPD*%
G01*
G04 APERTURE LIST*
%ADD10C,2.032000*%
%ADD11C,1.701800*%
%ADD12C,0.990600*%
%ADD13C,3.429000*%
%ADD14O,1.600000X2.000000*%
%ADD15C,0.800000*%
%ADD16C,1.752600*%
%ADD17R,1.752600X1.752600*%
%ADD18C,2.200000*%
%ADD19R,2.000000X1.300000*%
%ADD20R,0.300000X1.000000*%
%ADD21C,4.350000*%
%ADD22C,1.500000*%
%ADD23C,0.500000*%
G04 APERTURE END LIST*
D10*
X116353883Y-173514613D03*
X121727032Y-174248962D03*
D11*
X125512592Y-167126495D03*
D12*
X124155093Y-163142076D03*
D13*
X120200000Y-168550000D03*
D11*
X114887408Y-169973505D03*
X134500000Y-165900000D03*
D13*
X140000000Y-165900000D03*
D12*
X145220000Y-161700000D03*
D11*
X145500000Y-165900000D03*
D10*
X140000000Y-171800000D03*
X135000000Y-169700000D03*
X171869873Y-176940897D03*
X175150000Y-181259550D03*
D11*
X182863140Y-178900000D03*
D12*
X184720653Y-175122693D03*
D13*
X178100000Y-176150000D03*
D11*
X173336860Y-173400000D03*
X154387408Y-167026495D03*
D13*
X159700000Y-168450000D03*
D12*
X165829173Y-165744147D03*
D11*
X165012592Y-169873505D03*
D10*
X158172968Y-174148962D03*
X153886858Y-170826423D03*
X257549873Y-181930897D03*
X262930000Y-181249550D03*
D11*
X264743140Y-173390000D03*
D12*
X262400653Y-169892693D03*
D13*
X259980000Y-176140000D03*
D11*
X255216860Y-178890000D03*
D10*
X274583883Y-173404613D03*
X279957032Y-174138962D03*
D11*
X283742592Y-167016495D03*
D12*
X282385093Y-163032076D03*
D13*
X278430000Y-168440000D03*
D11*
X273117408Y-169863505D03*
D10*
X81295881Y-130046336D03*
X86514537Y-131521336D03*
D11*
X91254512Y-124995033D03*
D12*
X90464748Y-120860462D03*
D13*
X85795508Y-125665314D03*
D11*
X80336504Y-126335595D03*
D10*
X83398127Y-147167757D03*
X88616783Y-148642757D03*
D11*
X93356758Y-142116454D03*
D12*
X92566994Y-137981883D03*
D13*
X87897754Y-142786735D03*
D11*
X82438750Y-143457016D03*
D10*
X85500373Y-164289178D03*
X90719029Y-165764178D03*
D11*
X95459004Y-159237875D03*
D12*
X94669240Y-155103304D03*
D13*
X90000000Y-159908156D03*
D11*
X84540996Y-160578437D03*
D10*
X312150000Y-170876423D03*
X316436110Y-174198962D03*
D11*
X323275734Y-169923505D03*
D12*
X324092315Y-165794147D03*
D13*
X317963142Y-168500000D03*
D11*
X312650550Y-167076495D03*
D10*
X346777533Y-128826924D03*
X351484338Y-131520617D03*
D11*
X357662371Y-126334876D03*
D12*
X357896309Y-122132059D03*
D13*
X352203367Y-125664595D03*
D11*
X346744363Y-124994314D03*
D10*
X344675287Y-145948345D03*
X349382092Y-148642038D03*
D11*
X355560125Y-143456297D03*
D12*
X355794063Y-139253480D03*
D13*
X350101121Y-142786016D03*
D11*
X344642117Y-142115735D03*
D10*
X342573041Y-163069766D03*
X347279846Y-165763459D03*
D11*
X353457879Y-160577718D03*
D12*
X353691817Y-156374901D03*
D13*
X347998875Y-159907437D03*
D11*
X342539871Y-159237156D03*
D10*
X325180000Y-152000000D03*
X330180000Y-154100000D03*
D11*
X335680000Y-148200000D03*
D12*
X335400000Y-144000000D03*
D13*
X330180000Y-148200000D03*
D11*
X324680000Y-148200000D03*
D10*
X289680000Y-151050000D03*
X294680000Y-153150000D03*
D11*
X300180000Y-147250000D03*
D12*
X299900000Y-143050000D03*
D13*
X294680000Y-147250000D03*
D11*
X289180000Y-147250000D03*
D14*
X263050780Y-107337500D03*
X263050780Y-110337500D03*
X263050780Y-114337500D03*
X258450780Y-115437500D03*
D15*
X260750780Y-112737500D03*
X260750780Y-105737500D03*
D10*
X307430000Y-143800000D03*
X312430000Y-145900000D03*
D11*
X317930000Y-140000000D03*
D12*
X317650000Y-135800000D03*
D13*
X312430000Y-140000000D03*
D11*
X306930000Y-140000000D03*
D10*
X120680000Y-126515677D03*
X125680000Y-128615677D03*
D11*
X131180000Y-122715677D03*
D12*
X130900000Y-118515677D03*
D13*
X125680000Y-122715677D03*
D11*
X120180000Y-122715677D03*
D10*
X271930000Y-135740000D03*
X276930000Y-137840000D03*
D11*
X282430000Y-131940000D03*
D12*
X282150000Y-127740000D03*
D13*
X276930000Y-131940000D03*
D11*
X271430000Y-131940000D03*
D10*
X271930000Y-152990000D03*
X276930000Y-155090000D03*
D11*
X282430000Y-149190000D03*
D12*
X282150000Y-144990000D03*
D13*
X276930000Y-149190000D03*
D11*
X271430000Y-149190000D03*
D10*
X289680000Y-116550000D03*
X294680000Y-118650000D03*
D11*
X300180000Y-112750000D03*
D12*
X299900000Y-108550000D03*
D13*
X294680000Y-112750000D03*
D11*
X289180000Y-112750000D03*
D10*
X120680000Y-109265677D03*
X125680000Y-111365677D03*
D11*
X131180000Y-105465677D03*
D12*
X130900000Y-101265677D03*
D13*
X125680000Y-105465677D03*
D11*
X120180000Y-105465677D03*
D10*
X138430000Y-116265677D03*
X143430000Y-118365677D03*
D11*
X148930000Y-112465677D03*
D12*
X148650000Y-108265677D03*
D13*
X143430000Y-112465677D03*
D11*
X137930000Y-112465677D03*
D10*
X138430000Y-150765677D03*
X143430000Y-152865677D03*
D11*
X148930000Y-146965677D03*
D12*
X148650000Y-142765677D03*
D13*
X143430000Y-146965677D03*
D11*
X137930000Y-146965677D03*
D10*
X102930000Y-134515677D03*
X107930000Y-136615677D03*
D11*
X113430000Y-130715677D03*
D12*
X113150000Y-126515677D03*
D13*
X107930000Y-130715677D03*
D11*
X102430000Y-130715677D03*
D10*
X156180000Y-118265677D03*
X161180000Y-120365677D03*
D11*
X166680000Y-114465677D03*
D12*
X166400000Y-110265677D03*
D13*
X161180000Y-114465677D03*
D11*
X155680000Y-114465677D03*
D10*
X293130000Y-169640000D03*
X298130000Y-171740000D03*
D11*
X303630000Y-165840000D03*
D12*
X303350000Y-161640000D03*
D13*
X298130000Y-165840000D03*
D11*
X292630000Y-165840000D03*
D10*
X120680000Y-143765677D03*
X125680000Y-145865677D03*
D11*
X131180000Y-139965677D03*
D12*
X130900000Y-135765677D03*
D13*
X125680000Y-139965677D03*
D11*
X120180000Y-139965677D03*
D16*
X186100000Y-120765677D03*
X188640000Y-120765677D03*
X191180000Y-120765677D03*
X193720000Y-120765677D03*
X196260000Y-120765677D03*
X198800000Y-120765677D03*
X201340000Y-120765677D03*
X203880000Y-120765677D03*
X206420000Y-120765677D03*
X208960000Y-120765677D03*
X211500000Y-120765677D03*
X214040000Y-120765677D03*
X216580000Y-120765677D03*
X186100000Y-105525677D03*
X188640000Y-105525677D03*
X191180000Y-105525677D03*
X193720000Y-105525677D03*
X196260000Y-105525677D03*
X198800000Y-105525677D03*
X201340000Y-105525677D03*
X203880000Y-105525677D03*
X206420000Y-105525677D03*
X208960000Y-105525677D03*
X211500000Y-105525677D03*
X214040000Y-105525677D03*
D17*
X216580000Y-105525677D03*
D10*
X156180000Y-135515677D03*
X161180000Y-137615677D03*
D11*
X166680000Y-131715677D03*
D12*
X166400000Y-127515677D03*
D13*
X161180000Y-131715677D03*
D11*
X155680000Y-131715677D03*
D14*
X179300000Y-107353177D03*
X179300000Y-110353177D03*
X179300000Y-114353177D03*
X174700000Y-115453177D03*
D15*
X177000000Y-112753177D03*
X177000000Y-105753177D03*
D10*
X271930000Y-118490000D03*
X276930000Y-120590000D03*
D11*
X282430000Y-114690000D03*
D12*
X282150000Y-110490000D03*
D13*
X276930000Y-114690000D03*
D11*
X271430000Y-114690000D03*
D10*
X325180000Y-117500000D03*
X330180000Y-119600000D03*
D11*
X335680000Y-113700000D03*
D12*
X335400000Y-109500000D03*
D13*
X330180000Y-113700000D03*
D11*
X324680000Y-113700000D03*
D10*
X289680000Y-133800000D03*
X294680000Y-135900000D03*
D11*
X300180000Y-130000000D03*
D12*
X299900000Y-125800000D03*
D13*
X294680000Y-130000000D03*
D11*
X289180000Y-130000000D03*
D10*
X156180000Y-152765677D03*
X161180000Y-154865677D03*
D11*
X166680000Y-148965677D03*
D12*
X166400000Y-144765677D03*
D13*
X161180000Y-148965677D03*
D11*
X155680000Y-148965677D03*
D18*
X215000000Y-125000000D03*
X173000000Y-132000000D03*
X96000000Y-120000000D03*
X208000000Y-160000000D03*
X91000000Y-174000000D03*
X347000000Y-174000000D03*
D19*
X247730000Y-131545000D03*
X237630000Y-131545000D03*
D20*
X245430000Y-128845000D03*
X244930000Y-128845000D03*
X244430000Y-128845000D03*
X243930000Y-128845000D03*
X243430000Y-128845000D03*
X242930000Y-128845000D03*
X242430000Y-128845000D03*
X241930000Y-128845000D03*
X241430000Y-128845000D03*
X240930000Y-128845000D03*
X240430000Y-128845000D03*
X239930000Y-128845000D03*
D21*
X342600000Y-179650000D03*
X331400000Y-179650000D03*
D22*
X337000000Y-187150000D03*
X339500000Y-187150000D03*
X334500000Y-187150000D03*
D21*
X200000000Y-145415677D03*
X188800000Y-145415677D03*
D22*
X194400000Y-152915677D03*
X196900000Y-152915677D03*
X191900000Y-152915677D03*
D23*
X219750001Y-105950000D03*
X218250001Y-105950000D03*
X219750001Y-106800000D03*
X218250001Y-106800000D03*
X219750001Y-107650000D03*
X218250001Y-107650000D03*
X219750001Y-108500000D03*
X218250001Y-108500000D03*
X219750001Y-109350000D03*
X218250001Y-109350000D03*
X219750001Y-110200000D03*
X218250001Y-110200000D03*
X219750001Y-111050000D03*
X218250001Y-111050000D03*
X219750000Y-116950000D03*
X218250000Y-116950000D03*
X219750000Y-117800000D03*
X218250000Y-117800000D03*
X219750000Y-118650000D03*
X218250000Y-118650000D03*
X219750000Y-119500000D03*
X218250000Y-119500000D03*
X219750000Y-120350000D03*
X218250000Y-120350000D03*
X219750000Y-121200000D03*
X218250000Y-121200000D03*
X219750000Y-122050000D03*
X218250000Y-122050000D03*
D18*
X126000000Y-154000000D03*
D23*
X219750000Y-140950000D03*
X218250000Y-140950000D03*
X219750000Y-141800000D03*
X218250000Y-141800000D03*
X219750000Y-142650000D03*
X218250000Y-142650000D03*
X219750000Y-143500000D03*
X218250000Y-143500000D03*
X219750000Y-144350000D03*
X218250000Y-144350000D03*
X219750000Y-145200000D03*
X218250000Y-145200000D03*
X219750000Y-146050000D03*
X218250000Y-146050000D03*
D18*
X230000000Y-160000000D03*
X223000000Y-125000000D03*
D21*
X106500000Y-179765677D03*
X95300000Y-179765677D03*
D22*
X100900000Y-187265677D03*
X103400000Y-187265677D03*
X98400000Y-187265677D03*
D18*
X312000000Y-154000000D03*
D23*
X219750000Y-128950000D03*
X218250000Y-128950000D03*
X219750000Y-129800000D03*
X218250000Y-129800000D03*
X219750000Y-130650000D03*
X218250000Y-130650000D03*
X219750000Y-131500000D03*
X218250000Y-131500000D03*
X219750000Y-132350000D03*
X218250000Y-132350000D03*
X219750000Y-133200000D03*
X218250000Y-133200000D03*
X219750000Y-134050000D03*
X218250000Y-134050000D03*
D18*
X265000000Y-132000000D03*
X342000000Y-120000000D03*
D10*
X102930000Y-151765677D03*
X107930000Y-153865677D03*
D11*
X113430000Y-147965677D03*
D12*
X113150000Y-143765677D03*
D13*
X107930000Y-147965677D03*
D11*
X102430000Y-147965677D03*
D10*
X307054220Y-109300000D03*
X312054220Y-111400000D03*
D11*
X317554220Y-105500000D03*
D12*
X317274220Y-101300000D03*
D13*
X312054220Y-105500000D03*
D11*
X306554220Y-105500000D03*
D16*
X252150780Y-105500000D03*
X249610780Y-105500000D03*
X247070780Y-105500000D03*
X244530780Y-105500000D03*
X241990780Y-105500000D03*
X239450780Y-105500000D03*
X236910780Y-105500000D03*
X234370780Y-105500000D03*
X231830780Y-105500000D03*
X229290780Y-105500000D03*
X226750780Y-105500000D03*
X224210780Y-105500000D03*
X221670780Y-105500000D03*
X252150780Y-120740000D03*
X249610780Y-120740000D03*
X247070780Y-120740000D03*
X244530780Y-120740000D03*
X241990780Y-120740000D03*
X239450780Y-120740000D03*
X236910780Y-120740000D03*
X234370780Y-120740000D03*
X231830780Y-120740000D03*
X229290780Y-120740000D03*
X226750780Y-120740000D03*
X224210780Y-120740000D03*
D17*
X221670780Y-120740000D03*
D10*
X325180000Y-134750000D03*
X330180000Y-136850000D03*
D11*
X335680000Y-130950000D03*
D12*
X335400000Y-126750000D03*
D13*
X330180000Y-130950000D03*
D11*
X324680000Y-130950000D03*
D10*
X307430000Y-126550000D03*
X312430000Y-128650000D03*
D11*
X317930000Y-122750000D03*
D12*
X317650000Y-118550000D03*
D13*
X312430000Y-122750000D03*
D11*
X306930000Y-122750000D03*
D10*
X102930000Y-117265677D03*
X107930000Y-119365677D03*
D11*
X113430000Y-113465677D03*
D12*
X113150000Y-109265677D03*
D13*
X107930000Y-113465677D03*
D11*
X102430000Y-113465677D03*
D10*
X138430000Y-133515677D03*
X143430000Y-135615677D03*
D11*
X148930000Y-129715677D03*
D12*
X148650000Y-125515677D03*
D13*
X143430000Y-129715677D03*
D11*
X137930000Y-129715677D03*
M02*
