G04 #@! TF.GenerationSoftware,KiCad,Pcbnew,9.0.4*
G04 #@! TF.CreationDate,2025-09-15T12:20:14-04:00*
G04 #@! TF.ProjectId,zen,7a656e2e-6b69-4636-9164-5f7063625858,rev?*
G04 #@! TF.SameCoordinates,Original*
G04 #@! TF.FileFunction,Legend,Bot*
G04 #@! TF.FilePolarity,Positive*
%FSLAX46Y46*%
G04 Gerber Fmt 4.6, Leading zero omitted, Abs format (unit mm)*
G04 Created by KiCad (PCBNEW 9.0.4) date 2025-09-15 12:20:14*
%MOMM*%
%LPD*%
G01*
G04 APERTURE LIST*
%ADD10C,0.150000*%
%ADD11C,0.120000*%
%ADD12C,0.381000*%
%ADD13C,1.752600*%
%ADD14R,1.752600X1.752600*%
G04 APERTURE END LIST*
D10*
X119902852Y-164700560D02*
X119644033Y-163734634D01*
X119644033Y-163734634D02*
X119414051Y-163796257D01*
X119414051Y-163796257D02*
X119288386Y-163879228D01*
X119288386Y-163879228D02*
X119221043Y-163995870D01*
X119221043Y-163995870D02*
X119199696Y-164100188D01*
X119199696Y-164100188D02*
X119202998Y-164296499D01*
X119202998Y-164296499D02*
X119239972Y-164434488D01*
X119239972Y-164434488D02*
X119335268Y-164606149D01*
X119335268Y-164606149D02*
X119405913Y-164685817D01*
X119405913Y-164685817D02*
X119522556Y-164753161D01*
X119522556Y-164753161D02*
X119672870Y-164762183D01*
X119672870Y-164762183D02*
X119902852Y-164700560D01*
X118770100Y-163968803D02*
X118172146Y-164129025D01*
X118172146Y-164129025D02*
X118592719Y-164410724D01*
X118592719Y-164410724D02*
X118454730Y-164447698D01*
X118454730Y-164447698D02*
X118375062Y-164518344D01*
X118375062Y-164518344D02*
X118341390Y-164576665D01*
X118341390Y-164576665D02*
X118320043Y-164680982D01*
X118320043Y-164680982D02*
X118381666Y-164910965D01*
X118381666Y-164910965D02*
X118452312Y-164990633D01*
X118452312Y-164990633D02*
X118510634Y-165024305D01*
X118510634Y-165024305D02*
X118614951Y-165045652D01*
X118614951Y-165045652D02*
X118890930Y-164971703D01*
X118890930Y-164971703D02*
X118970598Y-164901058D01*
X118970598Y-164901058D02*
X119004270Y-164842736D01*
X117298213Y-164363194D02*
X117758178Y-164239947D01*
X117758178Y-164239947D02*
X117927422Y-164687587D01*
X117927422Y-164687587D02*
X117869100Y-164653915D01*
X117869100Y-164653915D02*
X117764783Y-164632568D01*
X117764783Y-164632568D02*
X117534800Y-164694192D01*
X117534800Y-164694192D02*
X117455132Y-164764838D01*
X117455132Y-164764838D02*
X117421461Y-164823159D01*
X117421461Y-164823159D02*
X117400113Y-164927477D01*
X117400113Y-164927477D02*
X117461737Y-165157459D01*
X117461737Y-165157459D02*
X117532383Y-165237127D01*
X117532383Y-165237127D02*
X117590704Y-165270799D01*
X117590704Y-165270799D02*
X117695022Y-165292146D01*
X117695022Y-165292146D02*
X117925004Y-165230523D01*
X117925004Y-165230523D02*
X118004672Y-165159877D01*
X118004672Y-165159877D02*
X118038344Y-165101555D01*
X140854285Y-162104819D02*
X140854285Y-161104819D01*
X140854285Y-161104819D02*
X140616190Y-161104819D01*
X140616190Y-161104819D02*
X140473333Y-161152438D01*
X140473333Y-161152438D02*
X140378095Y-161247676D01*
X140378095Y-161247676D02*
X140330476Y-161342914D01*
X140330476Y-161342914D02*
X140282857Y-161533390D01*
X140282857Y-161533390D02*
X140282857Y-161676247D01*
X140282857Y-161676247D02*
X140330476Y-161866723D01*
X140330476Y-161866723D02*
X140378095Y-161961961D01*
X140378095Y-161961961D02*
X140473333Y-162057200D01*
X140473333Y-162057200D02*
X140616190Y-162104819D01*
X140616190Y-162104819D02*
X140854285Y-162104819D01*
X139949523Y-161104819D02*
X139330476Y-161104819D01*
X139330476Y-161104819D02*
X139663809Y-161485771D01*
X139663809Y-161485771D02*
X139520952Y-161485771D01*
X139520952Y-161485771D02*
X139425714Y-161533390D01*
X139425714Y-161533390D02*
X139378095Y-161581009D01*
X139378095Y-161581009D02*
X139330476Y-161676247D01*
X139330476Y-161676247D02*
X139330476Y-161914342D01*
X139330476Y-161914342D02*
X139378095Y-162009580D01*
X139378095Y-162009580D02*
X139425714Y-162057200D01*
X139425714Y-162057200D02*
X139520952Y-162104819D01*
X139520952Y-162104819D02*
X139806666Y-162104819D01*
X139806666Y-162104819D02*
X139901904Y-162057200D01*
X139901904Y-162057200D02*
X139949523Y-162009580D01*
X138473333Y-161104819D02*
X138663809Y-161104819D01*
X138663809Y-161104819D02*
X138759047Y-161152438D01*
X138759047Y-161152438D02*
X138806666Y-161200057D01*
X138806666Y-161200057D02*
X138901904Y-161342914D01*
X138901904Y-161342914D02*
X138949523Y-161533390D01*
X138949523Y-161533390D02*
X138949523Y-161914342D01*
X138949523Y-161914342D02*
X138901904Y-162009580D01*
X138901904Y-162009580D02*
X138854285Y-162057200D01*
X138854285Y-162057200D02*
X138759047Y-162104819D01*
X138759047Y-162104819D02*
X138568571Y-162104819D01*
X138568571Y-162104819D02*
X138473333Y-162057200D01*
X138473333Y-162057200D02*
X138425714Y-162009580D01*
X138425714Y-162009580D02*
X138378095Y-161914342D01*
X138378095Y-161914342D02*
X138378095Y-161676247D01*
X138378095Y-161676247D02*
X138425714Y-161581009D01*
X138425714Y-161581009D02*
X138473333Y-161533390D01*
X138473333Y-161533390D02*
X138568571Y-161485771D01*
X138568571Y-161485771D02*
X138759047Y-161485771D01*
X138759047Y-161485771D02*
X138854285Y-161533390D01*
X138854285Y-161533390D02*
X138901904Y-161581009D01*
X138901904Y-161581009D02*
X138949523Y-161676247D01*
X161372212Y-164969007D02*
X161631031Y-164003081D01*
X161631031Y-164003081D02*
X161401048Y-163941458D01*
X161401048Y-163941458D02*
X161250734Y-163950480D01*
X161250734Y-163950480D02*
X161134092Y-164017824D01*
X161134092Y-164017824D02*
X161063446Y-164097492D01*
X161063446Y-164097492D02*
X160968151Y-164269153D01*
X160968151Y-164269153D02*
X160931176Y-164407142D01*
X160931176Y-164407142D02*
X160927874Y-164603453D01*
X160927874Y-164603453D02*
X160949221Y-164707771D01*
X160949221Y-164707771D02*
X161016565Y-164824413D01*
X161016565Y-164824413D02*
X161142229Y-164907384D01*
X161142229Y-164907384D02*
X161372212Y-164969007D01*
X160757098Y-163768912D02*
X160159144Y-163608690D01*
X160159144Y-163608690D02*
X160382521Y-164062935D01*
X160382521Y-164062935D02*
X160244532Y-164025961D01*
X160244532Y-164025961D02*
X160140214Y-164047308D01*
X160140214Y-164047308D02*
X160081893Y-164080980D01*
X160081893Y-164080980D02*
X160011247Y-164160648D01*
X160011247Y-164160648D02*
X159949624Y-164390630D01*
X159949624Y-164390630D02*
X159970971Y-164494948D01*
X159970971Y-164494948D02*
X160004642Y-164553269D01*
X160004642Y-164553269D02*
X160084311Y-164623915D01*
X160084311Y-164623915D02*
X160360289Y-164697863D01*
X160360289Y-164697863D02*
X160464607Y-164676516D01*
X160464607Y-164676516D02*
X160522928Y-164642845D01*
X159837168Y-163522417D02*
X159193218Y-163349871D01*
X159193218Y-163349871D02*
X159348367Y-164426720D01*
X259884012Y-173545171D02*
X259384012Y-172679146D01*
X259384012Y-172679146D02*
X259177816Y-172798194D01*
X259177816Y-172798194D02*
X259077907Y-172910862D01*
X259077907Y-172910862D02*
X259043048Y-173040959D01*
X259043048Y-173040959D02*
X259049428Y-173147247D01*
X259049428Y-173147247D02*
X259103426Y-173336014D01*
X259103426Y-173336014D02*
X259174855Y-173459732D01*
X259174855Y-173459732D02*
X259311332Y-173600880D01*
X259311332Y-173600880D02*
X259400191Y-173659549D01*
X259400191Y-173659549D02*
X259530288Y-173694408D01*
X259530288Y-173694408D02*
X259677816Y-173664219D01*
X259677816Y-173664219D02*
X259884012Y-173545171D01*
X258564355Y-174307076D02*
X259059226Y-174021362D01*
X258811790Y-174164219D02*
X258311790Y-173298194D01*
X258311790Y-173298194D02*
X258465698Y-173374293D01*
X258465698Y-173374293D02*
X258595795Y-173409152D01*
X258595795Y-173409152D02*
X258702083Y-173402772D01*
X257322047Y-173869622D02*
X257487004Y-173774384D01*
X257487004Y-173774384D02*
X257593292Y-173768004D01*
X257593292Y-173768004D02*
X257658341Y-173785434D01*
X257658341Y-173785434D02*
X257812248Y-173861533D01*
X257812248Y-173861533D02*
X257948726Y-174002681D01*
X257948726Y-174002681D02*
X258139202Y-174332595D01*
X258139202Y-174332595D02*
X258145582Y-174438883D01*
X258145582Y-174438883D02*
X258128152Y-174503932D01*
X258128152Y-174503932D02*
X258069483Y-174592791D01*
X258069483Y-174592791D02*
X257904526Y-174688029D01*
X257904526Y-174688029D02*
X257798238Y-174694408D01*
X257798238Y-174694408D02*
X257733189Y-174676979D01*
X257733189Y-174676979D02*
X257644330Y-174618310D01*
X257644330Y-174618310D02*
X257525283Y-174412113D01*
X257525283Y-174412113D02*
X257518903Y-174305825D01*
X257518903Y-174305825D02*
X257536333Y-174240776D01*
X257536333Y-174240776D02*
X257595002Y-174151918D01*
X257595002Y-174151918D02*
X257759959Y-174056680D01*
X257759959Y-174056680D02*
X257866247Y-174050300D01*
X257866247Y-174050300D02*
X257931296Y-174067730D01*
X257931296Y-174067730D02*
X258020154Y-174126399D01*
X279008872Y-165908745D02*
X278750053Y-164942819D01*
X278750053Y-164942819D02*
X278520071Y-165004442D01*
X278520071Y-165004442D02*
X278394406Y-165087413D01*
X278394406Y-165087413D02*
X278327063Y-165204055D01*
X278327063Y-165204055D02*
X278305716Y-165308373D01*
X278305716Y-165308373D02*
X278309018Y-165504684D01*
X278309018Y-165504684D02*
X278345992Y-165642673D01*
X278345992Y-165642673D02*
X278441288Y-165814334D01*
X278441288Y-165814334D02*
X278511933Y-165894002D01*
X278511933Y-165894002D02*
X278628576Y-165961346D01*
X278628576Y-165961346D02*
X278778890Y-165970368D01*
X278778890Y-165970368D02*
X279008872Y-165908745D01*
X277536985Y-166303136D02*
X278088943Y-166155239D01*
X277812964Y-166229187D02*
X277554145Y-165263261D01*
X277554145Y-165263261D02*
X277683112Y-165376601D01*
X277683112Y-165376601D02*
X277799755Y-165443945D01*
X277799755Y-165443945D02*
X277904072Y-165465292D01*
X276956191Y-165423483D02*
X276312240Y-165596029D01*
X276312240Y-165596029D02*
X276985028Y-166451032D01*
X86041953Y-121811371D02*
X85920083Y-120818825D01*
X85920083Y-120818825D02*
X85683763Y-120847842D01*
X85683763Y-120847842D02*
X85547774Y-120912516D01*
X85547774Y-120912516D02*
X85464852Y-121018650D01*
X85464852Y-121018650D02*
X85429195Y-121118982D01*
X85429195Y-121118982D02*
X85405144Y-121313842D01*
X85405144Y-121313842D02*
X85422554Y-121455634D01*
X85422554Y-121455634D02*
X85493031Y-121638887D01*
X85493031Y-121638887D02*
X85551902Y-121727612D01*
X85551902Y-121727612D02*
X85658037Y-121810534D01*
X85658037Y-121810534D02*
X85805632Y-121840388D01*
X85805632Y-121840388D02*
X86041953Y-121811371D01*
X84986408Y-121029419D02*
X84933340Y-120987958D01*
X84933340Y-120987958D02*
X84833009Y-120952301D01*
X84833009Y-120952301D02*
X84596688Y-120981317D01*
X84596688Y-120981317D02*
X84507964Y-121040188D01*
X84507964Y-121040188D02*
X84466503Y-121093256D01*
X84466503Y-121093256D02*
X84430845Y-121193587D01*
X84430845Y-121193587D02*
X84442452Y-121288115D01*
X84442452Y-121288115D02*
X84507126Y-121424104D01*
X84507126Y-121424104D02*
X85143935Y-121921634D01*
X85143935Y-121921634D02*
X84529501Y-121997077D01*
X83793199Y-121079974D02*
X83698670Y-121091580D01*
X83698670Y-121091580D02*
X83609946Y-121150451D01*
X83609946Y-121150451D02*
X83568485Y-121203518D01*
X83568485Y-121203518D02*
X83532827Y-121303850D01*
X83532827Y-121303850D02*
X83508776Y-121498710D01*
X83508776Y-121498710D02*
X83537793Y-121735030D01*
X83537793Y-121735030D02*
X83608270Y-121918283D01*
X83608270Y-121918283D02*
X83667141Y-122007008D01*
X83667141Y-122007008D02*
X83720208Y-122048469D01*
X83720208Y-122048469D02*
X83820540Y-122084126D01*
X83820540Y-122084126D02*
X83915068Y-122072520D01*
X83915068Y-122072520D02*
X84003793Y-122013649D01*
X84003793Y-122013649D02*
X84045254Y-121960582D01*
X84045254Y-121960582D02*
X84080911Y-121860250D01*
X84080911Y-121860250D02*
X84104962Y-121665390D01*
X84104962Y-121665390D02*
X84075946Y-121429070D01*
X84075946Y-121429070D02*
X84005468Y-121245817D01*
X84005468Y-121245817D02*
X83946598Y-121157092D01*
X83946598Y-121157092D02*
X83893530Y-121115631D01*
X83893530Y-121115631D02*
X83793199Y-121079974D01*
X88144200Y-138932792D02*
X88022330Y-137940246D01*
X88022330Y-137940246D02*
X87786010Y-137969263D01*
X87786010Y-137969263D02*
X87650021Y-138033937D01*
X87650021Y-138033937D02*
X87567099Y-138140071D01*
X87567099Y-138140071D02*
X87531442Y-138240403D01*
X87531442Y-138240403D02*
X87507391Y-138435263D01*
X87507391Y-138435263D02*
X87524801Y-138577055D01*
X87524801Y-138577055D02*
X87595278Y-138760308D01*
X87595278Y-138760308D02*
X87654149Y-138849033D01*
X87654149Y-138849033D02*
X87760284Y-138931955D01*
X87760284Y-138931955D02*
X87907879Y-138961809D01*
X87907879Y-138961809D02*
X88144200Y-138932792D01*
X87088655Y-138150840D02*
X87035587Y-138109379D01*
X87035587Y-138109379D02*
X86935256Y-138073722D01*
X86935256Y-138073722D02*
X86698935Y-138102738D01*
X86698935Y-138102738D02*
X86610211Y-138161609D01*
X86610211Y-138161609D02*
X86568750Y-138214677D01*
X86568750Y-138214677D02*
X86533092Y-138315008D01*
X86533092Y-138315008D02*
X86544699Y-138409536D01*
X86544699Y-138409536D02*
X86609373Y-138545525D01*
X86609373Y-138545525D02*
X87246182Y-139043055D01*
X87246182Y-139043055D02*
X86631748Y-139118498D01*
X85611861Y-138236214D02*
X86084502Y-138178181D01*
X86084502Y-138178181D02*
X86189799Y-138645019D01*
X86189799Y-138645019D02*
X86136732Y-138603558D01*
X86136732Y-138603558D02*
X86036400Y-138567901D01*
X86036400Y-138567901D02*
X85800080Y-138596917D01*
X85800080Y-138596917D02*
X85711355Y-138655788D01*
X85711355Y-138655788D02*
X85669894Y-138708855D01*
X85669894Y-138708855D02*
X85634237Y-138809187D01*
X85634237Y-138809187D02*
X85663253Y-139045507D01*
X85663253Y-139045507D02*
X85722124Y-139134232D01*
X85722124Y-139134232D02*
X85775191Y-139175693D01*
X85775191Y-139175693D02*
X85875523Y-139211351D01*
X85875523Y-139211351D02*
X86111843Y-139182334D01*
X86111843Y-139182334D02*
X86200568Y-139123463D01*
X86200568Y-139123463D02*
X86242029Y-139070396D01*
X90246446Y-156054213D02*
X90124576Y-155061667D01*
X90124576Y-155061667D02*
X89888256Y-155090684D01*
X89888256Y-155090684D02*
X89752267Y-155155358D01*
X89752267Y-155155358D02*
X89669345Y-155261492D01*
X89669345Y-155261492D02*
X89633688Y-155361824D01*
X89633688Y-155361824D02*
X89609637Y-155556684D01*
X89609637Y-155556684D02*
X89627047Y-155698476D01*
X89627047Y-155698476D02*
X89697524Y-155881729D01*
X89697524Y-155881729D02*
X89756395Y-155970454D01*
X89756395Y-155970454D02*
X89862530Y-156053376D01*
X89862530Y-156053376D02*
X90010125Y-156083230D01*
X90010125Y-156083230D02*
X90246446Y-156054213D01*
X89226558Y-155171930D02*
X88612125Y-155247373D01*
X88612125Y-155247373D02*
X88989400Y-155584862D01*
X88989400Y-155584862D02*
X88847608Y-155602272D01*
X88847608Y-155602272D02*
X88758883Y-155661143D01*
X88758883Y-155661143D02*
X88717422Y-155714210D01*
X88717422Y-155714210D02*
X88681765Y-155814542D01*
X88681765Y-155814542D02*
X88710781Y-156050862D01*
X88710781Y-156050862D02*
X88769652Y-156139587D01*
X88769652Y-156139587D02*
X88822719Y-156181048D01*
X88822719Y-156181048D02*
X88923051Y-156216706D01*
X88923051Y-156216706D02*
X89206635Y-156181886D01*
X89206635Y-156181886D02*
X89295360Y-156123015D01*
X89295360Y-156123015D02*
X89336821Y-156069948D01*
X87997692Y-155322816D02*
X87903163Y-155334422D01*
X87903163Y-155334422D02*
X87814439Y-155393293D01*
X87814439Y-155393293D02*
X87772978Y-155446360D01*
X87772978Y-155446360D02*
X87737320Y-155546692D01*
X87737320Y-155546692D02*
X87713269Y-155741552D01*
X87713269Y-155741552D02*
X87742286Y-155977872D01*
X87742286Y-155977872D02*
X87812763Y-156161125D01*
X87812763Y-156161125D02*
X87871634Y-156249850D01*
X87871634Y-156249850D02*
X87924701Y-156291311D01*
X87924701Y-156291311D02*
X88025033Y-156326968D01*
X88025033Y-156326968D02*
X88119561Y-156315362D01*
X88119561Y-156315362D02*
X88208286Y-156256491D01*
X88208286Y-156256491D02*
X88249747Y-156203424D01*
X88249747Y-156203424D02*
X88285404Y-156103092D01*
X88285404Y-156103092D02*
X88309455Y-155908232D01*
X88309455Y-155908232D02*
X88280439Y-155671912D01*
X88280439Y-155671912D02*
X88209961Y-155488659D01*
X88209961Y-155488659D02*
X88151091Y-155399934D01*
X88151091Y-155399934D02*
X88098023Y-155358473D01*
X88098023Y-155358473D02*
X87997692Y-155322816D01*
X319730089Y-166597305D02*
X319988908Y-165631379D01*
X319988908Y-165631379D02*
X319758925Y-165569756D01*
X319758925Y-165569756D02*
X319608611Y-165578778D01*
X319608611Y-165578778D02*
X319491969Y-165646122D01*
X319491969Y-165646122D02*
X319421323Y-165725790D01*
X319421323Y-165725790D02*
X319326028Y-165897451D01*
X319326028Y-165897451D02*
X319289053Y-166035440D01*
X319289053Y-166035440D02*
X319285751Y-166231751D01*
X319285751Y-166231751D02*
X319307098Y-166336069D01*
X319307098Y-166336069D02*
X319374442Y-166452711D01*
X319374442Y-166452711D02*
X319500106Y-166535682D01*
X319500106Y-166535682D02*
X319730089Y-166597305D01*
X318258202Y-166202914D02*
X318810159Y-166350811D01*
X318534180Y-166276863D02*
X318793000Y-165310937D01*
X318793000Y-165310937D02*
X318848018Y-165473576D01*
X318848018Y-165473576D02*
X318915362Y-165590218D01*
X318915362Y-165590218D02*
X318995030Y-165660864D01*
X317798237Y-166079667D02*
X317614251Y-166030368D01*
X317614251Y-166030368D02*
X317534583Y-165959722D01*
X317534583Y-165959722D02*
X317500911Y-165901401D01*
X317500911Y-165901401D02*
X317445892Y-165738762D01*
X317445892Y-165738762D02*
X317449195Y-165542452D01*
X317449195Y-165542452D02*
X317547792Y-165174480D01*
X317547792Y-165174480D02*
X317618438Y-165094812D01*
X317618438Y-165094812D02*
X317676760Y-165061140D01*
X317676760Y-165061140D02*
X317781077Y-165039793D01*
X317781077Y-165039793D02*
X317965063Y-165089092D01*
X317965063Y-165089092D02*
X318044731Y-165159738D01*
X318044731Y-165159738D02*
X318078403Y-165218059D01*
X318078403Y-165218059D02*
X318099750Y-165322377D01*
X318099750Y-165322377D02*
X318038126Y-165552359D01*
X318038126Y-165552359D02*
X317967481Y-165632027D01*
X317967481Y-165632027D02*
X317909159Y-165665699D01*
X317909159Y-165665699D02*
X317804842Y-165687046D01*
X317804842Y-165687046D02*
X317620856Y-165637747D01*
X317620856Y-165637747D02*
X317541188Y-165567101D01*
X317541188Y-165567101D02*
X317507516Y-165508780D01*
X317507516Y-165508780D02*
X317486169Y-165404462D01*
X349483821Y-157777348D02*
X349605690Y-156784801D01*
X349605690Y-156784801D02*
X349369369Y-156755785D01*
X349369369Y-156755785D02*
X349221774Y-156785639D01*
X349221774Y-156785639D02*
X349115639Y-156868561D01*
X349115639Y-156868561D02*
X349056768Y-156957286D01*
X349056768Y-156957286D02*
X348986291Y-157140539D01*
X348986291Y-157140539D02*
X348968881Y-157282331D01*
X348968881Y-157282331D02*
X348992932Y-157477191D01*
X348992932Y-157477191D02*
X349028590Y-157577522D01*
X349028590Y-157577522D02*
X349111511Y-157683657D01*
X349111511Y-157683657D02*
X349247500Y-157748331D01*
X349247500Y-157748331D02*
X349483821Y-157777348D01*
X347971369Y-157591642D02*
X348538539Y-157661282D01*
X348254954Y-157626462D02*
X348376823Y-156633916D01*
X348376823Y-156633916D02*
X348453942Y-156787315D01*
X348453942Y-156787315D02*
X348536863Y-156893449D01*
X348536863Y-156893449D02*
X348625588Y-156952320D01*
X347195221Y-156488833D02*
X347667862Y-156546866D01*
X347667862Y-156546866D02*
X347657093Y-157025310D01*
X347657093Y-157025310D02*
X347615632Y-156972243D01*
X347615632Y-156972243D02*
X347526907Y-156913372D01*
X347526907Y-156913372D02*
X347290587Y-156884356D01*
X347290587Y-156884356D02*
X347190255Y-156920013D01*
X347190255Y-156920013D02*
X347137188Y-156961474D01*
X347137188Y-156961474D02*
X347078317Y-157050199D01*
X347078317Y-157050199D02*
X347049300Y-157286519D01*
X347049300Y-157286519D02*
X347084958Y-157386851D01*
X347084958Y-157386851D02*
X347126419Y-157439918D01*
X347126419Y-157439918D02*
X347215144Y-157498789D01*
X347215144Y-157498789D02*
X347451464Y-157527806D01*
X347451464Y-157527806D02*
X347551796Y-157492148D01*
X347551796Y-157492148D02*
X347604863Y-157450687D01*
X353215672Y-123476472D02*
X353337541Y-122483925D01*
X353337541Y-122483925D02*
X353101221Y-122454909D01*
X353101221Y-122454909D02*
X352953625Y-122484763D01*
X352953625Y-122484763D02*
X352847491Y-122567685D01*
X352847491Y-122567685D02*
X352788620Y-122656410D01*
X352788620Y-122656410D02*
X352718143Y-122839663D01*
X352718143Y-122839663D02*
X352700733Y-122981455D01*
X352700733Y-122981455D02*
X352724784Y-123176315D01*
X352724784Y-123176315D02*
X352760441Y-123276646D01*
X352760441Y-123276646D02*
X352843363Y-123382781D01*
X352843363Y-123382781D02*
X352979352Y-123447455D01*
X352979352Y-123447455D02*
X353215672Y-123476472D01*
X351872354Y-122304023D02*
X352344995Y-122362056D01*
X352344995Y-122362056D02*
X352334226Y-122840500D01*
X352334226Y-122840500D02*
X352292766Y-122787433D01*
X352292766Y-122787433D02*
X352204041Y-122728562D01*
X352204041Y-122728562D02*
X351967720Y-122699546D01*
X351967720Y-122699546D02*
X351867389Y-122735203D01*
X351867389Y-122735203D02*
X351814321Y-122776664D01*
X351814321Y-122776664D02*
X351755451Y-122865389D01*
X351755451Y-122865389D02*
X351726434Y-123101709D01*
X351726434Y-123101709D02*
X351762092Y-123202041D01*
X351762092Y-123202041D02*
X351803552Y-123255108D01*
X351803552Y-123255108D02*
X351892277Y-123313979D01*
X351892277Y-123313979D02*
X352128598Y-123342996D01*
X352128598Y-123342996D02*
X352228929Y-123307338D01*
X352228929Y-123307338D02*
X352281997Y-123265877D01*
X351586067Y-140655926D02*
X351707936Y-139663379D01*
X351707936Y-139663379D02*
X351471615Y-139634363D01*
X351471615Y-139634363D02*
X351324020Y-139664217D01*
X351324020Y-139664217D02*
X351217885Y-139747139D01*
X351217885Y-139747139D02*
X351159014Y-139835864D01*
X351159014Y-139835864D02*
X351088537Y-140019117D01*
X351088537Y-140019117D02*
X351071127Y-140160909D01*
X351071127Y-140160909D02*
X351095178Y-140355769D01*
X351095178Y-140355769D02*
X351130836Y-140456100D01*
X351130836Y-140456100D02*
X351213757Y-140562235D01*
X351213757Y-140562235D02*
X351349746Y-140626909D01*
X351349746Y-140626909D02*
X351586067Y-140655926D01*
X350073615Y-140470220D02*
X350640785Y-140539860D01*
X350357200Y-140505040D02*
X350479069Y-139512494D01*
X350479069Y-139512494D02*
X350556188Y-139665893D01*
X350556188Y-139665893D02*
X350639109Y-139772027D01*
X350639109Y-139772027D02*
X350727834Y-139830898D01*
X349581051Y-139402231D02*
X349486523Y-139390624D01*
X349486523Y-139390624D02*
X349386192Y-139426282D01*
X349386192Y-139426282D02*
X349333124Y-139467743D01*
X349333124Y-139467743D02*
X349274254Y-139556467D01*
X349274254Y-139556467D02*
X349203776Y-139739721D01*
X349203776Y-139739721D02*
X349174760Y-139976041D01*
X349174760Y-139976041D02*
X349198811Y-140170901D01*
X349198811Y-140170901D02*
X349234468Y-140271232D01*
X349234468Y-140271232D02*
X349275929Y-140324300D01*
X349275929Y-140324300D02*
X349364654Y-140383170D01*
X349364654Y-140383170D02*
X349459182Y-140394777D01*
X349459182Y-140394777D02*
X349559514Y-140359120D01*
X349559514Y-140359120D02*
X349612581Y-140317659D01*
X349612581Y-140317659D02*
X349671452Y-140228934D01*
X349671452Y-140228934D02*
X349741929Y-140045681D01*
X349741929Y-140045681D02*
X349770945Y-139809360D01*
X349770945Y-139809360D02*
X349746895Y-139614500D01*
X349746895Y-139614500D02*
X349711237Y-139514169D01*
X349711237Y-139514169D02*
X349669776Y-139461102D01*
X349669776Y-139461102D02*
X349581051Y-139402231D01*
X211100390Y-117997153D02*
X211062295Y-117920963D01*
X211062295Y-117920963D02*
X211062295Y-117806677D01*
X211062295Y-117806677D02*
X211100390Y-117692391D01*
X211100390Y-117692391D02*
X211176580Y-117616201D01*
X211176580Y-117616201D02*
X211252771Y-117578106D01*
X211252771Y-117578106D02*
X211405152Y-117540010D01*
X211405152Y-117540010D02*
X211519438Y-117540010D01*
X211519438Y-117540010D02*
X211671819Y-117578106D01*
X211671819Y-117578106D02*
X211748009Y-117616201D01*
X211748009Y-117616201D02*
X211824200Y-117692391D01*
X211824200Y-117692391D02*
X211862295Y-117806677D01*
X211862295Y-117806677D02*
X211862295Y-117882868D01*
X211862295Y-117882868D02*
X211824200Y-117997153D01*
X211824200Y-117997153D02*
X211786104Y-118035249D01*
X211786104Y-118035249D02*
X211519438Y-118035249D01*
X211519438Y-118035249D02*
X211519438Y-117882868D01*
X211862295Y-118378106D02*
X211062295Y-118378106D01*
X211062295Y-118378106D02*
X211862295Y-118835249D01*
X211862295Y-118835249D02*
X211062295Y-118835249D01*
X211862295Y-119216201D02*
X211062295Y-119216201D01*
X211062295Y-119216201D02*
X211062295Y-119406677D01*
X211062295Y-119406677D02*
X211100390Y-119520963D01*
X211100390Y-119520963D02*
X211176580Y-119597153D01*
X211176580Y-119597153D02*
X211252771Y-119635248D01*
X211252771Y-119635248D02*
X211405152Y-119673344D01*
X211405152Y-119673344D02*
X211519438Y-119673344D01*
X211519438Y-119673344D02*
X211671819Y-119635248D01*
X211671819Y-119635248D02*
X211748009Y-119597153D01*
X211748009Y-119597153D02*
X211824200Y-119520963D01*
X211824200Y-119520963D02*
X211862295Y-119406677D01*
X211862295Y-119406677D02*
X211862295Y-119216201D01*
X194044200Y-115025552D02*
X194082295Y-115139838D01*
X194082295Y-115139838D02*
X194082295Y-115330314D01*
X194082295Y-115330314D02*
X194044200Y-115406505D01*
X194044200Y-115406505D02*
X194006104Y-115444600D01*
X194006104Y-115444600D02*
X193929914Y-115482695D01*
X193929914Y-115482695D02*
X193853723Y-115482695D01*
X193853723Y-115482695D02*
X193777533Y-115444600D01*
X193777533Y-115444600D02*
X193739438Y-115406505D01*
X193739438Y-115406505D02*
X193701342Y-115330314D01*
X193701342Y-115330314D02*
X193663247Y-115177933D01*
X193663247Y-115177933D02*
X193625152Y-115101743D01*
X193625152Y-115101743D02*
X193587057Y-115063648D01*
X193587057Y-115063648D02*
X193510866Y-115025552D01*
X193510866Y-115025552D02*
X193434676Y-115025552D01*
X193434676Y-115025552D02*
X193358485Y-115063648D01*
X193358485Y-115063648D02*
X193320390Y-115101743D01*
X193320390Y-115101743D02*
X193282295Y-115177933D01*
X193282295Y-115177933D02*
X193282295Y-115368410D01*
X193282295Y-115368410D02*
X193320390Y-115482695D01*
X194006104Y-116282696D02*
X194044200Y-116244600D01*
X194044200Y-116244600D02*
X194082295Y-116130315D01*
X194082295Y-116130315D02*
X194082295Y-116054124D01*
X194082295Y-116054124D02*
X194044200Y-115939838D01*
X194044200Y-115939838D02*
X193968009Y-115863648D01*
X193968009Y-115863648D02*
X193891819Y-115825553D01*
X193891819Y-115825553D02*
X193739438Y-115787457D01*
X193739438Y-115787457D02*
X193625152Y-115787457D01*
X193625152Y-115787457D02*
X193472771Y-115825553D01*
X193472771Y-115825553D02*
X193396580Y-115863648D01*
X193396580Y-115863648D02*
X193320390Y-115939838D01*
X193320390Y-115939838D02*
X193282295Y-116054124D01*
X193282295Y-116054124D02*
X193282295Y-116130315D01*
X193282295Y-116130315D02*
X193320390Y-116244600D01*
X193320390Y-116244600D02*
X193358485Y-116282696D01*
X194082295Y-116625553D02*
X193282295Y-116625553D01*
X194082295Y-117082696D02*
X193625152Y-116739838D01*
X193282295Y-117082696D02*
X193739438Y-116625553D01*
X193244200Y-117996981D02*
X194272771Y-117311267D01*
X194082295Y-118682695D02*
X194082295Y-118225552D01*
X194082295Y-118454124D02*
X193282295Y-118454124D01*
X193282295Y-118454124D02*
X193396580Y-118377933D01*
X193396580Y-118377933D02*
X193472771Y-118301743D01*
X193472771Y-118301743D02*
X193510866Y-118225552D01*
X193625152Y-119139838D02*
X193587057Y-119063648D01*
X193587057Y-119063648D02*
X193548961Y-119025553D01*
X193548961Y-119025553D02*
X193472771Y-118987457D01*
X193472771Y-118987457D02*
X193434676Y-118987457D01*
X193434676Y-118987457D02*
X193358485Y-119025553D01*
X193358485Y-119025553D02*
X193320390Y-119063648D01*
X193320390Y-119063648D02*
X193282295Y-119139838D01*
X193282295Y-119139838D02*
X193282295Y-119292219D01*
X193282295Y-119292219D02*
X193320390Y-119368410D01*
X193320390Y-119368410D02*
X193358485Y-119406505D01*
X193358485Y-119406505D02*
X193434676Y-119444600D01*
X193434676Y-119444600D02*
X193472771Y-119444600D01*
X193472771Y-119444600D02*
X193548961Y-119406505D01*
X193548961Y-119406505D02*
X193587057Y-119368410D01*
X193587057Y-119368410D02*
X193625152Y-119292219D01*
X193625152Y-119292219D02*
X193625152Y-119139838D01*
X193625152Y-119139838D02*
X193663247Y-119063648D01*
X193663247Y-119063648D02*
X193701342Y-119025553D01*
X193701342Y-119025553D02*
X193777533Y-118987457D01*
X193777533Y-118987457D02*
X193929914Y-118987457D01*
X193929914Y-118987457D02*
X194006104Y-119025553D01*
X194006104Y-119025553D02*
X194044200Y-119063648D01*
X194044200Y-119063648D02*
X194082295Y-119139838D01*
X194082295Y-119139838D02*
X194082295Y-119292219D01*
X194082295Y-119292219D02*
X194044200Y-119368410D01*
X194044200Y-119368410D02*
X194006104Y-119406505D01*
X194006104Y-119406505D02*
X193929914Y-119444600D01*
X193929914Y-119444600D02*
X193777533Y-119444600D01*
X193777533Y-119444600D02*
X193701342Y-119406505D01*
X193701342Y-119406505D02*
X193663247Y-119368410D01*
X193663247Y-119368410D02*
X193625152Y-119292219D01*
X208636590Y-107278353D02*
X208598495Y-107202163D01*
X208598495Y-107202163D02*
X208598495Y-107087877D01*
X208598495Y-107087877D02*
X208636590Y-106973591D01*
X208636590Y-106973591D02*
X208712780Y-106897401D01*
X208712780Y-106897401D02*
X208788971Y-106859306D01*
X208788971Y-106859306D02*
X208941352Y-106821210D01*
X208941352Y-106821210D02*
X209055638Y-106821210D01*
X209055638Y-106821210D02*
X209208019Y-106859306D01*
X209208019Y-106859306D02*
X209284209Y-106897401D01*
X209284209Y-106897401D02*
X209360400Y-106973591D01*
X209360400Y-106973591D02*
X209398495Y-107087877D01*
X209398495Y-107087877D02*
X209398495Y-107164068D01*
X209398495Y-107164068D02*
X209360400Y-107278353D01*
X209360400Y-107278353D02*
X209322304Y-107316449D01*
X209322304Y-107316449D02*
X209055638Y-107316449D01*
X209055638Y-107316449D02*
X209055638Y-107164068D01*
X209398495Y-107659306D02*
X208598495Y-107659306D01*
X208598495Y-107659306D02*
X209398495Y-108116449D01*
X209398495Y-108116449D02*
X208598495Y-108116449D01*
X209398495Y-108497401D02*
X208598495Y-108497401D01*
X208598495Y-108497401D02*
X208598495Y-108687877D01*
X208598495Y-108687877D02*
X208636590Y-108802163D01*
X208636590Y-108802163D02*
X208712780Y-108878353D01*
X208712780Y-108878353D02*
X208788971Y-108916448D01*
X208788971Y-108916448D02*
X208941352Y-108954544D01*
X208941352Y-108954544D02*
X209055638Y-108954544D01*
X209055638Y-108954544D02*
X209208019Y-108916448D01*
X209208019Y-108916448D02*
X209284209Y-108878353D01*
X209284209Y-108878353D02*
X209360400Y-108802163D01*
X209360400Y-108802163D02*
X209398495Y-108687877D01*
X209398495Y-108687877D02*
X209398495Y-108497401D01*
X201549923Y-115863695D02*
X201549923Y-116244648D01*
X201778495Y-115787505D02*
X200978495Y-116054172D01*
X200978495Y-116054172D02*
X201778495Y-116320838D01*
X201054685Y-116549409D02*
X201016590Y-116587505D01*
X201016590Y-116587505D02*
X200978495Y-116663695D01*
X200978495Y-116663695D02*
X200978495Y-116854171D01*
X200978495Y-116854171D02*
X201016590Y-116930362D01*
X201016590Y-116930362D02*
X201054685Y-116968457D01*
X201054685Y-116968457D02*
X201130876Y-117006552D01*
X201130876Y-117006552D02*
X201207066Y-117006552D01*
X201207066Y-117006552D02*
X201321352Y-116968457D01*
X201321352Y-116968457D02*
X201778495Y-116511314D01*
X201778495Y-116511314D02*
X201778495Y-117006552D01*
X200940400Y-117920838D02*
X201968971Y-117235124D01*
X201054685Y-118149409D02*
X201016590Y-118187505D01*
X201016590Y-118187505D02*
X200978495Y-118263695D01*
X200978495Y-118263695D02*
X200978495Y-118454171D01*
X200978495Y-118454171D02*
X201016590Y-118530362D01*
X201016590Y-118530362D02*
X201054685Y-118568457D01*
X201054685Y-118568457D02*
X201130876Y-118606552D01*
X201130876Y-118606552D02*
X201207066Y-118606552D01*
X201207066Y-118606552D02*
X201321352Y-118568457D01*
X201321352Y-118568457D02*
X201778495Y-118111314D01*
X201778495Y-118111314D02*
X201778495Y-118606552D01*
X201321352Y-119063695D02*
X201283257Y-118987505D01*
X201283257Y-118987505D02*
X201245161Y-118949410D01*
X201245161Y-118949410D02*
X201168971Y-118911314D01*
X201168971Y-118911314D02*
X201130876Y-118911314D01*
X201130876Y-118911314D02*
X201054685Y-118949410D01*
X201054685Y-118949410D02*
X201016590Y-118987505D01*
X201016590Y-118987505D02*
X200978495Y-119063695D01*
X200978495Y-119063695D02*
X200978495Y-119216076D01*
X200978495Y-119216076D02*
X201016590Y-119292267D01*
X201016590Y-119292267D02*
X201054685Y-119330362D01*
X201054685Y-119330362D02*
X201130876Y-119368457D01*
X201130876Y-119368457D02*
X201168971Y-119368457D01*
X201168971Y-119368457D02*
X201245161Y-119330362D01*
X201245161Y-119330362D02*
X201283257Y-119292267D01*
X201283257Y-119292267D02*
X201321352Y-119216076D01*
X201321352Y-119216076D02*
X201321352Y-119063695D01*
X201321352Y-119063695D02*
X201359447Y-118987505D01*
X201359447Y-118987505D02*
X201397542Y-118949410D01*
X201397542Y-118949410D02*
X201473733Y-118911314D01*
X201473733Y-118911314D02*
X201626114Y-118911314D01*
X201626114Y-118911314D02*
X201702304Y-118949410D01*
X201702304Y-118949410D02*
X201740400Y-118987505D01*
X201740400Y-118987505D02*
X201778495Y-119063695D01*
X201778495Y-119063695D02*
X201778495Y-119216076D01*
X201778495Y-119216076D02*
X201740400Y-119292267D01*
X201740400Y-119292267D02*
X201702304Y-119330362D01*
X201702304Y-119330362D02*
X201626114Y-119368457D01*
X201626114Y-119368457D02*
X201473733Y-119368457D01*
X201473733Y-119368457D02*
X201397542Y-119330362D01*
X201397542Y-119330362D02*
X201359447Y-119292267D01*
X201359447Y-119292267D02*
X201321352Y-119216076D01*
X199162295Y-107094201D02*
X198362295Y-107094201D01*
X198362295Y-107094201D02*
X198362295Y-107284677D01*
X198362295Y-107284677D02*
X198400390Y-107398963D01*
X198400390Y-107398963D02*
X198476580Y-107475153D01*
X198476580Y-107475153D02*
X198552771Y-107513248D01*
X198552771Y-107513248D02*
X198705152Y-107551344D01*
X198705152Y-107551344D02*
X198819438Y-107551344D01*
X198819438Y-107551344D02*
X198971819Y-107513248D01*
X198971819Y-107513248D02*
X199048009Y-107475153D01*
X199048009Y-107475153D02*
X199124200Y-107398963D01*
X199124200Y-107398963D02*
X199162295Y-107284677D01*
X199162295Y-107284677D02*
X199162295Y-107094201D01*
X198628961Y-108237058D02*
X199162295Y-108237058D01*
X198324200Y-108046582D02*
X198895628Y-107856105D01*
X198895628Y-107856105D02*
X198895628Y-108351344D01*
X196622295Y-107094201D02*
X195822295Y-107094201D01*
X195822295Y-107094201D02*
X195822295Y-107284677D01*
X195822295Y-107284677D02*
X195860390Y-107398963D01*
X195860390Y-107398963D02*
X195936580Y-107475153D01*
X195936580Y-107475153D02*
X196012771Y-107513248D01*
X196012771Y-107513248D02*
X196165152Y-107551344D01*
X196165152Y-107551344D02*
X196279438Y-107551344D01*
X196279438Y-107551344D02*
X196431819Y-107513248D01*
X196431819Y-107513248D02*
X196508009Y-107475153D01*
X196508009Y-107475153D02*
X196584200Y-107398963D01*
X196584200Y-107398963D02*
X196622295Y-107284677D01*
X196622295Y-107284677D02*
X196622295Y-107094201D01*
X195822295Y-108275153D02*
X195822295Y-107894201D01*
X195822295Y-107894201D02*
X196203247Y-107856105D01*
X196203247Y-107856105D02*
X196165152Y-107894201D01*
X196165152Y-107894201D02*
X196127057Y-107970391D01*
X196127057Y-107970391D02*
X196127057Y-108160867D01*
X196127057Y-108160867D02*
X196165152Y-108237058D01*
X196165152Y-108237058D02*
X196203247Y-108275153D01*
X196203247Y-108275153D02*
X196279438Y-108313248D01*
X196279438Y-108313248D02*
X196469914Y-108313248D01*
X196469914Y-108313248D02*
X196546104Y-108275153D01*
X196546104Y-108275153D02*
X196584200Y-108237058D01*
X196584200Y-108237058D02*
X196622295Y-108160867D01*
X196622295Y-108160867D02*
X196622295Y-107970391D01*
X196622295Y-107970391D02*
X196584200Y-107894201D01*
X196584200Y-107894201D02*
X196546104Y-107856105D01*
X216942295Y-117901915D02*
X216142295Y-117901915D01*
X216142295Y-117901915D02*
X216142295Y-118092391D01*
X216142295Y-118092391D02*
X216180390Y-118206677D01*
X216180390Y-118206677D02*
X216256580Y-118282867D01*
X216256580Y-118282867D02*
X216332771Y-118320962D01*
X216332771Y-118320962D02*
X216485152Y-118359058D01*
X216485152Y-118359058D02*
X216599438Y-118359058D01*
X216599438Y-118359058D02*
X216751819Y-118320962D01*
X216751819Y-118320962D02*
X216828009Y-118282867D01*
X216828009Y-118282867D02*
X216904200Y-118206677D01*
X216904200Y-118206677D02*
X216942295Y-118092391D01*
X216942295Y-118092391D02*
X216942295Y-117901915D01*
X216637533Y-118701915D02*
X216637533Y-119311439D01*
X209373095Y-117685982D02*
X208992142Y-117419315D01*
X209373095Y-117228839D02*
X208573095Y-117228839D01*
X208573095Y-117228839D02*
X208573095Y-117533601D01*
X208573095Y-117533601D02*
X208611190Y-117609791D01*
X208611190Y-117609791D02*
X208649285Y-117647886D01*
X208649285Y-117647886D02*
X208725476Y-117685982D01*
X208725476Y-117685982D02*
X208839761Y-117685982D01*
X208839761Y-117685982D02*
X208915952Y-117647886D01*
X208915952Y-117647886D02*
X208954047Y-117609791D01*
X208954047Y-117609791D02*
X208992142Y-117533601D01*
X208992142Y-117533601D02*
X208992142Y-117228839D01*
X209335000Y-117990743D02*
X209373095Y-118105029D01*
X209373095Y-118105029D02*
X209373095Y-118295505D01*
X209373095Y-118295505D02*
X209335000Y-118371696D01*
X209335000Y-118371696D02*
X209296904Y-118409791D01*
X209296904Y-118409791D02*
X209220714Y-118447886D01*
X209220714Y-118447886D02*
X209144523Y-118447886D01*
X209144523Y-118447886D02*
X209068333Y-118409791D01*
X209068333Y-118409791D02*
X209030238Y-118371696D01*
X209030238Y-118371696D02*
X208992142Y-118295505D01*
X208992142Y-118295505D02*
X208954047Y-118143124D01*
X208954047Y-118143124D02*
X208915952Y-118066934D01*
X208915952Y-118066934D02*
X208877857Y-118028839D01*
X208877857Y-118028839D02*
X208801666Y-117990743D01*
X208801666Y-117990743D02*
X208725476Y-117990743D01*
X208725476Y-117990743D02*
X208649285Y-118028839D01*
X208649285Y-118028839D02*
X208611190Y-118066934D01*
X208611190Y-118066934D02*
X208573095Y-118143124D01*
X208573095Y-118143124D02*
X208573095Y-118333601D01*
X208573095Y-118333601D02*
X208611190Y-118447886D01*
X208573095Y-118676458D02*
X208573095Y-119133601D01*
X209373095Y-118905029D02*
X208573095Y-118905029D01*
X194082295Y-107094201D02*
X193282295Y-107094201D01*
X193282295Y-107094201D02*
X193282295Y-107284677D01*
X193282295Y-107284677D02*
X193320390Y-107398963D01*
X193320390Y-107398963D02*
X193396580Y-107475153D01*
X193396580Y-107475153D02*
X193472771Y-107513248D01*
X193472771Y-107513248D02*
X193625152Y-107551344D01*
X193625152Y-107551344D02*
X193739438Y-107551344D01*
X193739438Y-107551344D02*
X193891819Y-107513248D01*
X193891819Y-107513248D02*
X193968009Y-107475153D01*
X193968009Y-107475153D02*
X194044200Y-107398963D01*
X194044200Y-107398963D02*
X194082295Y-107284677D01*
X194082295Y-107284677D02*
X194082295Y-107094201D01*
X193282295Y-108237058D02*
X193282295Y-108084677D01*
X193282295Y-108084677D02*
X193320390Y-108008486D01*
X193320390Y-108008486D02*
X193358485Y-107970391D01*
X193358485Y-107970391D02*
X193472771Y-107894201D01*
X193472771Y-107894201D02*
X193625152Y-107856105D01*
X193625152Y-107856105D02*
X193929914Y-107856105D01*
X193929914Y-107856105D02*
X194006104Y-107894201D01*
X194006104Y-107894201D02*
X194044200Y-107932296D01*
X194044200Y-107932296D02*
X194082295Y-108008486D01*
X194082295Y-108008486D02*
X194082295Y-108160867D01*
X194082295Y-108160867D02*
X194044200Y-108237058D01*
X194044200Y-108237058D02*
X194006104Y-108275153D01*
X194006104Y-108275153D02*
X193929914Y-108313248D01*
X193929914Y-108313248D02*
X193739438Y-108313248D01*
X193739438Y-108313248D02*
X193663247Y-108275153D01*
X193663247Y-108275153D02*
X193625152Y-108237058D01*
X193625152Y-108237058D02*
X193587057Y-108160867D01*
X193587057Y-108160867D02*
X193587057Y-108008486D01*
X193587057Y-108008486D02*
X193625152Y-107932296D01*
X193625152Y-107932296D02*
X193663247Y-107894201D01*
X193663247Y-107894201D02*
X193739438Y-107856105D01*
X201702295Y-107094201D02*
X200902295Y-107094201D01*
X200902295Y-107094201D02*
X200902295Y-107284677D01*
X200902295Y-107284677D02*
X200940390Y-107398963D01*
X200940390Y-107398963D02*
X201016580Y-107475153D01*
X201016580Y-107475153D02*
X201092771Y-107513248D01*
X201092771Y-107513248D02*
X201245152Y-107551344D01*
X201245152Y-107551344D02*
X201359438Y-107551344D01*
X201359438Y-107551344D02*
X201511819Y-107513248D01*
X201511819Y-107513248D02*
X201588009Y-107475153D01*
X201588009Y-107475153D02*
X201664200Y-107398963D01*
X201664200Y-107398963D02*
X201702295Y-107284677D01*
X201702295Y-107284677D02*
X201702295Y-107094201D01*
X200902295Y-107818010D02*
X200902295Y-108313248D01*
X200902295Y-108313248D02*
X201207057Y-108046582D01*
X201207057Y-108046582D02*
X201207057Y-108160867D01*
X201207057Y-108160867D02*
X201245152Y-108237058D01*
X201245152Y-108237058D02*
X201283247Y-108275153D01*
X201283247Y-108275153D02*
X201359438Y-108313248D01*
X201359438Y-108313248D02*
X201549914Y-108313248D01*
X201549914Y-108313248D02*
X201626104Y-108275153D01*
X201626104Y-108275153D02*
X201664200Y-108237058D01*
X201664200Y-108237058D02*
X201702295Y-108160867D01*
X201702295Y-108160867D02*
X201702295Y-107932296D01*
X201702295Y-107932296D02*
X201664200Y-107856105D01*
X201664200Y-107856105D02*
X201626104Y-107818010D01*
X214402295Y-107094201D02*
X213602295Y-107094201D01*
X213602295Y-107094201D02*
X213602295Y-107284677D01*
X213602295Y-107284677D02*
X213640390Y-107398963D01*
X213640390Y-107398963D02*
X213716580Y-107475153D01*
X213716580Y-107475153D02*
X213792771Y-107513248D01*
X213792771Y-107513248D02*
X213945152Y-107551344D01*
X213945152Y-107551344D02*
X214059438Y-107551344D01*
X214059438Y-107551344D02*
X214211819Y-107513248D01*
X214211819Y-107513248D02*
X214288009Y-107475153D01*
X214288009Y-107475153D02*
X214364200Y-107398963D01*
X214364200Y-107398963D02*
X214402295Y-107284677D01*
X214402295Y-107284677D02*
X214402295Y-107094201D01*
X213602295Y-108046582D02*
X213602295Y-108122772D01*
X213602295Y-108122772D02*
X213640390Y-108198963D01*
X213640390Y-108198963D02*
X213678485Y-108237058D01*
X213678485Y-108237058D02*
X213754676Y-108275153D01*
X213754676Y-108275153D02*
X213907057Y-108313248D01*
X213907057Y-108313248D02*
X214097533Y-108313248D01*
X214097533Y-108313248D02*
X214249914Y-108275153D01*
X214249914Y-108275153D02*
X214326104Y-108237058D01*
X214326104Y-108237058D02*
X214364200Y-108198963D01*
X214364200Y-108198963D02*
X214402295Y-108122772D01*
X214402295Y-108122772D02*
X214402295Y-108046582D01*
X214402295Y-108046582D02*
X214364200Y-107970391D01*
X214364200Y-107970391D02*
X214326104Y-107932296D01*
X214326104Y-107932296D02*
X214249914Y-107894201D01*
X214249914Y-107894201D02*
X214097533Y-107856105D01*
X214097533Y-107856105D02*
X213907057Y-107856105D01*
X213907057Y-107856105D02*
X213754676Y-107894201D01*
X213754676Y-107894201D02*
X213678485Y-107932296D01*
X213678485Y-107932296D02*
X213640390Y-107970391D01*
X213640390Y-107970391D02*
X213602295Y-108046582D01*
X204242295Y-107094201D02*
X203442295Y-107094201D01*
X203442295Y-107094201D02*
X203442295Y-107284677D01*
X203442295Y-107284677D02*
X203480390Y-107398963D01*
X203480390Y-107398963D02*
X203556580Y-107475153D01*
X203556580Y-107475153D02*
X203632771Y-107513248D01*
X203632771Y-107513248D02*
X203785152Y-107551344D01*
X203785152Y-107551344D02*
X203899438Y-107551344D01*
X203899438Y-107551344D02*
X204051819Y-107513248D01*
X204051819Y-107513248D02*
X204128009Y-107475153D01*
X204128009Y-107475153D02*
X204204200Y-107398963D01*
X204204200Y-107398963D02*
X204242295Y-107284677D01*
X204242295Y-107284677D02*
X204242295Y-107094201D01*
X203518485Y-107856105D02*
X203480390Y-107894201D01*
X203480390Y-107894201D02*
X203442295Y-107970391D01*
X203442295Y-107970391D02*
X203442295Y-108160867D01*
X203442295Y-108160867D02*
X203480390Y-108237058D01*
X203480390Y-108237058D02*
X203518485Y-108275153D01*
X203518485Y-108275153D02*
X203594676Y-108313248D01*
X203594676Y-108313248D02*
X203670866Y-108313248D01*
X203670866Y-108313248D02*
X203785152Y-108275153D01*
X203785152Y-108275153D02*
X204242295Y-107818010D01*
X204242295Y-107818010D02*
X204242295Y-108313248D01*
X204089923Y-115863695D02*
X204089923Y-116244648D01*
X204318495Y-115787505D02*
X203518495Y-116054172D01*
X203518495Y-116054172D02*
X204318495Y-116320838D01*
X203518495Y-116511314D02*
X203518495Y-117006552D01*
X203518495Y-117006552D02*
X203823257Y-116739886D01*
X203823257Y-116739886D02*
X203823257Y-116854171D01*
X203823257Y-116854171D02*
X203861352Y-116930362D01*
X203861352Y-116930362D02*
X203899447Y-116968457D01*
X203899447Y-116968457D02*
X203975638Y-117006552D01*
X203975638Y-117006552D02*
X204166114Y-117006552D01*
X204166114Y-117006552D02*
X204242304Y-116968457D01*
X204242304Y-116968457D02*
X204280400Y-116930362D01*
X204280400Y-116930362D02*
X204318495Y-116854171D01*
X204318495Y-116854171D02*
X204318495Y-116625600D01*
X204318495Y-116625600D02*
X204280400Y-116549409D01*
X204280400Y-116549409D02*
X204242304Y-116511314D01*
X203480400Y-117920838D02*
X204508971Y-117235124D01*
X203594685Y-118149409D02*
X203556590Y-118187505D01*
X203556590Y-118187505D02*
X203518495Y-118263695D01*
X203518495Y-118263695D02*
X203518495Y-118454171D01*
X203518495Y-118454171D02*
X203556590Y-118530362D01*
X203556590Y-118530362D02*
X203594685Y-118568457D01*
X203594685Y-118568457D02*
X203670876Y-118606552D01*
X203670876Y-118606552D02*
X203747066Y-118606552D01*
X203747066Y-118606552D02*
X203861352Y-118568457D01*
X203861352Y-118568457D02*
X204318495Y-118111314D01*
X204318495Y-118111314D02*
X204318495Y-118606552D01*
X204318495Y-118987505D02*
X204318495Y-119139886D01*
X204318495Y-119139886D02*
X204280400Y-119216076D01*
X204280400Y-119216076D02*
X204242304Y-119254172D01*
X204242304Y-119254172D02*
X204128019Y-119330362D01*
X204128019Y-119330362D02*
X203975638Y-119368457D01*
X203975638Y-119368457D02*
X203670876Y-119368457D01*
X203670876Y-119368457D02*
X203594685Y-119330362D01*
X203594685Y-119330362D02*
X203556590Y-119292267D01*
X203556590Y-119292267D02*
X203518495Y-119216076D01*
X203518495Y-119216076D02*
X203518495Y-119063695D01*
X203518495Y-119063695D02*
X203556590Y-118987505D01*
X203556590Y-118987505D02*
X203594685Y-118949410D01*
X203594685Y-118949410D02*
X203670876Y-118911314D01*
X203670876Y-118911314D02*
X203861352Y-118911314D01*
X203861352Y-118911314D02*
X203937542Y-118949410D01*
X203937542Y-118949410D02*
X203975638Y-118987505D01*
X203975638Y-118987505D02*
X204013733Y-119063695D01*
X204013733Y-119063695D02*
X204013733Y-119216076D01*
X204013733Y-119216076D02*
X203975638Y-119292267D01*
X203975638Y-119292267D02*
X203937542Y-119330362D01*
X203937542Y-119330362D02*
X203861352Y-119368457D01*
X196469923Y-115863695D02*
X196469923Y-116244648D01*
X196698495Y-115787505D02*
X195898495Y-116054172D01*
X195898495Y-116054172D02*
X196698495Y-116320838D01*
X195898495Y-116739886D02*
X195898495Y-116816076D01*
X195898495Y-116816076D02*
X195936590Y-116892267D01*
X195936590Y-116892267D02*
X195974685Y-116930362D01*
X195974685Y-116930362D02*
X196050876Y-116968457D01*
X196050876Y-116968457D02*
X196203257Y-117006552D01*
X196203257Y-117006552D02*
X196393733Y-117006552D01*
X196393733Y-117006552D02*
X196546114Y-116968457D01*
X196546114Y-116968457D02*
X196622304Y-116930362D01*
X196622304Y-116930362D02*
X196660400Y-116892267D01*
X196660400Y-116892267D02*
X196698495Y-116816076D01*
X196698495Y-116816076D02*
X196698495Y-116739886D01*
X196698495Y-116739886D02*
X196660400Y-116663695D01*
X196660400Y-116663695D02*
X196622304Y-116625600D01*
X196622304Y-116625600D02*
X196546114Y-116587505D01*
X196546114Y-116587505D02*
X196393733Y-116549409D01*
X196393733Y-116549409D02*
X196203257Y-116549409D01*
X196203257Y-116549409D02*
X196050876Y-116587505D01*
X196050876Y-116587505D02*
X195974685Y-116625600D01*
X195974685Y-116625600D02*
X195936590Y-116663695D01*
X195936590Y-116663695D02*
X195898495Y-116739886D01*
X195860400Y-117920838D02*
X196888971Y-117235124D01*
X195974685Y-118149409D02*
X195936590Y-118187505D01*
X195936590Y-118187505D02*
X195898495Y-118263695D01*
X195898495Y-118263695D02*
X195898495Y-118454171D01*
X195898495Y-118454171D02*
X195936590Y-118530362D01*
X195936590Y-118530362D02*
X195974685Y-118568457D01*
X195974685Y-118568457D02*
X196050876Y-118606552D01*
X196050876Y-118606552D02*
X196127066Y-118606552D01*
X196127066Y-118606552D02*
X196241352Y-118568457D01*
X196241352Y-118568457D02*
X196698495Y-118111314D01*
X196698495Y-118111314D02*
X196698495Y-118606552D01*
X195898495Y-119292267D02*
X195898495Y-119139886D01*
X195898495Y-119139886D02*
X195936590Y-119063695D01*
X195936590Y-119063695D02*
X195974685Y-119025600D01*
X195974685Y-119025600D02*
X196088971Y-118949410D01*
X196088971Y-118949410D02*
X196241352Y-118911314D01*
X196241352Y-118911314D02*
X196546114Y-118911314D01*
X196546114Y-118911314D02*
X196622304Y-118949410D01*
X196622304Y-118949410D02*
X196660400Y-118987505D01*
X196660400Y-118987505D02*
X196698495Y-119063695D01*
X196698495Y-119063695D02*
X196698495Y-119216076D01*
X196698495Y-119216076D02*
X196660400Y-119292267D01*
X196660400Y-119292267D02*
X196622304Y-119330362D01*
X196622304Y-119330362D02*
X196546114Y-119368457D01*
X196546114Y-119368457D02*
X196355638Y-119368457D01*
X196355638Y-119368457D02*
X196279447Y-119330362D01*
X196279447Y-119330362D02*
X196241352Y-119292267D01*
X196241352Y-119292267D02*
X196203257Y-119216076D01*
X196203257Y-119216076D02*
X196203257Y-119063695D01*
X196203257Y-119063695D02*
X196241352Y-118987505D01*
X196241352Y-118987505D02*
X196279447Y-118949410D01*
X196279447Y-118949410D02*
X196355638Y-118911314D01*
X191542295Y-107094201D02*
X190742295Y-107094201D01*
X190742295Y-107094201D02*
X190742295Y-107284677D01*
X190742295Y-107284677D02*
X190780390Y-107398963D01*
X190780390Y-107398963D02*
X190856580Y-107475153D01*
X190856580Y-107475153D02*
X190932771Y-107513248D01*
X190932771Y-107513248D02*
X191085152Y-107551344D01*
X191085152Y-107551344D02*
X191199438Y-107551344D01*
X191199438Y-107551344D02*
X191351819Y-107513248D01*
X191351819Y-107513248D02*
X191428009Y-107475153D01*
X191428009Y-107475153D02*
X191504200Y-107398963D01*
X191504200Y-107398963D02*
X191542295Y-107284677D01*
X191542295Y-107284677D02*
X191542295Y-107094201D01*
X190742295Y-107818010D02*
X190742295Y-108351344D01*
X190742295Y-108351344D02*
X191542295Y-108008486D01*
X199009923Y-115863695D02*
X199009923Y-116244648D01*
X199238495Y-115787505D02*
X198438495Y-116054172D01*
X198438495Y-116054172D02*
X199238495Y-116320838D01*
X199238495Y-117006552D02*
X199238495Y-116549409D01*
X199238495Y-116777981D02*
X198438495Y-116777981D01*
X198438495Y-116777981D02*
X198552780Y-116701790D01*
X198552780Y-116701790D02*
X198628971Y-116625600D01*
X198628971Y-116625600D02*
X198667066Y-116549409D01*
X198400400Y-117920838D02*
X199428971Y-117235124D01*
X198514685Y-118149409D02*
X198476590Y-118187505D01*
X198476590Y-118187505D02*
X198438495Y-118263695D01*
X198438495Y-118263695D02*
X198438495Y-118454171D01*
X198438495Y-118454171D02*
X198476590Y-118530362D01*
X198476590Y-118530362D02*
X198514685Y-118568457D01*
X198514685Y-118568457D02*
X198590876Y-118606552D01*
X198590876Y-118606552D02*
X198667066Y-118606552D01*
X198667066Y-118606552D02*
X198781352Y-118568457D01*
X198781352Y-118568457D02*
X199238495Y-118111314D01*
X199238495Y-118111314D02*
X199238495Y-118606552D01*
X198438495Y-118873219D02*
X198438495Y-119406553D01*
X198438495Y-119406553D02*
X199238495Y-119063695D01*
X216942295Y-107360915D02*
X216142295Y-107360915D01*
X216142295Y-107360915D02*
X216142295Y-107551391D01*
X216142295Y-107551391D02*
X216180390Y-107665677D01*
X216180390Y-107665677D02*
X216256580Y-107741867D01*
X216256580Y-107741867D02*
X216332771Y-107779962D01*
X216332771Y-107779962D02*
X216485152Y-107818058D01*
X216485152Y-107818058D02*
X216599438Y-107818058D01*
X216599438Y-107818058D02*
X216751819Y-107779962D01*
X216751819Y-107779962D02*
X216828009Y-107741867D01*
X216828009Y-107741867D02*
X216904200Y-107665677D01*
X216904200Y-107665677D02*
X216942295Y-107551391D01*
X216942295Y-107551391D02*
X216942295Y-107360915D01*
X216637533Y-108160915D02*
X216637533Y-108770439D01*
X216942295Y-108465677D02*
X216332771Y-108465677D01*
X211862295Y-107094201D02*
X211062295Y-107094201D01*
X211062295Y-107094201D02*
X211062295Y-107284677D01*
X211062295Y-107284677D02*
X211100390Y-107398963D01*
X211100390Y-107398963D02*
X211176580Y-107475153D01*
X211176580Y-107475153D02*
X211252771Y-107513248D01*
X211252771Y-107513248D02*
X211405152Y-107551344D01*
X211405152Y-107551344D02*
X211519438Y-107551344D01*
X211519438Y-107551344D02*
X211671819Y-107513248D01*
X211671819Y-107513248D02*
X211748009Y-107475153D01*
X211748009Y-107475153D02*
X211824200Y-107398963D01*
X211824200Y-107398963D02*
X211862295Y-107284677D01*
X211862295Y-107284677D02*
X211862295Y-107094201D01*
X211862295Y-108313248D02*
X211862295Y-107856105D01*
X211862295Y-108084677D02*
X211062295Y-108084677D01*
X211062295Y-108084677D02*
X211176580Y-108008486D01*
X211176580Y-108008486D02*
X211252771Y-107932296D01*
X211252771Y-107932296D02*
X211290866Y-107856105D01*
X206033095Y-116943124D02*
X206033095Y-117438362D01*
X206033095Y-117438362D02*
X206337857Y-117171696D01*
X206337857Y-117171696D02*
X206337857Y-117285981D01*
X206337857Y-117285981D02*
X206375952Y-117362172D01*
X206375952Y-117362172D02*
X206414047Y-117400267D01*
X206414047Y-117400267D02*
X206490238Y-117438362D01*
X206490238Y-117438362D02*
X206680714Y-117438362D01*
X206680714Y-117438362D02*
X206756904Y-117400267D01*
X206756904Y-117400267D02*
X206795000Y-117362172D01*
X206795000Y-117362172D02*
X206833095Y-117285981D01*
X206833095Y-117285981D02*
X206833095Y-117057410D01*
X206833095Y-117057410D02*
X206795000Y-116981219D01*
X206795000Y-116981219D02*
X206756904Y-116943124D01*
X206756904Y-117781220D02*
X206795000Y-117819315D01*
X206795000Y-117819315D02*
X206833095Y-117781220D01*
X206833095Y-117781220D02*
X206795000Y-117743124D01*
X206795000Y-117743124D02*
X206756904Y-117781220D01*
X206756904Y-117781220D02*
X206833095Y-117781220D01*
X206033095Y-118085981D02*
X206033095Y-118581219D01*
X206033095Y-118581219D02*
X206337857Y-118314553D01*
X206337857Y-118314553D02*
X206337857Y-118428838D01*
X206337857Y-118428838D02*
X206375952Y-118505029D01*
X206375952Y-118505029D02*
X206414047Y-118543124D01*
X206414047Y-118543124D02*
X206490238Y-118581219D01*
X206490238Y-118581219D02*
X206680714Y-118581219D01*
X206680714Y-118581219D02*
X206756904Y-118543124D01*
X206756904Y-118543124D02*
X206795000Y-118505029D01*
X206795000Y-118505029D02*
X206833095Y-118428838D01*
X206833095Y-118428838D02*
X206833095Y-118200267D01*
X206833095Y-118200267D02*
X206795000Y-118124076D01*
X206795000Y-118124076D02*
X206756904Y-118085981D01*
X206033095Y-118809791D02*
X206833095Y-119076458D01*
X206833095Y-119076458D02*
X206033095Y-119343124D01*
X189078495Y-114517582D02*
X188278495Y-114517582D01*
X188278495Y-114517582D02*
X188849923Y-114784248D01*
X188849923Y-114784248D02*
X188278495Y-115050915D01*
X188278495Y-115050915D02*
X189078495Y-115050915D01*
X188278495Y-115584249D02*
X188278495Y-115736630D01*
X188278495Y-115736630D02*
X188316590Y-115812820D01*
X188316590Y-115812820D02*
X188392780Y-115889011D01*
X188392780Y-115889011D02*
X188545161Y-115927106D01*
X188545161Y-115927106D02*
X188811828Y-115927106D01*
X188811828Y-115927106D02*
X188964209Y-115889011D01*
X188964209Y-115889011D02*
X189040400Y-115812820D01*
X189040400Y-115812820D02*
X189078495Y-115736630D01*
X189078495Y-115736630D02*
X189078495Y-115584249D01*
X189078495Y-115584249D02*
X189040400Y-115508058D01*
X189040400Y-115508058D02*
X188964209Y-115431868D01*
X188964209Y-115431868D02*
X188811828Y-115393772D01*
X188811828Y-115393772D02*
X188545161Y-115393772D01*
X188545161Y-115393772D02*
X188392780Y-115431868D01*
X188392780Y-115431868D02*
X188316590Y-115508058D01*
X188316590Y-115508058D02*
X188278495Y-115584249D01*
X189040400Y-116231867D02*
X189078495Y-116346153D01*
X189078495Y-116346153D02*
X189078495Y-116536629D01*
X189078495Y-116536629D02*
X189040400Y-116612820D01*
X189040400Y-116612820D02*
X189002304Y-116650915D01*
X189002304Y-116650915D02*
X188926114Y-116689010D01*
X188926114Y-116689010D02*
X188849923Y-116689010D01*
X188849923Y-116689010D02*
X188773733Y-116650915D01*
X188773733Y-116650915D02*
X188735638Y-116612820D01*
X188735638Y-116612820D02*
X188697542Y-116536629D01*
X188697542Y-116536629D02*
X188659447Y-116384248D01*
X188659447Y-116384248D02*
X188621352Y-116308058D01*
X188621352Y-116308058D02*
X188583257Y-116269963D01*
X188583257Y-116269963D02*
X188507066Y-116231867D01*
X188507066Y-116231867D02*
X188430876Y-116231867D01*
X188430876Y-116231867D02*
X188354685Y-116269963D01*
X188354685Y-116269963D02*
X188316590Y-116308058D01*
X188316590Y-116308058D02*
X188278495Y-116384248D01*
X188278495Y-116384248D02*
X188278495Y-116574725D01*
X188278495Y-116574725D02*
X188316590Y-116689010D01*
X189078495Y-117031868D02*
X188278495Y-117031868D01*
X188240400Y-117984248D02*
X189268971Y-117298534D01*
X189078495Y-118669962D02*
X189078495Y-118212819D01*
X189078495Y-118441391D02*
X188278495Y-118441391D01*
X188278495Y-118441391D02*
X188392780Y-118365200D01*
X188392780Y-118365200D02*
X188468971Y-118289010D01*
X188468971Y-118289010D02*
X188507066Y-118212819D01*
X189078495Y-119050915D02*
X189078495Y-119203296D01*
X189078495Y-119203296D02*
X189040400Y-119279486D01*
X189040400Y-119279486D02*
X189002304Y-119317582D01*
X189002304Y-119317582D02*
X188888019Y-119393772D01*
X188888019Y-119393772D02*
X188735638Y-119431867D01*
X188735638Y-119431867D02*
X188430876Y-119431867D01*
X188430876Y-119431867D02*
X188354685Y-119393772D01*
X188354685Y-119393772D02*
X188316590Y-119355677D01*
X188316590Y-119355677D02*
X188278495Y-119279486D01*
X188278495Y-119279486D02*
X188278495Y-119127105D01*
X188278495Y-119127105D02*
X188316590Y-119050915D01*
X188316590Y-119050915D02*
X188354685Y-119012820D01*
X188354685Y-119012820D02*
X188430876Y-118974724D01*
X188430876Y-118974724D02*
X188621352Y-118974724D01*
X188621352Y-118974724D02*
X188697542Y-119012820D01*
X188697542Y-119012820D02*
X188735638Y-119050915D01*
X188735638Y-119050915D02*
X188773733Y-119127105D01*
X188773733Y-119127105D02*
X188773733Y-119279486D01*
X188773733Y-119279486D02*
X188735638Y-119355677D01*
X188735638Y-119355677D02*
X188697542Y-119393772D01*
X188697542Y-119393772D02*
X188621352Y-119431867D01*
X186487695Y-117406648D02*
X185687695Y-117406648D01*
X185687695Y-117406648D02*
X185687695Y-117597124D01*
X185687695Y-117597124D02*
X185725790Y-117711410D01*
X185725790Y-117711410D02*
X185801980Y-117787600D01*
X185801980Y-117787600D02*
X185878171Y-117825695D01*
X185878171Y-117825695D02*
X186030552Y-117863791D01*
X186030552Y-117863791D02*
X186144838Y-117863791D01*
X186144838Y-117863791D02*
X186297219Y-117825695D01*
X186297219Y-117825695D02*
X186373409Y-117787600D01*
X186373409Y-117787600D02*
X186449600Y-117711410D01*
X186449600Y-117711410D02*
X186487695Y-117597124D01*
X186487695Y-117597124D02*
X186487695Y-117406648D01*
X186487695Y-118625695D02*
X186487695Y-118168552D01*
X186487695Y-118397124D02*
X185687695Y-118397124D01*
X185687695Y-118397124D02*
X185801980Y-118320933D01*
X185801980Y-118320933D02*
X185878171Y-118244743D01*
X185878171Y-118244743D02*
X185916266Y-118168552D01*
X185687695Y-119120934D02*
X185687695Y-119197124D01*
X185687695Y-119197124D02*
X185725790Y-119273315D01*
X185725790Y-119273315D02*
X185763885Y-119311410D01*
X185763885Y-119311410D02*
X185840076Y-119349505D01*
X185840076Y-119349505D02*
X185992457Y-119387600D01*
X185992457Y-119387600D02*
X186182933Y-119387600D01*
X186182933Y-119387600D02*
X186335314Y-119349505D01*
X186335314Y-119349505D02*
X186411504Y-119311410D01*
X186411504Y-119311410D02*
X186449600Y-119273315D01*
X186449600Y-119273315D02*
X186487695Y-119197124D01*
X186487695Y-119197124D02*
X186487695Y-119120934D01*
X186487695Y-119120934D02*
X186449600Y-119044743D01*
X186449600Y-119044743D02*
X186411504Y-119006648D01*
X186411504Y-119006648D02*
X186335314Y-118968553D01*
X186335314Y-118968553D02*
X186182933Y-118930457D01*
X186182933Y-118930457D02*
X185992457Y-118930457D01*
X185992457Y-118930457D02*
X185840076Y-118968553D01*
X185840076Y-118968553D02*
X185763885Y-119006648D01*
X185763885Y-119006648D02*
X185725790Y-119044743D01*
X185725790Y-119044743D02*
X185687695Y-119120934D01*
X186472295Y-107055201D02*
X185672295Y-107055201D01*
X185672295Y-107055201D02*
X185672295Y-107245677D01*
X185672295Y-107245677D02*
X185710390Y-107359963D01*
X185710390Y-107359963D02*
X185786580Y-107436153D01*
X185786580Y-107436153D02*
X185862771Y-107474248D01*
X185862771Y-107474248D02*
X186015152Y-107512344D01*
X186015152Y-107512344D02*
X186129438Y-107512344D01*
X186129438Y-107512344D02*
X186281819Y-107474248D01*
X186281819Y-107474248D02*
X186358009Y-107436153D01*
X186358009Y-107436153D02*
X186434200Y-107359963D01*
X186434200Y-107359963D02*
X186472295Y-107245677D01*
X186472295Y-107245677D02*
X186472295Y-107055201D01*
X186472295Y-107893296D02*
X186472295Y-108045677D01*
X186472295Y-108045677D02*
X186434200Y-108121867D01*
X186434200Y-108121867D02*
X186396104Y-108159963D01*
X186396104Y-108159963D02*
X186281819Y-108236153D01*
X186281819Y-108236153D02*
X186129438Y-108274248D01*
X186129438Y-108274248D02*
X185824676Y-108274248D01*
X185824676Y-108274248D02*
X185748485Y-108236153D01*
X185748485Y-108236153D02*
X185710390Y-108198058D01*
X185710390Y-108198058D02*
X185672295Y-108121867D01*
X185672295Y-108121867D02*
X185672295Y-107969486D01*
X185672295Y-107969486D02*
X185710390Y-107893296D01*
X185710390Y-107893296D02*
X185748485Y-107855201D01*
X185748485Y-107855201D02*
X185824676Y-107817105D01*
X185824676Y-107817105D02*
X186015152Y-107817105D01*
X186015152Y-107817105D02*
X186091342Y-107855201D01*
X186091342Y-107855201D02*
X186129438Y-107893296D01*
X186129438Y-107893296D02*
X186167533Y-107969486D01*
X186167533Y-107969486D02*
X186167533Y-108121867D01*
X186167533Y-108121867D02*
X186129438Y-108198058D01*
X186129438Y-108198058D02*
X186091342Y-108236153D01*
X186091342Y-108236153D02*
X186015152Y-108274248D01*
X206096590Y-107278353D02*
X206058495Y-107202163D01*
X206058495Y-107202163D02*
X206058495Y-107087877D01*
X206058495Y-107087877D02*
X206096590Y-106973591D01*
X206096590Y-106973591D02*
X206172780Y-106897401D01*
X206172780Y-106897401D02*
X206248971Y-106859306D01*
X206248971Y-106859306D02*
X206401352Y-106821210D01*
X206401352Y-106821210D02*
X206515638Y-106821210D01*
X206515638Y-106821210D02*
X206668019Y-106859306D01*
X206668019Y-106859306D02*
X206744209Y-106897401D01*
X206744209Y-106897401D02*
X206820400Y-106973591D01*
X206820400Y-106973591D02*
X206858495Y-107087877D01*
X206858495Y-107087877D02*
X206858495Y-107164068D01*
X206858495Y-107164068D02*
X206820400Y-107278353D01*
X206820400Y-107278353D02*
X206782304Y-107316449D01*
X206782304Y-107316449D02*
X206515638Y-107316449D01*
X206515638Y-107316449D02*
X206515638Y-107164068D01*
X206858495Y-107659306D02*
X206058495Y-107659306D01*
X206058495Y-107659306D02*
X206858495Y-108116449D01*
X206858495Y-108116449D02*
X206058495Y-108116449D01*
X206858495Y-108497401D02*
X206058495Y-108497401D01*
X206058495Y-108497401D02*
X206058495Y-108687877D01*
X206058495Y-108687877D02*
X206096590Y-108802163D01*
X206096590Y-108802163D02*
X206172780Y-108878353D01*
X206172780Y-108878353D02*
X206248971Y-108916448D01*
X206248971Y-108916448D02*
X206401352Y-108954544D01*
X206401352Y-108954544D02*
X206515638Y-108954544D01*
X206515638Y-108954544D02*
X206668019Y-108916448D01*
X206668019Y-108916448D02*
X206744209Y-108878353D01*
X206744209Y-108878353D02*
X206820400Y-108802163D01*
X206820400Y-108802163D02*
X206858495Y-108687877D01*
X206858495Y-108687877D02*
X206858495Y-108497401D01*
X214402295Y-118054296D02*
X214021342Y-117787629D01*
X214402295Y-117597153D02*
X213602295Y-117597153D01*
X213602295Y-117597153D02*
X213602295Y-117901915D01*
X213602295Y-117901915D02*
X213640390Y-117978105D01*
X213640390Y-117978105D02*
X213678485Y-118016200D01*
X213678485Y-118016200D02*
X213754676Y-118054296D01*
X213754676Y-118054296D02*
X213868961Y-118054296D01*
X213868961Y-118054296D02*
X213945152Y-118016200D01*
X213945152Y-118016200D02*
X213983247Y-117978105D01*
X213983247Y-117978105D02*
X214021342Y-117901915D01*
X214021342Y-117901915D02*
X214021342Y-117597153D01*
X214173723Y-118359057D02*
X214173723Y-118740010D01*
X214402295Y-118282867D02*
X213602295Y-118549534D01*
X213602295Y-118549534D02*
X214402295Y-118816200D01*
X213602295Y-119006676D02*
X214402295Y-119197152D01*
X214402295Y-119197152D02*
X213830866Y-119349533D01*
X213830866Y-119349533D02*
X214402295Y-119501914D01*
X214402295Y-119501914D02*
X213602295Y-119692391D01*
X189002295Y-107094201D02*
X188202295Y-107094201D01*
X188202295Y-107094201D02*
X188202295Y-107284677D01*
X188202295Y-107284677D02*
X188240390Y-107398963D01*
X188240390Y-107398963D02*
X188316580Y-107475153D01*
X188316580Y-107475153D02*
X188392771Y-107513248D01*
X188392771Y-107513248D02*
X188545152Y-107551344D01*
X188545152Y-107551344D02*
X188659438Y-107551344D01*
X188659438Y-107551344D02*
X188811819Y-107513248D01*
X188811819Y-107513248D02*
X188888009Y-107475153D01*
X188888009Y-107475153D02*
X188964200Y-107398963D01*
X188964200Y-107398963D02*
X189002295Y-107284677D01*
X189002295Y-107284677D02*
X189002295Y-107094201D01*
X188545152Y-108008486D02*
X188507057Y-107932296D01*
X188507057Y-107932296D02*
X188468961Y-107894201D01*
X188468961Y-107894201D02*
X188392771Y-107856105D01*
X188392771Y-107856105D02*
X188354676Y-107856105D01*
X188354676Y-107856105D02*
X188278485Y-107894201D01*
X188278485Y-107894201D02*
X188240390Y-107932296D01*
X188240390Y-107932296D02*
X188202295Y-108008486D01*
X188202295Y-108008486D02*
X188202295Y-108160867D01*
X188202295Y-108160867D02*
X188240390Y-108237058D01*
X188240390Y-108237058D02*
X188278485Y-108275153D01*
X188278485Y-108275153D02*
X188354676Y-108313248D01*
X188354676Y-108313248D02*
X188392771Y-108313248D01*
X188392771Y-108313248D02*
X188468961Y-108275153D01*
X188468961Y-108275153D02*
X188507057Y-108237058D01*
X188507057Y-108237058D02*
X188545152Y-108160867D01*
X188545152Y-108160867D02*
X188545152Y-108008486D01*
X188545152Y-108008486D02*
X188583247Y-107932296D01*
X188583247Y-107932296D02*
X188621342Y-107894201D01*
X188621342Y-107894201D02*
X188697533Y-107856105D01*
X188697533Y-107856105D02*
X188849914Y-107856105D01*
X188849914Y-107856105D02*
X188926104Y-107894201D01*
X188926104Y-107894201D02*
X188964200Y-107932296D01*
X188964200Y-107932296D02*
X189002295Y-108008486D01*
X189002295Y-108008486D02*
X189002295Y-108160867D01*
X189002295Y-108160867D02*
X188964200Y-108237058D01*
X188964200Y-108237058D02*
X188926104Y-108275153D01*
X188926104Y-108275153D02*
X188849914Y-108313248D01*
X188849914Y-108313248D02*
X188697533Y-108313248D01*
X188697533Y-108313248D02*
X188621342Y-108275153D01*
X188621342Y-108275153D02*
X188583247Y-108237058D01*
X188583247Y-108237058D02*
X188545152Y-108160867D01*
X191618495Y-114517582D02*
X190818495Y-114517582D01*
X190818495Y-114517582D02*
X191389923Y-114784248D01*
X191389923Y-114784248D02*
X190818495Y-115050915D01*
X190818495Y-115050915D02*
X191618495Y-115050915D01*
X191618495Y-115431868D02*
X190818495Y-115431868D01*
X191580400Y-115774724D02*
X191618495Y-115889010D01*
X191618495Y-115889010D02*
X191618495Y-116079486D01*
X191618495Y-116079486D02*
X191580400Y-116155677D01*
X191580400Y-116155677D02*
X191542304Y-116193772D01*
X191542304Y-116193772D02*
X191466114Y-116231867D01*
X191466114Y-116231867D02*
X191389923Y-116231867D01*
X191389923Y-116231867D02*
X191313733Y-116193772D01*
X191313733Y-116193772D02*
X191275638Y-116155677D01*
X191275638Y-116155677D02*
X191237542Y-116079486D01*
X191237542Y-116079486D02*
X191199447Y-115927105D01*
X191199447Y-115927105D02*
X191161352Y-115850915D01*
X191161352Y-115850915D02*
X191123257Y-115812820D01*
X191123257Y-115812820D02*
X191047066Y-115774724D01*
X191047066Y-115774724D02*
X190970876Y-115774724D01*
X190970876Y-115774724D02*
X190894685Y-115812820D01*
X190894685Y-115812820D02*
X190856590Y-115850915D01*
X190856590Y-115850915D02*
X190818495Y-115927105D01*
X190818495Y-115927105D02*
X190818495Y-116117582D01*
X190818495Y-116117582D02*
X190856590Y-116231867D01*
X190818495Y-116727106D02*
X190818495Y-116879487D01*
X190818495Y-116879487D02*
X190856590Y-116955677D01*
X190856590Y-116955677D02*
X190932780Y-117031868D01*
X190932780Y-117031868D02*
X191085161Y-117069963D01*
X191085161Y-117069963D02*
X191351828Y-117069963D01*
X191351828Y-117069963D02*
X191504209Y-117031868D01*
X191504209Y-117031868D02*
X191580400Y-116955677D01*
X191580400Y-116955677D02*
X191618495Y-116879487D01*
X191618495Y-116879487D02*
X191618495Y-116727106D01*
X191618495Y-116727106D02*
X191580400Y-116650915D01*
X191580400Y-116650915D02*
X191504209Y-116574725D01*
X191504209Y-116574725D02*
X191351828Y-116536629D01*
X191351828Y-116536629D02*
X191085161Y-116536629D01*
X191085161Y-116536629D02*
X190932780Y-116574725D01*
X190932780Y-116574725D02*
X190856590Y-116650915D01*
X190856590Y-116650915D02*
X190818495Y-116727106D01*
X190780400Y-117984248D02*
X191808971Y-117298534D01*
X190894685Y-118212819D02*
X190856590Y-118250915D01*
X190856590Y-118250915D02*
X190818495Y-118327105D01*
X190818495Y-118327105D02*
X190818495Y-118517581D01*
X190818495Y-118517581D02*
X190856590Y-118593772D01*
X190856590Y-118593772D02*
X190894685Y-118631867D01*
X190894685Y-118631867D02*
X190970876Y-118669962D01*
X190970876Y-118669962D02*
X191047066Y-118669962D01*
X191047066Y-118669962D02*
X191161352Y-118631867D01*
X191161352Y-118631867D02*
X191618495Y-118174724D01*
X191618495Y-118174724D02*
X191618495Y-118669962D01*
X190818495Y-119165201D02*
X190818495Y-119241391D01*
X190818495Y-119241391D02*
X190856590Y-119317582D01*
X190856590Y-119317582D02*
X190894685Y-119355677D01*
X190894685Y-119355677D02*
X190970876Y-119393772D01*
X190970876Y-119393772D02*
X191123257Y-119431867D01*
X191123257Y-119431867D02*
X191313733Y-119431867D01*
X191313733Y-119431867D02*
X191466114Y-119393772D01*
X191466114Y-119393772D02*
X191542304Y-119355677D01*
X191542304Y-119355677D02*
X191580400Y-119317582D01*
X191580400Y-119317582D02*
X191618495Y-119241391D01*
X191618495Y-119241391D02*
X191618495Y-119165201D01*
X191618495Y-119165201D02*
X191580400Y-119089010D01*
X191580400Y-119089010D02*
X191542304Y-119050915D01*
X191542304Y-119050915D02*
X191466114Y-119012820D01*
X191466114Y-119012820D02*
X191313733Y-118974724D01*
X191313733Y-118974724D02*
X191123257Y-118974724D01*
X191123257Y-118974724D02*
X190970876Y-119012820D01*
X190970876Y-119012820D02*
X190894685Y-119050915D01*
X190894685Y-119050915D02*
X190856590Y-119089010D01*
X190856590Y-119089010D02*
X190818495Y-119165201D01*
X161894285Y-145170496D02*
X161894285Y-144170496D01*
X161894285Y-144170496D02*
X161656190Y-144170496D01*
X161656190Y-144170496D02*
X161513333Y-144218115D01*
X161513333Y-144218115D02*
X161418095Y-144313353D01*
X161418095Y-144313353D02*
X161370476Y-144408591D01*
X161370476Y-144408591D02*
X161322857Y-144599067D01*
X161322857Y-144599067D02*
X161322857Y-144741924D01*
X161322857Y-144741924D02*
X161370476Y-144932400D01*
X161370476Y-144932400D02*
X161418095Y-145027638D01*
X161418095Y-145027638D02*
X161513333Y-145122877D01*
X161513333Y-145122877D02*
X161656190Y-145170496D01*
X161656190Y-145170496D02*
X161894285Y-145170496D01*
X160989523Y-144170496D02*
X160370476Y-144170496D01*
X160370476Y-144170496D02*
X160703809Y-144551448D01*
X160703809Y-144551448D02*
X160560952Y-144551448D01*
X160560952Y-144551448D02*
X160465714Y-144599067D01*
X160465714Y-144599067D02*
X160418095Y-144646686D01*
X160418095Y-144646686D02*
X160370476Y-144741924D01*
X160370476Y-144741924D02*
X160370476Y-144980019D01*
X160370476Y-144980019D02*
X160418095Y-145075257D01*
X160418095Y-145075257D02*
X160465714Y-145122877D01*
X160465714Y-145122877D02*
X160560952Y-145170496D01*
X160560952Y-145170496D02*
X160846666Y-145170496D01*
X160846666Y-145170496D02*
X160941904Y-145122877D01*
X160941904Y-145122877D02*
X160989523Y-145075257D01*
X159513333Y-144503829D02*
X159513333Y-145170496D01*
X159751428Y-144122877D02*
X159989523Y-144837162D01*
X159989523Y-144837162D02*
X159370476Y-144837162D01*
X330918094Y-111404819D02*
X330918094Y-110404819D01*
X330918094Y-110404819D02*
X330679999Y-110404819D01*
X330679999Y-110404819D02*
X330537142Y-110452438D01*
X330537142Y-110452438D02*
X330441904Y-110547676D01*
X330441904Y-110547676D02*
X330394285Y-110642914D01*
X330394285Y-110642914D02*
X330346666Y-110833390D01*
X330346666Y-110833390D02*
X330346666Y-110976247D01*
X330346666Y-110976247D02*
X330394285Y-111166723D01*
X330394285Y-111166723D02*
X330441904Y-111261961D01*
X330441904Y-111261961D02*
X330537142Y-111357200D01*
X330537142Y-111357200D02*
X330679999Y-111404819D01*
X330679999Y-111404819D02*
X330918094Y-111404819D01*
X329489523Y-110738152D02*
X329489523Y-111404819D01*
X329727618Y-110357200D02*
X329965713Y-111071485D01*
X329965713Y-111071485D02*
X329346666Y-111071485D01*
X126394285Y-118950496D02*
X126394285Y-117950496D01*
X126394285Y-117950496D02*
X126156190Y-117950496D01*
X126156190Y-117950496D02*
X126013333Y-117998115D01*
X126013333Y-117998115D02*
X125918095Y-118093353D01*
X125918095Y-118093353D02*
X125870476Y-118188591D01*
X125870476Y-118188591D02*
X125822857Y-118379067D01*
X125822857Y-118379067D02*
X125822857Y-118521924D01*
X125822857Y-118521924D02*
X125870476Y-118712400D01*
X125870476Y-118712400D02*
X125918095Y-118807638D01*
X125918095Y-118807638D02*
X126013333Y-118902877D01*
X126013333Y-118902877D02*
X126156190Y-118950496D01*
X126156190Y-118950496D02*
X126394285Y-118950496D01*
X125441904Y-118045734D02*
X125394285Y-117998115D01*
X125394285Y-117998115D02*
X125299047Y-117950496D01*
X125299047Y-117950496D02*
X125060952Y-117950496D01*
X125060952Y-117950496D02*
X124965714Y-117998115D01*
X124965714Y-117998115D02*
X124918095Y-118045734D01*
X124918095Y-118045734D02*
X124870476Y-118140972D01*
X124870476Y-118140972D02*
X124870476Y-118236210D01*
X124870476Y-118236210D02*
X124918095Y-118379067D01*
X124918095Y-118379067D02*
X125489523Y-118950496D01*
X125489523Y-118950496D02*
X124870476Y-118950496D01*
X124537142Y-117950496D02*
X123870476Y-117950496D01*
X123870476Y-117950496D02*
X124299047Y-118950496D01*
X313168094Y-103204819D02*
X313168094Y-102204819D01*
X313168094Y-102204819D02*
X312929999Y-102204819D01*
X312929999Y-102204819D02*
X312787142Y-102252438D01*
X312787142Y-102252438D02*
X312691904Y-102347676D01*
X312691904Y-102347676D02*
X312644285Y-102442914D01*
X312644285Y-102442914D02*
X312596666Y-102633390D01*
X312596666Y-102633390D02*
X312596666Y-102776247D01*
X312596666Y-102776247D02*
X312644285Y-102966723D01*
X312644285Y-102966723D02*
X312691904Y-103061961D01*
X312691904Y-103061961D02*
X312787142Y-103157200D01*
X312787142Y-103157200D02*
X312929999Y-103204819D01*
X312929999Y-103204819D02*
X313168094Y-103204819D01*
X312263332Y-102204819D02*
X311644285Y-102204819D01*
X311644285Y-102204819D02*
X311977618Y-102585771D01*
X311977618Y-102585771D02*
X311834761Y-102585771D01*
X311834761Y-102585771D02*
X311739523Y-102633390D01*
X311739523Y-102633390D02*
X311691904Y-102681009D01*
X311691904Y-102681009D02*
X311644285Y-102776247D01*
X311644285Y-102776247D02*
X311644285Y-103014342D01*
X311644285Y-103014342D02*
X311691904Y-103109580D01*
X311691904Y-103109580D02*
X311739523Y-103157200D01*
X311739523Y-103157200D02*
X311834761Y-103204819D01*
X311834761Y-103204819D02*
X312120475Y-103204819D01*
X312120475Y-103204819D02*
X312215713Y-103157200D01*
X312215713Y-103157200D02*
X312263332Y-103109580D01*
X299344285Y-163544819D02*
X299344285Y-162544819D01*
X299344285Y-162544819D02*
X299106190Y-162544819D01*
X299106190Y-162544819D02*
X298963333Y-162592438D01*
X298963333Y-162592438D02*
X298868095Y-162687676D01*
X298868095Y-162687676D02*
X298820476Y-162782914D01*
X298820476Y-162782914D02*
X298772857Y-162973390D01*
X298772857Y-162973390D02*
X298772857Y-163116247D01*
X298772857Y-163116247D02*
X298820476Y-163306723D01*
X298820476Y-163306723D02*
X298868095Y-163401961D01*
X298868095Y-163401961D02*
X298963333Y-163497200D01*
X298963333Y-163497200D02*
X299106190Y-163544819D01*
X299106190Y-163544819D02*
X299344285Y-163544819D01*
X297820476Y-163544819D02*
X298391904Y-163544819D01*
X298106190Y-163544819D02*
X298106190Y-162544819D01*
X298106190Y-162544819D02*
X298201428Y-162687676D01*
X298201428Y-162687676D02*
X298296666Y-162782914D01*
X298296666Y-162782914D02*
X298391904Y-162830533D01*
X297249047Y-162973390D02*
X297344285Y-162925771D01*
X297344285Y-162925771D02*
X297391904Y-162878152D01*
X297391904Y-162878152D02*
X297439523Y-162782914D01*
X297439523Y-162782914D02*
X297439523Y-162735295D01*
X297439523Y-162735295D02*
X297391904Y-162640057D01*
X297391904Y-162640057D02*
X297344285Y-162592438D01*
X297344285Y-162592438D02*
X297249047Y-162544819D01*
X297249047Y-162544819D02*
X297058571Y-162544819D01*
X297058571Y-162544819D02*
X296963333Y-162592438D01*
X296963333Y-162592438D02*
X296915714Y-162640057D01*
X296915714Y-162640057D02*
X296868095Y-162735295D01*
X296868095Y-162735295D02*
X296868095Y-162782914D01*
X296868095Y-162782914D02*
X296915714Y-162878152D01*
X296915714Y-162878152D02*
X296963333Y-162925771D01*
X296963333Y-162925771D02*
X297058571Y-162973390D01*
X297058571Y-162973390D02*
X297249047Y-162973390D01*
X297249047Y-162973390D02*
X297344285Y-163021009D01*
X297344285Y-163021009D02*
X297391904Y-163068628D01*
X297391904Y-163068628D02*
X297439523Y-163163866D01*
X297439523Y-163163866D02*
X297439523Y-163354342D01*
X297439523Y-163354342D02*
X297391904Y-163449580D01*
X297391904Y-163449580D02*
X297344285Y-163497200D01*
X297344285Y-163497200D02*
X297249047Y-163544819D01*
X297249047Y-163544819D02*
X297058571Y-163544819D01*
X297058571Y-163544819D02*
X296963333Y-163497200D01*
X296963333Y-163497200D02*
X296915714Y-163449580D01*
X296915714Y-163449580D02*
X296868095Y-163354342D01*
X296868095Y-163354342D02*
X296868095Y-163163866D01*
X296868095Y-163163866D02*
X296915714Y-163068628D01*
X296915714Y-163068628D02*
X296963333Y-163021009D01*
X296963333Y-163021009D02*
X297058571Y-162973390D01*
X126394285Y-136170496D02*
X126394285Y-135170496D01*
X126394285Y-135170496D02*
X126156190Y-135170496D01*
X126156190Y-135170496D02*
X126013333Y-135218115D01*
X126013333Y-135218115D02*
X125918095Y-135313353D01*
X125918095Y-135313353D02*
X125870476Y-135408591D01*
X125870476Y-135408591D02*
X125822857Y-135599067D01*
X125822857Y-135599067D02*
X125822857Y-135741924D01*
X125822857Y-135741924D02*
X125870476Y-135932400D01*
X125870476Y-135932400D02*
X125918095Y-136027638D01*
X125918095Y-136027638D02*
X126013333Y-136122877D01*
X126013333Y-136122877D02*
X126156190Y-136170496D01*
X126156190Y-136170496D02*
X126394285Y-136170496D01*
X125489523Y-135170496D02*
X124870476Y-135170496D01*
X124870476Y-135170496D02*
X125203809Y-135551448D01*
X125203809Y-135551448D02*
X125060952Y-135551448D01*
X125060952Y-135551448D02*
X124965714Y-135599067D01*
X124965714Y-135599067D02*
X124918095Y-135646686D01*
X124918095Y-135646686D02*
X124870476Y-135741924D01*
X124870476Y-135741924D02*
X124870476Y-135980019D01*
X124870476Y-135980019D02*
X124918095Y-136075257D01*
X124918095Y-136075257D02*
X124965714Y-136122877D01*
X124965714Y-136122877D02*
X125060952Y-136170496D01*
X125060952Y-136170496D02*
X125346666Y-136170496D01*
X125346666Y-136170496D02*
X125441904Y-136122877D01*
X125441904Y-136122877D02*
X125489523Y-136075257D01*
X124489523Y-135265734D02*
X124441904Y-135218115D01*
X124441904Y-135218115D02*
X124346666Y-135170496D01*
X124346666Y-135170496D02*
X124108571Y-135170496D01*
X124108571Y-135170496D02*
X124013333Y-135218115D01*
X124013333Y-135218115D02*
X123965714Y-135265734D01*
X123965714Y-135265734D02*
X123918095Y-135360972D01*
X123918095Y-135360972D02*
X123918095Y-135456210D01*
X123918095Y-135456210D02*
X123965714Y-135599067D01*
X123965714Y-135599067D02*
X124537142Y-136170496D01*
X124537142Y-136170496D02*
X123918095Y-136170496D01*
X108644285Y-109670496D02*
X108644285Y-108670496D01*
X108644285Y-108670496D02*
X108406190Y-108670496D01*
X108406190Y-108670496D02*
X108263333Y-108718115D01*
X108263333Y-108718115D02*
X108168095Y-108813353D01*
X108168095Y-108813353D02*
X108120476Y-108908591D01*
X108120476Y-108908591D02*
X108072857Y-109099067D01*
X108072857Y-109099067D02*
X108072857Y-109241924D01*
X108072857Y-109241924D02*
X108120476Y-109432400D01*
X108120476Y-109432400D02*
X108168095Y-109527638D01*
X108168095Y-109527638D02*
X108263333Y-109622877D01*
X108263333Y-109622877D02*
X108406190Y-109670496D01*
X108406190Y-109670496D02*
X108644285Y-109670496D01*
X107691904Y-108765734D02*
X107644285Y-108718115D01*
X107644285Y-108718115D02*
X107549047Y-108670496D01*
X107549047Y-108670496D02*
X107310952Y-108670496D01*
X107310952Y-108670496D02*
X107215714Y-108718115D01*
X107215714Y-108718115D02*
X107168095Y-108765734D01*
X107168095Y-108765734D02*
X107120476Y-108860972D01*
X107120476Y-108860972D02*
X107120476Y-108956210D01*
X107120476Y-108956210D02*
X107168095Y-109099067D01*
X107168095Y-109099067D02*
X107739523Y-109670496D01*
X107739523Y-109670496D02*
X107120476Y-109670496D01*
X106168095Y-109670496D02*
X106739523Y-109670496D01*
X106453809Y-109670496D02*
X106453809Y-108670496D01*
X106453809Y-108670496D02*
X106549047Y-108813353D01*
X106549047Y-108813353D02*
X106644285Y-108908591D01*
X106644285Y-108908591D02*
X106739523Y-108956210D01*
X144144285Y-108670496D02*
X144144285Y-107670496D01*
X144144285Y-107670496D02*
X143906190Y-107670496D01*
X143906190Y-107670496D02*
X143763333Y-107718115D01*
X143763333Y-107718115D02*
X143668095Y-107813353D01*
X143668095Y-107813353D02*
X143620476Y-107908591D01*
X143620476Y-107908591D02*
X143572857Y-108099067D01*
X143572857Y-108099067D02*
X143572857Y-108241924D01*
X143572857Y-108241924D02*
X143620476Y-108432400D01*
X143620476Y-108432400D02*
X143668095Y-108527638D01*
X143668095Y-108527638D02*
X143763333Y-108622877D01*
X143763333Y-108622877D02*
X143906190Y-108670496D01*
X143906190Y-108670496D02*
X144144285Y-108670496D01*
X143191904Y-107765734D02*
X143144285Y-107718115D01*
X143144285Y-107718115D02*
X143049047Y-107670496D01*
X143049047Y-107670496D02*
X142810952Y-107670496D01*
X142810952Y-107670496D02*
X142715714Y-107718115D01*
X142715714Y-107718115D02*
X142668095Y-107765734D01*
X142668095Y-107765734D02*
X142620476Y-107860972D01*
X142620476Y-107860972D02*
X142620476Y-107956210D01*
X142620476Y-107956210D02*
X142668095Y-108099067D01*
X142668095Y-108099067D02*
X143239523Y-108670496D01*
X143239523Y-108670496D02*
X142620476Y-108670496D01*
X142287142Y-107670496D02*
X141668095Y-107670496D01*
X141668095Y-107670496D02*
X142001428Y-108051448D01*
X142001428Y-108051448D02*
X141858571Y-108051448D01*
X141858571Y-108051448D02*
X141763333Y-108099067D01*
X141763333Y-108099067D02*
X141715714Y-108146686D01*
X141715714Y-108146686D02*
X141668095Y-108241924D01*
X141668095Y-108241924D02*
X141668095Y-108480019D01*
X141668095Y-108480019D02*
X141715714Y-108575257D01*
X141715714Y-108575257D02*
X141763333Y-108622877D01*
X141763333Y-108622877D02*
X141858571Y-108670496D01*
X141858571Y-108670496D02*
X142144285Y-108670496D01*
X142144285Y-108670496D02*
X142239523Y-108622877D01*
X142239523Y-108622877D02*
X142287142Y-108575257D01*
X313168094Y-120454819D02*
X313168094Y-119454819D01*
X313168094Y-119454819D02*
X312929999Y-119454819D01*
X312929999Y-119454819D02*
X312787142Y-119502438D01*
X312787142Y-119502438D02*
X312691904Y-119597676D01*
X312691904Y-119597676D02*
X312644285Y-119692914D01*
X312644285Y-119692914D02*
X312596666Y-119883390D01*
X312596666Y-119883390D02*
X312596666Y-120026247D01*
X312596666Y-120026247D02*
X312644285Y-120216723D01*
X312644285Y-120216723D02*
X312691904Y-120311961D01*
X312691904Y-120311961D02*
X312787142Y-120407200D01*
X312787142Y-120407200D02*
X312929999Y-120454819D01*
X312929999Y-120454819D02*
X313168094Y-120454819D01*
X312025237Y-119883390D02*
X312120475Y-119835771D01*
X312120475Y-119835771D02*
X312168094Y-119788152D01*
X312168094Y-119788152D02*
X312215713Y-119692914D01*
X312215713Y-119692914D02*
X312215713Y-119645295D01*
X312215713Y-119645295D02*
X312168094Y-119550057D01*
X312168094Y-119550057D02*
X312120475Y-119502438D01*
X312120475Y-119502438D02*
X312025237Y-119454819D01*
X312025237Y-119454819D02*
X311834761Y-119454819D01*
X311834761Y-119454819D02*
X311739523Y-119502438D01*
X311739523Y-119502438D02*
X311691904Y-119550057D01*
X311691904Y-119550057D02*
X311644285Y-119645295D01*
X311644285Y-119645295D02*
X311644285Y-119692914D01*
X311644285Y-119692914D02*
X311691904Y-119788152D01*
X311691904Y-119788152D02*
X311739523Y-119835771D01*
X311739523Y-119835771D02*
X311834761Y-119883390D01*
X311834761Y-119883390D02*
X312025237Y-119883390D01*
X312025237Y-119883390D02*
X312120475Y-119931009D01*
X312120475Y-119931009D02*
X312168094Y-119978628D01*
X312168094Y-119978628D02*
X312215713Y-120073866D01*
X312215713Y-120073866D02*
X312215713Y-120264342D01*
X312215713Y-120264342D02*
X312168094Y-120359580D01*
X312168094Y-120359580D02*
X312120475Y-120407200D01*
X312120475Y-120407200D02*
X312025237Y-120454819D01*
X312025237Y-120454819D02*
X311834761Y-120454819D01*
X311834761Y-120454819D02*
X311739523Y-120407200D01*
X311739523Y-120407200D02*
X311691904Y-120359580D01*
X311691904Y-120359580D02*
X311644285Y-120264342D01*
X311644285Y-120264342D02*
X311644285Y-120073866D01*
X311644285Y-120073866D02*
X311691904Y-119978628D01*
X311691904Y-119978628D02*
X311739523Y-119931009D01*
X311739523Y-119931009D02*
X311834761Y-119883390D01*
X295418094Y-127704819D02*
X295418094Y-126704819D01*
X295418094Y-126704819D02*
X295179999Y-126704819D01*
X295179999Y-126704819D02*
X295037142Y-126752438D01*
X295037142Y-126752438D02*
X294941904Y-126847676D01*
X294941904Y-126847676D02*
X294894285Y-126942914D01*
X294894285Y-126942914D02*
X294846666Y-127133390D01*
X294846666Y-127133390D02*
X294846666Y-127276247D01*
X294846666Y-127276247D02*
X294894285Y-127466723D01*
X294894285Y-127466723D02*
X294941904Y-127561961D01*
X294941904Y-127561961D02*
X295037142Y-127657200D01*
X295037142Y-127657200D02*
X295179999Y-127704819D01*
X295179999Y-127704819D02*
X295418094Y-127704819D01*
X294513332Y-126704819D02*
X293846666Y-126704819D01*
X293846666Y-126704819D02*
X294275237Y-127704819D01*
X161894285Y-127920496D02*
X161894285Y-126920496D01*
X161894285Y-126920496D02*
X161656190Y-126920496D01*
X161656190Y-126920496D02*
X161513333Y-126968115D01*
X161513333Y-126968115D02*
X161418095Y-127063353D01*
X161418095Y-127063353D02*
X161370476Y-127158591D01*
X161370476Y-127158591D02*
X161322857Y-127349067D01*
X161322857Y-127349067D02*
X161322857Y-127491924D01*
X161322857Y-127491924D02*
X161370476Y-127682400D01*
X161370476Y-127682400D02*
X161418095Y-127777638D01*
X161418095Y-127777638D02*
X161513333Y-127872877D01*
X161513333Y-127872877D02*
X161656190Y-127920496D01*
X161656190Y-127920496D02*
X161894285Y-127920496D01*
X160941904Y-127015734D02*
X160894285Y-126968115D01*
X160894285Y-126968115D02*
X160799047Y-126920496D01*
X160799047Y-126920496D02*
X160560952Y-126920496D01*
X160560952Y-126920496D02*
X160465714Y-126968115D01*
X160465714Y-126968115D02*
X160418095Y-127015734D01*
X160418095Y-127015734D02*
X160370476Y-127110972D01*
X160370476Y-127110972D02*
X160370476Y-127206210D01*
X160370476Y-127206210D02*
X160418095Y-127349067D01*
X160418095Y-127349067D02*
X160989523Y-127920496D01*
X160989523Y-127920496D02*
X160370476Y-127920496D01*
X159894285Y-127920496D02*
X159703809Y-127920496D01*
X159703809Y-127920496D02*
X159608571Y-127872877D01*
X159608571Y-127872877D02*
X159560952Y-127825257D01*
X159560952Y-127825257D02*
X159465714Y-127682400D01*
X159465714Y-127682400D02*
X159418095Y-127491924D01*
X159418095Y-127491924D02*
X159418095Y-127110972D01*
X159418095Y-127110972D02*
X159465714Y-127015734D01*
X159465714Y-127015734D02*
X159513333Y-126968115D01*
X159513333Y-126968115D02*
X159608571Y-126920496D01*
X159608571Y-126920496D02*
X159799047Y-126920496D01*
X159799047Y-126920496D02*
X159894285Y-126968115D01*
X159894285Y-126968115D02*
X159941904Y-127015734D01*
X159941904Y-127015734D02*
X159989523Y-127110972D01*
X159989523Y-127110972D02*
X159989523Y-127349067D01*
X159989523Y-127349067D02*
X159941904Y-127444305D01*
X159941904Y-127444305D02*
X159894285Y-127491924D01*
X159894285Y-127491924D02*
X159799047Y-127539543D01*
X159799047Y-127539543D02*
X159608571Y-127539543D01*
X159608571Y-127539543D02*
X159513333Y-127491924D01*
X159513333Y-127491924D02*
X159465714Y-127444305D01*
X159465714Y-127444305D02*
X159418095Y-127349067D01*
X144144285Y-125920496D02*
X144144285Y-124920496D01*
X144144285Y-124920496D02*
X143906190Y-124920496D01*
X143906190Y-124920496D02*
X143763333Y-124968115D01*
X143763333Y-124968115D02*
X143668095Y-125063353D01*
X143668095Y-125063353D02*
X143620476Y-125158591D01*
X143620476Y-125158591D02*
X143572857Y-125349067D01*
X143572857Y-125349067D02*
X143572857Y-125491924D01*
X143572857Y-125491924D02*
X143620476Y-125682400D01*
X143620476Y-125682400D02*
X143668095Y-125777638D01*
X143668095Y-125777638D02*
X143763333Y-125872877D01*
X143763333Y-125872877D02*
X143906190Y-125920496D01*
X143906190Y-125920496D02*
X144144285Y-125920496D01*
X143191904Y-125015734D02*
X143144285Y-124968115D01*
X143144285Y-124968115D02*
X143049047Y-124920496D01*
X143049047Y-124920496D02*
X142810952Y-124920496D01*
X142810952Y-124920496D02*
X142715714Y-124968115D01*
X142715714Y-124968115D02*
X142668095Y-125015734D01*
X142668095Y-125015734D02*
X142620476Y-125110972D01*
X142620476Y-125110972D02*
X142620476Y-125206210D01*
X142620476Y-125206210D02*
X142668095Y-125349067D01*
X142668095Y-125349067D02*
X143239523Y-125920496D01*
X143239523Y-125920496D02*
X142620476Y-125920496D01*
X142049047Y-125349067D02*
X142144285Y-125301448D01*
X142144285Y-125301448D02*
X142191904Y-125253829D01*
X142191904Y-125253829D02*
X142239523Y-125158591D01*
X142239523Y-125158591D02*
X142239523Y-125110972D01*
X142239523Y-125110972D02*
X142191904Y-125015734D01*
X142191904Y-125015734D02*
X142144285Y-124968115D01*
X142144285Y-124968115D02*
X142049047Y-124920496D01*
X142049047Y-124920496D02*
X141858571Y-124920496D01*
X141858571Y-124920496D02*
X141763333Y-124968115D01*
X141763333Y-124968115D02*
X141715714Y-125015734D01*
X141715714Y-125015734D02*
X141668095Y-125110972D01*
X141668095Y-125110972D02*
X141668095Y-125158591D01*
X141668095Y-125158591D02*
X141715714Y-125253829D01*
X141715714Y-125253829D02*
X141763333Y-125301448D01*
X141763333Y-125301448D02*
X141858571Y-125349067D01*
X141858571Y-125349067D02*
X142049047Y-125349067D01*
X142049047Y-125349067D02*
X142144285Y-125396686D01*
X142144285Y-125396686D02*
X142191904Y-125444305D01*
X142191904Y-125444305D02*
X142239523Y-125539543D01*
X142239523Y-125539543D02*
X142239523Y-125730019D01*
X142239523Y-125730019D02*
X142191904Y-125825257D01*
X142191904Y-125825257D02*
X142144285Y-125872877D01*
X142144285Y-125872877D02*
X142049047Y-125920496D01*
X142049047Y-125920496D02*
X141858571Y-125920496D01*
X141858571Y-125920496D02*
X141763333Y-125872877D01*
X141763333Y-125872877D02*
X141715714Y-125825257D01*
X141715714Y-125825257D02*
X141668095Y-125730019D01*
X141668095Y-125730019D02*
X141668095Y-125539543D01*
X141668095Y-125539543D02*
X141715714Y-125444305D01*
X141715714Y-125444305D02*
X141763333Y-125396686D01*
X141763333Y-125396686D02*
X141858571Y-125349067D01*
X278144285Y-146894819D02*
X278144285Y-145894819D01*
X278144285Y-145894819D02*
X277906190Y-145894819D01*
X277906190Y-145894819D02*
X277763333Y-145942438D01*
X277763333Y-145942438D02*
X277668095Y-146037676D01*
X277668095Y-146037676D02*
X277620476Y-146132914D01*
X277620476Y-146132914D02*
X277572857Y-146323390D01*
X277572857Y-146323390D02*
X277572857Y-146466247D01*
X277572857Y-146466247D02*
X277620476Y-146656723D01*
X277620476Y-146656723D02*
X277668095Y-146751961D01*
X277668095Y-146751961D02*
X277763333Y-146847200D01*
X277763333Y-146847200D02*
X277906190Y-146894819D01*
X277906190Y-146894819D02*
X278144285Y-146894819D01*
X276620476Y-146894819D02*
X277191904Y-146894819D01*
X276906190Y-146894819D02*
X276906190Y-145894819D01*
X276906190Y-145894819D02*
X277001428Y-146037676D01*
X277001428Y-146037676D02*
X277096666Y-146132914D01*
X277096666Y-146132914D02*
X277191904Y-146180533D01*
X275668095Y-146894819D02*
X276239523Y-146894819D01*
X275953809Y-146894819D02*
X275953809Y-145894819D01*
X275953809Y-145894819D02*
X276049047Y-146037676D01*
X276049047Y-146037676D02*
X276144285Y-146132914D01*
X276144285Y-146132914D02*
X276239523Y-146180533D01*
X277668094Y-112394819D02*
X277668094Y-111394819D01*
X277668094Y-111394819D02*
X277429999Y-111394819D01*
X277429999Y-111394819D02*
X277287142Y-111442438D01*
X277287142Y-111442438D02*
X277191904Y-111537676D01*
X277191904Y-111537676D02*
X277144285Y-111632914D01*
X277144285Y-111632914D02*
X277096666Y-111823390D01*
X277096666Y-111823390D02*
X277096666Y-111966247D01*
X277096666Y-111966247D02*
X277144285Y-112156723D01*
X277144285Y-112156723D02*
X277191904Y-112251961D01*
X277191904Y-112251961D02*
X277287142Y-112347200D01*
X277287142Y-112347200D02*
X277429999Y-112394819D01*
X277429999Y-112394819D02*
X277668094Y-112394819D01*
X276144285Y-112394819D02*
X276715713Y-112394819D01*
X276429999Y-112394819D02*
X276429999Y-111394819D01*
X276429999Y-111394819D02*
X276525237Y-111537676D01*
X276525237Y-111537676D02*
X276620475Y-111632914D01*
X276620475Y-111632914D02*
X276715713Y-111680533D01*
X295894285Y-144954819D02*
X295894285Y-143954819D01*
X295894285Y-143954819D02*
X295656190Y-143954819D01*
X295656190Y-143954819D02*
X295513333Y-144002438D01*
X295513333Y-144002438D02*
X295418095Y-144097676D01*
X295418095Y-144097676D02*
X295370476Y-144192914D01*
X295370476Y-144192914D02*
X295322857Y-144383390D01*
X295322857Y-144383390D02*
X295322857Y-144526247D01*
X295322857Y-144526247D02*
X295370476Y-144716723D01*
X295370476Y-144716723D02*
X295418095Y-144811961D01*
X295418095Y-144811961D02*
X295513333Y-144907200D01*
X295513333Y-144907200D02*
X295656190Y-144954819D01*
X295656190Y-144954819D02*
X295894285Y-144954819D01*
X294370476Y-144954819D02*
X294941904Y-144954819D01*
X294656190Y-144954819D02*
X294656190Y-143954819D01*
X294656190Y-143954819D02*
X294751428Y-144097676D01*
X294751428Y-144097676D02*
X294846666Y-144192914D01*
X294846666Y-144192914D02*
X294941904Y-144240533D01*
X293989523Y-144050057D02*
X293941904Y-144002438D01*
X293941904Y-144002438D02*
X293846666Y-143954819D01*
X293846666Y-143954819D02*
X293608571Y-143954819D01*
X293608571Y-143954819D02*
X293513333Y-144002438D01*
X293513333Y-144002438D02*
X293465714Y-144050057D01*
X293465714Y-144050057D02*
X293418095Y-144145295D01*
X293418095Y-144145295D02*
X293418095Y-144240533D01*
X293418095Y-144240533D02*
X293465714Y-144383390D01*
X293465714Y-144383390D02*
X294037142Y-144954819D01*
X294037142Y-144954819D02*
X293418095Y-144954819D01*
X161894285Y-110670496D02*
X161894285Y-109670496D01*
X161894285Y-109670496D02*
X161656190Y-109670496D01*
X161656190Y-109670496D02*
X161513333Y-109718115D01*
X161513333Y-109718115D02*
X161418095Y-109813353D01*
X161418095Y-109813353D02*
X161370476Y-109908591D01*
X161370476Y-109908591D02*
X161322857Y-110099067D01*
X161322857Y-110099067D02*
X161322857Y-110241924D01*
X161322857Y-110241924D02*
X161370476Y-110432400D01*
X161370476Y-110432400D02*
X161418095Y-110527638D01*
X161418095Y-110527638D02*
X161513333Y-110622877D01*
X161513333Y-110622877D02*
X161656190Y-110670496D01*
X161656190Y-110670496D02*
X161894285Y-110670496D01*
X160941904Y-109765734D02*
X160894285Y-109718115D01*
X160894285Y-109718115D02*
X160799047Y-109670496D01*
X160799047Y-109670496D02*
X160560952Y-109670496D01*
X160560952Y-109670496D02*
X160465714Y-109718115D01*
X160465714Y-109718115D02*
X160418095Y-109765734D01*
X160418095Y-109765734D02*
X160370476Y-109860972D01*
X160370476Y-109860972D02*
X160370476Y-109956210D01*
X160370476Y-109956210D02*
X160418095Y-110099067D01*
X160418095Y-110099067D02*
X160989523Y-110670496D01*
X160989523Y-110670496D02*
X160370476Y-110670496D01*
X159513333Y-110003829D02*
X159513333Y-110670496D01*
X159751428Y-109622877D02*
X159989523Y-110337162D01*
X159989523Y-110337162D02*
X159370476Y-110337162D01*
X108644285Y-126920496D02*
X108644285Y-125920496D01*
X108644285Y-125920496D02*
X108406190Y-125920496D01*
X108406190Y-125920496D02*
X108263333Y-125968115D01*
X108263333Y-125968115D02*
X108168095Y-126063353D01*
X108168095Y-126063353D02*
X108120476Y-126158591D01*
X108120476Y-126158591D02*
X108072857Y-126349067D01*
X108072857Y-126349067D02*
X108072857Y-126491924D01*
X108072857Y-126491924D02*
X108120476Y-126682400D01*
X108120476Y-126682400D02*
X108168095Y-126777638D01*
X108168095Y-126777638D02*
X108263333Y-126872877D01*
X108263333Y-126872877D02*
X108406190Y-126920496D01*
X108406190Y-126920496D02*
X108644285Y-126920496D01*
X107691904Y-126015734D02*
X107644285Y-125968115D01*
X107644285Y-125968115D02*
X107549047Y-125920496D01*
X107549047Y-125920496D02*
X107310952Y-125920496D01*
X107310952Y-125920496D02*
X107215714Y-125968115D01*
X107215714Y-125968115D02*
X107168095Y-126015734D01*
X107168095Y-126015734D02*
X107120476Y-126110972D01*
X107120476Y-126110972D02*
X107120476Y-126206210D01*
X107120476Y-126206210D02*
X107168095Y-126349067D01*
X107168095Y-126349067D02*
X107739523Y-126920496D01*
X107739523Y-126920496D02*
X107120476Y-126920496D01*
X106263333Y-125920496D02*
X106453809Y-125920496D01*
X106453809Y-125920496D02*
X106549047Y-125968115D01*
X106549047Y-125968115D02*
X106596666Y-126015734D01*
X106596666Y-126015734D02*
X106691904Y-126158591D01*
X106691904Y-126158591D02*
X106739523Y-126349067D01*
X106739523Y-126349067D02*
X106739523Y-126730019D01*
X106739523Y-126730019D02*
X106691904Y-126825257D01*
X106691904Y-126825257D02*
X106644285Y-126872877D01*
X106644285Y-126872877D02*
X106549047Y-126920496D01*
X106549047Y-126920496D02*
X106358571Y-126920496D01*
X106358571Y-126920496D02*
X106263333Y-126872877D01*
X106263333Y-126872877D02*
X106215714Y-126825257D01*
X106215714Y-126825257D02*
X106168095Y-126730019D01*
X106168095Y-126730019D02*
X106168095Y-126491924D01*
X106168095Y-126491924D02*
X106215714Y-126396686D01*
X106215714Y-126396686D02*
X106263333Y-126349067D01*
X106263333Y-126349067D02*
X106358571Y-126301448D01*
X106358571Y-126301448D02*
X106549047Y-126301448D01*
X106549047Y-126301448D02*
X106644285Y-126349067D01*
X106644285Y-126349067D02*
X106691904Y-126396686D01*
X106691904Y-126396686D02*
X106739523Y-126491924D01*
X313644285Y-137704819D02*
X313644285Y-136704819D01*
X313644285Y-136704819D02*
X313406190Y-136704819D01*
X313406190Y-136704819D02*
X313263333Y-136752438D01*
X313263333Y-136752438D02*
X313168095Y-136847676D01*
X313168095Y-136847676D02*
X313120476Y-136942914D01*
X313120476Y-136942914D02*
X313072857Y-137133390D01*
X313072857Y-137133390D02*
X313072857Y-137276247D01*
X313072857Y-137276247D02*
X313120476Y-137466723D01*
X313120476Y-137466723D02*
X313168095Y-137561961D01*
X313168095Y-137561961D02*
X313263333Y-137657200D01*
X313263333Y-137657200D02*
X313406190Y-137704819D01*
X313406190Y-137704819D02*
X313644285Y-137704819D01*
X312120476Y-137704819D02*
X312691904Y-137704819D01*
X312406190Y-137704819D02*
X312406190Y-136704819D01*
X312406190Y-136704819D02*
X312501428Y-136847676D01*
X312501428Y-136847676D02*
X312596666Y-136942914D01*
X312596666Y-136942914D02*
X312691904Y-136990533D01*
X311787142Y-136704819D02*
X311168095Y-136704819D01*
X311168095Y-136704819D02*
X311501428Y-137085771D01*
X311501428Y-137085771D02*
X311358571Y-137085771D01*
X311358571Y-137085771D02*
X311263333Y-137133390D01*
X311263333Y-137133390D02*
X311215714Y-137181009D01*
X311215714Y-137181009D02*
X311168095Y-137276247D01*
X311168095Y-137276247D02*
X311168095Y-137514342D01*
X311168095Y-137514342D02*
X311215714Y-137609580D01*
X311215714Y-137609580D02*
X311263333Y-137657200D01*
X311263333Y-137657200D02*
X311358571Y-137704819D01*
X311358571Y-137704819D02*
X311644285Y-137704819D01*
X311644285Y-137704819D02*
X311739523Y-137657200D01*
X311739523Y-137657200D02*
X311787142Y-137609580D01*
X126394285Y-101670496D02*
X126394285Y-100670496D01*
X126394285Y-100670496D02*
X126156190Y-100670496D01*
X126156190Y-100670496D02*
X126013333Y-100718115D01*
X126013333Y-100718115D02*
X125918095Y-100813353D01*
X125918095Y-100813353D02*
X125870476Y-100908591D01*
X125870476Y-100908591D02*
X125822857Y-101099067D01*
X125822857Y-101099067D02*
X125822857Y-101241924D01*
X125822857Y-101241924D02*
X125870476Y-101432400D01*
X125870476Y-101432400D02*
X125918095Y-101527638D01*
X125918095Y-101527638D02*
X126013333Y-101622877D01*
X126013333Y-101622877D02*
X126156190Y-101670496D01*
X126156190Y-101670496D02*
X126394285Y-101670496D01*
X125441904Y-100765734D02*
X125394285Y-100718115D01*
X125394285Y-100718115D02*
X125299047Y-100670496D01*
X125299047Y-100670496D02*
X125060952Y-100670496D01*
X125060952Y-100670496D02*
X124965714Y-100718115D01*
X124965714Y-100718115D02*
X124918095Y-100765734D01*
X124918095Y-100765734D02*
X124870476Y-100860972D01*
X124870476Y-100860972D02*
X124870476Y-100956210D01*
X124870476Y-100956210D02*
X124918095Y-101099067D01*
X124918095Y-101099067D02*
X125489523Y-101670496D01*
X125489523Y-101670496D02*
X124870476Y-101670496D01*
X124489523Y-100765734D02*
X124441904Y-100718115D01*
X124441904Y-100718115D02*
X124346666Y-100670496D01*
X124346666Y-100670496D02*
X124108571Y-100670496D01*
X124108571Y-100670496D02*
X124013333Y-100718115D01*
X124013333Y-100718115D02*
X123965714Y-100765734D01*
X123965714Y-100765734D02*
X123918095Y-100860972D01*
X123918095Y-100860972D02*
X123918095Y-100956210D01*
X123918095Y-100956210D02*
X123965714Y-101099067D01*
X123965714Y-101099067D02*
X124537142Y-101670496D01*
X124537142Y-101670496D02*
X123918095Y-101670496D01*
X330918094Y-128654819D02*
X330918094Y-127654819D01*
X330918094Y-127654819D02*
X330679999Y-127654819D01*
X330679999Y-127654819D02*
X330537142Y-127702438D01*
X330537142Y-127702438D02*
X330441904Y-127797676D01*
X330441904Y-127797676D02*
X330394285Y-127892914D01*
X330394285Y-127892914D02*
X330346666Y-128083390D01*
X330346666Y-128083390D02*
X330346666Y-128226247D01*
X330346666Y-128226247D02*
X330394285Y-128416723D01*
X330394285Y-128416723D02*
X330441904Y-128511961D01*
X330441904Y-128511961D02*
X330537142Y-128607200D01*
X330537142Y-128607200D02*
X330679999Y-128654819D01*
X330679999Y-128654819D02*
X330918094Y-128654819D01*
X329870475Y-128654819D02*
X329679999Y-128654819D01*
X329679999Y-128654819D02*
X329584761Y-128607200D01*
X329584761Y-128607200D02*
X329537142Y-128559580D01*
X329537142Y-128559580D02*
X329441904Y-128416723D01*
X329441904Y-128416723D02*
X329394285Y-128226247D01*
X329394285Y-128226247D02*
X329394285Y-127845295D01*
X329394285Y-127845295D02*
X329441904Y-127750057D01*
X329441904Y-127750057D02*
X329489523Y-127702438D01*
X329489523Y-127702438D02*
X329584761Y-127654819D01*
X329584761Y-127654819D02*
X329775237Y-127654819D01*
X329775237Y-127654819D02*
X329870475Y-127702438D01*
X329870475Y-127702438D02*
X329918094Y-127750057D01*
X329918094Y-127750057D02*
X329965713Y-127845295D01*
X329965713Y-127845295D02*
X329965713Y-128083390D01*
X329965713Y-128083390D02*
X329918094Y-128178628D01*
X329918094Y-128178628D02*
X329870475Y-128226247D01*
X329870475Y-128226247D02*
X329775237Y-128273866D01*
X329775237Y-128273866D02*
X329584761Y-128273866D01*
X329584761Y-128273866D02*
X329489523Y-128226247D01*
X329489523Y-128226247D02*
X329441904Y-128178628D01*
X329441904Y-128178628D02*
X329394285Y-128083390D01*
X108644285Y-144170496D02*
X108644285Y-143170496D01*
X108644285Y-143170496D02*
X108406190Y-143170496D01*
X108406190Y-143170496D02*
X108263333Y-143218115D01*
X108263333Y-143218115D02*
X108168095Y-143313353D01*
X108168095Y-143313353D02*
X108120476Y-143408591D01*
X108120476Y-143408591D02*
X108072857Y-143599067D01*
X108072857Y-143599067D02*
X108072857Y-143741924D01*
X108072857Y-143741924D02*
X108120476Y-143932400D01*
X108120476Y-143932400D02*
X108168095Y-144027638D01*
X108168095Y-144027638D02*
X108263333Y-144122877D01*
X108263333Y-144122877D02*
X108406190Y-144170496D01*
X108406190Y-144170496D02*
X108644285Y-144170496D01*
X107739523Y-143170496D02*
X107120476Y-143170496D01*
X107120476Y-143170496D02*
X107453809Y-143551448D01*
X107453809Y-143551448D02*
X107310952Y-143551448D01*
X107310952Y-143551448D02*
X107215714Y-143599067D01*
X107215714Y-143599067D02*
X107168095Y-143646686D01*
X107168095Y-143646686D02*
X107120476Y-143741924D01*
X107120476Y-143741924D02*
X107120476Y-143980019D01*
X107120476Y-143980019D02*
X107168095Y-144075257D01*
X107168095Y-144075257D02*
X107215714Y-144122877D01*
X107215714Y-144122877D02*
X107310952Y-144170496D01*
X107310952Y-144170496D02*
X107596666Y-144170496D01*
X107596666Y-144170496D02*
X107691904Y-144122877D01*
X107691904Y-144122877D02*
X107739523Y-144075257D01*
X106168095Y-144170496D02*
X106739523Y-144170496D01*
X106453809Y-144170496D02*
X106453809Y-143170496D01*
X106453809Y-143170496D02*
X106549047Y-143313353D01*
X106549047Y-143313353D02*
X106644285Y-143408591D01*
X106644285Y-143408591D02*
X106739523Y-143456210D01*
X295418094Y-110454819D02*
X295418094Y-109454819D01*
X295418094Y-109454819D02*
X295179999Y-109454819D01*
X295179999Y-109454819D02*
X295037142Y-109502438D01*
X295037142Y-109502438D02*
X294941904Y-109597676D01*
X294941904Y-109597676D02*
X294894285Y-109692914D01*
X294894285Y-109692914D02*
X294846666Y-109883390D01*
X294846666Y-109883390D02*
X294846666Y-110026247D01*
X294846666Y-110026247D02*
X294894285Y-110216723D01*
X294894285Y-110216723D02*
X294941904Y-110311961D01*
X294941904Y-110311961D02*
X295037142Y-110407200D01*
X295037142Y-110407200D02*
X295179999Y-110454819D01*
X295179999Y-110454819D02*
X295418094Y-110454819D01*
X294465713Y-109550057D02*
X294418094Y-109502438D01*
X294418094Y-109502438D02*
X294322856Y-109454819D01*
X294322856Y-109454819D02*
X294084761Y-109454819D01*
X294084761Y-109454819D02*
X293989523Y-109502438D01*
X293989523Y-109502438D02*
X293941904Y-109550057D01*
X293941904Y-109550057D02*
X293894285Y-109645295D01*
X293894285Y-109645295D02*
X293894285Y-109740533D01*
X293894285Y-109740533D02*
X293941904Y-109883390D01*
X293941904Y-109883390D02*
X294513332Y-110454819D01*
X294513332Y-110454819D02*
X293894285Y-110454819D01*
X180737423Y-173290419D02*
X181237423Y-172424394D01*
X181237423Y-172424394D02*
X181031227Y-172305346D01*
X181031227Y-172305346D02*
X180883699Y-172275157D01*
X180883699Y-172275157D02*
X180753602Y-172310017D01*
X180753602Y-172310017D02*
X180664743Y-172368686D01*
X180664743Y-172368686D02*
X180528266Y-172509833D01*
X180528266Y-172509833D02*
X180456837Y-172633551D01*
X180456837Y-172633551D02*
X180402839Y-172822318D01*
X180402839Y-172822318D02*
X180396459Y-172928606D01*
X180396459Y-172928606D02*
X180431318Y-173058704D01*
X180431318Y-173058704D02*
X180531227Y-173171372D01*
X180531227Y-173171372D02*
X180737423Y-173290419D01*
X180453876Y-171972013D02*
X179917766Y-171662489D01*
X179917766Y-171662489D02*
X180015964Y-172159070D01*
X180015964Y-172159070D02*
X179892247Y-172087642D01*
X179892247Y-172087642D02*
X179785958Y-172081262D01*
X179785958Y-172081262D02*
X179720910Y-172098692D01*
X179720910Y-172098692D02*
X179632051Y-172157361D01*
X179632051Y-172157361D02*
X179513004Y-172363557D01*
X179513004Y-172363557D02*
X179506624Y-172469845D01*
X179506624Y-172469845D02*
X179524054Y-172534894D01*
X179524054Y-172534894D02*
X179582723Y-172623753D01*
X179582723Y-172623753D02*
X179830159Y-172766610D01*
X179830159Y-172766610D02*
X179936447Y-172772989D01*
X179936447Y-172772989D02*
X180001496Y-172755560D01*
X179208608Y-171747928D02*
X179314896Y-171754308D01*
X179314896Y-171754308D02*
X179379945Y-171736878D01*
X179379945Y-171736878D02*
X179468803Y-171678209D01*
X179468803Y-171678209D02*
X179492613Y-171636970D01*
X179492613Y-171636970D02*
X179498993Y-171530682D01*
X179498993Y-171530682D02*
X179481563Y-171465633D01*
X179481563Y-171465633D02*
X179422894Y-171376775D01*
X179422894Y-171376775D02*
X179257937Y-171281537D01*
X179257937Y-171281537D02*
X179151648Y-171275157D01*
X179151648Y-171275157D02*
X179086600Y-171292587D01*
X179086600Y-171292587D02*
X178997741Y-171351256D01*
X178997741Y-171351256D02*
X178973932Y-171392495D01*
X178973932Y-171392495D02*
X178967552Y-171498783D01*
X178967552Y-171498783D02*
X178984982Y-171563832D01*
X178984982Y-171563832D02*
X179043651Y-171652690D01*
X179043651Y-171652690D02*
X179208608Y-171747928D01*
X179208608Y-171747928D02*
X179267277Y-171836787D01*
X179267277Y-171836787D02*
X179284707Y-171901836D01*
X179284707Y-171901836D02*
X179278327Y-172008124D01*
X179278327Y-172008124D02*
X179183089Y-172173081D01*
X179183089Y-172173081D02*
X179094231Y-172231750D01*
X179094231Y-172231750D02*
X179029182Y-172249180D01*
X179029182Y-172249180D02*
X178922894Y-172242800D01*
X178922894Y-172242800D02*
X178757937Y-172147562D01*
X178757937Y-172147562D02*
X178699268Y-172058704D01*
X178699268Y-172058704D02*
X178681838Y-171993655D01*
X178681838Y-171993655D02*
X178688217Y-171887367D01*
X178688217Y-171887367D02*
X178783456Y-171722410D01*
X178783456Y-171722410D02*
X178872314Y-171663740D01*
X178872314Y-171663740D02*
X178937363Y-171646311D01*
X178937363Y-171646311D02*
X179043651Y-171652690D01*
X277668094Y-129644819D02*
X277668094Y-128644819D01*
X277668094Y-128644819D02*
X277429999Y-128644819D01*
X277429999Y-128644819D02*
X277287142Y-128692438D01*
X277287142Y-128692438D02*
X277191904Y-128787676D01*
X277191904Y-128787676D02*
X277144285Y-128882914D01*
X277144285Y-128882914D02*
X277096666Y-129073390D01*
X277096666Y-129073390D02*
X277096666Y-129216247D01*
X277096666Y-129216247D02*
X277144285Y-129406723D01*
X277144285Y-129406723D02*
X277191904Y-129501961D01*
X277191904Y-129501961D02*
X277287142Y-129597200D01*
X277287142Y-129597200D02*
X277429999Y-129644819D01*
X277429999Y-129644819D02*
X277668094Y-129644819D01*
X276239523Y-128644819D02*
X276429999Y-128644819D01*
X276429999Y-128644819D02*
X276525237Y-128692438D01*
X276525237Y-128692438D02*
X276572856Y-128740057D01*
X276572856Y-128740057D02*
X276668094Y-128882914D01*
X276668094Y-128882914D02*
X276715713Y-129073390D01*
X276715713Y-129073390D02*
X276715713Y-129454342D01*
X276715713Y-129454342D02*
X276668094Y-129549580D01*
X276668094Y-129549580D02*
X276620475Y-129597200D01*
X276620475Y-129597200D02*
X276525237Y-129644819D01*
X276525237Y-129644819D02*
X276334761Y-129644819D01*
X276334761Y-129644819D02*
X276239523Y-129597200D01*
X276239523Y-129597200D02*
X276191904Y-129549580D01*
X276191904Y-129549580D02*
X276144285Y-129454342D01*
X276144285Y-129454342D02*
X276144285Y-129216247D01*
X276144285Y-129216247D02*
X276191904Y-129121009D01*
X276191904Y-129121009D02*
X276239523Y-129073390D01*
X276239523Y-129073390D02*
X276334761Y-129025771D01*
X276334761Y-129025771D02*
X276525237Y-129025771D01*
X276525237Y-129025771D02*
X276620475Y-129073390D01*
X276620475Y-129073390D02*
X276668094Y-129121009D01*
X276668094Y-129121009D02*
X276715713Y-129216247D01*
X331394285Y-145904819D02*
X331394285Y-144904819D01*
X331394285Y-144904819D02*
X331156190Y-144904819D01*
X331156190Y-144904819D02*
X331013333Y-144952438D01*
X331013333Y-144952438D02*
X330918095Y-145047676D01*
X330918095Y-145047676D02*
X330870476Y-145142914D01*
X330870476Y-145142914D02*
X330822857Y-145333390D01*
X330822857Y-145333390D02*
X330822857Y-145476247D01*
X330822857Y-145476247D02*
X330870476Y-145666723D01*
X330870476Y-145666723D02*
X330918095Y-145761961D01*
X330918095Y-145761961D02*
X331013333Y-145857200D01*
X331013333Y-145857200D02*
X331156190Y-145904819D01*
X331156190Y-145904819D02*
X331394285Y-145904819D01*
X329870476Y-145904819D02*
X330441904Y-145904819D01*
X330156190Y-145904819D02*
X330156190Y-144904819D01*
X330156190Y-144904819D02*
X330251428Y-145047676D01*
X330251428Y-145047676D02*
X330346666Y-145142914D01*
X330346666Y-145142914D02*
X330441904Y-145190533D01*
X329013333Y-145238152D02*
X329013333Y-145904819D01*
X329251428Y-144857200D02*
X329489523Y-145571485D01*
X329489523Y-145571485D02*
X328870476Y-145571485D01*
X144144285Y-143170496D02*
X144144285Y-142170496D01*
X144144285Y-142170496D02*
X143906190Y-142170496D01*
X143906190Y-142170496D02*
X143763333Y-142218115D01*
X143763333Y-142218115D02*
X143668095Y-142313353D01*
X143668095Y-142313353D02*
X143620476Y-142408591D01*
X143620476Y-142408591D02*
X143572857Y-142599067D01*
X143572857Y-142599067D02*
X143572857Y-142741924D01*
X143572857Y-142741924D02*
X143620476Y-142932400D01*
X143620476Y-142932400D02*
X143668095Y-143027638D01*
X143668095Y-143027638D02*
X143763333Y-143122877D01*
X143763333Y-143122877D02*
X143906190Y-143170496D01*
X143906190Y-143170496D02*
X144144285Y-143170496D01*
X143239523Y-142170496D02*
X142620476Y-142170496D01*
X142620476Y-142170496D02*
X142953809Y-142551448D01*
X142953809Y-142551448D02*
X142810952Y-142551448D01*
X142810952Y-142551448D02*
X142715714Y-142599067D01*
X142715714Y-142599067D02*
X142668095Y-142646686D01*
X142668095Y-142646686D02*
X142620476Y-142741924D01*
X142620476Y-142741924D02*
X142620476Y-142980019D01*
X142620476Y-142980019D02*
X142668095Y-143075257D01*
X142668095Y-143075257D02*
X142715714Y-143122877D01*
X142715714Y-143122877D02*
X142810952Y-143170496D01*
X142810952Y-143170496D02*
X143096666Y-143170496D01*
X143096666Y-143170496D02*
X143191904Y-143122877D01*
X143191904Y-143122877D02*
X143239523Y-143075257D01*
X142287142Y-142170496D02*
X141668095Y-142170496D01*
X141668095Y-142170496D02*
X142001428Y-142551448D01*
X142001428Y-142551448D02*
X141858571Y-142551448D01*
X141858571Y-142551448D02*
X141763333Y-142599067D01*
X141763333Y-142599067D02*
X141715714Y-142646686D01*
X141715714Y-142646686D02*
X141668095Y-142741924D01*
X141668095Y-142741924D02*
X141668095Y-142980019D01*
X141668095Y-142980019D02*
X141715714Y-143075257D01*
X141715714Y-143075257D02*
X141763333Y-143122877D01*
X141763333Y-143122877D02*
X141858571Y-143170496D01*
X141858571Y-143170496D02*
X142144285Y-143170496D01*
X142144285Y-143170496D02*
X142239523Y-143122877D01*
X142239523Y-143122877D02*
X142287142Y-143075257D01*
X226351170Y-107049476D02*
X226313075Y-106973286D01*
X226313075Y-106973286D02*
X226313075Y-106859000D01*
X226313075Y-106859000D02*
X226351170Y-106744714D01*
X226351170Y-106744714D02*
X226427360Y-106668524D01*
X226427360Y-106668524D02*
X226503551Y-106630429D01*
X226503551Y-106630429D02*
X226655932Y-106592333D01*
X226655932Y-106592333D02*
X226770218Y-106592333D01*
X226770218Y-106592333D02*
X226922599Y-106630429D01*
X226922599Y-106630429D02*
X226998789Y-106668524D01*
X226998789Y-106668524D02*
X227074980Y-106744714D01*
X227074980Y-106744714D02*
X227113075Y-106859000D01*
X227113075Y-106859000D02*
X227113075Y-106935191D01*
X227113075Y-106935191D02*
X227074980Y-107049476D01*
X227074980Y-107049476D02*
X227036884Y-107087572D01*
X227036884Y-107087572D02*
X226770218Y-107087572D01*
X226770218Y-107087572D02*
X226770218Y-106935191D01*
X227113075Y-107430429D02*
X226313075Y-107430429D01*
X226313075Y-107430429D02*
X227113075Y-107887572D01*
X227113075Y-107887572D02*
X226313075Y-107887572D01*
X227113075Y-108268524D02*
X226313075Y-108268524D01*
X226313075Y-108268524D02*
X226313075Y-108459000D01*
X226313075Y-108459000D02*
X226351170Y-108573286D01*
X226351170Y-108573286D02*
X226427360Y-108649476D01*
X226427360Y-108649476D02*
X226503551Y-108687571D01*
X226503551Y-108687571D02*
X226655932Y-108725667D01*
X226655932Y-108725667D02*
X226770218Y-108725667D01*
X226770218Y-108725667D02*
X226922599Y-108687571D01*
X226922599Y-108687571D02*
X226998789Y-108649476D01*
X226998789Y-108649476D02*
X227074980Y-108573286D01*
X227074980Y-108573286D02*
X227113075Y-108459000D01*
X227113075Y-108459000D02*
X227113075Y-108268524D01*
X244854980Y-106821075D02*
X244893075Y-106935361D01*
X244893075Y-106935361D02*
X244893075Y-107125837D01*
X244893075Y-107125837D02*
X244854980Y-107202028D01*
X244854980Y-107202028D02*
X244816884Y-107240123D01*
X244816884Y-107240123D02*
X244740694Y-107278218D01*
X244740694Y-107278218D02*
X244664503Y-107278218D01*
X244664503Y-107278218D02*
X244588313Y-107240123D01*
X244588313Y-107240123D02*
X244550218Y-107202028D01*
X244550218Y-107202028D02*
X244512122Y-107125837D01*
X244512122Y-107125837D02*
X244474027Y-106973456D01*
X244474027Y-106973456D02*
X244435932Y-106897266D01*
X244435932Y-106897266D02*
X244397837Y-106859171D01*
X244397837Y-106859171D02*
X244321646Y-106821075D01*
X244321646Y-106821075D02*
X244245456Y-106821075D01*
X244245456Y-106821075D02*
X244169265Y-106859171D01*
X244169265Y-106859171D02*
X244131170Y-106897266D01*
X244131170Y-106897266D02*
X244093075Y-106973456D01*
X244093075Y-106973456D02*
X244093075Y-107163933D01*
X244093075Y-107163933D02*
X244131170Y-107278218D01*
X244816884Y-108078219D02*
X244854980Y-108040123D01*
X244854980Y-108040123D02*
X244893075Y-107925838D01*
X244893075Y-107925838D02*
X244893075Y-107849647D01*
X244893075Y-107849647D02*
X244854980Y-107735361D01*
X244854980Y-107735361D02*
X244778789Y-107659171D01*
X244778789Y-107659171D02*
X244702599Y-107621076D01*
X244702599Y-107621076D02*
X244550218Y-107582980D01*
X244550218Y-107582980D02*
X244435932Y-107582980D01*
X244435932Y-107582980D02*
X244283551Y-107621076D01*
X244283551Y-107621076D02*
X244207360Y-107659171D01*
X244207360Y-107659171D02*
X244131170Y-107735361D01*
X244131170Y-107735361D02*
X244093075Y-107849647D01*
X244093075Y-107849647D02*
X244093075Y-107925838D01*
X244093075Y-107925838D02*
X244131170Y-108040123D01*
X244131170Y-108040123D02*
X244169265Y-108078219D01*
X244893075Y-108421076D02*
X244093075Y-108421076D01*
X244893075Y-108878219D02*
X244435932Y-108535361D01*
X244093075Y-108878219D02*
X244550218Y-108421076D01*
X244054980Y-109792504D02*
X245083551Y-109106790D01*
X244893075Y-110478218D02*
X244893075Y-110021075D01*
X244893075Y-110249647D02*
X244093075Y-110249647D01*
X244093075Y-110249647D02*
X244207360Y-110173456D01*
X244207360Y-110173456D02*
X244283551Y-110097266D01*
X244283551Y-110097266D02*
X244321646Y-110021075D01*
X244435932Y-110935361D02*
X244397837Y-110859171D01*
X244397837Y-110859171D02*
X244359741Y-110821076D01*
X244359741Y-110821076D02*
X244283551Y-110782980D01*
X244283551Y-110782980D02*
X244245456Y-110782980D01*
X244245456Y-110782980D02*
X244169265Y-110821076D01*
X244169265Y-110821076D02*
X244131170Y-110859171D01*
X244131170Y-110859171D02*
X244093075Y-110935361D01*
X244093075Y-110935361D02*
X244093075Y-111087742D01*
X244093075Y-111087742D02*
X244131170Y-111163933D01*
X244131170Y-111163933D02*
X244169265Y-111202028D01*
X244169265Y-111202028D02*
X244245456Y-111240123D01*
X244245456Y-111240123D02*
X244283551Y-111240123D01*
X244283551Y-111240123D02*
X244359741Y-111202028D01*
X244359741Y-111202028D02*
X244397837Y-111163933D01*
X244397837Y-111163933D02*
X244435932Y-111087742D01*
X244435932Y-111087742D02*
X244435932Y-110935361D01*
X244435932Y-110935361D02*
X244474027Y-110859171D01*
X244474027Y-110859171D02*
X244512122Y-110821076D01*
X244512122Y-110821076D02*
X244588313Y-110782980D01*
X244588313Y-110782980D02*
X244740694Y-110782980D01*
X244740694Y-110782980D02*
X244816884Y-110821076D01*
X244816884Y-110821076D02*
X244854980Y-110859171D01*
X244854980Y-110859171D02*
X244893075Y-110935361D01*
X244893075Y-110935361D02*
X244893075Y-111087742D01*
X244893075Y-111087742D02*
X244854980Y-111163933D01*
X244854980Y-111163933D02*
X244816884Y-111202028D01*
X244816884Y-111202028D02*
X244740694Y-111240123D01*
X244740694Y-111240123D02*
X244588313Y-111240123D01*
X244588313Y-111240123D02*
X244512122Y-111202028D01*
X244512122Y-111202028D02*
X244474027Y-111163933D01*
X244474027Y-111163933D02*
X244435932Y-111087742D01*
X228814970Y-117768276D02*
X228776875Y-117692086D01*
X228776875Y-117692086D02*
X228776875Y-117577800D01*
X228776875Y-117577800D02*
X228814970Y-117463514D01*
X228814970Y-117463514D02*
X228891160Y-117387324D01*
X228891160Y-117387324D02*
X228967351Y-117349229D01*
X228967351Y-117349229D02*
X229119732Y-117311133D01*
X229119732Y-117311133D02*
X229234018Y-117311133D01*
X229234018Y-117311133D02*
X229386399Y-117349229D01*
X229386399Y-117349229D02*
X229462589Y-117387324D01*
X229462589Y-117387324D02*
X229538780Y-117463514D01*
X229538780Y-117463514D02*
X229576875Y-117577800D01*
X229576875Y-117577800D02*
X229576875Y-117653991D01*
X229576875Y-117653991D02*
X229538780Y-117768276D01*
X229538780Y-117768276D02*
X229500684Y-117806372D01*
X229500684Y-117806372D02*
X229234018Y-117806372D01*
X229234018Y-117806372D02*
X229234018Y-117653991D01*
X229576875Y-118149229D02*
X228776875Y-118149229D01*
X228776875Y-118149229D02*
X229576875Y-118606372D01*
X229576875Y-118606372D02*
X228776875Y-118606372D01*
X229576875Y-118987324D02*
X228776875Y-118987324D01*
X228776875Y-118987324D02*
X228776875Y-119177800D01*
X228776875Y-119177800D02*
X228814970Y-119292086D01*
X228814970Y-119292086D02*
X228891160Y-119368276D01*
X228891160Y-119368276D02*
X228967351Y-119406371D01*
X228967351Y-119406371D02*
X229119732Y-119444467D01*
X229119732Y-119444467D02*
X229234018Y-119444467D01*
X229234018Y-119444467D02*
X229386399Y-119406371D01*
X229386399Y-119406371D02*
X229462589Y-119368276D01*
X229462589Y-119368276D02*
X229538780Y-119292086D01*
X229538780Y-119292086D02*
X229576875Y-119177800D01*
X229576875Y-119177800D02*
X229576875Y-118987324D01*
X236968303Y-106897218D02*
X236968303Y-107278171D01*
X237196875Y-106821028D02*
X236396875Y-107087695D01*
X236396875Y-107087695D02*
X237196875Y-107354361D01*
X236473065Y-107582932D02*
X236434970Y-107621028D01*
X236434970Y-107621028D02*
X236396875Y-107697218D01*
X236396875Y-107697218D02*
X236396875Y-107887694D01*
X236396875Y-107887694D02*
X236434970Y-107963885D01*
X236434970Y-107963885D02*
X236473065Y-108001980D01*
X236473065Y-108001980D02*
X236549256Y-108040075D01*
X236549256Y-108040075D02*
X236625446Y-108040075D01*
X236625446Y-108040075D02*
X236739732Y-108001980D01*
X236739732Y-108001980D02*
X237196875Y-107544837D01*
X237196875Y-107544837D02*
X237196875Y-108040075D01*
X236358780Y-108954361D02*
X237387351Y-108268647D01*
X236473065Y-109182932D02*
X236434970Y-109221028D01*
X236434970Y-109221028D02*
X236396875Y-109297218D01*
X236396875Y-109297218D02*
X236396875Y-109487694D01*
X236396875Y-109487694D02*
X236434970Y-109563885D01*
X236434970Y-109563885D02*
X236473065Y-109601980D01*
X236473065Y-109601980D02*
X236549256Y-109640075D01*
X236549256Y-109640075D02*
X236625446Y-109640075D01*
X236625446Y-109640075D02*
X236739732Y-109601980D01*
X236739732Y-109601980D02*
X237196875Y-109144837D01*
X237196875Y-109144837D02*
X237196875Y-109640075D01*
X236739732Y-110097218D02*
X236701637Y-110021028D01*
X236701637Y-110021028D02*
X236663541Y-109982933D01*
X236663541Y-109982933D02*
X236587351Y-109944837D01*
X236587351Y-109944837D02*
X236549256Y-109944837D01*
X236549256Y-109944837D02*
X236473065Y-109982933D01*
X236473065Y-109982933D02*
X236434970Y-110021028D01*
X236434970Y-110021028D02*
X236396875Y-110097218D01*
X236396875Y-110097218D02*
X236396875Y-110249599D01*
X236396875Y-110249599D02*
X236434970Y-110325790D01*
X236434970Y-110325790D02*
X236473065Y-110363885D01*
X236473065Y-110363885D02*
X236549256Y-110401980D01*
X236549256Y-110401980D02*
X236587351Y-110401980D01*
X236587351Y-110401980D02*
X236663541Y-110363885D01*
X236663541Y-110363885D02*
X236701637Y-110325790D01*
X236701637Y-110325790D02*
X236739732Y-110249599D01*
X236739732Y-110249599D02*
X236739732Y-110097218D01*
X236739732Y-110097218D02*
X236777827Y-110021028D01*
X236777827Y-110021028D02*
X236815922Y-109982933D01*
X236815922Y-109982933D02*
X236892113Y-109944837D01*
X236892113Y-109944837D02*
X237044494Y-109944837D01*
X237044494Y-109944837D02*
X237120684Y-109982933D01*
X237120684Y-109982933D02*
X237158780Y-110021028D01*
X237158780Y-110021028D02*
X237196875Y-110097218D01*
X237196875Y-110097218D02*
X237196875Y-110249599D01*
X237196875Y-110249599D02*
X237158780Y-110325790D01*
X237158780Y-110325790D02*
X237120684Y-110363885D01*
X237120684Y-110363885D02*
X237044494Y-110401980D01*
X237044494Y-110401980D02*
X236892113Y-110401980D01*
X236892113Y-110401980D02*
X236815922Y-110363885D01*
X236815922Y-110363885D02*
X236777827Y-110325790D01*
X236777827Y-110325790D02*
X236739732Y-110249599D01*
X239813075Y-117990524D02*
X239013075Y-117990524D01*
X239013075Y-117990524D02*
X239013075Y-118181000D01*
X239013075Y-118181000D02*
X239051170Y-118295286D01*
X239051170Y-118295286D02*
X239127360Y-118371476D01*
X239127360Y-118371476D02*
X239203551Y-118409571D01*
X239203551Y-118409571D02*
X239355932Y-118447667D01*
X239355932Y-118447667D02*
X239470218Y-118447667D01*
X239470218Y-118447667D02*
X239622599Y-118409571D01*
X239622599Y-118409571D02*
X239698789Y-118371476D01*
X239698789Y-118371476D02*
X239774980Y-118295286D01*
X239774980Y-118295286D02*
X239813075Y-118181000D01*
X239813075Y-118181000D02*
X239813075Y-117990524D01*
X239279741Y-119133381D02*
X239813075Y-119133381D01*
X238974980Y-118942905D02*
X239546408Y-118752428D01*
X239546408Y-118752428D02*
X239546408Y-119247667D01*
X242353075Y-117990524D02*
X241553075Y-117990524D01*
X241553075Y-117990524D02*
X241553075Y-118181000D01*
X241553075Y-118181000D02*
X241591170Y-118295286D01*
X241591170Y-118295286D02*
X241667360Y-118371476D01*
X241667360Y-118371476D02*
X241743551Y-118409571D01*
X241743551Y-118409571D02*
X241895932Y-118447667D01*
X241895932Y-118447667D02*
X242010218Y-118447667D01*
X242010218Y-118447667D02*
X242162599Y-118409571D01*
X242162599Y-118409571D02*
X242238789Y-118371476D01*
X242238789Y-118371476D02*
X242314980Y-118295286D01*
X242314980Y-118295286D02*
X242353075Y-118181000D01*
X242353075Y-118181000D02*
X242353075Y-117990524D01*
X241553075Y-119171476D02*
X241553075Y-118790524D01*
X241553075Y-118790524D02*
X241934027Y-118752428D01*
X241934027Y-118752428D02*
X241895932Y-118790524D01*
X241895932Y-118790524D02*
X241857837Y-118866714D01*
X241857837Y-118866714D02*
X241857837Y-119057190D01*
X241857837Y-119057190D02*
X241895932Y-119133381D01*
X241895932Y-119133381D02*
X241934027Y-119171476D01*
X241934027Y-119171476D02*
X242010218Y-119209571D01*
X242010218Y-119209571D02*
X242200694Y-119209571D01*
X242200694Y-119209571D02*
X242276884Y-119171476D01*
X242276884Y-119171476D02*
X242314980Y-119133381D01*
X242314980Y-119133381D02*
X242353075Y-119057190D01*
X242353075Y-119057190D02*
X242353075Y-118866714D01*
X242353075Y-118866714D02*
X242314980Y-118790524D01*
X242314980Y-118790524D02*
X242276884Y-118752428D01*
X222033075Y-106954238D02*
X221233075Y-106954238D01*
X221233075Y-106954238D02*
X221233075Y-107144714D01*
X221233075Y-107144714D02*
X221271170Y-107259000D01*
X221271170Y-107259000D02*
X221347360Y-107335190D01*
X221347360Y-107335190D02*
X221423551Y-107373285D01*
X221423551Y-107373285D02*
X221575932Y-107411381D01*
X221575932Y-107411381D02*
X221690218Y-107411381D01*
X221690218Y-107411381D02*
X221842599Y-107373285D01*
X221842599Y-107373285D02*
X221918789Y-107335190D01*
X221918789Y-107335190D02*
X221994980Y-107259000D01*
X221994980Y-107259000D02*
X222033075Y-107144714D01*
X222033075Y-107144714D02*
X222033075Y-106954238D01*
X221728313Y-107754238D02*
X221728313Y-108363762D01*
X229602275Y-107703505D02*
X229221322Y-107436838D01*
X229602275Y-107246362D02*
X228802275Y-107246362D01*
X228802275Y-107246362D02*
X228802275Y-107551124D01*
X228802275Y-107551124D02*
X228840370Y-107627314D01*
X228840370Y-107627314D02*
X228878465Y-107665409D01*
X228878465Y-107665409D02*
X228954656Y-107703505D01*
X228954656Y-107703505D02*
X229068941Y-107703505D01*
X229068941Y-107703505D02*
X229145132Y-107665409D01*
X229145132Y-107665409D02*
X229183227Y-107627314D01*
X229183227Y-107627314D02*
X229221322Y-107551124D01*
X229221322Y-107551124D02*
X229221322Y-107246362D01*
X229564180Y-108008266D02*
X229602275Y-108122552D01*
X229602275Y-108122552D02*
X229602275Y-108313028D01*
X229602275Y-108313028D02*
X229564180Y-108389219D01*
X229564180Y-108389219D02*
X229526084Y-108427314D01*
X229526084Y-108427314D02*
X229449894Y-108465409D01*
X229449894Y-108465409D02*
X229373703Y-108465409D01*
X229373703Y-108465409D02*
X229297513Y-108427314D01*
X229297513Y-108427314D02*
X229259418Y-108389219D01*
X229259418Y-108389219D02*
X229221322Y-108313028D01*
X229221322Y-108313028D02*
X229183227Y-108160647D01*
X229183227Y-108160647D02*
X229145132Y-108084457D01*
X229145132Y-108084457D02*
X229107037Y-108046362D01*
X229107037Y-108046362D02*
X229030846Y-108008266D01*
X229030846Y-108008266D02*
X228954656Y-108008266D01*
X228954656Y-108008266D02*
X228878465Y-108046362D01*
X228878465Y-108046362D02*
X228840370Y-108084457D01*
X228840370Y-108084457D02*
X228802275Y-108160647D01*
X228802275Y-108160647D02*
X228802275Y-108351124D01*
X228802275Y-108351124D02*
X228840370Y-108465409D01*
X228802275Y-108693981D02*
X228802275Y-109151124D01*
X229602275Y-108922552D02*
X228802275Y-108922552D01*
X244893075Y-117990524D02*
X244093075Y-117990524D01*
X244093075Y-117990524D02*
X244093075Y-118181000D01*
X244093075Y-118181000D02*
X244131170Y-118295286D01*
X244131170Y-118295286D02*
X244207360Y-118371476D01*
X244207360Y-118371476D02*
X244283551Y-118409571D01*
X244283551Y-118409571D02*
X244435932Y-118447667D01*
X244435932Y-118447667D02*
X244550218Y-118447667D01*
X244550218Y-118447667D02*
X244702599Y-118409571D01*
X244702599Y-118409571D02*
X244778789Y-118371476D01*
X244778789Y-118371476D02*
X244854980Y-118295286D01*
X244854980Y-118295286D02*
X244893075Y-118181000D01*
X244893075Y-118181000D02*
X244893075Y-117990524D01*
X244093075Y-119133381D02*
X244093075Y-118981000D01*
X244093075Y-118981000D02*
X244131170Y-118904809D01*
X244131170Y-118904809D02*
X244169265Y-118866714D01*
X244169265Y-118866714D02*
X244283551Y-118790524D01*
X244283551Y-118790524D02*
X244435932Y-118752428D01*
X244435932Y-118752428D02*
X244740694Y-118752428D01*
X244740694Y-118752428D02*
X244816884Y-118790524D01*
X244816884Y-118790524D02*
X244854980Y-118828619D01*
X244854980Y-118828619D02*
X244893075Y-118904809D01*
X244893075Y-118904809D02*
X244893075Y-119057190D01*
X244893075Y-119057190D02*
X244854980Y-119133381D01*
X244854980Y-119133381D02*
X244816884Y-119171476D01*
X244816884Y-119171476D02*
X244740694Y-119209571D01*
X244740694Y-119209571D02*
X244550218Y-119209571D01*
X244550218Y-119209571D02*
X244474027Y-119171476D01*
X244474027Y-119171476D02*
X244435932Y-119133381D01*
X244435932Y-119133381D02*
X244397837Y-119057190D01*
X244397837Y-119057190D02*
X244397837Y-118904809D01*
X244397837Y-118904809D02*
X244435932Y-118828619D01*
X244435932Y-118828619D02*
X244474027Y-118790524D01*
X244474027Y-118790524D02*
X244550218Y-118752428D01*
X237273075Y-117990524D02*
X236473075Y-117990524D01*
X236473075Y-117990524D02*
X236473075Y-118181000D01*
X236473075Y-118181000D02*
X236511170Y-118295286D01*
X236511170Y-118295286D02*
X236587360Y-118371476D01*
X236587360Y-118371476D02*
X236663551Y-118409571D01*
X236663551Y-118409571D02*
X236815932Y-118447667D01*
X236815932Y-118447667D02*
X236930218Y-118447667D01*
X236930218Y-118447667D02*
X237082599Y-118409571D01*
X237082599Y-118409571D02*
X237158789Y-118371476D01*
X237158789Y-118371476D02*
X237234980Y-118295286D01*
X237234980Y-118295286D02*
X237273075Y-118181000D01*
X237273075Y-118181000D02*
X237273075Y-117990524D01*
X236473075Y-118714333D02*
X236473075Y-119209571D01*
X236473075Y-119209571D02*
X236777837Y-118942905D01*
X236777837Y-118942905D02*
X236777837Y-119057190D01*
X236777837Y-119057190D02*
X236815932Y-119133381D01*
X236815932Y-119133381D02*
X236854027Y-119171476D01*
X236854027Y-119171476D02*
X236930218Y-119209571D01*
X236930218Y-119209571D02*
X237120694Y-119209571D01*
X237120694Y-119209571D02*
X237196884Y-119171476D01*
X237196884Y-119171476D02*
X237234980Y-119133381D01*
X237234980Y-119133381D02*
X237273075Y-119057190D01*
X237273075Y-119057190D02*
X237273075Y-118828619D01*
X237273075Y-118828619D02*
X237234980Y-118752428D01*
X237234980Y-118752428D02*
X237196884Y-118714333D01*
X224573075Y-117990524D02*
X223773075Y-117990524D01*
X223773075Y-117990524D02*
X223773075Y-118181000D01*
X223773075Y-118181000D02*
X223811170Y-118295286D01*
X223811170Y-118295286D02*
X223887360Y-118371476D01*
X223887360Y-118371476D02*
X223963551Y-118409571D01*
X223963551Y-118409571D02*
X224115932Y-118447667D01*
X224115932Y-118447667D02*
X224230218Y-118447667D01*
X224230218Y-118447667D02*
X224382599Y-118409571D01*
X224382599Y-118409571D02*
X224458789Y-118371476D01*
X224458789Y-118371476D02*
X224534980Y-118295286D01*
X224534980Y-118295286D02*
X224573075Y-118181000D01*
X224573075Y-118181000D02*
X224573075Y-117990524D01*
X223773075Y-118942905D02*
X223773075Y-119019095D01*
X223773075Y-119019095D02*
X223811170Y-119095286D01*
X223811170Y-119095286D02*
X223849265Y-119133381D01*
X223849265Y-119133381D02*
X223925456Y-119171476D01*
X223925456Y-119171476D02*
X224077837Y-119209571D01*
X224077837Y-119209571D02*
X224268313Y-119209571D01*
X224268313Y-119209571D02*
X224420694Y-119171476D01*
X224420694Y-119171476D02*
X224496884Y-119133381D01*
X224496884Y-119133381D02*
X224534980Y-119095286D01*
X224534980Y-119095286D02*
X224573075Y-119019095D01*
X224573075Y-119019095D02*
X224573075Y-118942905D01*
X224573075Y-118942905D02*
X224534980Y-118866714D01*
X224534980Y-118866714D02*
X224496884Y-118828619D01*
X224496884Y-118828619D02*
X224420694Y-118790524D01*
X224420694Y-118790524D02*
X224268313Y-118752428D01*
X224268313Y-118752428D02*
X224077837Y-118752428D01*
X224077837Y-118752428D02*
X223925456Y-118790524D01*
X223925456Y-118790524D02*
X223849265Y-118828619D01*
X223849265Y-118828619D02*
X223811170Y-118866714D01*
X223811170Y-118866714D02*
X223773075Y-118942905D01*
X234733075Y-117990524D02*
X233933075Y-117990524D01*
X233933075Y-117990524D02*
X233933075Y-118181000D01*
X233933075Y-118181000D02*
X233971170Y-118295286D01*
X233971170Y-118295286D02*
X234047360Y-118371476D01*
X234047360Y-118371476D02*
X234123551Y-118409571D01*
X234123551Y-118409571D02*
X234275932Y-118447667D01*
X234275932Y-118447667D02*
X234390218Y-118447667D01*
X234390218Y-118447667D02*
X234542599Y-118409571D01*
X234542599Y-118409571D02*
X234618789Y-118371476D01*
X234618789Y-118371476D02*
X234694980Y-118295286D01*
X234694980Y-118295286D02*
X234733075Y-118181000D01*
X234733075Y-118181000D02*
X234733075Y-117990524D01*
X234009265Y-118752428D02*
X233971170Y-118790524D01*
X233971170Y-118790524D02*
X233933075Y-118866714D01*
X233933075Y-118866714D02*
X233933075Y-119057190D01*
X233933075Y-119057190D02*
X233971170Y-119133381D01*
X233971170Y-119133381D02*
X234009265Y-119171476D01*
X234009265Y-119171476D02*
X234085456Y-119209571D01*
X234085456Y-119209571D02*
X234161646Y-119209571D01*
X234161646Y-119209571D02*
X234275932Y-119171476D01*
X234275932Y-119171476D02*
X234733075Y-118714333D01*
X234733075Y-118714333D02*
X234733075Y-119209571D01*
X234428303Y-106897218D02*
X234428303Y-107278171D01*
X234656875Y-106821028D02*
X233856875Y-107087695D01*
X233856875Y-107087695D02*
X234656875Y-107354361D01*
X233856875Y-107544837D02*
X233856875Y-108040075D01*
X233856875Y-108040075D02*
X234161637Y-107773409D01*
X234161637Y-107773409D02*
X234161637Y-107887694D01*
X234161637Y-107887694D02*
X234199732Y-107963885D01*
X234199732Y-107963885D02*
X234237827Y-108001980D01*
X234237827Y-108001980D02*
X234314018Y-108040075D01*
X234314018Y-108040075D02*
X234504494Y-108040075D01*
X234504494Y-108040075D02*
X234580684Y-108001980D01*
X234580684Y-108001980D02*
X234618780Y-107963885D01*
X234618780Y-107963885D02*
X234656875Y-107887694D01*
X234656875Y-107887694D02*
X234656875Y-107659123D01*
X234656875Y-107659123D02*
X234618780Y-107582932D01*
X234618780Y-107582932D02*
X234580684Y-107544837D01*
X233818780Y-108954361D02*
X234847351Y-108268647D01*
X233933065Y-109182932D02*
X233894970Y-109221028D01*
X233894970Y-109221028D02*
X233856875Y-109297218D01*
X233856875Y-109297218D02*
X233856875Y-109487694D01*
X233856875Y-109487694D02*
X233894970Y-109563885D01*
X233894970Y-109563885D02*
X233933065Y-109601980D01*
X233933065Y-109601980D02*
X234009256Y-109640075D01*
X234009256Y-109640075D02*
X234085446Y-109640075D01*
X234085446Y-109640075D02*
X234199732Y-109601980D01*
X234199732Y-109601980D02*
X234656875Y-109144837D01*
X234656875Y-109144837D02*
X234656875Y-109640075D01*
X234656875Y-110021028D02*
X234656875Y-110173409D01*
X234656875Y-110173409D02*
X234618780Y-110249599D01*
X234618780Y-110249599D02*
X234580684Y-110287695D01*
X234580684Y-110287695D02*
X234466399Y-110363885D01*
X234466399Y-110363885D02*
X234314018Y-110401980D01*
X234314018Y-110401980D02*
X234009256Y-110401980D01*
X234009256Y-110401980D02*
X233933065Y-110363885D01*
X233933065Y-110363885D02*
X233894970Y-110325790D01*
X233894970Y-110325790D02*
X233856875Y-110249599D01*
X233856875Y-110249599D02*
X233856875Y-110097218D01*
X233856875Y-110097218D02*
X233894970Y-110021028D01*
X233894970Y-110021028D02*
X233933065Y-109982933D01*
X233933065Y-109982933D02*
X234009256Y-109944837D01*
X234009256Y-109944837D02*
X234199732Y-109944837D01*
X234199732Y-109944837D02*
X234275922Y-109982933D01*
X234275922Y-109982933D02*
X234314018Y-110021028D01*
X234314018Y-110021028D02*
X234352113Y-110097218D01*
X234352113Y-110097218D02*
X234352113Y-110249599D01*
X234352113Y-110249599D02*
X234314018Y-110325790D01*
X234314018Y-110325790D02*
X234275922Y-110363885D01*
X234275922Y-110363885D02*
X234199732Y-110401980D01*
X242048303Y-106897218D02*
X242048303Y-107278171D01*
X242276875Y-106821028D02*
X241476875Y-107087695D01*
X241476875Y-107087695D02*
X242276875Y-107354361D01*
X241476875Y-107773409D02*
X241476875Y-107849599D01*
X241476875Y-107849599D02*
X241514970Y-107925790D01*
X241514970Y-107925790D02*
X241553065Y-107963885D01*
X241553065Y-107963885D02*
X241629256Y-108001980D01*
X241629256Y-108001980D02*
X241781637Y-108040075D01*
X241781637Y-108040075D02*
X241972113Y-108040075D01*
X241972113Y-108040075D02*
X242124494Y-108001980D01*
X242124494Y-108001980D02*
X242200684Y-107963885D01*
X242200684Y-107963885D02*
X242238780Y-107925790D01*
X242238780Y-107925790D02*
X242276875Y-107849599D01*
X242276875Y-107849599D02*
X242276875Y-107773409D01*
X242276875Y-107773409D02*
X242238780Y-107697218D01*
X242238780Y-107697218D02*
X242200684Y-107659123D01*
X242200684Y-107659123D02*
X242124494Y-107621028D01*
X242124494Y-107621028D02*
X241972113Y-107582932D01*
X241972113Y-107582932D02*
X241781637Y-107582932D01*
X241781637Y-107582932D02*
X241629256Y-107621028D01*
X241629256Y-107621028D02*
X241553065Y-107659123D01*
X241553065Y-107659123D02*
X241514970Y-107697218D01*
X241514970Y-107697218D02*
X241476875Y-107773409D01*
X241438780Y-108954361D02*
X242467351Y-108268647D01*
X241553065Y-109182932D02*
X241514970Y-109221028D01*
X241514970Y-109221028D02*
X241476875Y-109297218D01*
X241476875Y-109297218D02*
X241476875Y-109487694D01*
X241476875Y-109487694D02*
X241514970Y-109563885D01*
X241514970Y-109563885D02*
X241553065Y-109601980D01*
X241553065Y-109601980D02*
X241629256Y-109640075D01*
X241629256Y-109640075D02*
X241705446Y-109640075D01*
X241705446Y-109640075D02*
X241819732Y-109601980D01*
X241819732Y-109601980D02*
X242276875Y-109144837D01*
X242276875Y-109144837D02*
X242276875Y-109640075D01*
X241476875Y-110325790D02*
X241476875Y-110173409D01*
X241476875Y-110173409D02*
X241514970Y-110097218D01*
X241514970Y-110097218D02*
X241553065Y-110059123D01*
X241553065Y-110059123D02*
X241667351Y-109982933D01*
X241667351Y-109982933D02*
X241819732Y-109944837D01*
X241819732Y-109944837D02*
X242124494Y-109944837D01*
X242124494Y-109944837D02*
X242200684Y-109982933D01*
X242200684Y-109982933D02*
X242238780Y-110021028D01*
X242238780Y-110021028D02*
X242276875Y-110097218D01*
X242276875Y-110097218D02*
X242276875Y-110249599D01*
X242276875Y-110249599D02*
X242238780Y-110325790D01*
X242238780Y-110325790D02*
X242200684Y-110363885D01*
X242200684Y-110363885D02*
X242124494Y-110401980D01*
X242124494Y-110401980D02*
X241934018Y-110401980D01*
X241934018Y-110401980D02*
X241857827Y-110363885D01*
X241857827Y-110363885D02*
X241819732Y-110325790D01*
X241819732Y-110325790D02*
X241781637Y-110249599D01*
X241781637Y-110249599D02*
X241781637Y-110097218D01*
X241781637Y-110097218D02*
X241819732Y-110021028D01*
X241819732Y-110021028D02*
X241857827Y-109982933D01*
X241857827Y-109982933D02*
X241934018Y-109944837D01*
X247433075Y-117990524D02*
X246633075Y-117990524D01*
X246633075Y-117990524D02*
X246633075Y-118181000D01*
X246633075Y-118181000D02*
X246671170Y-118295286D01*
X246671170Y-118295286D02*
X246747360Y-118371476D01*
X246747360Y-118371476D02*
X246823551Y-118409571D01*
X246823551Y-118409571D02*
X246975932Y-118447667D01*
X246975932Y-118447667D02*
X247090218Y-118447667D01*
X247090218Y-118447667D02*
X247242599Y-118409571D01*
X247242599Y-118409571D02*
X247318789Y-118371476D01*
X247318789Y-118371476D02*
X247394980Y-118295286D01*
X247394980Y-118295286D02*
X247433075Y-118181000D01*
X247433075Y-118181000D02*
X247433075Y-117990524D01*
X246633075Y-118714333D02*
X246633075Y-119247667D01*
X246633075Y-119247667D02*
X247433075Y-118904809D01*
X239508303Y-106897218D02*
X239508303Y-107278171D01*
X239736875Y-106821028D02*
X238936875Y-107087695D01*
X238936875Y-107087695D02*
X239736875Y-107354361D01*
X239736875Y-108040075D02*
X239736875Y-107582932D01*
X239736875Y-107811504D02*
X238936875Y-107811504D01*
X238936875Y-107811504D02*
X239051160Y-107735313D01*
X239051160Y-107735313D02*
X239127351Y-107659123D01*
X239127351Y-107659123D02*
X239165446Y-107582932D01*
X238898780Y-108954361D02*
X239927351Y-108268647D01*
X239013065Y-109182932D02*
X238974970Y-109221028D01*
X238974970Y-109221028D02*
X238936875Y-109297218D01*
X238936875Y-109297218D02*
X238936875Y-109487694D01*
X238936875Y-109487694D02*
X238974970Y-109563885D01*
X238974970Y-109563885D02*
X239013065Y-109601980D01*
X239013065Y-109601980D02*
X239089256Y-109640075D01*
X239089256Y-109640075D02*
X239165446Y-109640075D01*
X239165446Y-109640075D02*
X239279732Y-109601980D01*
X239279732Y-109601980D02*
X239736875Y-109144837D01*
X239736875Y-109144837D02*
X239736875Y-109640075D01*
X238936875Y-109906742D02*
X238936875Y-110440076D01*
X238936875Y-110440076D02*
X239736875Y-110097218D01*
X222033075Y-117495238D02*
X221233075Y-117495238D01*
X221233075Y-117495238D02*
X221233075Y-117685714D01*
X221233075Y-117685714D02*
X221271170Y-117800000D01*
X221271170Y-117800000D02*
X221347360Y-117876190D01*
X221347360Y-117876190D02*
X221423551Y-117914285D01*
X221423551Y-117914285D02*
X221575932Y-117952381D01*
X221575932Y-117952381D02*
X221690218Y-117952381D01*
X221690218Y-117952381D02*
X221842599Y-117914285D01*
X221842599Y-117914285D02*
X221918789Y-117876190D01*
X221918789Y-117876190D02*
X221994980Y-117800000D01*
X221994980Y-117800000D02*
X222033075Y-117685714D01*
X222033075Y-117685714D02*
X222033075Y-117495238D01*
X221728313Y-118295238D02*
X221728313Y-118904762D01*
X222033075Y-118600000D02*
X221423551Y-118600000D01*
X227113075Y-117990524D02*
X226313075Y-117990524D01*
X226313075Y-117990524D02*
X226313075Y-118181000D01*
X226313075Y-118181000D02*
X226351170Y-118295286D01*
X226351170Y-118295286D02*
X226427360Y-118371476D01*
X226427360Y-118371476D02*
X226503551Y-118409571D01*
X226503551Y-118409571D02*
X226655932Y-118447667D01*
X226655932Y-118447667D02*
X226770218Y-118447667D01*
X226770218Y-118447667D02*
X226922599Y-118409571D01*
X226922599Y-118409571D02*
X226998789Y-118371476D01*
X226998789Y-118371476D02*
X227074980Y-118295286D01*
X227074980Y-118295286D02*
X227113075Y-118181000D01*
X227113075Y-118181000D02*
X227113075Y-117990524D01*
X227113075Y-119209571D02*
X227113075Y-118752428D01*
X227113075Y-118981000D02*
X226313075Y-118981000D01*
X226313075Y-118981000D02*
X226427360Y-118904809D01*
X226427360Y-118904809D02*
X226503551Y-118828619D01*
X226503551Y-118828619D02*
X226541646Y-118752428D01*
X231342275Y-106960647D02*
X231342275Y-107455885D01*
X231342275Y-107455885D02*
X231647037Y-107189219D01*
X231647037Y-107189219D02*
X231647037Y-107303504D01*
X231647037Y-107303504D02*
X231685132Y-107379695D01*
X231685132Y-107379695D02*
X231723227Y-107417790D01*
X231723227Y-107417790D02*
X231799418Y-107455885D01*
X231799418Y-107455885D02*
X231989894Y-107455885D01*
X231989894Y-107455885D02*
X232066084Y-107417790D01*
X232066084Y-107417790D02*
X232104180Y-107379695D01*
X232104180Y-107379695D02*
X232142275Y-107303504D01*
X232142275Y-107303504D02*
X232142275Y-107074933D01*
X232142275Y-107074933D02*
X232104180Y-106998742D01*
X232104180Y-106998742D02*
X232066084Y-106960647D01*
X232066084Y-107798743D02*
X232104180Y-107836838D01*
X232104180Y-107836838D02*
X232142275Y-107798743D01*
X232142275Y-107798743D02*
X232104180Y-107760647D01*
X232104180Y-107760647D02*
X232066084Y-107798743D01*
X232066084Y-107798743D02*
X232142275Y-107798743D01*
X231342275Y-108103504D02*
X231342275Y-108598742D01*
X231342275Y-108598742D02*
X231647037Y-108332076D01*
X231647037Y-108332076D02*
X231647037Y-108446361D01*
X231647037Y-108446361D02*
X231685132Y-108522552D01*
X231685132Y-108522552D02*
X231723227Y-108560647D01*
X231723227Y-108560647D02*
X231799418Y-108598742D01*
X231799418Y-108598742D02*
X231989894Y-108598742D01*
X231989894Y-108598742D02*
X232066084Y-108560647D01*
X232066084Y-108560647D02*
X232104180Y-108522552D01*
X232104180Y-108522552D02*
X232142275Y-108446361D01*
X232142275Y-108446361D02*
X232142275Y-108217790D01*
X232142275Y-108217790D02*
X232104180Y-108141599D01*
X232104180Y-108141599D02*
X232066084Y-108103504D01*
X231342275Y-108827314D02*
X232142275Y-109093981D01*
X232142275Y-109093981D02*
X231342275Y-109360647D01*
X249896875Y-106871905D02*
X249096875Y-106871905D01*
X249096875Y-106871905D02*
X249668303Y-107138571D01*
X249668303Y-107138571D02*
X249096875Y-107405238D01*
X249096875Y-107405238D02*
X249896875Y-107405238D01*
X249096875Y-107938572D02*
X249096875Y-108090953D01*
X249096875Y-108090953D02*
X249134970Y-108167143D01*
X249134970Y-108167143D02*
X249211160Y-108243334D01*
X249211160Y-108243334D02*
X249363541Y-108281429D01*
X249363541Y-108281429D02*
X249630208Y-108281429D01*
X249630208Y-108281429D02*
X249782589Y-108243334D01*
X249782589Y-108243334D02*
X249858780Y-108167143D01*
X249858780Y-108167143D02*
X249896875Y-108090953D01*
X249896875Y-108090953D02*
X249896875Y-107938572D01*
X249896875Y-107938572D02*
X249858780Y-107862381D01*
X249858780Y-107862381D02*
X249782589Y-107786191D01*
X249782589Y-107786191D02*
X249630208Y-107748095D01*
X249630208Y-107748095D02*
X249363541Y-107748095D01*
X249363541Y-107748095D02*
X249211160Y-107786191D01*
X249211160Y-107786191D02*
X249134970Y-107862381D01*
X249134970Y-107862381D02*
X249096875Y-107938572D01*
X249858780Y-108586190D02*
X249896875Y-108700476D01*
X249896875Y-108700476D02*
X249896875Y-108890952D01*
X249896875Y-108890952D02*
X249858780Y-108967143D01*
X249858780Y-108967143D02*
X249820684Y-109005238D01*
X249820684Y-109005238D02*
X249744494Y-109043333D01*
X249744494Y-109043333D02*
X249668303Y-109043333D01*
X249668303Y-109043333D02*
X249592113Y-109005238D01*
X249592113Y-109005238D02*
X249554018Y-108967143D01*
X249554018Y-108967143D02*
X249515922Y-108890952D01*
X249515922Y-108890952D02*
X249477827Y-108738571D01*
X249477827Y-108738571D02*
X249439732Y-108662381D01*
X249439732Y-108662381D02*
X249401637Y-108624286D01*
X249401637Y-108624286D02*
X249325446Y-108586190D01*
X249325446Y-108586190D02*
X249249256Y-108586190D01*
X249249256Y-108586190D02*
X249173065Y-108624286D01*
X249173065Y-108624286D02*
X249134970Y-108662381D01*
X249134970Y-108662381D02*
X249096875Y-108738571D01*
X249096875Y-108738571D02*
X249096875Y-108929048D01*
X249096875Y-108929048D02*
X249134970Y-109043333D01*
X249896875Y-109386191D02*
X249096875Y-109386191D01*
X249058780Y-110338571D02*
X250087351Y-109652857D01*
X249896875Y-111024285D02*
X249896875Y-110567142D01*
X249896875Y-110795714D02*
X249096875Y-110795714D01*
X249096875Y-110795714D02*
X249211160Y-110719523D01*
X249211160Y-110719523D02*
X249287351Y-110643333D01*
X249287351Y-110643333D02*
X249325446Y-110567142D01*
X249896875Y-111405238D02*
X249896875Y-111557619D01*
X249896875Y-111557619D02*
X249858780Y-111633809D01*
X249858780Y-111633809D02*
X249820684Y-111671905D01*
X249820684Y-111671905D02*
X249706399Y-111748095D01*
X249706399Y-111748095D02*
X249554018Y-111786190D01*
X249554018Y-111786190D02*
X249249256Y-111786190D01*
X249249256Y-111786190D02*
X249173065Y-111748095D01*
X249173065Y-111748095D02*
X249134970Y-111710000D01*
X249134970Y-111710000D02*
X249096875Y-111633809D01*
X249096875Y-111633809D02*
X249096875Y-111481428D01*
X249096875Y-111481428D02*
X249134970Y-111405238D01*
X249134970Y-111405238D02*
X249173065Y-111367143D01*
X249173065Y-111367143D02*
X249249256Y-111329047D01*
X249249256Y-111329047D02*
X249439732Y-111329047D01*
X249439732Y-111329047D02*
X249515922Y-111367143D01*
X249515922Y-111367143D02*
X249554018Y-111405238D01*
X249554018Y-111405238D02*
X249592113Y-111481428D01*
X249592113Y-111481428D02*
X249592113Y-111633809D01*
X249592113Y-111633809D02*
X249554018Y-111710000D01*
X249554018Y-111710000D02*
X249515922Y-111748095D01*
X249515922Y-111748095D02*
X249439732Y-111786190D01*
X252487675Y-106916171D02*
X251687675Y-106916171D01*
X251687675Y-106916171D02*
X251687675Y-107106647D01*
X251687675Y-107106647D02*
X251725770Y-107220933D01*
X251725770Y-107220933D02*
X251801960Y-107297123D01*
X251801960Y-107297123D02*
X251878151Y-107335218D01*
X251878151Y-107335218D02*
X252030532Y-107373314D01*
X252030532Y-107373314D02*
X252144818Y-107373314D01*
X252144818Y-107373314D02*
X252297199Y-107335218D01*
X252297199Y-107335218D02*
X252373389Y-107297123D01*
X252373389Y-107297123D02*
X252449580Y-107220933D01*
X252449580Y-107220933D02*
X252487675Y-107106647D01*
X252487675Y-107106647D02*
X252487675Y-106916171D01*
X252487675Y-108135218D02*
X252487675Y-107678075D01*
X252487675Y-107906647D02*
X251687675Y-107906647D01*
X251687675Y-107906647D02*
X251801960Y-107830456D01*
X251801960Y-107830456D02*
X251878151Y-107754266D01*
X251878151Y-107754266D02*
X251916246Y-107678075D01*
X251687675Y-108630457D02*
X251687675Y-108706647D01*
X251687675Y-108706647D02*
X251725770Y-108782838D01*
X251725770Y-108782838D02*
X251763865Y-108820933D01*
X251763865Y-108820933D02*
X251840056Y-108859028D01*
X251840056Y-108859028D02*
X251992437Y-108897123D01*
X251992437Y-108897123D02*
X252182913Y-108897123D01*
X252182913Y-108897123D02*
X252335294Y-108859028D01*
X252335294Y-108859028D02*
X252411484Y-108820933D01*
X252411484Y-108820933D02*
X252449580Y-108782838D01*
X252449580Y-108782838D02*
X252487675Y-108706647D01*
X252487675Y-108706647D02*
X252487675Y-108630457D01*
X252487675Y-108630457D02*
X252449580Y-108554266D01*
X252449580Y-108554266D02*
X252411484Y-108516171D01*
X252411484Y-108516171D02*
X252335294Y-108478076D01*
X252335294Y-108478076D02*
X252182913Y-108439980D01*
X252182913Y-108439980D02*
X251992437Y-108439980D01*
X251992437Y-108439980D02*
X251840056Y-108478076D01*
X251840056Y-108478076D02*
X251763865Y-108516171D01*
X251763865Y-108516171D02*
X251725770Y-108554266D01*
X251725770Y-108554266D02*
X251687675Y-108630457D01*
X252503075Y-118029524D02*
X251703075Y-118029524D01*
X251703075Y-118029524D02*
X251703075Y-118220000D01*
X251703075Y-118220000D02*
X251741170Y-118334286D01*
X251741170Y-118334286D02*
X251817360Y-118410476D01*
X251817360Y-118410476D02*
X251893551Y-118448571D01*
X251893551Y-118448571D02*
X252045932Y-118486667D01*
X252045932Y-118486667D02*
X252160218Y-118486667D01*
X252160218Y-118486667D02*
X252312599Y-118448571D01*
X252312599Y-118448571D02*
X252388789Y-118410476D01*
X252388789Y-118410476D02*
X252464980Y-118334286D01*
X252464980Y-118334286D02*
X252503075Y-118220000D01*
X252503075Y-118220000D02*
X252503075Y-118029524D01*
X252503075Y-118867619D02*
X252503075Y-119020000D01*
X252503075Y-119020000D02*
X252464980Y-119096190D01*
X252464980Y-119096190D02*
X252426884Y-119134286D01*
X252426884Y-119134286D02*
X252312599Y-119210476D01*
X252312599Y-119210476D02*
X252160218Y-119248571D01*
X252160218Y-119248571D02*
X251855456Y-119248571D01*
X251855456Y-119248571D02*
X251779265Y-119210476D01*
X251779265Y-119210476D02*
X251741170Y-119172381D01*
X251741170Y-119172381D02*
X251703075Y-119096190D01*
X251703075Y-119096190D02*
X251703075Y-118943809D01*
X251703075Y-118943809D02*
X251741170Y-118867619D01*
X251741170Y-118867619D02*
X251779265Y-118829524D01*
X251779265Y-118829524D02*
X251855456Y-118791428D01*
X251855456Y-118791428D02*
X252045932Y-118791428D01*
X252045932Y-118791428D02*
X252122122Y-118829524D01*
X252122122Y-118829524D02*
X252160218Y-118867619D01*
X252160218Y-118867619D02*
X252198313Y-118943809D01*
X252198313Y-118943809D02*
X252198313Y-119096190D01*
X252198313Y-119096190D02*
X252160218Y-119172381D01*
X252160218Y-119172381D02*
X252122122Y-119210476D01*
X252122122Y-119210476D02*
X252045932Y-119248571D01*
X231354970Y-117768276D02*
X231316875Y-117692086D01*
X231316875Y-117692086D02*
X231316875Y-117577800D01*
X231316875Y-117577800D02*
X231354970Y-117463514D01*
X231354970Y-117463514D02*
X231431160Y-117387324D01*
X231431160Y-117387324D02*
X231507351Y-117349229D01*
X231507351Y-117349229D02*
X231659732Y-117311133D01*
X231659732Y-117311133D02*
X231774018Y-117311133D01*
X231774018Y-117311133D02*
X231926399Y-117349229D01*
X231926399Y-117349229D02*
X232002589Y-117387324D01*
X232002589Y-117387324D02*
X232078780Y-117463514D01*
X232078780Y-117463514D02*
X232116875Y-117577800D01*
X232116875Y-117577800D02*
X232116875Y-117653991D01*
X232116875Y-117653991D02*
X232078780Y-117768276D01*
X232078780Y-117768276D02*
X232040684Y-117806372D01*
X232040684Y-117806372D02*
X231774018Y-117806372D01*
X231774018Y-117806372D02*
X231774018Y-117653991D01*
X232116875Y-118149229D02*
X231316875Y-118149229D01*
X231316875Y-118149229D02*
X232116875Y-118606372D01*
X232116875Y-118606372D02*
X231316875Y-118606372D01*
X232116875Y-118987324D02*
X231316875Y-118987324D01*
X231316875Y-118987324D02*
X231316875Y-119177800D01*
X231316875Y-119177800D02*
X231354970Y-119292086D01*
X231354970Y-119292086D02*
X231431160Y-119368276D01*
X231431160Y-119368276D02*
X231507351Y-119406371D01*
X231507351Y-119406371D02*
X231659732Y-119444467D01*
X231659732Y-119444467D02*
X231774018Y-119444467D01*
X231774018Y-119444467D02*
X231926399Y-119406371D01*
X231926399Y-119406371D02*
X232002589Y-119368276D01*
X232002589Y-119368276D02*
X232078780Y-119292086D01*
X232078780Y-119292086D02*
X232116875Y-119177800D01*
X232116875Y-119177800D02*
X232116875Y-118987324D01*
X224573075Y-107106619D02*
X224192122Y-106839952D01*
X224573075Y-106649476D02*
X223773075Y-106649476D01*
X223773075Y-106649476D02*
X223773075Y-106954238D01*
X223773075Y-106954238D02*
X223811170Y-107030428D01*
X223811170Y-107030428D02*
X223849265Y-107068523D01*
X223849265Y-107068523D02*
X223925456Y-107106619D01*
X223925456Y-107106619D02*
X224039741Y-107106619D01*
X224039741Y-107106619D02*
X224115932Y-107068523D01*
X224115932Y-107068523D02*
X224154027Y-107030428D01*
X224154027Y-107030428D02*
X224192122Y-106954238D01*
X224192122Y-106954238D02*
X224192122Y-106649476D01*
X224344503Y-107411380D02*
X224344503Y-107792333D01*
X224573075Y-107335190D02*
X223773075Y-107601857D01*
X223773075Y-107601857D02*
X224573075Y-107868523D01*
X223773075Y-108058999D02*
X224573075Y-108249475D01*
X224573075Y-108249475D02*
X224001646Y-108401856D01*
X224001646Y-108401856D02*
X224573075Y-108554237D01*
X224573075Y-108554237D02*
X223773075Y-108744714D01*
X249973075Y-117990524D02*
X249173075Y-117990524D01*
X249173075Y-117990524D02*
X249173075Y-118181000D01*
X249173075Y-118181000D02*
X249211170Y-118295286D01*
X249211170Y-118295286D02*
X249287360Y-118371476D01*
X249287360Y-118371476D02*
X249363551Y-118409571D01*
X249363551Y-118409571D02*
X249515932Y-118447667D01*
X249515932Y-118447667D02*
X249630218Y-118447667D01*
X249630218Y-118447667D02*
X249782599Y-118409571D01*
X249782599Y-118409571D02*
X249858789Y-118371476D01*
X249858789Y-118371476D02*
X249934980Y-118295286D01*
X249934980Y-118295286D02*
X249973075Y-118181000D01*
X249973075Y-118181000D02*
X249973075Y-117990524D01*
X249515932Y-118904809D02*
X249477837Y-118828619D01*
X249477837Y-118828619D02*
X249439741Y-118790524D01*
X249439741Y-118790524D02*
X249363551Y-118752428D01*
X249363551Y-118752428D02*
X249325456Y-118752428D01*
X249325456Y-118752428D02*
X249249265Y-118790524D01*
X249249265Y-118790524D02*
X249211170Y-118828619D01*
X249211170Y-118828619D02*
X249173075Y-118904809D01*
X249173075Y-118904809D02*
X249173075Y-119057190D01*
X249173075Y-119057190D02*
X249211170Y-119133381D01*
X249211170Y-119133381D02*
X249249265Y-119171476D01*
X249249265Y-119171476D02*
X249325456Y-119209571D01*
X249325456Y-119209571D02*
X249363551Y-119209571D01*
X249363551Y-119209571D02*
X249439741Y-119171476D01*
X249439741Y-119171476D02*
X249477837Y-119133381D01*
X249477837Y-119133381D02*
X249515932Y-119057190D01*
X249515932Y-119057190D02*
X249515932Y-118904809D01*
X249515932Y-118904809D02*
X249554027Y-118828619D01*
X249554027Y-118828619D02*
X249592122Y-118790524D01*
X249592122Y-118790524D02*
X249668313Y-118752428D01*
X249668313Y-118752428D02*
X249820694Y-118752428D01*
X249820694Y-118752428D02*
X249896884Y-118790524D01*
X249896884Y-118790524D02*
X249934980Y-118828619D01*
X249934980Y-118828619D02*
X249973075Y-118904809D01*
X249973075Y-118904809D02*
X249973075Y-119057190D01*
X249973075Y-119057190D02*
X249934980Y-119133381D01*
X249934980Y-119133381D02*
X249896884Y-119171476D01*
X249896884Y-119171476D02*
X249820694Y-119209571D01*
X249820694Y-119209571D02*
X249668313Y-119209571D01*
X249668313Y-119209571D02*
X249592122Y-119171476D01*
X249592122Y-119171476D02*
X249554027Y-119133381D01*
X249554027Y-119133381D02*
X249515932Y-119057190D01*
X247356875Y-106871905D02*
X246556875Y-106871905D01*
X246556875Y-106871905D02*
X247128303Y-107138571D01*
X247128303Y-107138571D02*
X246556875Y-107405238D01*
X246556875Y-107405238D02*
X247356875Y-107405238D01*
X247356875Y-107786191D02*
X246556875Y-107786191D01*
X247318780Y-108129047D02*
X247356875Y-108243333D01*
X247356875Y-108243333D02*
X247356875Y-108433809D01*
X247356875Y-108433809D02*
X247318780Y-108510000D01*
X247318780Y-108510000D02*
X247280684Y-108548095D01*
X247280684Y-108548095D02*
X247204494Y-108586190D01*
X247204494Y-108586190D02*
X247128303Y-108586190D01*
X247128303Y-108586190D02*
X247052113Y-108548095D01*
X247052113Y-108548095D02*
X247014018Y-108510000D01*
X247014018Y-108510000D02*
X246975922Y-108433809D01*
X246975922Y-108433809D02*
X246937827Y-108281428D01*
X246937827Y-108281428D02*
X246899732Y-108205238D01*
X246899732Y-108205238D02*
X246861637Y-108167143D01*
X246861637Y-108167143D02*
X246785446Y-108129047D01*
X246785446Y-108129047D02*
X246709256Y-108129047D01*
X246709256Y-108129047D02*
X246633065Y-108167143D01*
X246633065Y-108167143D02*
X246594970Y-108205238D01*
X246594970Y-108205238D02*
X246556875Y-108281428D01*
X246556875Y-108281428D02*
X246556875Y-108471905D01*
X246556875Y-108471905D02*
X246594970Y-108586190D01*
X246556875Y-109081429D02*
X246556875Y-109233810D01*
X246556875Y-109233810D02*
X246594970Y-109310000D01*
X246594970Y-109310000D02*
X246671160Y-109386191D01*
X246671160Y-109386191D02*
X246823541Y-109424286D01*
X246823541Y-109424286D02*
X247090208Y-109424286D01*
X247090208Y-109424286D02*
X247242589Y-109386191D01*
X247242589Y-109386191D02*
X247318780Y-109310000D01*
X247318780Y-109310000D02*
X247356875Y-109233810D01*
X247356875Y-109233810D02*
X247356875Y-109081429D01*
X247356875Y-109081429D02*
X247318780Y-109005238D01*
X247318780Y-109005238D02*
X247242589Y-108929048D01*
X247242589Y-108929048D02*
X247090208Y-108890952D01*
X247090208Y-108890952D02*
X246823541Y-108890952D01*
X246823541Y-108890952D02*
X246671160Y-108929048D01*
X246671160Y-108929048D02*
X246594970Y-109005238D01*
X246594970Y-109005238D02*
X246556875Y-109081429D01*
X246518780Y-110338571D02*
X247547351Y-109652857D01*
X246633065Y-110567142D02*
X246594970Y-110605238D01*
X246594970Y-110605238D02*
X246556875Y-110681428D01*
X246556875Y-110681428D02*
X246556875Y-110871904D01*
X246556875Y-110871904D02*
X246594970Y-110948095D01*
X246594970Y-110948095D02*
X246633065Y-110986190D01*
X246633065Y-110986190D02*
X246709256Y-111024285D01*
X246709256Y-111024285D02*
X246785446Y-111024285D01*
X246785446Y-111024285D02*
X246899732Y-110986190D01*
X246899732Y-110986190D02*
X247356875Y-110529047D01*
X247356875Y-110529047D02*
X247356875Y-111024285D01*
X246556875Y-111519524D02*
X246556875Y-111595714D01*
X246556875Y-111595714D02*
X246594970Y-111671905D01*
X246594970Y-111671905D02*
X246633065Y-111710000D01*
X246633065Y-111710000D02*
X246709256Y-111748095D01*
X246709256Y-111748095D02*
X246861637Y-111786190D01*
X246861637Y-111786190D02*
X247052113Y-111786190D01*
X247052113Y-111786190D02*
X247204494Y-111748095D01*
X247204494Y-111748095D02*
X247280684Y-111710000D01*
X247280684Y-111710000D02*
X247318780Y-111671905D01*
X247318780Y-111671905D02*
X247356875Y-111595714D01*
X247356875Y-111595714D02*
X247356875Y-111519524D01*
X247356875Y-111519524D02*
X247318780Y-111443333D01*
X247318780Y-111443333D02*
X247280684Y-111405238D01*
X247280684Y-111405238D02*
X247204494Y-111367143D01*
X247204494Y-111367143D02*
X247052113Y-111329047D01*
X247052113Y-111329047D02*
X246861637Y-111329047D01*
X246861637Y-111329047D02*
X246709256Y-111367143D01*
X246709256Y-111367143D02*
X246633065Y-111405238D01*
X246633065Y-111405238D02*
X246594970Y-111443333D01*
X246594970Y-111443333D02*
X246556875Y-111519524D01*
D11*
X120072248Y-163262911D02*
X115812515Y-164404303D01*
X115237937Y-162259948D02*
X119497670Y-161118556D01*
X115812515Y-164404303D02*
X115237937Y-162259948D01*
X136980000Y-160760000D02*
X136980000Y-158540000D01*
X136980000Y-158540000D02*
X141390000Y-158540000D01*
X141390000Y-160760000D02*
X136980000Y-160760000D01*
X158552582Y-160522918D02*
X162812315Y-161664310D01*
X157978004Y-162667273D02*
X158552582Y-160522918D01*
X162237737Y-163808665D02*
X157978004Y-162667273D01*
X259675545Y-172112667D02*
X255856373Y-174317667D01*
X255856373Y-174317667D02*
X254746373Y-172395091D01*
X254746373Y-172395091D02*
X258565545Y-170190091D01*
X279178268Y-164471096D02*
X274918535Y-165612488D01*
X274918535Y-165612488D02*
X274343957Y-163468133D01*
X274343957Y-163468133D02*
X278603690Y-162326741D01*
X86409782Y-120411290D02*
X82032653Y-120948734D01*
X82032653Y-120948734D02*
X81762103Y-118745281D01*
X81762103Y-118745281D02*
X86139232Y-118207837D01*
X88512029Y-137532711D02*
X84134900Y-138070155D01*
X84134900Y-138070155D02*
X83864350Y-135866702D01*
X83864350Y-135866702D02*
X88241479Y-135329258D01*
X90614275Y-154654132D02*
X86237146Y-155191576D01*
X86237146Y-155191576D02*
X85966596Y-152988123D01*
X85966596Y-152988123D02*
X90343725Y-152450679D01*
X320595614Y-165436963D02*
X316335881Y-164295571D01*
X316910459Y-162151216D02*
X321170192Y-163292608D01*
X316335881Y-164295571D02*
X316910459Y-162151216D01*
X350179435Y-156507841D02*
X345802306Y-155970397D01*
X346072856Y-153766944D02*
X350449985Y-154304388D01*
X345802306Y-155970397D02*
X346072856Y-153766944D01*
X354383928Y-122264998D02*
X350006799Y-121727554D01*
X350277349Y-119524101D02*
X354654478Y-120061545D01*
X350006799Y-121727554D02*
X350277349Y-119524101D01*
X352281681Y-139386419D02*
X347904552Y-138848975D01*
X348175102Y-136645522D02*
X352552231Y-137182966D01*
X347904552Y-138848975D02*
X348175102Y-136645522D01*
D12*
X184830000Y-122035677D02*
X217850000Y-122035677D01*
X217850000Y-122035677D02*
X217850000Y-104255677D01*
X215310000Y-106795677D02*
X215310000Y-104255677D01*
X217850000Y-106795677D02*
X215310000Y-106795677D01*
X217850000Y-106795677D02*
X217850000Y-104255677D01*
X184830000Y-104255677D02*
X184830000Y-122035677D01*
X217850000Y-104255677D02*
X184830000Y-104255677D01*
D11*
X162430000Y-143825677D02*
X158020000Y-143825677D01*
X158020000Y-143825677D02*
X158020000Y-141605677D01*
X158020000Y-141605677D02*
X162430000Y-141605677D01*
X331930000Y-110060000D02*
X327520000Y-110060000D01*
X327520000Y-110060000D02*
X327520000Y-107840000D01*
X327520000Y-107840000D02*
X331930000Y-107840000D01*
X126930000Y-117605677D02*
X122520000Y-117605677D01*
X122520000Y-117605677D02*
X122520000Y-115385677D01*
X122520000Y-115385677D02*
X126930000Y-115385677D01*
X313804220Y-101860000D02*
X309394220Y-101860000D01*
X309394220Y-101860000D02*
X309394220Y-99640000D01*
X309394220Y-99640000D02*
X313804220Y-99640000D01*
X299880000Y-162200000D02*
X295470000Y-162200000D01*
X295470000Y-162200000D02*
X295470000Y-159980000D01*
X295470000Y-159980000D02*
X299880000Y-159980000D01*
X126930000Y-134825677D02*
X122520000Y-134825677D01*
X122520000Y-134825677D02*
X122520000Y-132605677D01*
X122520000Y-132605677D02*
X126930000Y-132605677D01*
X109180000Y-108325677D02*
X104770000Y-108325677D01*
X104770000Y-108325677D02*
X104770000Y-106105677D01*
X104770000Y-106105677D02*
X109180000Y-106105677D01*
X144680000Y-107325677D02*
X140270000Y-107325677D01*
X140270000Y-107325677D02*
X140270000Y-105105677D01*
X140270000Y-105105677D02*
X144680000Y-105105677D01*
X314180000Y-119110000D02*
X309770000Y-119110000D01*
X309770000Y-119110000D02*
X309770000Y-116890000D01*
X309770000Y-116890000D02*
X314180000Y-116890000D01*
X296430000Y-126360000D02*
X292020000Y-126360000D01*
X292020000Y-126360000D02*
X292020000Y-124140000D01*
X292020000Y-124140000D02*
X296430000Y-124140000D01*
X162430000Y-126575677D02*
X158020000Y-126575677D01*
X158020000Y-126575677D02*
X158020000Y-124355677D01*
X158020000Y-124355677D02*
X162430000Y-124355677D01*
X144680000Y-124575677D02*
X140270000Y-124575677D01*
X140270000Y-124575677D02*
X140270000Y-122355677D01*
X140270000Y-122355677D02*
X144680000Y-122355677D01*
X278680000Y-145550000D02*
X274270000Y-145550000D01*
X274270000Y-145550000D02*
X274270000Y-143330000D01*
X274270000Y-143330000D02*
X278680000Y-143330000D01*
X278680000Y-111050000D02*
X274270000Y-111050000D01*
X274270000Y-111050000D02*
X274270000Y-108830000D01*
X274270000Y-108830000D02*
X278680000Y-108830000D01*
X296430000Y-143610000D02*
X292020000Y-143610000D01*
X292020000Y-143610000D02*
X292020000Y-141390000D01*
X292020000Y-141390000D02*
X296430000Y-141390000D01*
X162430000Y-109325677D02*
X158020000Y-109325677D01*
X158020000Y-109325677D02*
X158020000Y-107105677D01*
X158020000Y-107105677D02*
X162430000Y-107105677D01*
X109180000Y-125575677D02*
X104770000Y-125575677D01*
X104770000Y-125575677D02*
X104770000Y-123355677D01*
X104770000Y-123355677D02*
X109180000Y-123355677D01*
X314180000Y-136360000D02*
X309770000Y-136360000D01*
X309770000Y-136360000D02*
X309770000Y-134140000D01*
X309770000Y-134140000D02*
X314180000Y-134140000D01*
X126930000Y-100325677D02*
X122520000Y-100325677D01*
X122520000Y-100325677D02*
X122520000Y-98105677D01*
X122520000Y-98105677D02*
X126930000Y-98105677D01*
X331930000Y-127310000D02*
X327520000Y-127310000D01*
X327520000Y-127310000D02*
X327520000Y-125090000D01*
X327520000Y-125090000D02*
X331930000Y-125090000D01*
X109180000Y-142825677D02*
X104770000Y-142825677D01*
X104770000Y-142825677D02*
X104770000Y-140605677D01*
X104770000Y-140605677D02*
X109180000Y-140605677D01*
X296430000Y-109110000D02*
X292020000Y-109110000D01*
X292020000Y-109110000D02*
X292020000Y-106890000D01*
X292020000Y-106890000D02*
X296430000Y-106890000D01*
X179164603Y-168266053D02*
X182983775Y-170471053D01*
X178054603Y-170188629D02*
X179164603Y-168266053D01*
X181873775Y-172393629D02*
X178054603Y-170188629D01*
X278680000Y-128300000D02*
X274270000Y-128300000D01*
X274270000Y-128300000D02*
X274270000Y-126080000D01*
X274270000Y-126080000D02*
X278680000Y-126080000D01*
X331930000Y-144560000D02*
X327520000Y-144560000D01*
X327520000Y-144560000D02*
X327520000Y-142340000D01*
X327520000Y-142340000D02*
X331930000Y-142340000D01*
X144680000Y-141825677D02*
X140270000Y-141825677D01*
X140270000Y-141825677D02*
X140270000Y-139605677D01*
X140270000Y-139605677D02*
X144680000Y-139605677D01*
D12*
X253420780Y-104230000D02*
X220400780Y-104230000D01*
X220400780Y-104230000D02*
X220400780Y-122010000D01*
X222940780Y-119470000D02*
X222940780Y-122010000D01*
X220400780Y-119470000D02*
X222940780Y-119470000D01*
X220400780Y-119470000D02*
X220400780Y-122010000D01*
X253420780Y-122010000D02*
X253420780Y-104230000D01*
X220400780Y-122010000D02*
X253420780Y-122010000D01*
D13*
X186100000Y-120765677D03*
X188640000Y-120765677D03*
X191180000Y-120765677D03*
X193720000Y-120765677D03*
X196260000Y-120765677D03*
X198800000Y-120765677D03*
X201340000Y-120765677D03*
X203880000Y-120765677D03*
X206420000Y-120765677D03*
X208960000Y-120765677D03*
X211500000Y-120765677D03*
X214040000Y-120765677D03*
X216580000Y-120765677D03*
X186100000Y-105525677D03*
X188640000Y-105525677D03*
X191180000Y-105525677D03*
X193720000Y-105525677D03*
X196260000Y-105525677D03*
X198800000Y-105525677D03*
X201340000Y-105525677D03*
X203880000Y-105525677D03*
X206420000Y-105525677D03*
X208960000Y-105525677D03*
X211500000Y-105525677D03*
X214040000Y-105525677D03*
D14*
X216580000Y-105525677D03*
D13*
X252150780Y-105500000D03*
X249610780Y-105500000D03*
X247070780Y-105500000D03*
X244530780Y-105500000D03*
X241990780Y-105500000D03*
X239450780Y-105500000D03*
X236910780Y-105500000D03*
X234370780Y-105500000D03*
X231830780Y-105500000D03*
X229290780Y-105500000D03*
X226750780Y-105500000D03*
X224210780Y-105500000D03*
X221670780Y-105500000D03*
X252150780Y-120740000D03*
X249610780Y-120740000D03*
X247070780Y-120740000D03*
X244530780Y-120740000D03*
X241990780Y-120740000D03*
X239450780Y-120740000D03*
X236910780Y-120740000D03*
X234370780Y-120740000D03*
X231830780Y-120740000D03*
X229290780Y-120740000D03*
X226750780Y-120740000D03*
X224210780Y-120740000D03*
D14*
X221670780Y-120740000D03*
M02*
